<?xml version="1.0" encoding="utf-8"?>
<!-- Generator: Adobe Illustrator 25.4.1, SVG Export Plug-In . SVG Version: 6.00 Build 0)  -->
<svg version="1.1" id="certificate" xmlns="http://www.w3.org/2000/svg" xmlns:xlink="http://www.w3.org/1999/xlink" x="0px"
	 y="0px" viewBox="0 0 790 612" style="enable-background:new 0 0 790 612;" xml:space="preserve">
<style type="text/css">
	.st0{fill:#FFFFFF;}
	.st1{fill:#BA001D;}
	.st2{fill:#57BCAF;}
	.st3{fill:none;}
	.st4{font-family:'Effra-Medium';}
	.st5{font-size:66px;}
	.st6{font-family:'Effra-Regular';}
	.st7{font-size:17px;}
	.st8{font-family:'Effra-Bold';}
	.st9{font-size:21px;}
	.st10{fill:#09367B;}
	.st11{fill:#026649;}
	.st12{clip-path:url(#SVGID_00000124138297364960085300000011698745922163680435_);}
	.st13{clip-path:url(#SVGID_00000004508274034127104210000007422688034400467378_);}
	.st14{clip-path:url(#SVGID_00000163036495387094854580000011032729691120652204_);}
	.st15{fill:none;stroke:#999999;}
	.st16{fill:#51515A;stroke:#751284;stroke-width:0.49;stroke-miterlimit:10;}
	.st17{fill:#2DAEC0;stroke:#751284;stroke-width:0.49;stroke-miterlimit:10;}
	.st18{fill:#76ABD0;stroke:#751284;stroke-width:0.49;stroke-miterlimit:10;}
	.st19{fill:#76ABD0;stroke:#10157B;stroke-width:0.49;stroke-miterlimit:10;}
	.st20{fill:#FFFFFF;stroke:#4D037D;stroke-width:0.49;stroke-miterlimit:10;}
	.st21{fill:#980026;stroke:#4D037D;stroke-width:0.49;stroke-miterlimit:10;}
	.st22{fill:#180068;stroke:#4D037D;stroke-width:0.49;stroke-miterlimit:10;}
	.st23{fill:#FD6B2C;stroke:#4D037D;stroke-width:0.49;stroke-linecap:round;stroke-linejoin:round;}
	.st24{fill:#FD6B2C;stroke:#4D037D;stroke-width:0.49;stroke-linejoin:round;}
	.st25{fill:#7F0F6B;stroke:#4D037D;stroke-width:0.49;stroke-miterlimit:10;}
	.st26{fill:#21347E;stroke:#4D037D;stroke-width:0.49;stroke-miterlimit:10;}
	.st27{fill:#5B7D9F;stroke:#4D037D;stroke-width:0.49;stroke-miterlimit:10;}
	.st28{fill:none;stroke:#4D037D;stroke-width:0.49;stroke-linecap:round;stroke-miterlimit:10;}
	.st29{fill:none;stroke:#4D037D;stroke-width:0.49;stroke-linecap:round;stroke-miterlimit:10;stroke-dasharray:2.48,2.48;}
	.st30{fill:none;stroke:#4D037D;stroke-width:0.49;stroke-miterlimit:10;}
	.st31{fill:#FEA53E;stroke:#4D037D;stroke-width:0.49;stroke-miterlimit:10;}
	.st32{fill:#F9CD0C;stroke:#751284;stroke-width:0.49;stroke-miterlimit:10;}
	.st33{fill:#FDD609;stroke:#751284;stroke-width:0.49;stroke-miterlimit:10;}
	.st34{fill:#FFF27B;stroke:#751284;stroke-width:0.49;stroke-miterlimit:10;}
	.st35{fill:#49015F;stroke:#751284;stroke-width:0.49;stroke-miterlimit:10;}
	.st36{fill:#FCFEFE;}
	.st37{fill:#FFFFFF;stroke:#751284;stroke-width:0.49;stroke-miterlimit:10;}
	.st38{fill:#751284;stroke:#4C0179;stroke-width:0.49;stroke-miterlimit:10;}
	.st39{fill:#070606;}
	.st40{fill:#751284;stroke:#4D037D;stroke-width:0.49;stroke-miterlimit:10;}
	.st41{fill:none;stroke:#751284;stroke-width:0.49;stroke-linecap:round;stroke-miterlimit:10;}
	.st42{fill:#FDD609;stroke:#751284;stroke-width:0.49;stroke-linecap:round;stroke-miterlimit:10;}
	.st43{fill:#FDD609;stroke:#751484;stroke-width:0.49;stroke-miterlimit:10;}
	.st44{fill:#747A82;stroke:#10157B;stroke-width:0.49;stroke-miterlimit:10;}
	.st45{fill:#454147;stroke:#1D1B1E;stroke-width:0.56;stroke-miterlimit:10;}
	.st46{fill:#2A282B;stroke:#1D1B1E;stroke-width:0.56;stroke-miterlimit:10;}
	.st47{fill:#980026;stroke:#7C0C08;stroke-width:0.38;stroke-miterlimit:10;}
	.st48{fill:#3C4044;stroke:#10157B;stroke-width:0.56;stroke-miterlimit:10;}
	.st49{font-family:'ArialMT';}
	.st50{font-size:32px;}
	.st51{clip-path:url(#SVGID_00000169521030009682245160000015446412199964413836_);}
	.st52{clip-path:url(#SVGID_00000070802303878646216320000004751161183857821875_);}
</style>
<g id="Layer_1-2">
	<rect x="-2" y="-2" class="st0" width="792" height="615"/>
	<rect x="-0.8" y="0" class="st1" width="792" height="159"/>
	<rect x="-0.9" y="598.6" class="st2" width="792" height="13.4"/>
	<rect x="31.7" y="28.3" class="st3" width="735.6" height="431.8"/>
	<text transform="matrix(1 0 0 1 194.47 72.27)" class="st0 st4 st5">I Know How to</text>
	<text transform="matrix(1 0 0 1 90.37 138.27)" class="st0 st4 st5">Stay Safe on the Road</text>
	<text transform="matrix(1 0 0 1 349.47 193.47)" class="st6 st7">P</text>
	<text transform="matrix(1 0 0 1 358.7519 193.47)" class="st6 st7"> </text>
	<text transform="matrix(1 0 0 1 358.75 193.47)" class="st6 st7">resented </text>
	<text transform="matrix(1 0 0 1 428.5 193.47)" class="st6 st7">t</text>
	<text transform="matrix(1 0 0 1 434.5178 193.47)" class="st6 st7"> </text>
	<text transform="matrix(1 0 0 1 434.52 193.47)" class="st6 st7">o:</text>
	<text transform="matrix(1 0 0 1 360.27 274.27)" class="st6 st7">A</text>
	<text transform="matrix(1 0 0 1 371.0479 274.27)" class="st6 st7"> </text>
	<text transform="matrix(1 0 0 1 371 274.27)" class="st6 st7">t</text>
	<text transform="matrix(1 0 0 1 377.1878 274.27)" class="st6 st7"> </text>
	<text transform="matrix(1 0 0 1 377.27 274.27)" class="st6 st7">tending:</text>
	<text transform="matrix(1 0 0 1 164.87 380.47)" class="st8 st9">For completing the Stony Brook Children&apos;s Hospital</text>
	<text transform="matrix(1 0 0 1 255.77 405.47)" class="st8 st9">Teddy Bear Clinic Safety Game.</text>
	<path class="st10" d="M276.6,536.5l1.1-1.8h1l0.3,7.3h-1.2c-0.8-3.2-2.7-6.2-6.3-6.2c-2.7,0-4.1,1.5-4.1,3.3c0,1.5,0.9,2.7,3.1,3.3
		c0,0,3.1,0.8,5.5,1.5c1.6,0.4,3.8,2.1,3.8,5.6s-2.7,6-6.7,6c-2.1,0-4.2-0.7-5.8-2.1l-1.2,1.9h-1l-0.2-7.8l1.2-0.1
		c0.6,3.6,2.8,6.9,7,6.9c3.1,0,4.6-1.8,4.6-3.6s-0.7-3.1-3.1-3.7c0,0-3.2-0.8-5.2-1.4c-2.5-0.5-4.2-2.7-4.1-5.2
		c0-3.8,2.7-5.7,6.1-5.7C273.3,534.5,275.2,535.2,276.6,536.5z"/>
	<path class="st10" d="M285.4,536.6v5.6h4.1v1.2h-4.1v8.5c0,1.1,0.4,1.9,1.8,1.9c1.8,0,2.2-2.4,2.2-3.8h1.1c0.1,2.7-0.9,5.4-4.2,5.4
		c-1.7,0.2-3.2-1.1-3.4-2.8c0-0.1,0-0.1,0-0.2v-9.1h-2.3v-1.2c3.8-0.2,3.6-5.4,3.7-5.6L285.4,536.6L285.4,536.6z"/>
	<path class="st10" d="M303.5,548.8c0,3.6-2.1,6.7-6.1,6.7s-5.9-3.3-5.9-6.8c0-4,2.7-7,5.9-7C301.2,541.8,303.5,544.9,303.5,548.8z
		 M294.3,548.7c0,1.9,0.4,5.8,3.1,5.8c3.1,0,3.3-3.7,3.3-5.9c0-2.4-0.4-5.7-3.1-5.7C294.7,542.9,294.3,546.5,294.3,548.7z"/>
	<path class="st10" d="M317.7,547v6.1c0,1,0.3,0.8,1.7,0.9h0.5v1h-7v-1h0.6c0.4,0,0.7,0,1.1-0.1c0.4-0.1,0.7-0.4,0.6-0.8
		c0,0,0,0,0,0v-6.4c0-2.4-1-3.3-2.6-3.3c-2.3,0-3.5,2.2-3.5,4.3v5.2c0,0.2,0,0.5,0.1,0.7c0.1,0.4,0.6,0.5,1.1,0.5h1.1v1h-7.1v-1h0.7
		c0.8,0,1.6-0.1,1.6-0.9V545c0-1.1-0.2-1.2-0.8-1.3c-0.2,0-1.5-0.1-1.5-0.1v-1.2l4.8-0.3v2.4h0.1c0.8-1.6,2.4-2.7,4.2-2.8
		C315.8,541.8,317.7,543.6,317.7,547z"/>
	<path class="st10" d="M325,542.2v1c-0.7,0.1-1.9-0.3-1.9,0.6c0,0.2,0.1,0.4,0.2,0.6l3.1,7.4l2.8-7.1c0-0.1,0.1-0.3,0.1-0.4
		c0-1.3-1.2-1.1-2-1.1v-1h5.5v1c-1.1,0.1-1.6,0.2-2.5,2.3l-3.3,8.1c-0.1,0.1-0.8,1.8-1.6,3.5c-1.1,2.2-2.7,3.8-4.8,3.8
		c-1.5,0-2.6-0.8-2.6-2.2c0-0.9,0.7-1.6,1.6-1.6c0,0,0.1,0,0.1,0c0.7,0,1.2,0.5,1.3,1.2c0,0.9-0.2,0.8-0.2,1s0.3,0.3,0.4,0.3
		c1.6,0,3.2-3.3,3.8-4.6l-4.5-10.3c-0.5-1.1-0.8-1.5-2.2-1.4v-1L325,542.2z"/>
	<path class="st10" d="M347.2,535c4.4,0,6.2,2.5,6.2,4.8c0,3-2.4,4.6-4.9,4.8v0.1c1.3,0.1,2.6,0.5,3.8,1.2c1.3,0.8,2.1,2.2,2.1,3.8
		c0,1.3-0.5,2.6-1.4,3.6c-1.5,1.4-3.8,1.9-7.1,1.9h-9.3v-1.3c2.7-0.1,3.1,0.1,3.1-1.8v-14.3c0-1.4-0.6-1.4-1.9-1.4h-1.1V535H347.2z
		 M349.3,537.3c-0.8-1-2.6-1.1-4.3-1.1c-0.9,0-2.3-0.3-2.3,1.4v6.5h1.4c3.6,0,6.1-0.2,6.1-3.9C350.3,539.2,349.9,538.1,349.3,537.3
		L349.3,537.3z M342.7,545.4v6.4c0,2,0.2,2,2.5,2s3.9-0.3,4.7-1.1c0.8-0.8,1.2-2,1.1-3.1c0-4-2.8-4.4-6-4.4
		C344.3,545.3,343.6,545.3,342.7,545.4L342.7,545.4z"/>
	<path class="st10" d="M366.6,543.9c0,1.1-0.6,1.9-1.6,1.9c-0.8,0-1.5-0.6-1.5-1.4c0,0,0,0,0-0.1c0-0.5,0.2-1.1,0.6-1.4
		c-3.1,0.4-3.9,5.5-3.9,7.2v3.2c0,0.8,0.8,0.8,1.6,0.8h1v1h-7.5v-1c1.6-0.1,2.3,0.2,2.3-1.1v-8c0-1.4-1-1.4-1.9-1.4h-0.6v-1.2
		l5.1-0.3v3.3h0.1c0.3-1.3,1.6-3.7,4.1-3.7C365.6,541.7,366.6,542.7,366.6,543.9z"/>
	<path class="st10" d="M379.1,548.8c0,3.6-2.1,6.7-6.1,6.7s-5.9-3.3-5.9-6.8c0-4,2.7-7,5.9-7C376.8,541.8,379.1,544.9,379.1,548.8z
		 M370,548.7c0,1.9,0.4,5.8,3.1,5.8c3.1,0,3.3-3.7,3.3-5.9c0-2.4-0.4-5.7-3.1-5.7C370.3,542.9,370,546.5,370,548.7z"/>
	<path class="st10" d="M393.4,548.8c0,3.6-2.1,6.7-6.1,6.7s-5.9-3.3-5.9-6.8c0-4,2.7-7,5.9-7C391.1,541.8,393.4,544.9,393.4,548.8z
		 M384.2,548.7c0,1.9,0.4,5.8,3.1,5.8c3.1,0,3.3-3.7,3.3-5.9c0-2.4-0.4-5.7-3.1-5.7C384.6,542.9,384.2,546.5,384.2,548.7
		L384.2,548.7z"/>
	<path class="st10" d="M398.8,548.5l3.9-3.8c0.4-0.4,0.7-0.6,0.7-1.1s-0.6-0.5-1-0.5h-1.3v-1h7.3v1c-2.7,0.1-3.9,1.6-6,3.6l4.4,6
		c0.7,0.9,1.8,1.4,2.9,1.3v1h-7.3v-1c0.3,0,0.7-0.1,1-0.1s0.8,0,0.8-0.4s-0.2-0.4-0.4-0.7l-3.2-4.6l-1.8,1.6v3.2
		c0,1,0.5,0.9,1.6,0.9h0.5v1H394v-1h0.5c1,0,1.7,0.1,1.7-1.1V537c0-1.2-0.5-1.2-1.8-1.2h-0.7v-1.2l5.1-0.3L398.8,548.5L398.8,548.5z
		"/>
	<path class="st11" d="M427.8,536.5l1.1-1.8h1l0.4,8l-1.2,0.1c-1-4.1-2.7-7-6.3-7c-2.1,0-4,1.3-4.8,3.3c-0.8,2-1.1,4.2-1,6.4
		c0,5.8,2,8.7,6.1,8.7c3.9,0,5.8-2.8,6.3-6.2l1.3,0.2c-0.7,4.7-3.6,7.3-8,7.3c-5.5,0-9.4-4.4-9.4-10c-0.1-2.7,0.8-5.3,2.4-7.4
		c1.6-2.2,4.2-3.5,6.9-3.5C424.5,534.5,426.4,535.2,427.8,536.5z"/>
	<path class="st11" d="M436.5,544.5L436.5,544.5c0.9-1.7,2.6-2.8,4.5-2.8c3.1,0,4.3,2.1,4.3,5v5.8c0,1.4-0.1,1.4,1.3,1.5h0.9v1h-7.1
		v-1h0.5c1.2,0,1.8,0,1.8-1.2v-6c0-1.7-0.5-3.4-2.6-3.4c-2.4,0-3.7,2.2-3.7,4.3v5.1c0,1.2,0.6,1.2,1.3,1.2h0.9v1h-7v-1h0.6
		c0.9,0,1.7,0,1.7-1.3V537c0-1.1-0.4-1-1.8-1.1h-0.6v-1.2l5-0.3L436.5,544.5L436.5,544.5z"/>
	<path class="st11" d="M448.3,555.1v-1h0.7c1.3,0,1.7-0.1,1.7-1.3V545c0-1.3-0.3-1.3-1.6-1.3h-1v-1.2l5.2-0.3v11.2
		c0,0.7,0.4,0.7,1.6,0.8h0.8v1h-7.4L448.3,555.1L448.3,555.1z M453.4,536.8c0,0.9-0.7,1.6-1.6,1.7c-0.9,0-1.6-0.7-1.6-1.6
		c0,0,0-0.1,0-0.1c0-0.9,0.7-1.6,1.6-1.6S453.4,535.9,453.4,536.8z"/>
	<path class="st11" d="M461.7,553.3c0,0.8,0.4,0.8,1.4,0.8h0.9v1h-7.2v-1h0.6c0.6,0,1.7,0.2,1.7-1.1v-15.9c0-1.1-0.6-1.1-1.6-1.1
		h-0.9v-1.2l5.1-0.3V553.3z"/>
	<path class="st11" d="M476.4,552.7c0,1.5,1.3,1.1,2.3,1.2v1.2l-4.8,0.3V553c-0.5,1.6-2.1,2.7-3.8,2.6c-3.7,0-5.6-3-5.6-6.7
		s2-7,5.5-7c1.6,0,3.1,0.8,3.9,2.1v-6.8c0-1.2-0.9-1.1-1.8-1.1h-1v-1.2l5.4-0.3v18.1L476.4,552.7z M467.3,548.8
		c0,2.4,0.6,5.2,3.3,5.2s3.3-3.2,3.3-5.3c0-2.4-0.6-5.5-3.3-5.5C467.7,543.2,467.3,546.6,467.3,548.8z"/>
	<path class="st11" d="M491,543.9c0,1.1-0.6,1.9-1.6,1.9c-0.8,0-1.5-0.6-1.5-1.4c0,0,0,0,0-0.1c0-0.5,0.2-1.1,0.6-1.4
		c-3.1,0.4-3.9,5.5-3.9,7.2v3.2c0,0.8,0.8,0.8,1.6,0.8h1v1h-7.5v-1c1.6-0.1,2.3,0.2,2.3-1.1v-8c0-1.4-1-1.4-1.9-1.4h-0.6v-1.2
		l5.1-0.3v3.3h0.1c0.3-1.3,1.6-3.7,4.1-3.7c1.2,0,2.2,0.9,2.2,2.1C491,543.8,491,543.9,491,543.9z"/>
	<path class="st11" d="M503.2,548.8h-9.1c-0.1,2.8,1.1,5.3,3.9,5.3c2.2,0,3.4-1.3,4.2-3l0.9,0.5c-1.1,2.3-2.6,3.9-5.6,3.9
		c-3.3,0-6.3-2-6.3-6.5c0-3.9,2.4-7.2,6.2-7.2c2,0,3.8,1.1,4.8,2.9C502.8,546,503.1,547.4,503.2,548.8z M494.2,547.7h5.1
		c0.8,0,1-0.2,1-1.1c0-1.3-0.5-3.7-2.9-3.7S494.3,545.7,494.2,547.7z"/>
	<path class="st11" d="M518.3,547v6.1c0,1,0.3,0.8,1.7,0.9h0.5v1h-7v-1h0.6c0.4,0,0.7,0,1.1-0.1c0.4-0.1,0.7-0.4,0.6-0.8
		c0,0,0,0,0,0v-6.4c0-2.4-1-3.3-2.6-3.3c-2.3,0-3.5,2.2-3.5,4.3v5.2c0,0.2,0,0.5,0.1,0.7c0.1,0.4,0.6,0.5,1.1,0.5h1.1v1h-7.1v-1h0.7
		c0.8,0,1.6-0.1,1.6-0.9V545c0-1.1-0.2-1.2-0.8-1.3c-0.2,0-1.5-0.1-1.5-0.1v-1.2l4.8-0.3v2.4h0.1c0.8-1.6,2.4-2.7,4.2-2.8
		C516.4,541.8,518.3,543.6,518.3,547z"/>
	<path class="st11" d="M520.7,542c0.9-0.8,2.8-2.4,2.8-3.9c0-0.2,0-0.3-0.2-0.3s-0.4,0.1-0.7,0.1c-0.9,0-1.6-0.8-1.6-1.7
		c0-0.9,0.8-1.6,1.7-1.6c1.5,0,2.2,1.4,2.2,2.7c0,3.4-3.4,5.1-3.7,5.5L520.7,542z"/>
	<path class="st11" d="M531.3,542.9l0.8-1h0.9v4.6h-1c-0.5-2-1.8-3.6-4.1-3.6c-1.3,0-2.6,0.7-2.6,2c0,0.9,0.7,1.5,1.7,1.8
		s3.8,0.8,4.4,1c1.5,0.5,2.5,2,2.4,3.6c0,3.1-2.4,4.2-4.6,4.2c-1.4,0-2.8-0.5-3.8-1.4l-1,1.2h-0.9V550h1c0.6,2.5,2.2,4.3,4.8,4.3
		c1.3,0,2.8-0.7,2.8-2.2c0-1.2-0.9-1.7-1.9-2s-2.7-0.6-4.1-1.1c-1.6-0.4-2.6-1.9-2.4-3.5c-0.1-2.1,1.6-3.8,3.6-3.9
		c0.2,0,0.3,0,0.5,0C529.1,541.7,530.3,542.1,531.3,542.9z"/>
	<g>
		<defs>
			<path id="SVGID_1_" d="M398.8,455.3c-18.4,0-33.3,14.9-33.3,33.3s14.9,33.3,33.3,33.3s33.3-14.9,33.3-33.3c0,0,0,0,0,0
				C432.1,470.2,417.2,455.3,398.8,455.3C398.8,455.3,398.8,455.3,398.8,455.3z"/>
		</defs>
		<clipPath id="SVGID_00000179624106945837525490000014744541395160219020_">
			<use xlink:href="#SVGID_1_"  style="overflow:visible;"/>
		</clipPath>
		<g style="clip-path:url(#SVGID_00000179624106945837525490000014744541395160219020_);">
			<path class="st0" d="M398.8,522c18.4,0,33.3-14.9,33.3-33.3s-14.9-33.3-33.3-33.3s-33.3,14.9-33.3,33.3c0,0,0,0,0,0
				C365.5,507.1,380.4,522,398.8,522C398.8,522,398.8,522,398.8,522z"/>
		</g>
	</g>
	<g>
		<defs>
			<path id="SVGID_00000160188540561501779950000014028983729115564209_" d="M398.8,455.3c-18.4,0-33.3,14.9-33.3,33.3
				s14.9,33.3,33.3,33.3s33.3-14.9,33.3-33.3c0,0,0,0,0,0C432.1,470.2,417.2,455.3,398.8,455.3C398.8,455.3,398.8,455.3,398.8,455.3
				z"/>
		</defs>
		<clipPath id="SVGID_00000048483297146980733540000015315823529150597802_">
			<use xlink:href="#SVGID_00000160188540561501779950000014028983729115564209_"  style="overflow:visible;"/>
		</clipPath>
		<g style="clip-path:url(#SVGID_00000048483297146980733540000015315823529150597802_);">
			<path class="st1" d="M398.8,455.3c-18.4,0-33.3,14.9-33.3,33.3s14.9,33.3,33.3,33.3s33.3-14.9,33.3-33.3c0,0,0,0,0,0
				C432.1,470.2,417.2,455.3,398.8,455.3C398.8,455.3,398.8,455.3,398.8,455.3z"/>
		</g>
	</g>
	<g>
		<defs>
			<path id="SVGID_00000009575324053912585990000002865808486521755568_" d="M398.8,455.3c-18.4,0-33.3,14.9-33.3,33.3
				s14.9,33.3,33.3,33.3s33.3-14.9,33.3-33.3c0,0,0,0,0,0C432.1,470.2,417.2,455.3,398.8,455.3C398.8,455.3,398.8,455.3,398.8,455.3
				z"/>
		</defs>
		<clipPath id="SVGID_00000144317587135610671060000004504984498917874578_">
			<use xlink:href="#SVGID_00000009575324053912585990000002865808486521755568_"  style="overflow:visible;"/>
		</clipPath>
		<g style="clip-path:url(#SVGID_00000144317587135610671060000004504984498917874578_);">
			<polygon class="st0" points="408.4,532.8 411.5,502.3 411,502.3 408,531.5 393,479.5 392.5,479.6 406.8,529.3 393.5,499.3 
				393.1,499.5 407.9,532.9 			"/>
			<path class="st0" d="M401.5,473.4c0-5.4-4.4-9.8-9.8-9.8s-9.8,4.4-9.8,9.8s4.4,9.8,9.8,9.8h0c0.3,0,0.7,0,1-0.1l-0.1,2
				c0,0.1,0.1,0.3,0.2,0.3s0.1,0.1,0.2,0.1h0.1l2.7-1c0.1,0,0.2-0.1,0.2-0.3c0-0.1,0-0.3-0.1-0.4l-1.2-1.2
				C398.8,481.4,401.5,477.6,401.5,473.4z"/>
			<path class="st0" d="M401.3,496.5c0-5.4-4.4-9.8-9.8-9.8s-9.8,4.4-9.8,9.8s4.4,9.8,9.8,9.8h0c1.1,0,2.2-0.2,3.3-0.6l0.2,1.6
				c0,0.1,0.1,0.2,0.2,0.3s0.1,0.1,0.2,0.1h0.2l2.3-1c0.1-0.1,0.2-0.2,0.2-0.3s0-0.3-0.1-0.3l-1.2-1.3
				C399.6,503,401.3,499.8,401.3,496.5z"/>
			<path class="st0" d="M421.8,496.5c0-5.4-4.4-9.8-9.8-9.8c-5.4,0-9.8,4.4-9.8,9.8l0,0c0,4.4,3,8.3,7.3,9.4l-0.7,1
				c-0.1,0.1-0.1,0.2,0,0.4s0.1,0.2,0.3,0.2l2.7,0.7h0.1c0.1,0,0.2,0,0.3-0.1c0.1-0.1,0.1-0.2,0.1-0.4l-0.4-1.5h0.1
				c5.3,0.1,9.7-4.2,9.8-9.5C421.8,496.6,421.8,496.6,421.8,496.5z"/>
		</g>
	</g>
	<rect x="-0.9" y="-0.1" class="st15" width="792" height="612.2"/>
	<g id="_4BsN48.tif">
		
			<image style="overflow:visible;enable-background:new    ;" width="498" height="1039" id="Layer_1-3" xlink:href="6F86D5A719F0222A.png"  transform="matrix(0.28 0 0 0.28 643.25 315.91)">
		</image>
	</g>
	<g id="Sunny_After">
		<g id="Seat_00000106847513427691242410000006292511123833256361_">
			<path class="st16" d="M128.4,520.1c-7.9,5.9-29,6.7-38.9,6.6c-10.4-0.1-32.5-1.3-40.9-7.5c-3.5-2.6-8.8-14.8-8.8-14.8l96.1,2
				C135.9,506.6,131.6,517.8,128.4,520.1z"/>
			<path class="st17" d="M138.1,508.3c-8.6,7.9-36,9.7-47.7,8.8c-13.4-1-41-0.1-50.1-9.8c-3.8-4.2-4-17.3-3.3-22.8
				s7.7-15.1,7.7-20.6c0.1-8.9-13.5-16.7-10.9-33.8c1-6.6,7-19.2,6.9-25.9c-0.1-3.5-3.9-9.7-4.5-13.1c-1-6.3,0.3-20.4,4.8-25
				c8.1-7.9,33.4-9.2,44.8-8.5c11.5,0.8,37.9-1.5,46,6.7c4.4,4.5,4.9,18.7,3.6,24.8c-0.6,2.9-4.1,8.2-4.4,11.2
				c-0.7,8.4,8.3,24.1,9,32.5c1.4,17.2-6.3,23-6.1,30.9c0.1,5.3,5.3-1.2,7.1,19.9C141.4,489.6,142.3,504.3,138.1,508.3z"/>
			<path class="st18" d="M128.4,386.4c0,4.7-1.4,11.2-6.8,14.8c-7.8,5.1-22.1,6.4-36.1,6.4c-12.4,0-26.6-0.4-34.4-4.5
				c-7.1-3.8-8.5-11-8.5-16.6c0-4.7,0.4-11.9,5.8-15.4c7.8-5.1,23.1-5.8,37.1-5.8c13.6,0,26.8,0.2,34.6,5.1
				C126,374,128.4,381.5,128.4,386.4z"/>
			<path class="st19" d="M59.9,421.3c1.3,4.3-2.1,13-7.4,13s-14.6-9.9-14.6-17.5s3.1-15.7,8-13.6C49.7,405.1,58.1,415.5,59.9,421.3z
				"/>
			<path class="st18" d="M134.9,416.1c1.3-7.7-4.7-14.1-8.2-12.8c-5.3,2.1-14.2,15.1-14,21.7c0.1,5.6,5.1,10.2,7.7,9.3
				C126.8,432,133.8,422.9,134.9,416.1z"/>
		</g>
		<g id="Sunny_Seated_00000109736115099640426790000013125052049438847117_">
			<g id="Right_Sneaker_00000167375134963905333510000000280512318292502700_">
				<path class="st20" d="M130.7,570c-3.7,4-10.3,3.5-15.5,1.3c-3.5-1.4-6.7-3.6-9.3-6.4c-7.8-7.9-10.8-17.7-5.1-22.2
					c5.6-4.5,12.7-0.1,20.8,7.1c5,4.5,10,4.8,10.8,9.4C132.9,561.8,133.4,567.1,130.7,570z"/>
				<path class="st21" d="M105.2,561.8c-5.4-5.8-9.1-14.7-6.8-19.5c1-1.9,3.7-1.4,5.8-2.4c7-3.3,16.8,1.8,23.9,10.6
					c7.1,8.7,5.1,16.2,0.3,17.8C125.1,569.5,119,576.4,105.2,561.8z"/>
				<polygon class="st22" points="108.2,544.4 115.5,544 125,559.4 118.6,560.5 				"/>
				<path class="st20" d="M123.6,571.5c4.7,0,7.8-0.7,8.8-4c1.1-3.9,0.5-8.2,0-8.4c-3.5-1.1-7.2-1.2-10.8-0.3
					c-4.5,1.2-9.2,2.8-11.3,7.3C110,566.7,115.6,571.5,123.6,571.5z"/>
				<path class="st23" d="M110.4,552.2c0,0,4.9-1.2,6.7-1.5c1.5-0.2,5.8-0.4,5.8-0.4l-1.9-1.8c0,0-3.7,0.1-4.9,0.2
					c-1.7,0.1-6.7,1.3-6.7,1.3L110.4,552.2z"/>
				<path class="st24" d="M114.2,557.2c1.9-0.7,3.8-1.2,5.7-1.6c1.5-0.2,7,0,7,0l-1.9-2.5c-2.2-0.1-4.3,0-6.5,0.2
					c-1.6,0.3-6.1,1.7-6.1,1.7L114.2,557.2z"/>
			</g>
			<g id="Left_Sneaker_00000038395306377908216430000017442830980743360933_">
				<path class="st20" d="M49.5,572.8c6.3,5.3,14.6,3,22-4.6c7.4-7.6,9.2-17.5,4-22.3s-15.1-2.3-22.4,5.2c-4.5,4.6-6.1,5.2-6.1,10
					C47,563.9,46.6,570.2,49.5,572.8z"/>
				<path class="st21" d="M73.4,564.2c4.8-5.7,6.9-15.2,4.6-20.2c-1-2.1-3.6-1.6-5.5-2.7c-6.6-3.8-15.6,1.2-21.8,9.8
					c-6.2,8.6-4,16.5,0.5,18.4C54.3,570.7,61.2,578.7,73.4,564.2z"/>
				<polygon class="st22" points="69.8,545.7 63.3,545.3 53.3,559.8 60.2,561.2 				"/>
				<path class="st20" d="M55.9,574.3c-4.2,0-7.7-1.9-8.6-5.3c-0.7-2.6-0.8-5.2-0.3-7.8c0.4-1.7,7.3-1.9,10.1-1.5
					c4.2,0.7,11.4,4.5,11.6,9.1C68.7,569.4,63.2,574.3,55.9,574.3z"/>
				<path class="st23" d="M68.1,553.3c0,0-4.4-1.3-6-1.5c-1.3-0.2-5.2-0.5-5.2-0.5l1.7-1.9c0,0,3.4,0.1,4.5,0.2c1.5,0.2,6,1.4,6,1.4
					L68.1,553.3z"/>
				<path class="st24" d="M64.7,558.2c-1.7-0.7-3.4-1.3-5.2-1.7c-1.3-0.2-6.3,0-6.3,0l1.7-2.6c1.9-0.1,3.9,0,5.8,0.2
					c1.5,0.3,5.5,1.7,5.5,1.7L64.7,558.2z"/>
			</g>
			<g id="Clothes_00000074399767246257943590000011327776946864435623_">
				<path class="st25" d="M125.2,433.4c0.6,3.6,1.4,11.2,1.4,11.2c-4.4,13.9-23.3,16.3-32.1,15.8c-19.4-1.3-45.3,5.7-46.1-16
					c-1-29.2,18.5-38.5,38-38.5C105.8,405.9,121.1,408.5,125.2,433.4z"/>
				<path class="st26" d="M117.3,476.1c0,0,12.3-0.8,13.6,18c0.3,4.5-6.7,42.2-8.2,47.7c-1,3.8-23.1,2.5-24.2,2
					c-2.8-1.4,4-42,2.1-45.5c-4.1-7.1-4.9-15.4-13.6-14.4c-2.3,0.3-6.5,13-9.3,16.5c-2.4,3.1,2.5,43.1,0.3,43.6
					c-5.7,1.3-16.6,4.5-21.9-0.6c-1.7-1.5-10.6-46.7-10.6-51.1c0-4.8,10.1-17.1,10-17.4c-1-9.4,7.1-14.1,9.2-26.8
					c0.8-5,0.7-14.6,1.7-21.4c0.5-3.4,40.8-4.8,42.5-1.6C112,430.8,117.3,476.1,117.3,476.1z"/>
				<path class="st27" d="M107.4,455.5c-0.2,1.1-6.5,7.3-9.5,8c-3,0.8-15,0.7-20.3-1.3c-1.8-0.7-5.5-2.7-6-4.5
					c-0.7-2.5-2.7-17.2,1.8-19.5c2.9-1.5,28.4-2,30.5-1C108,439.6,108.1,451.8,107.4,455.5z"/>
				<path class="st28" d="M73.2,440.3c-0.2,0.4-0.2,0.8-0.2,1.2"/>
				<path class="st29" d="M72.8,443.9c-0.3,3.9-0.2,7.9,0.3,11.8c0.7,4.6,6.7,6,9.8,6.5c2.1,0.3,9.3,1.5,14.8-0.4
					c2.8-0.9,6.4-5,6.8-6.1c0.9-1.9,0.6-9.3,0.1-13.2"/>
				<path class="st28" d="M104.4,441.3c0-0.4-0.1-0.8-0.3-1.2"/>
				<path class="st27" d="M94.2,445.7c-1.3,0.6-8.2,0.6-10-0.1c-2.9-1.2-12.1-5.2-11.9-6.3c0.2-1.1,1.6-1.3,2.3-1.5
					c7-1.5,24.8-1.5,29.4-0.6c0.7,0.1,1.9,1.5,1.5,1.9C103,441.4,95.8,445,94.2,445.7z"/>
				<path class="st27" d="M104.4,441.6"/>
				<path class="st26" d="M73.1,423.1l-6,0.2c-2.5-2.5,1.3-14,1.3-14l3.7-1.5C72,407.7,71.8,418.8,73.1,423.1z"/>
				<path class="st26" d="M102.8,422.7l4.9-0.1c1.6-3.5-2.6-14.5-2.6-14.5l-3.2-0.9C102,407.1,103.5,418.6,102.8,422.7z"/>
				<path class="st30" d="M67,423.3c0.5,0.6,2.1,3.5,2,4.5c0,1.3-0.7,1.5-0.7,2.6s0.9,1.5,1.8,1.8c1.6,0.6,3.2-1.1,3.4-2.3
					c0.2-1.6-2-1.5-2.1-3.2c-0.1-1.3,0.3-2.5,1-3.6"/>
				<path class="st30" d="M107.8,422.6c-0.7,0.8-1.1,1.8-1.2,2.9c0,1.3,1,1.5,1.2,2.6c0.1,1.2-0.7,2.2-1.8,2.6
					c-1.2,0.5-2.5,0-3.1-1.1c-0.1-0.2-0.1-0.4-0.2-0.5c-0.2-1.6,1.1-1.6,1.3-3.4c-0.1-1.1-0.5-2.1-1.3-2.8"/>
				<ellipse class="st31" cx="71" cy="431.6" rx="1.8" ry="1.7"/>
				<ellipse class="st31" cx="89.1" cy="442.8" rx="1.8" ry="1.7"/>
				<ellipse class="st31" cx="104.9" cy="430.3" rx="1.8" ry="1.7"/>
			</g>
			<g id="Head_00000009568052119851724100000003912661114794277041_">
				<path id="right_outter_ear-2_00000119092883997672764570000011267963645557365131_" class="st32" d="M116.4,367.1
					c1,10-8.8,10.8-14.6,7.6c-6.2-3.6-8.5-7.8-8.6-9.3c-0.2-7.1,2.8-11.6,10-11.1C110.3,354.7,116,360.2,116.4,367.1z"/>
				<path id="left_outter_ear-2_00000160174074525364836730000004432844612479962761_" class="st33" d="M54.1,366.6
					c-0.9,9.8,8.8,10.7,14.4,7.5c6.2-3.6,8.4-7.7,8.5-9.2c0.2-7.1-2.7-11.5-9.9-11C60.2,354.3,54.6,359.7,54.1,366.6z"/>
				<path id="right_innner_ear-2_00000142889139252314390720000010702323803002745252_" class="st34" d="M110.6,367.2
					c0.4,5.4-4.2,6-7,4.2c-3-1.9-4-4.4-4.1-5.1c-0.1-3.9,1.3-6,4.7-5.5C107,361.1,110.3,363.8,110.6,367.2z"/>
				<path class="st34" d="M61,367.1c-0.4,5.4,4.2,5.9,6.9,4.1c3-1.9,4-4.3,4-5c0.1-3.9-1.3-5.9-4.6-5.4
					C64,361.2,61.5,363.8,61,367.1z"/>
				<path id="head-2_00000014631108265848520390000003366088928290800567_" class="st33" d="M112,389.3c0.1,6.1-1.6,13.3-7.7,16.1
					c-4.9,2.2-6,8.3-18,8.9c-11.3,0.6-12.2-5-19.2-7.1c-2.8-0.9-8.9-9.2-8.6-17.5c0.2-4,1.8-11.9,5.1-16.9c4.8-7.2,12-13.1,21-13.1
					s15.5,5.4,20.6,12.7C108.8,377.3,112,385.5,112,389.3z"/>
				<path id="snoot-2_00000051364909394408418050000008053233690321367686_" class="st34" d="M74,399.4c0-5.6,2.8-8.3,5.2-10.8
					c2.7-2.7,2.9-6.6,7-6.6c1.8,0,3.4,1,4.2,2.6c3.7,8.4,6.5,3.1,7.7,13c0.8,6.2-3.7,10.7-9.5,12.5C82.5,411.9,74,405.8,74,399.4z"
					/>
				<path id="nose-2_00000050664432413991272270000009998383106772919945_" class="st35" d="M80.5,391.1c-1-2.5-0.2-4.5,5.1-4.5
					c6.7,0,6.7,1.5,6.1,3.9c-0.4,1.5-3.1,3.9-5.7,3.9C83.8,394.3,81.6,393.1,80.5,391.1z"/>
				<path id="nose_shine-2_00000133529105087647083480000013967274594965512383_" class="st36" d="M88.9,388.4
					c0.1,0.3-0.6,0.9-0.9,0.9c-0.8,0.2-0.4-0.5-2.1-0.6c-1.5,0-1.4,0.6-2,0.6c-0.4,0-0.9-0.5-0.8-0.8c0.2-0.6,1.9-0.6,2.6-0.6
					C86.5,388,88.6,387.7,88.9,388.4z"/>
				<g id="right_eye-2_00000057144542684292125930000001572674981493533367_">
					<path class="st37" d="M100,384.6c-0.3,1.5-0.6,1.8-1,1.8s-1.1-0.3-1.9,0c-0.8,0.2-1.6,0.5-2.4,1c-0.5,0.4-1.3-2.3-1.6-3
						c-0.8-2.4,0.4-5.3,3.3-5.4C99.7,378.8,100.4,382.1,100,384.6z"/>
					<path class="st38" d="M99.8,383.8c0,0.8-0.3,2.2-0.8,2.5c-0.5,0.3,0-0.1-1.9,0c-0.7,0.1-2,1-2.5,0.9c-0.9-0.2-1.4-1.9-1.4-3.3
						c0-1.8,1.5-3.2,3.3-3.2C98.3,380.7,99.7,382,99.8,383.8L99.8,383.8z"/>
					<ellipse class="st39" cx="96.4" cy="384" rx="1.9" ry="1.8"/>
					<ellipse class="st0" cx="95.8" cy="383.5" rx="0.8" ry="0.8"/>
					
						<ellipse id="l_twinkle-3_00000182507501366520804050000013492190223636659074_" class="st0" cx="96.8" cy="384.6" rx="0.4" ry="0.4"/>
					<path id="l_eyebrow-3_00000178900006888821568900000015531051399909355944_" class="st34" d="M99.4,374.6
						c0.7-0.9-1.8-3-3.7-3.4c-2-0.4-3.5,0.4-3.6,1.8c0,0.8,1.6,0.5,3.6,1C97.6,374.3,98.6,375.6,99.4,374.6z"/>
				</g>
				<g id="left_eye-2_00000121254847410960464760000005252406347062413494_">
					<path class="st37" d="M71.6,384.9c0.3,1.5,0.6,1.8,1,1.8s1.1-0.3,1.9,0c0.8,0.2,1.6,0.5,2.4,1c0.5,0.4,1.3-2.3,1.6-3
						c0.8-2.4-0.4-5.3-3.3-5.4C71.8,379.2,71.1,382.4,71.6,384.9z"/>
					<path class="st40" d="M71.8,384.1c0,0.8,0.3,2.2,0.8,2.5c0.5,0.3,0-0.1,1.9,0c0.7,0.1,2,1,2.5,0.9c0.9-0.2,1.4-1.9,1.4-3.3
						c0-1.8-1.5-3.2-3.3-3.2C73.3,381,71.8,382.3,71.8,384.1L71.8,384.1z"/>
					<ellipse class="st39" cx="75.1" cy="384.3" rx="1.9" ry="1.8"/>
					<ellipse class="st0" cx="74.4" cy="383.6" rx="0.8" ry="0.8"/>
					
						<ellipse id="l_twinkle-4_00000080197146916146428120000008308489678091052975_" class="st0" cx="75.5" cy="384.5" rx="0.4" ry="0.4"/>
					<path id="l_eyebrow-4_00000103962426855093881480000004648245107343517865_" class="st34" d="M72.2,374.9
						c-0.7-0.9,1.8-3,3.7-3.4c2-0.4,3.5,0.4,3.6,1.8c0,0.8-1.6,0.5-3.6,1C73.9,374.8,73,375.9,72.2,374.9z"/>
				</g>
				<g id="mouth-2_00000091734444329742754430000003706315925022986648_">
					<path class="st41" d="M77.7,395.8c0,0,1.4,4,3.9,4s4.3-1.3,4.8-1.3s2.1,1.3,4.3,0.6c2.2-0.7,3.7-4.1,3.7-4.1"/>
					<path class="st41" d="M86.5,398.3c-0.1-0.3-0.1-0.5,0-0.8"/>
					<path id="chin-2_00000085965601014969392470000013370013631806558897_" class="st41" d="M85.7,403.2c0,0.7,2.6,0.7,2.6,0"/>
				</g>
			</g>
			<g id="Left_Arm_00000131349279877294802170000013126267103944616115_">
				<path class="st33" d="M56.5,468l-10.8-10.7l3.2-18.9c0,0,6.3,5.5,8.8,6.9c1.9,1.1,8.6,2.8,8.6,2.8s-1.2,13.6-1.7,15.3
					c-0.3,0.9-2.1,3.8-4.1,4.7C59.1,468.5,57.7,468.5,56.5,468z"/>
				<path class="st42" d="M61.7,461.7c0,6.7-7.2,6.9-13.9,6.9s-12.5,1.9-14.1-5.4c-1-4.5,2.9-10.7,12.9-11.5
					C57.4,451,61.7,458.1,61.7,461.7z"/>
				<path class="st41" d="M41.3,463.2c-0.5,2,0,4.1,1.3,5.7"/>
				<path class="st41" d="M47.9,462.8c-0.1,1.9,0.1,3.8,0.6,5.6"/>
				<path class="st41" d="M54.1,461.5c0.9,1.4,1.1,5.5,0.5,6.4"/>
			</g>
			<g id="Right_Arm_00000181078679394062382180000001244606583159423624_">
				<path class="st43" d="M129,447.5c1,1.3,2,2.6,3.2,3.8l0.5,12.8l-10.3,4.4c0,0-4.9-6.7-6-9.2c-1.5-3.6-3.1-15-3.1-15
					c2.7-0.4,5.3-1.2,7.8-2.4c0.9-0.4,4.8-4.4,4.8-4.4S128.2,445.9,129,447.5z"/>
				<path class="st33" d="M145,460.6c0,1.9,0.2,5.3-3.3,6c-1.8,0.4-4-0.6-7.9-0.7c-2.8-0.1-5.7,1.6-7.6,1.3c-4.1-1-5.1-4.8-5.1-7.1
					c0-3.2,3.1-8.8,12.3-8.1C140.9,452.4,145,457.4,145,460.6z"/>
				<path class="st41" d="M133.6,460c-0.3,2,0,4,0.7,5.9"/>
				<path class="st41" d="M127.7,459.8c-1.2,1.5,0.5,5.2,1.6,6.1"/>
				<path class="st41" d="M138.1,465.9c2-1.2,1.7-4.4,0.9-5.5"/>
			</g>
		</g>
		<g id="Seatbelt_00000057847198211396677280000009540875024750924464_">
			<path class="st44" d="M118.9,469.1c2.1,1.4,5.1,8.8,2.8,8c-20.1-7.4-51.4-8.2-67.7,1.1c-2.2,1.2,3.4-5.7,5.3-7.2
				C72,461.9,105.9,460.7,118.9,469.1z"/>
			<path class="st44" d="M86.4,462.8l-7.4,4l-4.6-39.7l-10.2-16c2.1-1.4,4.4-2.4,6.8-3.2l12.2,15.6L86.4,462.8z"/>
			<path class="st44" d="M99.2,464.7l-7.5-3.2l1.4-37l9.1-17.7c2.8,0.4,5.5,1.3,8,2.7l-7.3,16.3L99.2,464.7z"/>
			<path class="st45" d="M77.8,462.2c9.8-6.5,10.8,1.4,10.8,1.4s2.4-7.2,10.8-1.5c4.1,2.8-4.2,9.4-8,9.9c-2.8,0.4-3.4,0-5.9-0.4
				C82.2,471,73.3,465.2,77.8,462.2z"/>
			<path class="st46" d="M94.5,473H82.2v-5.9c-0.1-3.3,4.2-4.8,6.3-4.8s6.1,1.2,6,4.8V473z"/>
			<path class="st47" d="M91.4,468c-1.3,1-4.7,0.8-6,0c-0.6-0.6-0.9-1.5-0.8-2.3c0.9-1.8,6.3-1.6,7.4,0
				C92.4,466,91.9,467.6,91.4,468z"/>
			<path class="st48" d="M102.2,430.7c-2.9,1.7-9-2.4-15-2.4c-5.8,0-11.7,4.3-14.3,2.4c-1.8-1.4-1.6-6.1,0-7.6
				c2.3-2.1,8.4-4.6,14.5-4.5c5.3,0.2,10.4,1.7,14.8,4.5C103.9,424.5,104.1,429.5,102.2,430.7z"/>
			<path class="st44" d="M83.2,473c0,0-0.3,10.9,1.4,13.8h10c0.2-4.2-0.8-13.8-0.8-13.8H83.2z"/>
		</g>
		<g id="Armrest_00000115515958530746118920000004218835575051581572_">
			<path class="st17" d="M31.2,475.7c-0.4-5.3,7.7-6.5,16.2-7.5c8.9-1,16.6-0.7,16.6,4.8c0,5.1-5.3,7.7-15.5,8.5
				C39.9,482.3,31.6,481.7,31.2,475.7z"/>
			<path class="st17" d="M117.6,472c-0.7-5,6.2-7.3,14.4-7.3c8,0,14.4,2.2,14.4,7.3c0,5.3-6.4,5.7-14.4,5.7
				C124,477.7,118.1,476.1,117.6,472z"/>
		</g>
	</g>
	<text id="line1" transform="matrix(1 0 0 1 241.0581 233.29)" class="st49 st50">Type Your Name Here</text>
	<text id="line2" transform="matrix(1 0 0 1 234.3359 333.7)" class="st49 st50">Type Your School Here</text>
	<g>
		<rect x="61.7" y="245.9" width="651" height="2"/>
	</g>
	<g>
		<rect x="174.2" y="347.1" width="447" height="2"/>
	</g>
</g>
<g>
	<g>
		<g>
			<defs>
				<polygon id="SVGID_00000005263681952263285820000010983913970950444420_" points="62,199 63,199 62,200 				"/>
			</defs>
			<defs>
				<polygon id="SVGID_00000150815268433834463430000006710480287473520561_" points="60,197 59,197 60,196 				"/>
			</defs>
			<clipPath id="SVGID_00000168086766829622394100000014276644438073125038_">
				<use xlink:href="#SVGID_00000005263681952263285820000010983913970950444420_"  style="overflow:visible;"/>
			</clipPath>
			
				<clipPath id="SVGID_00000116231285175109957270000006821257821991679879_" style="clip-path:url(#SVGID_00000168086766829622394100000014276644438073125038_);">
				<use xlink:href="#SVGID_00000150815268433834463430000006710480287473520561_"  style="overflow:visible;"/>
			</clipPath>
		</g>
	</g>
</g>
<g>
	<g>
		<g>
			<defs>
				<polygon id="SVGID_00000141430894350931649160000009506022250019689144_" points="176,300 177,300 176,301 				"/>
			</defs>
			<defs>
				<polygon id="SVGID_00000025421607485528402350000012821820515819680180_" points="174,298 173,298 174,297 				"/>
			</defs>
			<clipPath id="SVGID_00000008852015923128280440000012395770513442416293_">
				<use xlink:href="#SVGID_00000141430894350931649160000009506022250019689144_"  style="overflow:visible;"/>
			</clipPath>
			
				<clipPath id="SVGID_00000097483543064376591390000012412145661304916866_" style="clip-path:url(#SVGID_00000008852015923128280440000012395770513442416293_);">
				<use xlink:href="#SVGID_00000025421607485528402350000012821820515819680180_"  style="overflow:visible;"/>
			</clipPath>
		</g>
	</g>
</g>
</svg>
