<?xml version="1.0" encoding="utf-8"?>
<!-- Generator: Adobe Illustrator 25.4.1, SVG Export Plug-In . SVG Version: 6.00 Build 0)  -->
<svg version="1.1" xmlns="http://www.w3.org/2000/svg" xmlns:xlink="http://www.w3.org/1999/xlink" x="0px" y="0px"
	 viewBox="0 0 792 612" style="enable-background:new 0 0 792 612;" xml:space="preserve">
<style type="text/css">
	.st0{fill:#FFFFFF;stroke:#000000;stroke-miterlimit:10;}
	.st1{fill:#BA001D;}
	.st2{fill:#57BCAF;}
	.st3{fill:none;}
	.st4{fill:#FFFFFF;}
	.st5{font-family:'Effra-Medium';}
	.st6{font-size:66px;}
	.st7{font-family:'Effra-Regular';}
	.st8{font-size:17px;}
	.st9{font-family:'Effra-Light';}
	.st10{font-family:'Effra-Bold';}
	.st11{font-size:21px;}
	.st12{fill:#09367B;}
	.st13{fill:#026649;}
	.st14{clip-path:url(#SVGID_00000170979250763041202380000012991659711159005107_);fill:#FFFFFF;}
	.st15{clip-path:url(#SVGID_00000098191875375432558170000014184333729846668972_);}
	.st16{clip-path:url(#SVGID_00000012459210037902992570000010854457541293699241_);}
	.st17{fill:none;stroke:#999999;}
	.st18{font-family:'ArialMT';}
	.st19{font-size:12px;}
	.st20{fill:#51525B;stroke:#732981;stroke-width:0.49;stroke-miterlimit:10;}
	.st21{fill:#2EADBE;stroke:#732981;stroke-width:0.49;stroke-miterlimit:10;}
	.st22{fill:#76AACE;stroke:#732981;stroke-width:0.49;stroke-miterlimit:10;}
	.st23{fill:#76AACE;stroke:#2A2B72;stroke-width:0.49;stroke-miterlimit:10;}
	.st24{fill:#FFFFFF;stroke:#4F2978;stroke-width:0.49;stroke-miterlimit:10;}
	.st25{fill:#981B29;stroke:#4F2978;stroke-width:0.49;stroke-miterlimit:10;}
	.st26{fill:#242062;stroke:#4F2978;stroke-width:0.49;stroke-miterlimit:10;}
	.st27{fill:#F26B30;stroke:#4F2978;stroke-width:0.49;stroke-linecap:round;stroke-linejoin:round;}
	.st28{fill:#F26B30;stroke:#4F2978;stroke-width:0.49;stroke-linejoin:round;}
	.st29{fill:#7D236C;stroke:#4F2978;stroke-width:0.49;stroke-miterlimit:10;}
	.st30{fill:#28387C;stroke:#4F2978;stroke-width:0.49;stroke-miterlimit:10;}
	.st31{fill:#5B7D9E;stroke:#4F2978;stroke-width:0.49;stroke-miterlimit:10;}
	.st32{fill:none;stroke:#4F2978;stroke-width:0.49;stroke-linecap:round;stroke-miterlimit:10;}
	.st33{fill:none;stroke:#4F2978;stroke-width:0.49;stroke-linecap:round;stroke-miterlimit:10;stroke-dasharray:2.48,2.48;}
	.st34{fill:none;stroke:#4F2978;stroke-width:0.49;stroke-miterlimit:10;}
	.st35{fill:#F9A341;stroke:#4F2978;stroke-width:0.49;stroke-miterlimit:10;}
	.st36{fill:#F8CC13;stroke:#732981;stroke-width:0.49;stroke-miterlimit:10;}
	.st37{fill:#FBD507;stroke:#732981;stroke-width:0.49;stroke-miterlimit:10;}
	.st38{fill:#FDF27E;stroke:#732981;stroke-width:0.49;stroke-miterlimit:10;}
	.st39{fill:#481E5E;stroke:#732981;stroke-width:0.49;stroke-miterlimit:10;}
	.st40{fill:#FCFDFF;}
	.st41{fill:#FFFFFF;stroke:#732981;stroke-width:0.49;stroke-miterlimit:10;}
	.st42{fill:#732981;stroke:#4D2774;stroke-width:0.49;stroke-miterlimit:10;}
	.st43{fill:#070707;}
	.st44{fill:#732981;stroke:#4F2978;stroke-width:0.49;stroke-miterlimit:10;}
	.st45{fill:none;stroke:#732981;stroke-width:0.49;stroke-linecap:round;stroke-miterlimit:10;}
	.st46{fill:#FBD507;stroke:#732981;stroke-width:0.49;stroke-linecap:round;stroke-miterlimit:10;}
	.st47{fill:#FBD507;stroke:#732A81;stroke-width:0.49;stroke-miterlimit:10;}
	.st48{fill:#747A82;stroke:#2A2B72;stroke-width:0.49;stroke-miterlimit:10;}
	.st49{fill:#454147;stroke:#1C1B1D;stroke-width:0.56;stroke-miterlimit:10;}
	.st50{fill:#2A282B;stroke:#1C1B1D;stroke-width:0.56;stroke-miterlimit:10;}
	.st51{fill:#981B29;stroke:#7C1315;stroke-width:0.38;stroke-miterlimit:10;}
	.st52{fill:#3D4044;stroke:#2A2B72;stroke-width:0.56;stroke-miterlimit:10;}
</style>
<g id="Layer_3">
	<rect x="-2" class="st0" width="793" height="608"/>
</g>
<g id="Layer_1">
	<rect x="0.2" class="st1" width="792" height="159"/>
	<rect x="0.1" y="598.6" class="st2" width="792" height="13.4"/>
	<rect x="32.7" y="28.3" class="st3" width="735.6" height="431.8"/>
	<text transform="matrix(1 0 0 1 195.4734 72.272)" class="st4 st5 st6">I Know How to  </text>
	<text transform="matrix(1 0 0 1 91.3734 138.272)" class="st4 st5 st6">Stay Safe on the Road</text>
	<text transform="matrix(1 0 0 1 350.4734 193.472)" class="st7 st8">Presented to:</text>
	<text transform="matrix(1 0 0 1 47.6734 245.872)" class="st9 st8">___________________________________________________________________________________ </text>
	<text transform="matrix(1 0 0 1 361.2734 274.272)" class="st7 st8">Attending:</text>
	<text transform="matrix(1 0 0 1 175.1734 347.072)" class="st9 st8">_____________________________________________________ </text>
	<text transform="matrix(1 0 0 1 165.8734 380.472)" class="st10 st11">For completing the Stony Brook Children’s Hospital  </text>
	<text transform="matrix(1 0 0 1 256.7734 405.472)" class="st10 st11">Teddy Bear Clinic Safety Game.</text>
	<g>
		<g>
			<path class="st12" d="M277.6,536.5l1.1-1.8h1l0.3,7.3h-1.2c-0.8-3.2-2.7-6.2-6.3-6.2c-2.7,0-4.1,1.5-4.1,3.3
				c0,1.5,0.9,2.7,3.1,3.3c0,0,3.1,0.8,5.5,1.5c1.6,0.4,3.8,2.1,3.8,5.6c0,3.6-2.7,6-6.7,6c-1.9,0-4-0.5-5.8-2.1l-1.2,1.9h-1
				l-0.2-7.8l1.2-0.1c0.6,3.6,2.8,6.9,7,6.9c3.1,0,4.6-1.8,4.6-3.6s-0.7-3.1-3.1-3.7c0,0-3.2-0.8-5.2-1.4c-1.7-0.5-4.1-1.7-4.1-5.2
				c0-3.8,2.7-5.7,6.1-5.7C273.9,534.6,275.9,534.9,277.6,536.5z"/>
			<path class="st12" d="M286.4,536.6v5.6h4.1v1.2h-4.1v8.5c0,1.1,0.4,1.9,1.8,1.9c1.8,0,2.2-2.4,2.2-3.8h1.1
				c0.1,2.7-0.9,5.4-4.2,5.4c-1.8,0-3.4-1.1-3.4-3v-9.1h-2.3v-1.2c3.8-0.2,3.6-5.4,3.7-5.6L286.4,536.6L286.4,536.6z"/>
			<path class="st12" d="M304.5,548.8c0,3.6-2.1,6.7-6.1,6.7c-3.9,0-5.9-3.3-5.9-6.8c0-4,2.7-7,5.9-7
				C302.2,541.8,304.5,544.9,304.5,548.8z M295.3,548.7c0,1.9,0.4,5.8,3.1,5.8c3.1,0,3.3-3.7,3.3-5.9c0-2.4-0.4-5.7-3.1-5.7
				C295.7,542.9,295.3,546.5,295.3,548.7z"/>
			<path class="st12" d="M318.7,547v6.1c0,1,0.3,0.8,1.7,0.9c0,0,0.2,0,0.5,0v1h-7v-1h0.6c0.4,0,0.8,0,1.1-0.1
				c0.4-0.1,0.6-0.3,0.6-0.8v-6.4c0-2.4-1-3.3-2.6-3.3c-2.3,0-3.5,2.2-3.5,4.3v5.2c0,0.3,0,0.5,0.1,0.7c0.1,0.4,0.6,0.5,1.1,0.5
				c0.3,0,0.7,0,1.1,0v1h-7.1v-1h0.7c0.8,0,1.6-0.1,1.6-0.9V545c0-1.1-0.2-1.2-0.8-1.3c-0.2,0-1.5-0.1-1.5-0.1v-1.2l4.8-0.3v2.4h0.1
				c0.6-1.1,1.9-2.8,4.2-2.8C316.8,541.8,318.7,543.6,318.7,547z"/>
			<path class="st12" d="M326,542.2v1c-0.7,0.1-1.9-0.3-1.9,0.6c0,0.1,0.1,0.4,0.2,0.6l3.1,7.4l2.8-7.1c0-0.1,0.1-0.3,0.1-0.4
				c0-1.3-1.2-1.1-2-1.1v-1h5.5v1c-1.1,0.1-1.6,0.2-2.5,2.3l-3.3,8.1c-0.1,0.1-0.8,1.8-1.6,3.5c-1.1,2.2-2.7,3.8-4.8,3.8
				c-1.5,0-2.6-0.8-2.6-2.2c0-1,0.8-1.6,1.7-1.6c0.7,0,1.3,0.6,1.3,1.2c0,0.9-0.2,0.8-0.2,1c0,0.3,0.3,0.3,0.4,0.3
				c1.6,0,3.2-3.3,3.8-4.6l-4.5-10.3c-0.5-1.1-0.8-1.5-2.2-1.4v-1L326,542.2L326,542.2z"/>
			<path class="st12" d="M348.2,535c4.4,0,6.2,2.5,6.2,4.8c0,3-2.4,4.6-4.9,4.8v0.1c0.5,0.1,2.1,0.1,3.8,1.2c1,0.6,2.1,1.8,2.1,3.8
				c0,1.5-0.6,2.9-1.4,3.6c-1.5,1.4-3.8,1.9-7.1,1.9h-9.3v-1.3c2.7-0.1,3.1,0.1,3.1-1.8v-14.3c0-1.4-0.6-1.4-1.9-1.4
				c-0.3,0-0.8,0-1.1,0V535H348.2z M350.3,537.3c-0.8-1-2.6-1.1-4.3-1.1c-0.9,0-2.3-0.3-2.3,1.4v6.5c0,0,0.8,0,1.4,0
				c3.6,0,6.1-0.2,6.1-3.9C351.2,538.8,350.8,537.9,350.3,537.3z M343.7,545.4v6.4c0,2,0.2,2,2.5,2c2.4,0,3.9-0.3,4.7-1.1
				c0.7-0.7,1.1-1.7,1.1-3.1c0-4-2.8-4.4-6-4.4C345.3,545.3,344.6,545.3,343.7,545.4z"/>
			<path class="st12" d="M367.6,543.9c0,1.1-0.6,1.9-1.6,1.9s-1.5-0.8-1.5-1.5c0-0.8,0.3-1.1,0.6-1.4c-3.1,0.4-3.9,5.5-3.9,7.2v3.2
				c0,0.8,0.8,0.8,1.6,0.8c0.4,0,0.8,0,1,0v1h-7.5v-1c1.6-0.1,2.3,0.2,2.3-1.1v-8c0-1.4-1-1.4-1.9-1.4h-0.6v-1.2l5.1-0.3v3.3h0.1
				c0.3-1.3,1.6-3.7,4.1-3.7C366.7,541.8,367.6,542.7,367.6,543.9z"/>
			<path class="st12" d="M380.1,548.8c0,3.6-2.1,6.7-6.1,6.7c-3.9,0-5.9-3.3-5.9-6.8c0-4,2.7-7,5.9-7
				C377.8,541.8,380.1,544.9,380.1,548.8z M371,548.7c0,1.9,0.4,5.8,3.1,5.8c3.1,0,3.3-3.7,3.3-5.9c0-2.4-0.4-5.7-3.1-5.7
				C371.3,542.9,371,546.5,371,548.7z"/>
			<path class="st12" d="M394.4,548.8c0,3.6-2.1,6.7-6.1,6.7c-3.9,0-5.9-3.3-5.9-6.8c0-4,2.7-7,5.9-7
				C392.1,541.8,394.4,544.9,394.4,548.8z M385.2,548.7c0,1.9,0.4,5.8,3.1,5.8c3.1,0,3.3-3.7,3.3-5.9c0-2.4-0.4-5.7-3.1-5.7
				C385.6,542.9,385.2,546.5,385.2,548.7z"/>
			<path class="st12" d="M399.8,548.5l3.9-3.8c0.4-0.4,0.7-0.6,0.7-1.1c0-0.4-0.6-0.5-1-0.5h-1.3v-1h7.3v1c-2.7,0.1-3.9,1.6-6,3.6
				l4.4,6c0.5,0.7,1.5,1.3,2.9,1.3v1h-7.3v-1c0.3,0,0.7-0.1,1-0.1s0.8,0,0.8-0.4c0-0.3-0.2-0.4-0.4-0.7l-3.2-4.6l-1.8,1.6v3.2
				c0,1,0.5,0.9,1.6,0.9h0.5v1H395v-1h0.5c1,0,1.7,0.1,1.7-1.1V537c0-1.2-0.5-1.2-1.8-1.2c0,0-0.2,0-0.7,0v-1.2l5.1-0.3L399.8,548.5
				L399.8,548.5z"/>
			<path class="st13" d="M428.8,536.5l1.1-1.8h1l0.4,8l-1.2,0.1c-1-4.1-2.7-7-6.3-7c-2,0-3.8,1.1-4.8,3.3c-0.6,1.5-1,3.2-1,6.4
				c0,5.8,2,8.7,6.1,8.7c3.9,0,5.8-2.8,6.3-6.2l1.3,0.2c-0.7,4.7-3.6,7.3-8,7.3c-5.5,0-9.4-4.4-9.4-10c0-2.9,0.8-5.5,2.4-7.4
				c1.8-2.2,3.9-3.5,6.9-3.5C426.1,534.6,427.8,535.5,428.8,536.5z"/>
			<path class="st13" d="M437.5,544.5L437.5,544.5c0.7-1.4,2.3-2.8,4.5-2.8c3.1,0,4.3,2.1,4.3,5v5.8c0,1.4-0.1,1.4,1.3,1.5
				c0,0,0.6,0,0.9,0v1h-7.1v-1h0.5c1.2,0,1.8,0,1.8-1.2v-6c0-1.7-0.5-3.4-2.6-3.4c-2.4,0-3.7,2.2-3.7,4.3v5.1c0,1.2,0.6,1.2,1.3,1.2
				c0.3,0,0.6,0,0.9,0v1h-7v-1h0.6c0.9,0,1.7,0,1.7-1.3V537c0-1.1-0.4-1-1.8-1.1h-0.6v-1.2l5-0.3L437.5,544.5L437.5,544.5z"/>
			<path class="st13" d="M449.3,555.1v-1h0.7c1.3,0,1.7-0.1,1.7-1.3V545c0-1.3-0.3-1.3-1.6-1.3c-0.3,0-0.7,0-1,0v-1.2l5.2-0.3v11.2
				c0,0.7,0.4,0.7,1.6,0.8c0.3,0,0.6,0,0.8,0v1h-7.4V555.1z M454.4,536.8c0,0.8-0.7,1.7-1.6,1.7s-1.6-0.7-1.6-1.7
				c0-0.8,0.7-1.6,1.6-1.6S454.4,536,454.4,536.8z"/>
			<path class="st13" d="M462.7,553.3c0,0.8,0.4,0.8,1.4,0.8c0.3,0,0.6,0,0.9,0v1h-7.2v-1h0.6c0.6,0,1.7,0.2,1.7-1.1v-15.9
				c0-1.1-0.6-1.1-1.6-1.1c-0.3,0-0.6,0-0.9,0v-1.2l5.1-0.3V553.3z"/>
			<path class="st13" d="M477.4,552.7c0,1.5,1.3,1.1,2.3,1.2v1.2l-4.8,0.3V553c-0.6,1.4-1.6,2.6-3.8,2.6c-3.7,0-5.6-3-5.6-6.7
				c0-3.8,2-7,5.5-7c1.8,0,3,0.8,3.9,2.1v-6.8c0-1.2-0.9-1.1-1.8-1.1c-0.3,0-0.8,0-1,0v-1.2l5.4-0.3v18.1H477.4z M468.3,548.8
				c0,2.4,0.6,5.2,3.3,5.2c2.7,0,3.3-3.2,3.3-5.3c0-2.4-0.6-5.5-3.3-5.5C468.7,543.2,468.3,546.6,468.3,548.8z"/>
			<path class="st13" d="M492,543.9c0,1.1-0.6,1.9-1.6,1.9s-1.5-0.8-1.5-1.5c0-0.8,0.3-1.1,0.6-1.4c-3.1,0.4-3.9,5.5-3.9,7.2v3.2
				c0,0.8,0.8,0.8,1.6,0.8c0.4,0,0.8,0,1,0v1h-7.5v-1c1.6-0.1,2.3,0.2,2.3-1.1v-8c0-1.4-1-1.4-1.9-1.4h-0.6v-1.2l5.1-0.3v3.3h0.1
				c0.3-1.3,1.6-3.7,4.1-3.7C491.2,541.8,492,542.7,492,543.9z"/>
			<path class="st13" d="M504.2,548.8h-9.1c-0.1,2.8,1.1,5.3,3.9,5.3c2.2,0,3.4-1.3,4.2-3l0.9,0.5c-1.1,2.3-2.6,3.9-5.6,3.9
				c-3.3,0-6.3-2-6.3-6.5c0-3.9,2.4-7.2,6.2-7.2c2.3,0,3.8,1.3,4.8,2.9C503.9,545.9,504.2,548.4,504.2,548.8z M495.2,547.7h5.1
				c0.8,0,1-0.2,1-1.1c0-1.3-0.5-3.7-2.9-3.7C495.9,542.9,495.3,545.7,495.2,547.7z"/>
			<path class="st13" d="M519.3,547v6.1c0,1,0.3,0.8,1.7,0.9c0,0,0.2,0,0.5,0v1h-7v-1h0.6c0.4,0,0.8,0,1.1-0.1
				c0.4-0.1,0.6-0.3,0.6-0.8v-6.4c0-2.4-1-3.3-2.6-3.3c-2.3,0-3.5,2.2-3.5,4.3v5.2c0,0.3,0,0.5,0.1,0.7c0.1,0.4,0.6,0.5,1.1,0.5
				c0.3,0,0.7,0,1.1,0v1h-7.1v-1h0.7c0.8,0,1.6-0.1,1.6-0.9V545c0-1.1-0.2-1.2-0.8-1.3c-0.2,0-1.5-0.1-1.5-0.1v-1.2l4.8-0.3v2.4h0.1
				c0.6-1.1,1.9-2.8,4.2-2.8C517.4,541.8,519.3,543.6,519.3,547z"/>
			<path class="st13" d="M521.7,542c0.9-0.8,2.8-2.4,2.8-3.9c0-0.2,0-0.3-0.2-0.3c-0.3,0-0.4,0.1-0.7,0.1c-0.9,0-1.6-0.7-1.7-1.7
				c0-0.9,0.9-1.6,1.8-1.6c1.5,0,2.2,1.4,2.2,2.7c0,3.4-3.4,5.1-3.7,5.5L521.7,542z"/>
			<path class="st13" d="M532.3,542.9l0.8-1h0.9v4.6h-1c-0.5-2-1.8-3.6-4.1-3.6c-1.3,0-2.6,0.7-2.6,2c0,0.9,0.7,1.5,1.7,1.8
				c1.1,0.3,3.8,0.8,4.4,1c1.1,0.4,2.4,1.4,2.4,3.6c0,3.1-2.4,4.2-4.6,4.2c-1.4,0-2.7-0.4-3.8-1.4l-1,1.2h-0.9V550h1
				c0.6,2.5,2.2,4.3,4.8,4.3c1.3,0,2.8-0.7,2.8-2.2c0-1.2-0.9-1.7-1.9-2c-1.1-0.4-2.7-0.6-4.1-1.1c-2.1-0.7-2.4-2.1-2.4-3.5
				c0-2.5,1.8-3.9,4.1-3.9C530.4,541.8,531.4,542.2,532.3,542.9z"/>
		</g>
		<g>
			<g>
				<defs>
					<path id="SVGID_1_" d="M399.8,455.3c-18.4,0-33.3,14.9-33.3,33.3s14.9,33.3,33.3,33.3s33.3-14.9,33.3-33.3
						C433.2,470.2,418.2,455.3,399.8,455.3z"/>
				</defs>
				<clipPath id="SVGID_00000152264522824392171520000004406717226633164726_">
					<use xlink:href="#SVGID_1_"  style="overflow:visible;"/>
				</clipPath>
				<path style="clip-path:url(#SVGID_00000152264522824392171520000004406717226633164726_);fill:#FFFFFF;" d="M399.8,522
					c18.4,0,33.3-14.9,33.3-33.3s-14.9-33.3-33.3-33.3s-33.3,14.9-33.3,33.3S381.4,522,399.8,522L399.8,522z"/>
			</g>
			<g>
				<defs>
					<path id="SVGID_00000061440668708793812810000016134591805256132028_" d="M399.8,455.3c-18.4,0-33.3,14.9-33.3,33.3
						s14.9,33.3,33.3,33.3s33.3-14.9,33.3-33.3C433.2,470.2,418.2,455.3,399.8,455.3z"/>
				</defs>
				<clipPath id="SVGID_00000103977092996225336270000002144005236142554240_">
					<use xlink:href="#SVGID_00000061440668708793812810000016134591805256132028_"  style="overflow:visible;"/>
				</clipPath>
				<g style="clip-path:url(#SVGID_00000103977092996225336270000002144005236142554240_);">
					<g>
						<path class="st1" d="M399.8,455.3c-18.4,0-33.3,14.9-33.3,33.3s14.9,33.3,33.3,33.3s33.3-14.9,33.3-33.3
							C433.2,470.2,418.2,455.3,399.8,455.3z"/>
					</g>
				</g>
			</g>
			<g>
				<defs>
					<path id="SVGID_00000132053686518517823530000014329036239360112777_" d="M399.8,455.3c-18.4,0-33.3,14.9-33.3,33.3
						s14.9,33.3,33.3,33.3s33.3-14.9,33.3-33.3C433.2,470.2,418.2,455.3,399.8,455.3z"/>
				</defs>
				<clipPath id="SVGID_00000106855337573435201750000017645114719372960936_">
					<use xlink:href="#SVGID_00000132053686518517823530000014329036239360112777_"  style="overflow:visible;"/>
				</clipPath>
				<g style="clip-path:url(#SVGID_00000106855337573435201750000017645114719372960936_);">
					<polygon class="st4" points="409.4,532.8 412.5,502.3 412,502.3 409,531.5 394,479.5 393.5,479.6 407.8,529.3 394.5,499.3 
						394.1,499.5 408.9,532.9 					"/>
					<path class="st4" d="M402.5,473.4c0-5.4-4.4-9.8-9.8-9.8s-9.8,4.4-9.8,9.8s4.4,9.8,9.8,9.8c0.4,0,0.7,0,1-0.1l-0.1,2
						c0,0.1,0.1,0.3,0.2,0.3s0.1,0.1,0.2,0.1h0.1l2.7-1c0.1,0,0.2-0.1,0.2-0.3c0-0.1,0-0.3-0.1-0.4l-1.2-1.2
						C399.8,481.3,402.5,477.7,402.5,473.4z"/>
					<path class="st4" d="M402.3,496.5c0-5.4-4.4-9.8-9.8-9.8s-9.8,4.4-9.8,9.8s4.4,9.8,9.8,9.8c1.2,0,2.3-0.2,3.3-0.6l0.2,1.6
						c0,0.1,0.1,0.2,0.2,0.3c0.1,0,0.1,0.1,0.2,0.1s0.1,0,0.2,0l2.3-1c0.1-0.1,0.2-0.2,0.2-0.3c0-0.1,0-0.3-0.1-0.3l-1.2-1.3
						C400.5,503,402.3,500,402.3,496.5z"/>
					<path class="st4" d="M422.8,496.5c0-5.4-4.4-9.8-9.8-9.8s-9.8,4.4-9.8,9.8c0,4.6,3.1,8.4,7.3,9.4l-0.7,1
						c-0.1,0.1-0.1,0.2,0,0.4c0,0.1,0.1,0.2,0.3,0.2l2.7,0.7h0.1c0.1,0,0.2,0,0.3-0.1c0.1-0.1,0.1-0.2,0.1-0.4l-0.4-1.5
						c0,0,0,0,0.1,0C418.4,506.3,422.8,501.9,422.8,496.5z"/>
				</g>
			</g>
		</g>
	</g>
	<rect x="0.1" y="-0.1" class="st17" width="792" height="612.2"/>
	<rect x="373.1" y="331.2" class="st3" width="469.9" height="40.9"/>
	<text id="line2" transform="matrix(1 0 0 1 373.1073 339.6973)" class="st18 st19">Your Institution</text>
	<rect x="358.5" y="220.8" class="st3" width="469.9" height="40.9"/>
	<text id="line1" transform="matrix(1 0 0 1 358.4755 229.2936)" class="st18 st19">Your name here</text>
	<g id="Sunnybear">
		<g id="Seat_00000106847513427691242410000006292511123833256361_">
			<path class="st20" d="M130.6,525.3c-8.1,6.1-29.9,6.9-40.1,6.8c-10.7-0.1-33.5-1.3-42.2-7.7c-3.6-2.7-9.1-15.3-9.1-15.3l99.1,2.1
				C138.4,511.3,133.9,522.9,130.6,525.3z"/>
			<path class="st21" d="M140.6,513.1c-8.9,8.1-37.1,10-49.2,9.1c-13.8-1-42.3-0.1-51.7-10.1c-3.9-4.3-4.1-17.8-3.4-23.5
				c0.7-5.7,7.9-15.6,7.9-21.2c0.1-9.2-13.9-17.2-11.2-34.9c1-6.8,7.2-19.8,7.1-26.7c-0.1-3.6-4-10-4.6-13.5c-1-6.5,0.3-21,4.9-25.8
				c8.4-8.1,34.4-9.5,46.2-8.8c11.9,0.8,39.1-1.5,47.4,6.9c4.5,4.6,5.1,19.3,3.7,25.6c-0.6,3-4.2,8.5-4.5,11.5
				c-0.7,8.7,8.6,24.9,9.3,33.5c1.4,17.7-6.5,23.7-6.3,31.9c0.1,5.5,5.5-1.2,7.3,20.5C144,493.8,145,509,140.6,513.1z"/>
			<path class="st22" d="M130.6,387.4c0,4.8-1.4,11.5-7,15.3c-8,5.3-22.8,6.6-37.2,6.6c-12.8,0-27.4-0.4-35.5-4.6
				c-7.3-3.9-8.8-11.3-8.8-17.1c0-4.8,0.4-12.3,6-15.9c8-5.3,23.8-6,38.3-6c14,0,27.6,0.2,35.7,5.3
				C128.1,374.6,130.6,382.4,130.6,387.4z"/>
			<path class="st23" d="M60,423.4c1.3,4.4-2.2,13.4-7.6,13.4s-15.1-10.2-15.1-18c0-7.8,3.2-16.2,8.2-14
				C49.5,406.7,58.1,417.4,60,423.4z"/>
			<path class="st22" d="M137.3,418c1.3-7.9-4.8-14.5-8.5-13.2c-5.5,2.2-14.6,15.6-14.4,22.4c0.1,5.8,5.3,10.5,7.9,9.6
				C129,434.4,136.2,425,137.3,418z"/>
		</g>
		<g id="Sunny_Seated_00000109736115099640426790000013125052049438847117_">
			<g id="Right_Sneaker_00000167375134963905333510000000280512318292502700_">
				<path class="st24" d="M133,576.7c-3.8,4.1-10.6,3.6-16,1.3c-3.6-1.4-6.9-3.7-9.6-6.6c-8-8.1-11.1-18.3-5.3-22.9
					c5.8-4.6,13.1-0.1,21.4,7.3c5.2,4.6,10.3,4.9,11.1,9.7C135.3,568.3,135.8,573.7,133,576.7z"/>
				<path class="st25" d="M106.7,568.3c-5.6-6-9.4-15.2-7-20.1c1-2,3.8-1.4,6-2.5c7.2-3.4,17.3,1.9,24.6,10.9
					c7.3,9,5.3,16.7,0.3,18.4C127.2,576.2,120.9,583.3,106.7,568.3z"/>
				<polygon class="st26" points="109.8,550.3 117.3,549.9 127.1,565.8 120.5,566.9 				"/>
				<path class="st24" d="M125.7,578.3c4.8,0,8-0.7,9.1-4.1c1.1-4,0.5-8.5,0-8.7c-3.6-1.1-7.4-1.2-11.1-0.3
					c-4.6,1.2-9.5,2.9-11.7,7.5C111.6,573.3,117.4,578.3,125.7,578.3z"/>
				<path class="st27" d="M112.1,558.4c0,0,5.1-1.2,6.9-1.5c1.5-0.2,6-0.4,6-0.4l-2-1.9c0,0-3.8,0.1-5.1,0.2
					c-1.8,0.1-6.9,1.3-6.9,1.3L112.1,558.4z"/>
				<path class="st28" d="M116,563.5c2-0.7,3.9-1.2,5.9-1.6c1.5-0.2,7.2,0,7.2,0l-2-2.6c-2.3-0.1-4.4,0-6.7,0.2
					c-1.6,0.3-6.3,1.8-6.3,1.8L116,563.5z"/>
			</g>
			<g id="Left_Sneaker_00000038395306377908216430000017442830980743360933_">
				<path class="st24" d="M49.3,579.6c6.5,5.5,15.1,3.1,22.7-4.7c7.6-7.8,9.5-18,4.1-23c-5.4-4.9-15.6-2.4-23.1,5.4
					c-4.6,4.7-6.3,5.4-6.3,10.3C46.7,570.4,46.3,576.9,49.3,579.6z"/>
				<path class="st25" d="M73.9,570.7c4.9-5.9,7.1-15.7,4.7-20.8c-1-2.2-3.7-1.6-5.7-2.8c-6.8-3.9-16.1,1.2-22.5,10.1
					c-6.4,8.9-4.1,17,0.5,19C54.2,577.4,61.3,585.7,73.9,570.7z"/>
				<polygon class="st26" points="70.2,551.7 63.5,551.3 53.2,566.2 60.3,567.6 				"/>
				<path class="st24" d="M55.9,581.2c-4.3,0-7.9-2-8.9-5.5c-0.7-2.7-0.8-5.4-0.3-8c0.4-1.8,7.5-2,10.4-1.5c4.3,0.7,11.8,4.6,12,9.4
					C69.1,576.1,63.4,581.2,55.9,581.2z"/>
				<path class="st27" d="M68.4,559.5c0,0-4.5-1.3-6.2-1.5c-1.3-0.2-5.4-0.5-5.4-0.5l1.8-2c0,0,3.5,0.1,4.6,0.2
					c1.5,0.2,6.2,1.4,6.2,1.4L68.4,559.5z"/>
				<path class="st28" d="M64.9,564.6c-1.8-0.7-3.5-1.3-5.4-1.8c-1.3-0.2-6.5,0-6.5,0l1.8-2.7c2-0.1,4,0,6,0.2
					c1.5,0.3,5.7,1.8,5.7,1.8L64.9,564.6z"/>
			</g>
			<g id="Clothes_00000074399767246257943590000011327776946864435623_">
				<path class="st29" d="M127.3,435.9c0.6,3.7,1.4,11.5,1.4,11.5c-4.5,14.3-24,16.8-33.1,16.3c-20-1.3-46.7,5.9-47.5-16.5
					c-1-30.1,19.1-39.7,39.2-39.7C107.3,407.5,123.1,410.2,127.3,435.9z"/>
				<path class="st30" d="M119.2,479.9c0,0,12.7-0.8,14,18.6c0.3,4.6-6.9,43.5-8.5,49.2c-1,3.9-23.8,2.6-25,2.1
					c-2.9-1.4,4.1-43.3,2.2-46.9c-4.2-7.3-5.1-15.9-14-14.8c-2.4,0.3-6.7,13.4-9.6,17c-2.5,3.2,2.6,44.4,0.3,45
					c-5.9,1.3-17.1,4.6-22.6-0.6c-1.8-1.5-10.9-48.2-10.9-52.7c0-4.9,10.4-17.6,10.3-17.9c-1-9.7,7.3-14.5,9.5-27.6
					c0.8-5.2,0.7-15.1,1.8-22.1c0.5-3.5,42.1-4.9,43.8-1.6C113.7,433.2,119.2,479.9,119.2,479.9z"/>
				<path class="st31" d="M109,458.7c-0.2,1.1-6.7,7.5-9.8,8.2c-3.1,0.8-15.5,0.7-20.9-1.3c-1.9-0.7-5.7-2.8-6.2-4.6
					c-0.7-2.6-2.8-17.7,1.9-20.1c3-1.5,29.3-2.1,31.4-1C109.6,442.3,109.7,454.8,109,458.7z"/>
				<path class="st32" d="M73.7,443c-0.2,0.4-0.2,0.8-0.2,1.2"/>
				<path class="st33" d="M73.3,446.7c-0.3,4-0.2,8.1,0.3,12.2c0.7,4.7,6.9,6.2,10.1,6.7c2.2,0.3,9.6,1.5,15.3-0.4
					c2.9-0.9,6.6-5.2,7-6.3c0.9-2,0.6-9.6,0.1-13.6"/>
				<path class="st32" d="M105.9,444c0-0.4-0.1-0.8-0.3-1.2"/>
				<path class="st31" d="M95.4,448.6c-1.3,0.6-8.5,0.6-10.3-0.1c-3-1.2-12.5-5.4-12.3-6.5c0.2-1.1,1.6-1.3,2.4-1.5
					c7.2-1.5,25.6-1.5,30.3-0.6c0.7,0.1,2,1.5,1.5,2C104.4,444.1,97,447.8,95.4,448.6z"/>
				<path class="st31" d="M105.9,444.3"/>
				<path class="st30" d="M73.6,425.2l-6.2,0.2c-2.6-2.6,1.3-14.4,1.3-14.4l3.8-1.5C72.5,409.4,72.3,420.8,73.6,425.2z"/>
				<path class="st30" d="M104.2,424.8l5.1-0.1c1.6-3.6-2.7-15-2.7-15l-3.3-0.9C103.4,408.7,104.9,420.6,104.2,424.8z"/>
				<path class="st34" d="M67.3,425.5c0.5,0.6,2.2,3.6,2.1,4.6c0,1.3-0.7,1.5-0.7,2.7c0,1.1,0.9,1.5,1.9,1.9
					c1.6,0.6,3.3-1.1,3.5-2.4c0.2-1.6-2.1-1.5-2.2-3.3c-0.1-1.3,0.3-2.6,1-3.7"/>
				<path class="st34" d="M109.4,424.7c-0.7,0.8-1.1,1.9-1.2,3c0,1.3,1,1.5,1.2,2.7c0.1,1.2-0.7,2.3-1.9,2.7c-1.2,0.5-2.6,0-3.2-1.1
					c-0.1-0.2-0.1-0.4-0.2-0.5c-0.2-1.6,1.1-1.6,1.3-3.5c-0.1-1.1-0.5-2.2-1.3-2.9"/>
				<ellipse class="st35" cx="71.4" cy="434" rx="1.9" ry="1.8"/>
				<ellipse class="st35" cx="90.1" cy="445.6" rx="1.9" ry="1.8"/>
				<ellipse class="st35" cx="106.4" cy="432.7" rx="1.9" ry="1.8"/>
			</g>
			<g id="Head_00000009568052119851724100000003912661114794277041_">
				<path id="right_outter_ear-2_00000119092883997672764570000011267963645557365131_" class="st36" d="M118.2,367.5
					c1,10.3-9.1,11.1-15.1,7.8c-6.4-3.7-8.8-8-8.9-9.6c-0.2-7.3,2.9-12,10.3-11.4C112,354.7,117.8,360.4,118.2,367.5z"/>
				<path id="left_outter_ear-2_00000160174074525364836730000004432844612479962761_" class="st37" d="M54,367
					c-0.9,10.1,9.1,11,14.8,7.7c6.4-3.7,8.7-7.9,8.8-9.5c0.2-7.3-2.8-11.9-10.2-11.3C60.3,354.3,54.5,359.9,54,367z"/>
				<path id="right_innner_ear-2_00000142889139252314390720000010702323803002745252_" class="st38" d="M112.3,367.6
					c0.4,5.6-4.3,6.2-7.2,4.3c-3.1-2-4.1-4.5-4.2-5.3c-0.1-4,1.3-6.2,4.8-5.7C108.6,361.3,112,364.1,112.3,367.6z"/>
				<path class="st38" d="M61.1,367.5c-0.4,5.6,4.3,6.1,7.1,4.2c3.1-2,4.1-4.4,4.1-5.2c0.1-4-1.3-6.1-4.7-5.6
					C64.2,361.4,61.6,364.1,61.1,367.5z"/>
				<path id="head-2_00000014631108265848520390000003366088928290800567_" class="st37" d="M113.7,390.4c0.1,6.3-1.6,13.7-7.9,16.6
					c-5.1,2.3-6.2,8.6-18.6,9.2c-11.7,0.6-12.6-5.2-19.8-7.3c-2.9-0.9-9.2-9.5-8.9-18c0.2-4.1,1.9-12.3,5.3-17.4
					c4.9-7.4,12.4-13.5,21.7-13.5s16,5.6,21.2,13.1C110.4,378,113.7,386.5,113.7,390.4z"/>
				<path id="snoot-2_00000051364909394408418050000008053233690321367686_" class="st38" d="M74.5,400.8c0-5.8,2.9-8.6,5.4-11.1
					c2.8-2.8,3-6.8,7.2-6.8c1.9,0,3.5,1,4.3,2.7c3.8,8.7,6.7,3.2,7.9,13.4c0.8,6.4-3.8,11-9.8,12.9
					C83.3,413.7,74.5,407.4,74.5,400.8z"/>
				<path id="nose-2_00000050664432413991272270000009998383106772919945_" class="st39" d="M81.2,392.3c-1-2.6-0.2-4.6,5.3-4.6
					c6.9,0,6.9,1.5,6.3,4c-0.4,1.5-3.2,4-5.9,4C84.6,395.6,82.4,394.3,81.2,392.3z"/>
				<path id="nose_shine-2_00000133529105087647083480000013967274594965512383_" class="st40" d="M89.9,389.5
					c0.1,0.3-0.6,0.9-0.9,0.9c-0.8,0.2-0.4-0.5-2.2-0.6c-1.5,0-1.4,0.6-2.1,0.6c-0.4,0-0.9-0.5-0.8-0.8c0.2-0.6,2-0.6,2.7-0.6
					C87.4,389.1,89.6,388.7,89.9,389.5z"/>
				<g id="right_eye-2_00000057144542684292125930000001572674981493533367_">
					<path class="st41" d="M101.3,385.5c-0.3,1.5-0.6,1.9-1,1.9s-1.1-0.3-2,0c-0.8,0.2-1.6,0.5-2.5,1c-0.5,0.4-1.3-2.4-1.6-3.1
						c-0.8-2.5,0.4-5.5,3.4-5.6C101,379.6,101.7,383,101.3,385.5z"/>
					<path class="st42" d="M101.1,384.7c0,0.8-0.3,2.3-0.8,2.6s0-0.1-2,0c-0.7,0.1-2.1,1-2.6,0.9c-0.9-0.2-1.4-2-1.4-3.4
						c0-1.9,1.5-3.3,3.4-3.3C99.6,381.5,101,382.9,101.1,384.7L101.1,384.7z"/>
					<ellipse class="st43" cx="97.6" cy="384.9" rx="2" ry="1.9"/>
					<ellipse class="st4" cx="97" cy="384.4" rx="0.8" ry="0.8"/>
					
						<ellipse id="l_twinkle-3_00000182507501366520804050000013492190223636659074_" class="st4" cx="98" cy="385.5" rx="0.4" ry="0.4"/>
					<path id="l_eyebrow-3_00000178900006888821568900000015531051399909355944_" class="st38" d="M100.7,375.2
						c0.7-0.9-1.9-3.1-3.8-3.5c-2.1-0.4-3.6,0.4-3.7,1.9c0,0.8,1.6,0.5,3.7,1C98.9,374.9,99.9,376.3,100.7,375.2z"/>
				</g>
				<g id="left_eye-2_00000121254847410960464760000005252406347062413494_">
					<path class="st41" d="M72.1,385.9c0.3,1.5,0.6,1.9,1,1.9s1.1-0.3,2,0c0.8,0.2,1.6,0.5,2.5,1c0.5,0.4,1.3-2.4,1.6-3.1
						c0.8-2.5-0.4-5.5-3.4-5.6C72.3,380,71.5,383.3,72.1,385.9z"/>
					<path class="st44" d="M72.3,385c0,0.8,0.3,2.3,0.8,2.6c0.5,0.3,0-0.1,2,0c0.7,0.1,2.1,1,2.6,0.9c0.9-0.2,1.4-2,1.4-3.4
						c0-1.9-1.5-3.3-3.4-3.3C73.8,381.8,72.3,383.2,72.3,385L72.3,385z"/>
					<ellipse class="st43" cx="75.7" cy="385.2" rx="2" ry="1.9"/>
					<ellipse class="st4" cx="74.9" cy="384.5" rx="0.8" ry="0.8"/>
					
						<ellipse id="l_twinkle-4_00000080197146916146428120000008308489678091052975_" class="st4" cx="76.1" cy="385.4" rx="0.4" ry="0.4"/>
					<path id="l_eyebrow-4_00000103962426855093881480000004648245107343517865_" class="st38" d="M72.7,375.5
						c-0.7-0.9,1.9-3.1,3.8-3.5c2.1-0.4,3.6,0.4,3.7,1.9c0,0.8-1.6,0.5-3.7,1S73.5,376.6,72.7,375.5z"/>
				</g>
				<g id="mouth-2_00000091734444329742754430000003706315925022986648_">
					<path class="st45" d="M78.3,397.1c0,0,1.4,4.1,4,4.1s4.4-1.3,4.9-1.3c0.5,0,2.2,1.3,4.4,0.6s3.8-4.2,3.8-4.2"/>
					<path class="st45" d="M87.4,399.7c-0.1-0.3-0.1-0.5,0-0.8"/>
					<path id="chin-2_00000085965601014969392470000013370013631806558897_" class="st45" d="M86.6,404.7c0,0.7,2.7,0.7,2.7,0"/>
				</g>
			</g>
			<g id="Left_Arm_00000131349279877294802170000013126267103944616115_">
				<path class="st37" d="M56.5,471.5l-11.1-11l3.3-19.5c0,0,6.5,5.7,9.1,7.1c2,1.1,8.9,2.9,8.9,2.9s-1.2,14-1.8,15.8
					c-0.3,0.9-2.2,3.9-4.2,4.8C59.2,472.1,57.7,472.1,56.5,471.5z"/>
				<path class="st46" d="M61.8,465.1c0,6.9-7.4,7.1-14.3,7.1s-12.9,2-14.5-5.6c-1-4.6,3-11,13.3-11.9
					C57.4,454,61.8,461.3,61.8,465.1z"/>
				<path class="st45" d="M40.8,466.6c-0.5,2.1,0,4.2,1.3,5.9"/>
				<path class="st45" d="M47.6,466.2c-0.1,2,0.1,3.9,0.6,5.8"/>
				<path class="st45" d="M54,464.8c0.9,1.4,1.1,5.7,0.5,6.6"/>
			</g>
			<g id="Right_Arm_00000181078679394062382180000001244606583159423624_">
				<path class="st47" d="M131.2,450.4c1,1.3,2.1,2.7,3.3,3.9l0.5,13.2l-10.6,4.5c0,0-5.1-6.9-6.2-9.5c-1.5-3.7-3.2-15.5-3.2-15.5
					c2.8-0.4,5.5-1.2,8-2.5c0.9-0.4,4.9-4.5,4.9-4.5S130.4,448.8,131.2,450.4z"/>
				<path class="st37" d="M147.7,463.9c0,2,0.2,5.5-3.4,6.2c-1.9,0.4-4.1-0.6-8.1-0.7c-2.9-0.1-5.9,1.6-7.8,1.3
					c-4.2-1-5.3-4.9-5.3-7.3c0-3.3,3.2-9.1,12.7-8.4C143.5,455.5,147.7,460.6,147.7,463.9z"/>
				<path class="st45" d="M136,463.3c-0.3,2.1,0,4.1,0.7,6.1"/>
				<path class="st45" d="M129.9,463.1c-1.2,1.5,0.5,5.4,1.6,6.3"/>
				<path class="st45" d="M140.6,469.4c2.1-1.2,1.8-4.5,0.9-5.7"/>
			</g>
		</g>
		<g id="Seatbelt_00000057847198211396677280000009540875024750924464_">
			<path class="st48" d="M120.8,472.7c2.2,1.4,5.3,9.1,2.9,8.2c-20.7-7.6-53-8.5-69.8,1.1c-2.3,1.2,3.5-5.9,5.5-7.4
				C72.5,465.3,107.4,464,120.8,472.7z"/>
			<path class="st48" d="M87.3,466.2l-7.6,4.1l-4.7-40.9l-10.5-16.5c2.2-1.4,4.5-2.5,7-3.3L84,425.7L87.3,466.2z"/>
			<path class="st48" d="M100.5,468.1l-7.7-3.3l1.4-38.2l9.4-18.3c2.9,0.4,5.7,1.3,8.2,2.8l-7.5,16.8L100.5,468.1z"/>
			<path class="st49" d="M78.4,465.6c10.1-6.7,11.1,1.4,11.1,1.4s2.5-7.4,11.1-1.5c4.2,2.9-4.3,9.7-8.2,10.2c-2.9,0.4-3.5,0-6.1-0.4
				C83,474.6,73.8,468.7,78.4,465.6z"/>
			<path class="st50" d="M95.7,476.7H83v-6.1c-0.1-3.4,4.3-4.9,6.5-4.9c2.2,0,6.3,1.2,6.2,4.9V476.7z"/>
			<path class="st51" d="M92.5,471.5c-1.3,1-4.8,0.8-6.2,0c-0.6-0.6-0.9-1.5-0.8-2.4c0.9-1.9,6.5-1.6,7.6,0
				C93.5,469.5,93,471.1,92.5,471.5z"/>
			<path class="st52" d="M103.6,433.1c-3,1.8-9.3-2.5-15.5-2.5c-6,0-12.1,4.4-14.7,2.5c-1.9-1.4-1.6-6.3,0-7.8
				c2.4-2.2,8.7-4.7,15-4.6c5.5,0.2,10.7,1.8,15.3,4.6C105.4,426.7,105.6,431.8,103.6,433.1z"/>
			<path class="st48" d="M84,476.7c0,0-0.3,11.2,1.4,14.2h10.3c0.2-4.3-0.8-14.2-0.8-14.2H84z"/>
		</g>
		<g id="Armrest_00000115515958530746118920000004218835575051581572_">
			<path class="st21" d="M30.4,479.5c-0.4-5.5,7.9-6.7,16.7-7.7c9.2-1,17.1-0.7,17.1,4.9c0,5.3-5.5,7.9-16,8.8
				C39.4,486.3,30.8,485.7,30.4,479.5z"/>
			<path class="st21" d="M119.5,475.7c-0.7-5.2,6.4-7.5,14.8-7.5c8.2,0,14.8,2.3,14.8,7.5c0,5.5-6.6,5.9-14.8,5.9
				C126.1,481.5,120,479.9,119.5,475.7z"/>
		</g>
	</g>
	
		<image style="overflow:visible;" width="395" height="637" id="Kristibear" xlink:href="91713EF7BC57D102.png"  transform="matrix(0.4584 0 0 0.4584 630.2265 296.9934)">
	</image>
</g>
</svg>
