<?xml version="1.0" encoding="utf-8"?>
<!-- Generator: Adobe Illustrator 25.4.1, SVG Export Plug-In . SVG Version: 6.00 Build 0)  -->
<svg version="1.1" id="certificate" xmlns="http://www.w3.org/2000/svg" xmlns:xlink="http://www.w3.org/1999/xlink" x="0px"
	 y="0px" viewBox="0 0 790 612" style="enable-background:new 0 0 790 612;" xml:space="preserve">
<style type="text/css">
	.st0{fill:#FFFFFF;}
	.st1{fill:#BA001D;}
	.st2{fill:#57BCAF;}
	.st3{fill:none;}
	.st4{font-family:'Effra-Medium';}
	.st5{font-size:66px;}
	.st6{font-family:'Effra-Regular';}
	.st7{font-size:17px;}
	.st8{font-family:'Effra-Bold';}
	.st9{font-size:21px;}
	.st10{fill:#09367B;}
	.st11{fill:#026649;}
	.st12{clip-path:url(#SVGID_00000123399449382989908110000005664000204888661684_);}
	.st13{clip-path:url(#SVGID_00000159451191608535733050000016359820469459101093_);}
	.st14{clip-path:url(#SVGID_00000103226941471356447710000011191942442156137398_);}
	.st15{fill:none;stroke:#999999;}
	.st16{display:none;}
	.st17{display:inline;fill:#FFFFFF;stroke:#4D037D;stroke-width:0.49;stroke-miterlimit:10;}
	.st18{display:inline;fill:#980026;stroke:#4D037D;stroke-width:0.49;stroke-miterlimit:10;}
	.st19{display:inline;fill:#180068;stroke:#4D037D;stroke-width:0.49;stroke-miterlimit:10;}
	.st20{display:inline;fill:#FD6B2C;stroke:#4D037D;stroke-width:0.49;stroke-linecap:round;stroke-linejoin:round;}
	.st21{display:inline;fill:#FD6B2C;stroke:#4D037D;stroke-width:0.49;stroke-linejoin:round;}
	.st22{display:inline;fill:#7F0F6B;stroke:#4D037D;stroke-width:0.49;stroke-miterlimit:10;}
	.st23{display:inline;fill:#21347E;stroke:#4D037D;stroke-width:0.49;stroke-miterlimit:10;}
	.st24{display:inline;fill:#5B7D9F;stroke:#4D037D;stroke-width:0.49;stroke-miterlimit:10;}
	.st25{display:inline;fill:none;stroke:#4D037D;stroke-width:0.49;stroke-linecap:round;stroke-miterlimit:10;}
	
		.st26{display:inline;fill:none;stroke:#4D037D;stroke-width:0.49;stroke-linecap:round;stroke-miterlimit:10;stroke-dasharray:2.48,2.48;}
	.st27{display:inline;fill:none;stroke:#4D037D;stroke-width:0.49;stroke-miterlimit:10;}
	.st28{display:inline;fill:#FEA53E;stroke:#4D037D;stroke-width:0.49;stroke-miterlimit:10;}
	.st29{display:inline;fill:#FDD609;stroke:#751284;stroke-width:0.49;stroke-miterlimit:10;}
	.st30{display:inline;fill:none;stroke:#751384;stroke-width:0.49;stroke-linecap:round;stroke-miterlimit:10;}
	.st31{display:inline;fill:#FDD609;stroke:#751384;stroke-width:0.49;stroke-miterlimit:10;}
	.st32{display:inline;fill:#F9CD0C;stroke:#751284;stroke-width:0.49;stroke-miterlimit:10;}
	.st33{display:inline;fill:#FFF27B;stroke:#751284;stroke-width:0.49;stroke-miterlimit:10;}
	.st34{display:inline;fill:#49015F;stroke:#751284;stroke-width:0.49;stroke-miterlimit:10;}
	.st35{display:inline;fill:#FCFEFE;}
	.st36{display:inline;}
	.st37{fill:#FFFFFF;stroke:#751284;stroke-width:0.49;stroke-miterlimit:10;}
	.st38{fill:#751284;stroke:#4C0179;stroke-width:0.49;stroke-miterlimit:10;}
	.st39{fill:#070606;}
	.st40{fill:#FFF27B;stroke:#751284;stroke-width:0.49;stroke-miterlimit:10;}
	.st41{fill:#751284;stroke:#4D037D;stroke-width:0.49;stroke-miterlimit:10;}
	.st42{fill:none;stroke:#751284;stroke-width:0.49;stroke-linecap:round;stroke-miterlimit:10;}
	.st43{display:inline;fill:#51515A;stroke:#751284;stroke-width:0.49;stroke-miterlimit:10;}
	.st44{display:inline;fill:#2DAEC0;stroke:#751284;stroke-width:0.49;stroke-miterlimit:10;}
	.st45{display:inline;fill:#76ABD0;stroke:#751284;stroke-width:0.49;stroke-miterlimit:10;}
	.st46{display:inline;fill:#76ABD0;stroke:#10157B;stroke-width:0.49;stroke-miterlimit:10;}
	.st47{display:inline;fill:#FDD609;stroke:#751284;stroke-width:0.49;stroke-linecap:round;stroke-miterlimit:10;}
	.st48{display:inline;fill:none;stroke:#751284;stroke-width:0.49;stroke-linecap:round;stroke-miterlimit:10;}
	.st49{display:inline;fill:#FDD609;stroke:#751484;stroke-width:0.49;stroke-miterlimit:10;}
	.st50{display:inline;fill:#747A82;stroke:#10157B;stroke-width:0.49;stroke-miterlimit:10;}
	.st51{display:inline;fill:#454147;stroke:#1D1B1E;stroke-width:0.56;stroke-miterlimit:10;}
	.st52{display:inline;fill:#3C4044;stroke:#10157B;stroke-width:0.56;stroke-miterlimit:10;}
	.st53{display:inline;fill:#2A282B;stroke:#1D1B1E;stroke-width:0.56;stroke-miterlimit:10;}
	.st54{display:inline;fill:#980026;stroke:#7C0C08;stroke-width:0.38;stroke-miterlimit:10;}
	.st55{fill:#51515A;stroke:#751284;stroke-width:0.49;stroke-miterlimit:10;}
	.st56{fill:#2DAEC0;stroke:#751284;stroke-width:0.49;stroke-miterlimit:10;}
	.st57{fill:#76ABD0;stroke:#751284;stroke-width:0.49;stroke-miterlimit:10;}
	.st58{fill:#76ABD0;stroke:#10157B;stroke-width:0.49;stroke-miterlimit:10;}
	.st59{fill:#FFFFFF;stroke:#4D037D;stroke-width:0.49;stroke-miterlimit:10;}
	.st60{fill:#980026;stroke:#4D037D;stroke-width:0.49;stroke-miterlimit:10;}
	.st61{fill:#180068;stroke:#4D037D;stroke-width:0.49;stroke-miterlimit:10;}
	.st62{fill:#FD6B2C;stroke:#4D037D;stroke-width:0.49;stroke-linecap:round;stroke-linejoin:round;}
	.st63{fill:#FD6B2C;stroke:#4D037D;stroke-width:0.49;stroke-linejoin:round;}
	.st64{fill:#7F0F6B;stroke:#4D037D;stroke-width:0.49;stroke-miterlimit:10;}
	.st65{fill:#21347E;stroke:#4D037D;stroke-width:0.49;stroke-miterlimit:10;}
	.st66{fill:#5B7D9F;stroke:#4D037D;stroke-width:0.49;stroke-miterlimit:10;}
	.st67{fill:none;stroke:#4D037D;stroke-width:0.49;stroke-linecap:round;stroke-miterlimit:10;}
	.st68{fill:none;stroke:#4D037D;stroke-width:0.49;stroke-linecap:round;stroke-miterlimit:10;stroke-dasharray:2.48,2.48;}
	.st69{fill:none;stroke:#4D037D;stroke-width:0.49;stroke-miterlimit:10;}
	.st70{fill:#FEA53E;stroke:#4D037D;stroke-width:0.49;stroke-miterlimit:10;}
	.st71{fill:#F9CD0C;stroke:#751284;stroke-width:0.49;stroke-miterlimit:10;}
	.st72{fill:#FDD609;stroke:#751284;stroke-width:0.49;stroke-miterlimit:10;}
	.st73{fill:#49015F;stroke:#751284;stroke-width:0.49;stroke-miterlimit:10;}
	.st74{fill:#FCFEFE;}
	.st75{fill:#FDD609;stroke:#751284;stroke-width:0.49;stroke-linecap:round;stroke-miterlimit:10;}
	.st76{fill:#FDD609;stroke:#751484;stroke-width:0.49;stroke-miterlimit:10;}
	.st77{fill:#747A82;stroke:#10157B;stroke-width:0.49;stroke-miterlimit:10;}
	.st78{fill:#454147;stroke:#1D1B1E;stroke-width:0.56;stroke-miterlimit:10;}
	.st79{fill:#2A282B;stroke:#1D1B1E;stroke-width:0.56;stroke-miterlimit:10;}
	.st80{fill:#980026;stroke:#7C0C08;stroke-width:0.38;stroke-miterlimit:10;}
	.st81{fill:#3C4044;stroke:#10157B;stroke-width:0.56;stroke-miterlimit:10;}
	.st82{font-family:'ArialMT';}
	.st83{font-size:32px;}
	.st84{clip-path:url(#SVGID_00000182524231936736599990000002993651222327232390_);}
	.st85{clip-path:url(#SVGID_00000121243234188210746850000002604364576433259704_);}
</style>
<g id="Layer_1-2">
	<rect x="-2" y="-2" class="st0" width="792" height="615"/>
	<rect x="-0.8" class="st1" width="792" height="159"/>
	<rect x="-0.9" y="598.6" class="st2" width="792" height="13.4"/>
	<rect x="31.7" y="28.3" class="st3" width="735.6" height="431.8"/>
	<text transform="matrix(1 0 0 1 194.47 72.27)" class="st0 st4 st5">I Know How to</text>
	<text transform="matrix(1 0 0 1 90.37 138.27)" class="st0 st4 st5">Stay Safe on the Road</text>
	<text transform="matrix(1 0 0 1 349.47 193.47)" class="st6 st7">P</text>
	<text transform="matrix(1 0 0 1 358.7519 193.47)" class="st6 st7"> </text>
	<text transform="matrix(1 0 0 1 358.75 193.47)" class="st6 st7">resented </text>
	<text transform="matrix(1 0 0 1 428.5 193.47)" class="st6 st7">t</text>
	<text transform="matrix(1 0 0 1 434.5178 193.47)" class="st6 st7"> </text>
	<text transform="matrix(1 0 0 1 434.52 193.47)" class="st6 st7">o:</text>
	<text transform="matrix(1 0 0 1 360.27 274.27)" class="st6 st7">A</text>
	<text transform="matrix(1 0 0 1 371.0479 274.27)" class="st6 st7"> </text>
	<text transform="matrix(1 0 0 1 371 274.27)" class="st6 st7">t</text>
	<text transform="matrix(1 0 0 1 377.1878 274.27)" class="st6 st7"> </text>
	<text transform="matrix(1 0 0 1 377.27 274.27)" class="st6 st7">tending:</text>
	<text transform="matrix(1 0 0 1 164.87 380.47)" class="st8 st9">For completing the Stony Brook Children&apos;s Hospital</text>
	<text transform="matrix(1 0 0 1 255.77 405.47)" class="st8 st9">Teddy Bear Clinic Safety Game.</text>
	<path class="st10" d="M276.6,536.5l1.1-1.8h1l0.3,7.3h-1.2c-0.8-3.2-2.7-6.2-6.3-6.2c-2.7,0-4.1,1.5-4.1,3.3c0,1.5,0.9,2.7,3.1,3.3
		c0,0,3.1,0.8,5.5,1.5c1.6,0.4,3.8,2.1,3.8,5.6s-2.7,6-6.7,6c-2.1,0-4.2-0.7-5.8-2.1l-1.2,1.9h-1l-0.2-7.8l1.2-0.1
		c0.6,3.6,2.8,6.9,7,6.9c3.1,0,4.6-1.8,4.6-3.6s-0.7-3.1-3.1-3.7c0,0-3.2-0.8-5.2-1.4c-2.5-0.5-4.2-2.7-4.1-5.2
		c0-3.8,2.7-5.7,6.1-5.7C273.3,534.5,275.2,535.2,276.6,536.5z"/>
	<path class="st10" d="M285.4,536.6v5.6h4.1v1.2h-4.1v8.5c0,1.1,0.4,1.9,1.8,1.9c1.8,0,2.2-2.4,2.2-3.8h1.1c0.1,2.7-0.9,5.4-4.2,5.4
		c-1.7,0.2-3.2-1.1-3.4-2.8c0-0.1,0-0.1,0-0.2v-9.1h-2.3v-1.2c3.8-0.2,3.6-5.4,3.7-5.6L285.4,536.6L285.4,536.6z"/>
	<path class="st10" d="M303.5,548.8c0,3.6-2.1,6.7-6.1,6.7s-5.9-3.3-5.9-6.8c0-4,2.7-7,5.9-7C301.2,541.8,303.5,544.9,303.5,548.8z
		 M294.3,548.7c0,1.9,0.4,5.8,3.1,5.8c3.1,0,3.3-3.7,3.3-5.9c0-2.4-0.4-5.7-3.1-5.7C294.7,542.9,294.3,546.5,294.3,548.7z"/>
	<path class="st10" d="M317.7,547v6.1c0,1,0.3,0.8,1.7,0.9h0.5v1h-7v-1h0.6c0.4,0,0.7,0,1.1-0.1c0.4-0.1,0.7-0.4,0.6-0.8
		c0,0,0,0,0,0v-6.4c0-2.4-1-3.3-2.6-3.3c-2.3,0-3.5,2.2-3.5,4.3v5.2c0,0.2,0,0.5,0.1,0.7c0.1,0.4,0.6,0.5,1.1,0.5h1.1v1h-7.1v-1h0.7
		c0.8,0,1.6-0.1,1.6-0.9V545c0-1.1-0.2-1.2-0.8-1.3c-0.2,0-1.5-0.1-1.5-0.1v-1.2l4.8-0.3v2.4h0.1c0.8-1.6,2.4-2.7,4.2-2.8
		C315.8,541.8,317.7,543.6,317.7,547z"/>
	<path class="st10" d="M325,542.2v1c-0.7,0.1-1.9-0.3-1.9,0.6c0,0.2,0.1,0.4,0.2,0.6l3.1,7.4l2.8-7.1c0-0.1,0.1-0.3,0.1-0.4
		c0-1.3-1.2-1.1-2-1.1v-1h5.5v1c-1.1,0.1-1.6,0.2-2.5,2.3l-3.3,8.1c-0.1,0.1-0.8,1.8-1.6,3.5c-1.1,2.2-2.7,3.8-4.8,3.8
		c-1.5,0-2.6-0.8-2.6-2.2c0-0.9,0.7-1.6,1.6-1.6c0,0,0.1,0,0.1,0c0.7,0,1.2,0.5,1.3,1.2c0,0.9-0.2,0.8-0.2,1s0.3,0.3,0.4,0.3
		c1.6,0,3.2-3.3,3.8-4.6l-4.5-10.3c-0.5-1.1-0.8-1.5-2.2-1.4v-1L325,542.2z"/>
	<path class="st10" d="M347.2,535c4.4,0,6.2,2.5,6.2,4.8c0,3-2.4,4.6-4.9,4.8v0.1c1.3,0.1,2.6,0.5,3.8,1.2c1.3,0.8,2.1,2.2,2.1,3.8
		c0,1.3-0.5,2.6-1.4,3.6c-1.5,1.4-3.8,1.9-7.1,1.9h-9.3v-1.3c2.7-0.1,3.1,0.1,3.1-1.8v-14.3c0-1.4-0.6-1.4-1.9-1.4h-1.1V535H347.2z
		 M349.3,537.3c-0.8-1-2.6-1.1-4.3-1.1c-0.9,0-2.3-0.3-2.3,1.4v6.5h1.4c3.6,0,6.1-0.2,6.1-3.9C350.3,539.2,349.9,538.1,349.3,537.3
		L349.3,537.3z M342.7,545.4v6.4c0,2,0.2,2,2.5,2s3.9-0.3,4.7-1.1c0.8-0.8,1.2-2,1.1-3.1c0-4-2.8-4.4-6-4.4
		C344.3,545.3,343.6,545.3,342.7,545.4L342.7,545.4z"/>
	<path class="st10" d="M366.6,543.9c0,1.1-0.6,1.9-1.6,1.9c-0.8,0-1.5-0.6-1.5-1.4c0,0,0,0,0-0.1c0-0.5,0.2-1.1,0.6-1.4
		c-3.1,0.4-3.9,5.5-3.9,7.2v3.2c0,0.8,0.8,0.8,1.6,0.8h1v1h-7.5v-1c1.6-0.1,2.3,0.2,2.3-1.1v-8c0-1.4-1-1.4-1.9-1.4h-0.6v-1.2
		l5.1-0.3v3.3h0.1c0.3-1.3,1.6-3.7,4.1-3.7C365.6,541.7,366.6,542.7,366.6,543.9z"/>
	<path class="st10" d="M379.1,548.8c0,3.6-2.1,6.7-6.1,6.7s-5.9-3.3-5.9-6.8c0-4,2.7-7,5.9-7C376.8,541.8,379.1,544.9,379.1,548.8z
		 M370,548.7c0,1.9,0.4,5.8,3.1,5.8c3.1,0,3.3-3.7,3.3-5.9c0-2.4-0.4-5.7-3.1-5.7C370.3,542.9,370,546.5,370,548.7z"/>
	<path class="st10" d="M393.4,548.8c0,3.6-2.1,6.7-6.1,6.7s-5.9-3.3-5.9-6.8c0-4,2.7-7,5.9-7C391.1,541.8,393.4,544.9,393.4,548.8z
		 M384.2,548.7c0,1.9,0.4,5.8,3.1,5.8c3.1,0,3.3-3.7,3.3-5.9c0-2.4-0.4-5.7-3.1-5.7C384.6,542.9,384.2,546.5,384.2,548.7
		L384.2,548.7z"/>
	<path class="st10" d="M398.8,548.5l3.9-3.8c0.4-0.4,0.7-0.6,0.7-1.1s-0.6-0.5-1-0.5h-1.3v-1h7.3v1c-2.7,0.1-3.9,1.6-6,3.6l4.4,6
		c0.7,0.9,1.8,1.4,2.9,1.3v1h-7.3v-1c0.3,0,0.7-0.1,1-0.1s0.8,0,0.8-0.4s-0.2-0.4-0.4-0.7l-3.2-4.6l-1.8,1.6v3.2
		c0,1,0.5,0.9,1.6,0.9h0.5v1H394v-1h0.5c1,0,1.7,0.1,1.7-1.1V537c0-1.2-0.5-1.2-1.8-1.2h-0.7v-1.2l5.1-0.3L398.8,548.5L398.8,548.5z
		"/>
	<path class="st11" d="M427.8,536.5l1.1-1.8h1l0.4,8l-1.2,0.1c-1-4.1-2.7-7-6.3-7c-2.1,0-4,1.3-4.8,3.3c-0.8,2-1.1,4.2-1,6.4
		c0,5.8,2,8.7,6.1,8.7c3.9,0,5.8-2.8,6.3-6.2l1.3,0.2c-0.7,4.7-3.6,7.3-8,7.3c-5.5,0-9.4-4.4-9.4-10c-0.1-2.7,0.8-5.3,2.4-7.4
		c1.6-2.2,4.2-3.5,6.9-3.5C424.5,534.5,426.4,535.2,427.8,536.5z"/>
	<path class="st11" d="M436.5,544.5L436.5,544.5c0.9-1.7,2.6-2.8,4.5-2.8c3.1,0,4.3,2.1,4.3,5v5.8c0,1.4-0.1,1.4,1.3,1.5h0.9v1h-7.1
		v-1h0.5c1.2,0,1.8,0,1.8-1.2v-6c0-1.7-0.5-3.4-2.6-3.4c-2.4,0-3.7,2.2-3.7,4.3v5.1c0,1.2,0.6,1.2,1.3,1.2h0.9v1h-7v-1h0.6
		c0.9,0,1.7,0,1.7-1.3V537c0-1.1-0.4-1-1.8-1.1h-0.6v-1.2l5-0.3L436.5,544.5L436.5,544.5z"/>
	<path class="st11" d="M448.3,555.1v-1h0.7c1.3,0,1.7-0.1,1.7-1.3V545c0-1.3-0.3-1.3-1.6-1.3h-1v-1.2l5.2-0.3v11.2
		c0,0.7,0.4,0.7,1.6,0.8h0.8v1h-7.4L448.3,555.1L448.3,555.1z M453.4,536.8c0,0.9-0.7,1.6-1.6,1.7c-0.9,0-1.6-0.7-1.6-1.6
		c0,0,0-0.1,0-0.1c0-0.9,0.7-1.6,1.6-1.6S453.4,535.9,453.4,536.8z"/>
	<path class="st11" d="M461.7,553.3c0,0.8,0.4,0.8,1.4,0.8h0.9v1h-7.2v-1h0.6c0.6,0,1.7,0.2,1.7-1.1v-15.9c0-1.1-0.6-1.1-1.6-1.1
		h-0.9v-1.2l5.1-0.3V553.3z"/>
	<path class="st11" d="M476.4,552.7c0,1.5,1.3,1.1,2.3,1.2v1.2l-4.8,0.3V553c-0.5,1.6-2.1,2.7-3.8,2.6c-3.7,0-5.6-3-5.6-6.7
		s2-7,5.5-7c1.6,0,3.1,0.8,3.9,2.1v-6.8c0-1.2-0.9-1.1-1.8-1.1h-1v-1.2l5.4-0.3v18.1L476.4,552.7z M467.3,548.8
		c0,2.4,0.6,5.2,3.3,5.2s3.3-3.2,3.3-5.3c0-2.4-0.6-5.5-3.3-5.5C467.7,543.2,467.3,546.6,467.3,548.8z"/>
	<path class="st11" d="M491,543.9c0,1.1-0.6,1.9-1.6,1.9c-0.8,0-1.5-0.6-1.5-1.4c0,0,0,0,0-0.1c0-0.5,0.2-1.1,0.6-1.4
		c-3.1,0.4-3.9,5.5-3.9,7.2v3.2c0,0.8,0.8,0.8,1.6,0.8h1v1h-7.5v-1c1.6-0.1,2.3,0.2,2.3-1.1v-8c0-1.4-1-1.4-1.9-1.4h-0.6v-1.2
		l5.1-0.3v3.3h0.1c0.3-1.3,1.6-3.7,4.1-3.7c1.2,0,2.2,0.9,2.2,2.1C491,543.8,491,543.9,491,543.9z"/>
	<path class="st11" d="M503.2,548.8h-9.1c-0.1,2.8,1.1,5.3,3.9,5.3c2.2,0,3.4-1.3,4.2-3l0.9,0.5c-1.1,2.3-2.6,3.9-5.6,3.9
		c-3.3,0-6.3-2-6.3-6.5c0-3.9,2.4-7.2,6.2-7.2c2,0,3.8,1.1,4.8,2.9C502.8,546,503.1,547.4,503.2,548.8z M494.2,547.7h5.1
		c0.8,0,1-0.2,1-1.1c0-1.3-0.5-3.7-2.9-3.7S494.3,545.7,494.2,547.7z"/>
	<path class="st11" d="M518.3,547v6.1c0,1,0.3,0.8,1.7,0.9h0.5v1h-7v-1h0.6c0.4,0,0.7,0,1.1-0.1c0.4-0.1,0.7-0.4,0.6-0.8
		c0,0,0,0,0,0v-6.4c0-2.4-1-3.3-2.6-3.3c-2.3,0-3.5,2.2-3.5,4.3v5.2c0,0.2,0,0.5,0.1,0.7c0.1,0.4,0.6,0.5,1.1,0.5h1.1v1h-7.1v-1h0.7
		c0.8,0,1.6-0.1,1.6-0.9V545c0-1.1-0.2-1.2-0.8-1.3c-0.2,0-1.5-0.1-1.5-0.1v-1.2l4.8-0.3v2.4h0.1c0.8-1.6,2.4-2.7,4.2-2.8
		C516.4,541.8,518.3,543.6,518.3,547z"/>
	<path class="st11" d="M520.7,542c0.9-0.8,2.8-2.4,2.8-3.9c0-0.2,0-0.3-0.2-0.3s-0.4,0.1-0.7,0.1c-0.9,0-1.6-0.8-1.6-1.7
		c0-0.9,0.8-1.6,1.7-1.6c1.5,0,2.2,1.4,2.2,2.7c0,3.4-3.4,5.1-3.7,5.5L520.7,542z"/>
	<path class="st11" d="M531.3,542.9l0.8-1h0.9v4.6h-1c-0.5-2-1.8-3.6-4.1-3.6c-1.3,0-2.6,0.7-2.6,2c0,0.9,0.7,1.5,1.7,1.8
		s3.8,0.8,4.4,1c1.5,0.5,2.5,2,2.4,3.6c0,3.1-2.4,4.2-4.6,4.2c-1.4,0-2.8-0.5-3.8-1.4l-1,1.2h-0.9V550h1c0.6,2.5,2.2,4.3,4.8,4.3
		c1.3,0,2.8-0.7,2.8-2.2c0-1.2-0.9-1.7-1.9-2s-2.7-0.6-4.1-1.1c-1.6-0.4-2.6-1.9-2.4-3.5c-0.1-2.1,1.6-3.8,3.6-3.9
		c0.2,0,0.3,0,0.5,0C529.1,541.7,530.3,542.1,531.3,542.9z"/>
	<g>
		<defs>
			<path id="SVGID_1_" d="M398.8,455.3c-18.4,0-33.3,14.9-33.3,33.3s14.9,33.3,33.3,33.3s33.3-14.9,33.3-33.3c0,0,0,0,0,0
				C432.1,470.2,417.2,455.3,398.8,455.3C398.8,455.3,398.8,455.3,398.8,455.3z"/>
		</defs>
		<clipPath id="SVGID_00000134935952899877677660000002804925294754213257_">
			<use xlink:href="#SVGID_1_"  style="overflow:visible;"/>
		</clipPath>
		<g style="clip-path:url(#SVGID_00000134935952899877677660000002804925294754213257_);">
			<path class="st0" d="M398.8,522c18.4,0,33.3-14.9,33.3-33.3s-14.9-33.3-33.3-33.3s-33.3,14.9-33.3,33.3c0,0,0,0,0,0
				C365.5,507.1,380.4,522,398.8,522C398.8,522,398.8,522,398.8,522z"/>
		</g>
	</g>
	<g>
		<defs>
			<path id="SVGID_00000137830474715502401370000016432526212124875431_" d="M398.8,455.3c-18.4,0-33.3,14.9-33.3,33.3
				s14.9,33.3,33.3,33.3s33.3-14.9,33.3-33.3c0,0,0,0,0,0C432.1,470.2,417.2,455.3,398.8,455.3C398.8,455.3,398.8,455.3,398.8,455.3
				z"/>
		</defs>
		<clipPath id="SVGID_00000003801111878715806810000015356322427626749601_">
			<use xlink:href="#SVGID_00000137830474715502401370000016432526212124875431_"  style="overflow:visible;"/>
		</clipPath>
		<g style="clip-path:url(#SVGID_00000003801111878715806810000015356322427626749601_);">
			<path class="st1" d="M398.8,455.3c-18.4,0-33.3,14.9-33.3,33.3s14.9,33.3,33.3,33.3s33.3-14.9,33.3-33.3c0,0,0,0,0,0
				C432.1,470.2,417.2,455.3,398.8,455.3C398.8,455.3,398.8,455.3,398.8,455.3z"/>
		</g>
	</g>
	<g>
		<defs>
			<path id="SVGID_00000062155803968195475970000011433379815909834398_" d="M398.8,455.3c-18.4,0-33.3,14.9-33.3,33.3
				s14.9,33.3,33.3,33.3s33.3-14.9,33.3-33.3c0,0,0,0,0,0C432.1,470.2,417.2,455.3,398.8,455.3C398.8,455.3,398.8,455.3,398.8,455.3
				z"/>
		</defs>
		<clipPath id="SVGID_00000154389756392064927840000015622561186819940281_">
			<use xlink:href="#SVGID_00000062155803968195475970000011433379815909834398_"  style="overflow:visible;"/>
		</clipPath>
		<g style="clip-path:url(#SVGID_00000154389756392064927840000015622561186819940281_);">
			<polygon class="st0" points="408.4,532.8 411.5,502.3 411,502.3 408,531.5 393,479.5 392.5,479.6 406.8,529.3 393.5,499.3 
				393.1,499.5 407.9,532.9 			"/>
			<path class="st0" d="M401.5,473.4c0-5.4-4.4-9.8-9.8-9.8s-9.8,4.4-9.8,9.8s4.4,9.8,9.8,9.8h0c0.3,0,0.7,0,1-0.1l-0.1,2
				c0,0.1,0.1,0.3,0.2,0.3s0.1,0.1,0.2,0.1h0.1l2.7-1c0.1,0,0.2-0.1,0.2-0.3c0-0.1,0-0.3-0.1-0.4l-1.2-1.2
				C398.8,481.4,401.5,477.6,401.5,473.4z"/>
			<path class="st0" d="M401.3,496.5c0-5.4-4.4-9.8-9.8-9.8s-9.8,4.4-9.8,9.8s4.4,9.8,9.8,9.8h0c1.1,0,2.2-0.2,3.3-0.6l0.2,1.6
				c0,0.1,0.1,0.2,0.2,0.3s0.1,0.1,0.2,0.1h0.2l2.3-1c0.1-0.1,0.2-0.2,0.2-0.3s0-0.3-0.1-0.3l-1.2-1.3
				C399.6,503,401.3,499.8,401.3,496.5z"/>
			<path class="st0" d="M421.8,496.5c0-5.4-4.4-9.8-9.8-9.8c-5.4,0-9.8,4.4-9.8,9.8l0,0c0,4.4,3,8.3,7.3,9.4l-0.7,1
				c-0.1,0.1-0.1,0.2,0,0.4s0.1,0.2,0.3,0.2l2.7,0.7h0.1c0.1,0,0.2,0,0.3-0.1c0.1-0.1,0.1-0.2,0.1-0.4l-0.4-1.5h0.1
				c5.3,0.1,9.7-4.2,9.8-9.5C421.8,496.6,421.8,496.6,421.8,496.5z"/>
		</g>
	</g>
	<rect x="-0.9" y="-0.1" class="st15" width="792" height="612.2"/>
	<g id="_4BsN48.tif">
		
			<image style="overflow:visible;enable-background:new    ;" width="498" height="1039" id="Layer_1-3" xlink:href="9CC589DE3AB99ACA.png"  transform="matrix(0.28 0 0 0.28 643.25 315.91)">
		</image>
	</g>
	<g id="Sunnybear_x5F_old" class="st16">
		<path class="st17" d="M131.2,576.9c-3.8,4.1-10.4,3.6-15.7,1.3c-3.6-1.5-6.8-3.7-9.4-6.6c-7.9-8.2-10.9-18.3-5.2-22.9
			s12.9-0.1,21.1,7.3c5.1,4.6,10.1,5,11,9.7C133.5,568.4,134,573.9,131.2,576.9z"/>
		<path class="st18" d="M105.4,568.4c-5.5-6-9.2-15.2-6.9-20.1c1-2,3.8-1.4,5.9-2.5c7.1-3.4,17,1.9,24.2,10.9
			c7.2,9,5.2,16.7,0.3,18.4C125.6,576.3,119.4,583.5,105.4,568.4z"/>
		<polygon class="st19" points="108.4,550.4 115.8,550 125.5,565.9 119,567 		"/>
		<path class="st17" d="M124.1,578.4c4.8,0,7.9-0.7,8.9-4.1c1.1-4,0.5-8.5,0-8.7c-3.5-1.1-7.3-1.2-10.9-0.3
			c-4.6,1.2-9.3,2.9-11.5,7.5C110.3,573.4,115.9,578.4,124.1,578.4z"/>
		<path class="st20" d="M110.7,558.5c0,0,5-1.2,6.8-1.5c1.5-0.2,5.9-0.4,5.9-0.4l-1.9-1.9c0,0-3.8,0.1-5,0.2
			c-1.7,0.1-6.8,1.3-6.8,1.3L110.7,558.5z"/>
		<path class="st21" d="M114.5,563.6c1.9-0.7,3.8-1.3,5.8-1.7c1.5-0.2,7.1,0,7.1,0l-1.9-2.6c-2.2-0.1-4.4,0-6.6,0.2
			c-1.6,0.3-6.2,1.8-6.2,1.8L114.5,563.6z"/>
		<path class="st17" d="M48.9,579.7c6.4,5.5,14.8,3.1,22.3-4.8s9.3-18.1,4.1-23s-15.3-2.4-22.7,5.4c-4.6,4.8-6.2,5.4-6.2,10.3
			C46.4,570.6,46,577.1,48.9,579.7z"/>
		<path class="st18" d="M73.2,570.9c4.9-5.9,7-15.7,4.7-20.9c-1-2.2-3.6-1.7-5.6-2.8c-6.7-3.9-15.8,1.2-22.1,10.1s-4.1,17,0.5,19
			C53.8,577.6,60.8,585.8,73.2,570.9z"/>
		<polygon class="st19" points="69.5,551.8 62.9,551.3 52.8,566.3 59.8,567.8 		"/>
		<path class="st17" d="M55.4,581.3c-4.3,0-7.8-2-8.7-5.5c-0.7-2.6-0.8-5.4-0.3-8.1c0.4-1.8,7.4-2,10.2-1.5
			c4.3,0.7,11.6,4.6,11.8,9.4C68.4,576.2,62.8,581.3,55.4,581.3z"/>
		<path class="st20" d="M67.8,559.6c0,0-4.5-1.3-6.1-1.5c-1.3-0.2-5.3-0.5-5.3-0.5l1.7-2c0,0,3.4,0.1,4.6,0.2
			c1.5,0.2,6.1,1.4,6.1,1.4L67.8,559.6z"/>
		<path class="st21" d="M64.3,564.7c-1.7-0.8-3.5-1.4-5.3-1.8c-1.3-0.2-6.4,0-6.4,0l1.7-2.7c2-0.1,3.9,0,5.9,0.2
			c1.5,0.3,5.6,1.8,5.6,1.8L64.3,564.7z"/>
		<path class="st22" d="M125.7,435.7c0.6,3.7,1.4,11.6,1.4,11.6c-4.5,14.4-23.6,16.8-32.5,16.3c-19.7-1.3-45.9,5.9-46.7-16.5
			c-1.1-30.2,18.7-39.8,38.4-39.8S121.5,410,125.7,435.7z"/>
		<path class="st23" d="M117.7,479.9c0,0,12.5-0.8,13.8,18.6c0.3,4.7-6.8,43.6-8.3,49.3c-1,3.9-23.4,2.6-24.5,2.1
			c-2.8-1.4,4.1-43.4,2.1-47c-4.2-7.3-5-15.9-13.8-14.9c-2.3,0.3-6.6,13.4-9.4,17c-2.4,3.2,2.5,44.5,0.3,45
			c-5.8,1.3-16.8,4.6-22.2-0.6C54,547.8,45,501.2,45,496.6c0-5,10.2-17.7,10.1-18c-1-9.7,7.2-14.6,9.3-27.7
			c0.8-5.2,0.7-15.1,1.7-22.1c0.5-3.5,41.4-5,43.1-1.7C112.3,433.1,117.7,479.9,117.7,479.9z"/>
		<path class="st24" d="M107.6,458.6c-0.2,1.1-6.6,7.5-9.6,8.3s-15.2,0.7-20.6-1.3c-1.8-0.7-5.6-2.8-6.1-4.7
			c-0.7-2.6-2.7-17.8,1.8-20.1c2.9-1.6,28.8-2.1,30.9-1C108.2,442.1,108.3,454.7,107.6,458.6z"/>
		<path class="st25" d="M73,442.9c-0.2,0.4-0.2,0.8-0.2,1.2"/>
		<path class="st26" d="M72.5,446.6c-0.3,4.1-0.2,8.2,0.3,12.2c0.7,4.8,6.8,6.2,9.9,6.7c2.1,0.3,9.4,1.5,15-0.4
			c2.8-0.9,6.5-5.2,6.9-6.3c0.9-2,0.6-9.6,0.1-13.6"/>
		<path class="st25" d="M104.6,443.9c0-0.4-0.2-0.8-0.3-1.2"/>
		<path class="st24" d="M94.2,448.4c-1.3,0.6-8.3,0.6-10.1-0.1c-2.9-1.2-12.3-5.4-12.1-6.5s1.6-1.3,2.3-1.5
			c7.1-1.6,25.1-1.6,29.8-0.6c0.7,0.1,1.9,1.6,1.5,2C103.2,444,95.9,447.7,94.2,448.4z"/>
		<path class="st24" d="M104.6,444.2"/>
		<path class="st23" d="M72.8,425.1l-6.1,0.2c-2.5-2.6,1.3-14.5,1.3-14.5l3.8-1.6C71.7,409.2,71.5,420.7,72.8,425.1z"/>
		<path class="st23" d="M103,424.7l5-0.1c1.6-3.6-2.6-15-2.6-15l-3.2-0.9C102.2,408.6,103.7,420.5,103,424.7z"/>
		<path class="st27" d="M66.7,425.3c0.5,0.6,2.1,3.6,2,4.6c0,1.3-0.7,1.5-0.7,2.7s0.9,1.5,1.8,1.9c1.6,0.6,3.2-1.1,3.4-2.4
			c0.2-1.7-2-1.6-2.1-3.3c-0.1-1.3,0.3-2.6,1-3.7"/>
		<path class="st27" d="M108,424.6c-0.7,0.9-1.1,1.9-1.2,3c0,1.3,1,1.6,1.2,2.7c0.1,1.2-0.7,2.3-1.8,2.7c-1.2,0.5-2.6,0-3.1-1.1
			c-0.1-0.2-0.1-0.4-0.2-0.6c-0.2-1.7,1.1-1.7,1.3-3.5c-0.1-1.1-0.5-2.1-1.3-2.9"/>
		<circle class="st28" cx="70.7" cy="433.9" r="1.8"/>
		<circle class="st28" cx="89.1" cy="445.5" r="1.8"/>
		<circle class="st28" cx="105.1" cy="432.5" r="1.8"/>
		<path class="st29" d="M78.6,480.6c0.8,0.4,3.7,0.7,5.8,1.7c1.9,0.9,5.1,3.6,5.6,5.4c0.5,1.5-0.1,5-0.9,6.4c-1.2,2-4.6,2.2-5.3,1.8
			c-0.9,0.5-2,0.8-3,0.7c-4.6-0.5-3.5-1.6-3.9-1.2c-0.7,0.7-1.9,0.6-3,0.5c-1.3-0.2-2.5-0.6-3.6-1.2c-3.6-2.2-4.4-7.8-4.4-7.8
			s-13.5-9.8-15.9-14.7c-3.3-7-2.1-30.8-2.1-30.8s4.9,5.2,8.9,7.2c2.4,1.2,4.9,2,7.6,2.4c0,0,0.2,12.2,1.8,15.9
			C68,470.9,75.8,479,78.6,480.6z"/>
		<path class="st30" d="M75.4,488.6c0.8,0.9,1.3,1.9,1.5,3.1c0.1,1.2,0.2,2.3,0.1,3.5"/>
		<path class="st30" d="M81.8,489.2c0,0,1,0.7,1.6,3.1c0.2,0.9,0.4,3.6,0.4,3.6"/>
		<path class="st30" d="M85.5,487.3c1.1,0.7,2,1.6,2.8,2.7c0.5,1.2,0.9,2.4,1.1,3.7"/>
		<path class="st30" d="M73.9,480.7c0,0,1.7-0.3,2.6-0.4c1,0.1,1.9,0.3,2.9,0.5"/>
		<path class="st31" d="M103.5,482c-0.8,0.4-6.3-0.1-8.4,0.9c-1.9,0.9-5.1,3.6-5.6,5.4c-0.5,1.5,0.4,3.8,1.2,5.3
			c1.2,2.1,3.4,3.5,5.9,3.7c0,0,0.1,1.1,2.2,1.6c4.4,1.1,3.8-1,4.2-0.5c0.7,0.7,3.1,0.2,3.7,0.2c1.4-0.2,2.6-1.6,3.1-1.9
			c3.3-2.7,3.2-5.6,3.2-5.6s13.3-10.8,15.6-15.7c3.3-7-2.3-35.4-2.3-35.4c-1.4,2.1-3.3,3.8-5.5,4.9c-2.3,1.2-4.8,2-7.4,2.3
			c0,0,2,14.5,0.9,20c-0.1,0.4-0.2,0.7-0.4,1C112.5,470.6,106,480.6,103.5,482z"/>
		<path class="st30" d="M104.4,491.4c-0.8,0.9-1.3,1.9-1.5,3.1c-0.1,1.3-0.1,2.6,0.1,3.9"/>
		<path class="st30" d="M98.7,490.5c0,0-1.4,0.4-2,2.9c-0.1,1.3-0.2,2.7-0.1,4"/>
		<path class="st30" d="M94.3,486.8c-0.9,0.6-1.8,1.2-2.5,2c-1.6,1.7-0.6,5.6-0.6,5.6"/>
		<path class="st30" d="M106.5,483.5c0,0-2.9-1.5-3.5-1.3"/>
		<path id="right_outter_ear" class="st32" d="M116.8,367.3c1,10.3-8.9,11.2-14.8,7.8c-6.3-3.7-8.6-8.1-8.7-9.6
			c-0.2-7.3,2.8-12,10.1-11.5C110.6,354.4,116.3,360.1,116.8,367.3z"/>
		<path id="left_outter_ear" class="st29" d="M53.6,366.7c-0.9,10.1,8.9,11.1,14.6,7.7c6.3-3.7,8.5-8,8.6-9.5
			c0.2-7.3-2.7-11.9-10-11.4C59.7,354,54.1,359.6,53.6,366.7z"/>
		<path id="right_innner_ear" class="st33" d="M110.9,367.4c0.4,5.6-4.3,6.2-7.1,4.3c-3-2-4.1-4.5-4.2-5.3c-0.1-4,1.3-6.2,4.8-5.7
			C107.2,361.1,110.6,363.8,110.9,367.4z"/>
		<path class="st33" d="M60.6,367.2c-0.4,5.6,4.3,6.1,7,4.2c3-2,4.1-4.4,4.1-5.2c0.1-4-1.3-6.1-4.7-5.6
			C63.7,361.2,61.1,363.8,60.6,367.2z"/>
		<path id="head" class="st29" d="M112.3,390.2c0.1,6.3-1.6,13.7-7.8,16.6c-5,2.3-6.1,8.6-18.2,9.2c-11.5,0.6-12.4-5.2-19.5-7.3
			c-2.8-0.9-9-9.5-8.7-18.1c0.2-4.1,1.8-12.3,5.2-17.5c4.9-7.4,12.2-13.5,21.3-13.5s15.7,5.6,20.9,13.1
			C109,377.8,112.3,386.3,112.3,390.2z"/>
		<path id="snoot" class="st33" d="M73.8,400.6c0-5.8,2.8-8.6,5.3-11.2c2.7-2.8,2.9-6.8,7.1-6.8c1.8,0,3.5,1.1,4.3,2.7
			c3.8,8.7,6.6,3.2,7.8,13.4c0.8,6.4-3.8,11.1-9.6,12.9C82.4,413.5,73.8,407.2,73.8,400.6z"/>
		<path id="nose" class="st34" d="M80.4,392c-1-2.6-0.2-4.6,5.2-4.6c6.8,0,6.8,1.6,6.2,4c-0.4,1.5-3.1,4-5.8,4
			C83.7,395.4,81.5,394.1,80.4,392z"/>
		<path id="nose_shine" class="st35" d="M88.9,389.3c0.1,0.3-0.6,0.9-0.9,0.9c-0.8,0.2-0.4-0.5-2.1-0.6c-1.5,0-1.4,0.6-2,0.6
			c-0.4,0-0.9-0.5-0.8-0.8c0.2-0.6,1.9-0.6,2.6-0.6S88.6,388.5,88.9,389.3z"/>
		<g id="right_eye" class="st36">
			<path class="st37" d="M100.1,385.3c-0.3,1.5-0.6,1.9-1,1.9s-1.1-0.3-1.9,0c-0.8,0.2-1.7,0.5-2.4,1c-0.5,0.4-1.3-2.4-1.6-3.1
				c-0.8-2.5,0.4-5.5,3.3-5.6C99.8,379.3,100.5,382.7,100.1,385.3z"/>
			<path class="st38" d="M99.9,384.5c0,0.8-0.3,2.3-0.8,2.6s0-0.1-1.9,0c-0.7,0.1-2,1-2.5,0.9c-0.9-0.2-1.4-2-1.4-3.4
				c0-1.8,1.5-3.3,3.3-3.3C98.4,381.3,99.9,382.7,99.9,384.5C99.9,384.5,99.9,384.5,99.9,384.5z"/>
			<circle class="st39" cx="96.5" cy="384.7" r="1.9"/>
			<circle class="st0" cx="95.9" cy="384.2" r="0.8"/>
			<circle id="l_twinkle" class="st0" cx="96.9" cy="385.3" r="0.4"/>
			<path id="l_eyebrow" class="st40" d="M99.5,375c0.7-0.9-1.8-3.1-3.8-3.5s-3.5,0.4-3.6,1.9c0,0.8,1.6,0.5,3.6,1
				C97.7,374.7,98.7,376,99.5,375z"/>
		</g>
		<g id="left_eye" class="st36">
			<path class="st37" d="M71.3,385.6c0.3,1.5,0.6,1.9,1,1.9s1.1-0.3,1.9,0c0.8,0.2,1.7,0.5,2.4,1c0.5,0.4,1.3-2.4,1.6-3.1
				c0.8-2.5-0.4-5.5-3.3-5.6C71.5,379.7,70.8,383.1,71.3,385.6z"/>
			<path class="st41" d="M71.5,384.8c0,0.8,0.3,2.3,0.8,2.6s0-0.1,1.9,0c0.7,0.1,2,1,2.5,0.9c0.9-0.2,1.4-2,1.4-3.4
				c0-1.8-1.5-3.3-3.3-3.3C73,381.6,71.5,383,71.5,384.8C71.5,384.8,71.5,384.8,71.5,384.8z"/>
			<circle class="st39" cx="74.9" cy="385" r="1.9"/>
			<circle class="st0" cx="74.2" cy="384.3" r="0.8"/>
			<circle id="l_twinkle-2" class="st0" cx="75.3" cy="385.2" r="0.4"/>
			<path id="l_eyebrow-2" class="st40" d="M71.9,375.3c-0.7-0.9,1.8-3.1,3.8-3.5s3.5,0.4,3.6,1.9c0,0.8-1.6,0.5-3.6,1
				S72.7,376.3,71.9,375.3z"/>
		</g>
		<g id="mouth" class="st36">
			<path class="st42" d="M77.5,396.9c0,0,1.4,4.1,4,4.1s4.4-1.3,4.9-1.3s2.1,1.3,4.4,0.6s3.8-4.2,3.8-4.2"/>
			<path class="st42" d="M86.4,399.5c-0.1-0.3-0.1-0.5,0-0.8"/>
			<path id="chin" class="st42" d="M85.6,404.5c0,0.7,2.6,0.7,2.6,0"/>
		</g>
		<path class="st43" d="M128.8,525.4c-8,6.1-29.4,6.9-39.4,6.8c-10.5-0.1-33-1.3-41.5-7.7c-3.5-2.7-8.9-15.3-8.9-15.3l97.4,2.1
			C136.4,511.4,132,523,128.8,525.4z"/>
		<path class="st44" d="M138.6,513.2c-8.7,8.2-36.5,10-48.4,9.1c-13.6-1-41.6-0.1-50.8-10.1c-3.9-4.3-4.1-17.9-3.3-23.6
			s7.8-15.6,7.8-21.3c0.1-9.2-13.7-17.3-11.1-34.9c1-6.8,7.1-19.8,7-26.8c-0.1-3.6-4-10-4.6-13.5c-1-6.5,0.3-21.1,4.9-25.8
			c8.2-8.2,33.9-9.5,45.4-8.8c11.7,0.8,38.4-1.5,46.6,6.9c4.5,4.6,5,19.3,3.7,25.6c-0.6,3-4.2,8.5-4.5,11.6
			c-0.7,8.7,8.4,24.9,9.1,33.6c1.4,17.8-6.4,23.8-6.2,31.9c0.1,5.5,5.4-1.2,7.2,20.6C142,493.9,142.9,509.1,138.6,513.2z"/>
		<path class="st45" d="M128.8,387.3c0,4.9-1.4,11.6-6.9,15.3c-7.9,5.3-22.4,6.6-36.6,6.6c-12.6,0-27-0.4-34.9-4.7
			c-7.2-3.9-8.6-11.4-8.6-17.2c0-4.9,0.4-12.3,5.9-15.9c7.9-5.3,23.4-6,37.6-6c13.8,0,27.2,0.2,35.1,5.3
			C126.4,374.4,128.8,382.2,128.8,387.3z"/>
		<path class="st46" d="M59.3,423.3c1.3,4.4-2.1,13.4-7.5,13.4S37,426.5,37,418.6s3.1-16.2,8.1-14C49,406.6,57.5,417.3,59.3,423.3z"
			/>
		<path class="st45" d="M135.4,417.9c1.3-8-4.8-14.6-8.3-13.2c-5.4,2.2-14.4,15.6-14.2,22.4c0.1,5.8,5.2,10.5,7.8,9.6
			C127.2,434.4,134.3,425,135.4,417.9z"/>
		<path class="st17" d="M131.2,576.9c-3.8,4.1-10.4,3.6-15.7,1.3c-3.6-1.5-6.8-3.7-9.4-6.6c-7.9-8.2-10.9-18.3-5.2-22.9
			s12.9-0.1,21.1,7.3c5.1,4.6,10.1,5,11,9.7C133.5,568.4,134,573.9,131.2,576.9z"/>
		<path class="st18" d="M105.4,568.4c-5.5-6-9.2-15.2-6.9-20.1c1-2,3.8-1.4,5.9-2.5c7.1-3.4,17,1.9,24.2,10.9
			c7.2,9,5.2,16.7,0.3,18.4C125.6,576.3,119.4,583.5,105.4,568.4z"/>
		<polygon class="st19" points="108.4,550.4 115.8,550 125.5,565.9 119,567 		"/>
		<path class="st17" d="M124.1,578.4c4.8,0,7.9-0.7,8.9-4.1c1.1-4,0.5-8.5,0-8.7c-3.5-1.1-7.3-1.2-10.9-0.3
			c-4.6,1.2-9.3,2.9-11.5,7.5C110.3,573.4,115.9,578.4,124.1,578.4z"/>
		<path class="st20" d="M110.7,558.5c0,0,5-1.2,6.8-1.5c1.5-0.2,5.9-0.4,5.9-0.4l-1.9-1.9c0,0-3.8,0.1-5,0.2
			c-1.7,0.1-6.8,1.3-6.8,1.3L110.7,558.5z"/>
		<path class="st21" d="M114.5,563.6c1.9-0.7,3.8-1.3,5.8-1.7c1.5-0.2,7.1,0,7.1,0l-1.9-2.6c-2.2-0.1-4.4,0-6.6,0.2
			c-1.6,0.3-6.2,1.8-6.2,1.8L114.5,563.6z"/>
		<path class="st17" d="M48.9,579.7c6.4,5.5,14.8,3.1,22.3-4.8s9.3-18.1,4.1-23s-15.3-2.4-22.7,5.4c-4.6,4.8-6.2,5.4-6.2,10.3
			C46.4,570.6,46,577.1,48.9,579.7z"/>
		<path class="st18" d="M73.2,570.9c4.9-5.9,7-15.7,4.7-20.9c-1-2.2-3.6-1.7-5.6-2.8c-6.7-3.9-15.8,1.2-22.1,10.1s-4.1,17,0.5,19
			C53.8,577.6,60.8,585.8,73.2,570.9z"/>
		<polygon class="st19" points="69.5,551.8 62.9,551.3 52.8,566.3 59.8,567.8 		"/>
		<path class="st17" d="M55.4,581.3c-4.3,0-7.8-2-8.7-5.5c-0.7-2.6-0.8-5.4-0.3-8.1c0.4-1.8,7.4-2,10.2-1.5
			c4.3,0.7,11.6,4.6,11.8,9.4C68.4,576.2,62.8,581.3,55.4,581.3z"/>
		<path class="st20" d="M67.8,559.6c0,0-4.5-1.3-6.1-1.5c-1.3-0.2-5.3-0.5-5.3-0.5l1.7-2c0,0,3.4,0.1,4.6,0.2
			c1.5,0.2,6.1,1.4,6.1,1.4L67.8,559.6z"/>
		<path class="st21" d="M64.3,564.7c-1.7-0.8-3.5-1.4-5.3-1.8c-1.3-0.2-6.4,0-6.4,0l1.7-2.7c2-0.1,3.9,0,5.9,0.2
			c1.5,0.3,5.6,1.8,5.6,1.8L64.3,564.7z"/>
		<path class="st22" d="M125.7,435.7c0.6,3.7,1.4,11.6,1.4,11.6c-4.5,14.4-23.6,16.8-32.5,16.3c-19.7-1.3-45.9,5.9-46.7-16.5
			c-1.1-30.2,18.7-39.8,38.4-39.8S121.5,410,125.7,435.7z"/>
		<path class="st23" d="M117.7,479.9c0,0,12.5-0.8,13.8,18.6c0.3,4.7-6.8,43.6-8.3,49.3c-1,3.9-23.4,2.6-24.5,2.1
			c-2.8-1.4,4.1-43.4,2.1-47c-4.2-7.3-5-15.9-13.8-14.9c-2.3,0.3-6.6,13.4-9.4,17c-2.4,3.2,2.5,44.5,0.3,45
			c-5.8,1.3-16.8,4.6-22.2-0.6C54,547.8,45,501.2,45,496.6c0-5,10.2-17.7,10.1-18c-1-9.7,7.2-14.6,9.3-27.7
			c0.8-5.2,0.7-15.1,1.7-22.1c0.5-3.5,41.4-5,43.1-1.7C112.3,433.1,117.7,479.9,117.7,479.9z"/>
		<path class="st24" d="M107.6,458.6c-0.2,1.1-6.6,7.5-9.6,8.3s-15.2,0.7-20.6-1.3c-1.8-0.7-5.6-2.8-6.1-4.7
			c-0.7-2.6-2.7-17.8,1.8-20.1c2.9-1.6,28.8-2.1,30.9-1C108.2,442.1,108.3,454.7,107.6,458.6z"/>
		<path class="st25" d="M73,442.9c-0.2,0.4-0.2,0.8-0.2,1.2"/>
		<path class="st26" d="M72.5,446.6c-0.3,4.1-0.2,8.2,0.3,12.2c0.7,4.8,6.8,6.2,9.9,6.7c2.1,0.3,9.4,1.5,15-0.4
			c2.8-0.9,6.5-5.2,6.9-6.3c0.9-2,0.6-9.6,0.1-13.6"/>
		<path class="st25" d="M104.6,443.9c0-0.4-0.2-0.8-0.3-1.2"/>
		<path class="st24" d="M94.2,448.4c-1.3,0.6-8.3,0.6-10.1-0.1c-2.9-1.2-12.3-5.4-12.1-6.5s1.6-1.3,2.3-1.5
			c7.1-1.6,25.1-1.6,29.8-0.6c0.7,0.1,1.9,1.6,1.5,2C103.2,444,95.9,447.7,94.2,448.4z"/>
		<path class="st24" d="M104.6,444.2"/>
		<path class="st23" d="M72.8,425.1l-6.1,0.2c-2.5-2.6,1.3-14.5,1.3-14.5l3.8-1.6C71.7,409.2,71.5,420.7,72.8,425.1z"/>
		<path class="st23" d="M103,424.7l5-0.1c1.6-3.6-2.6-15-2.6-15l-3.2-0.9C102.2,408.6,103.7,420.5,103,424.7z"/>
		<path class="st27" d="M66.7,425.3c0.5,0.6,2.1,3.6,2,4.6c0,1.3-0.7,1.5-0.7,2.7s0.9,1.5,1.8,1.9c1.6,0.6,3.2-1.1,3.4-2.4
			c0.2-1.7-2-1.6-2.1-3.3c-0.1-1.3,0.3-2.6,1-3.7"/>
		<path class="st27" d="M108,424.6c-0.7,0.9-1.1,1.9-1.2,3c0,1.3,1,1.6,1.2,2.7c0.1,1.2-0.7,2.3-1.8,2.7c-1.2,0.5-2.6,0-3.1-1.1
			c-0.1-0.2-0.1-0.4-0.2-0.6c-0.2-1.7,1.1-1.7,1.3-3.5c-0.1-1.1-0.5-2.1-1.3-2.9"/>
		<circle class="st28" cx="70.7" cy="433.9" r="1.8"/>
		<circle class="st28" cx="89.1" cy="445.5" r="1.8"/>
		<circle class="st28" cx="105.1" cy="432.5" r="1.8"/>
		<path class="st29" d="M56,471.5l-11-11.1l3.2-19.5c0,0,6.4,5.7,8.9,7.1c1.9,1.1,8.7,2.9,8.7,2.9s-1.2,14.1-1.7,15.8
			c-0.3,0.9-2.1,3.9-4.2,4.9C58.6,472,57.2,472,56,471.5z"/>
		<path class="st47" d="M61.3,465c0,6.9-7.3,7.1-14.1,7.1s-12.7,2-14.3-5.6c-1-4.6,2.9-11.1,13.1-11.9
			C56.9,453.9,61.3,461.3,61.3,465z"/>
		<path class="st48" d="M40.6,466.5c-0.5,2.1,0,4.2,1.3,5.9"/>
		<path class="st48" d="M47.3,466.1c-0.1,2,0.1,3.9,0.6,5.8"/>
		<path class="st48" d="M53.6,464.8c0.9,1.4,1.1,5.7,0.5,6.6"/>
		<path class="st49" d="M129.5,450.3c1,1.4,2,2.7,3.2,3.9l0.5,13.2l-10.4,4.5c0,0-5-6.9-6.1-9.5c-1.5-3.7-3.1-15.5-3.1-15.5
			c2.8-0.4,5.4-1.2,7.9-2.5c0.9-0.4,4.9-4.5,4.9-4.5S128.7,448.7,129.5,450.3z"/>
		<path class="st29" d="M145.7,463.8c0,2,0.2,5.5-3.3,6.2c-1.8,0.4-4.1-0.6-8-0.7c-2.8-0.1-5.8,1.7-7.7,1.3c-4.2-1-5.2-5-5.2-7.3
			c0-3.3,3.1-9.1,12.5-8.4C141.6,455.4,145.7,460.5,145.7,463.8z"/>
		<path class="st48" d="M134.2,463.2c-0.3,2.1,0,4.2,0.7,6.1"/>
		<path class="st48" d="M128.2,463c-1.2,1.6,0.5,5.4,1.6,6.3"/>
		<path class="st48" d="M138.8,469.3c2-1.2,1.7-4.5,0.9-5.7"/>
		<path class="st50" d="M86.2,466.2l-7.5,4.1l-4.7-41l-10.3-16.5c2.1-1.4,4.5-2.5,6.9-3.3L83,425.6L86.2,466.2z"/>
		<path class="st50" d="M99.2,468.1l-7.6-3.3l1.4-38.2l9.2-18.3c2.9,0.4,5.6,1.3,8.1,2.8l-7.4,16.8L99.2,468.1z"/>
		<path id="right_outter_ear-2" class="st32" d="M116.8,367.3c1,10.3-8.9,11.2-14.8,7.8c-6.3-3.7-8.6-8.1-8.7-9.6
			c-0.2-7.3,2.8-12,10.1-11.5C110.6,354.4,116.3,360.1,116.8,367.3z"/>
		<path id="left_outter_ear-2" class="st29" d="M53.6,366.7c-0.9,10.1,8.9,11.1,14.6,7.7c6.3-3.7,8.5-8,8.6-9.5
			c0.2-7.3-2.7-11.9-10-11.4C59.7,354,54.1,359.6,53.6,366.7z"/>
		<path id="right_innner_ear-2" class="st33" d="M110.9,367.4c0.4,5.6-4.3,6.2-7.1,4.3c-3-2-4.1-4.5-4.2-5.3c-0.1-4,1.3-6.2,4.8-5.7
			C107.2,361.1,110.6,363.8,110.9,367.4z"/>
		<path class="st33" d="M60.6,367.2c-0.4,5.6,4.3,6.1,7,4.2c3-2,4.1-4.4,4.1-5.2c0.1-4-1.3-6.1-4.7-5.6
			C63.7,361.2,61.1,363.8,60.6,367.2z"/>
		<path id="head-2" class="st29" d="M112.3,390.2c0.1,6.3-1.6,13.7-7.8,16.6c-5,2.3-6.1,8.6-18.2,9.2c-11.5,0.6-12.4-5.2-19.5-7.3
			c-2.8-0.9-9-9.5-8.7-18.1c0.2-4.1,1.8-12.3,5.2-17.5c4.9-7.4,12.2-13.5,21.3-13.5s15.7,5.6,20.9,13.1
			C109,377.8,112.3,386.3,112.3,390.2z"/>
		<path id="snoot-2" class="st33" d="M73.8,400.6c0-5.8,2.8-8.6,5.3-11.2c2.7-2.8,2.9-6.8,7.1-6.8c1.8,0,3.5,1.1,4.3,2.7
			c3.8,8.7,6.6,3.2,7.8,13.4c0.8,6.4-3.8,11.1-9.6,12.9C82.4,413.5,73.8,407.2,73.8,400.6z"/>
		<path id="nose-2" class="st34" d="M80.4,392c-1-2.6-0.2-4.6,5.2-4.6c6.8,0,6.8,1.6,6.2,4c-0.4,1.5-3.1,4-5.8,4
			C83.7,395.4,81.5,394.1,80.4,392z"/>
		<path id="nose_shine-2" class="st35" d="M88.9,389.3c0.1,0.3-0.6,0.9-0.9,0.9c-0.8,0.2-0.4-0.5-2.1-0.6c-1.5,0-1.4,0.6-2,0.6
			c-0.4,0-0.9-0.5-0.8-0.8c0.2-0.6,1.9-0.6,2.6-0.6S88.6,388.5,88.9,389.3z"/>
		<g id="right_eye-2" class="st36">
			<path class="st37" d="M100.1,385.3c-0.3,1.5-0.6,1.9-1,1.9s-1.1-0.3-1.9,0c-0.8,0.2-1.7,0.5-2.4,1c-0.5,0.4-1.3-2.4-1.6-3.1
				c-0.8-2.5,0.4-5.5,3.3-5.6C99.8,379.3,100.5,382.7,100.1,385.3z"/>
			<path class="st38" d="M99.9,384.5c0,0.8-0.3,2.3-0.8,2.6s0-0.1-1.9,0c-0.7,0.1-2,1-2.5,0.9c-0.9-0.2-1.4-2-1.4-3.4
				c0-1.8,1.5-3.3,3.3-3.3C98.4,381.3,99.9,382.7,99.9,384.5C99.9,384.5,99.9,384.5,99.9,384.5z"/>
			<circle class="st39" cx="96.5" cy="384.7" r="1.9"/>
			<circle class="st0" cx="95.9" cy="384.2" r="0.8"/>
			<circle id="l_twinkle-3" class="st0" cx="96.9" cy="385.3" r="0.4"/>
			<path id="l_eyebrow-3" class="st40" d="M99.5,375c0.7-0.9-1.8-3.1-3.8-3.5s-3.5,0.4-3.6,1.9c0,0.8,1.6,0.5,3.6,1
				C97.7,374.7,98.7,376,99.5,375z"/>
		</g>
		<g id="left_eye-2" class="st36">
			<path class="st37" d="M71.3,385.6c0.3,1.5,0.6,1.9,1,1.9s1.1-0.3,1.9,0c0.8,0.2,1.7,0.5,2.4,1c0.5,0.4,1.3-2.4,1.6-3.1
				c0.8-2.5-0.4-5.5-3.3-5.6C71.5,379.7,70.8,383.1,71.3,385.6z"/>
			<path class="st41" d="M71.5,384.8c0,0.8,0.3,2.3,0.8,2.6s0-0.1,1.9,0c0.7,0.1,2,1,2.5,0.9c0.9-0.2,1.4-2,1.4-3.4
				c0-1.8-1.5-3.3-3.3-3.3C73,381.6,71.5,383,71.5,384.8C71.5,384.8,71.5,384.8,71.5,384.8z"/>
			<circle class="st39" cx="74.9" cy="385" r="1.9"/>
			<circle class="st0" cx="74.2" cy="384.3" r="0.8"/>
			<circle id="l_twinkle-4" class="st0" cx="75.3" cy="385.2" r="0.4"/>
			<path id="l_eyebrow-4" class="st40" d="M71.9,375.3c-0.7-0.9,1.8-3.1,3.8-3.5s3.5,0.4,3.6,1.9c0,0.8-1.6,0.5-3.6,1
				S72.7,376.3,71.9,375.3z"/>
		</g>
		<g id="mouth-2" class="st36">
			<path class="st42" d="M77.5,396.9c0,0,1.4,4.1,4,4.1s4.4-1.3,4.9-1.3s2.1,1.3,4.4,0.6s3.8-4.2,3.8-4.2"/>
			<path class="st42" d="M86.4,399.5c-0.1-0.3-0.1-0.5,0-0.8"/>
			<path id="chin-2" class="st42" d="M85.6,404.5c0,0.7,2.6,0.7,2.6,0"/>
		</g>
		<path class="st50" d="M119.2,472.7c2.1,1.4,5.2,9.1,2.8,8.3c-20.4-7.6-52.1-8.5-68.6,1.1c-2.2,1.2,3.4-5.9,5.4-7.4
			C71.6,465.3,106,464,119.2,472.7z"/>
		<path class="st51" d="M77.5,465.6c9.9-6.7,11,1.4,11,1.4s2.4-7.4,10.9-1.5c4.2,2.9-4.3,9.7-8.1,10.2c-2.8,0.4-3.4,0-6-0.4
			C82,474.7,72.9,468.7,77.5,465.6z"/>
		<path class="st52" d="M102.2,433c-2.9,1.8-9.1-2.5-15.2-2.5c-5.9,0-11.9,4.4-14.5,2.5c-1.8-1.4-1.6-6.3,0-7.8
			c2.3-2.2,8.5-4.8,14.7-4.7c5.3,0.2,10.5,1.8,15,4.7C104,426.6,104.2,431.8,102.2,433z"/>
		<path class="st53" d="M94.4,476.7H81.9v-6.1c-0.1-3.4,4.3-5,6.4-5s6.2,1.2,6.1,5V476.7z"/>
		<path class="st54" d="M91.3,471.5c-1.3,1-4.8,0.8-6.1,0c-0.6-0.6-0.9-1.5-0.8-2.4c0.9-1.9,6.4-1.7,7.5,0
			C92.3,469.5,91.8,471.1,91.3,471.5z"/>
		<path class="st44" d="M30.2,479.5c-0.4-5.5,7.8-6.7,16.4-7.7c9-1,16.8-0.7,16.8,5c0,5.3-5.4,8-15.7,8.8
			C39.1,486.3,30.7,485.7,30.2,479.5z"/>
		<path class="st44" d="M117.8,475.7c-0.7-5.2,6.3-7.5,14.6-7.5c8.1,0,14.6,2.3,14.6,7.5c0,5.5-6.5,5.9-14.6,5.9
			S118.4,479.9,117.8,475.7z"/>
	</g>
	<g id="Sunnybear_00000000198213920395237180000011106151287957452442_">
		<g id="Seat_00000106847513427691242410000006292511123833256361_">
			<path class="st55" d="M129.4,525.3c-8.2,6.1-30,6.9-40.2,6.8c-10.7-0.1-33.6-1.3-42.3-7.7c-3.6-2.7-9.1-15.3-9.1-15.3l99.3,2.1
				C137.2,511.3,132.8,522.9,129.4,525.3z"/>
			<path class="st56" d="M139.5,513.1c-8.9,8.2-37.2,10-49.3,9.1c-13.8-1-42.4-0.1-51.8-10.1c-3.9-4.3-4.1-17.9-3.4-23.6
				c0.7-5.7,8-15.6,8-21.3c0.1-9.2-13.9-17.3-11.3-34.9c1-6.8,7.2-19.8,7.1-26.8c-0.1-3.6-4-10-4.6-13.5c-1-6.5,0.3-21.1,5-25.8
				c8.4-8.2,34.5-9.5,46.3-8.8c11.9,0.8,39.2-1.5,47.5,6.9c4.5,4.6,5.1,19.3,3.7,25.6c-0.6,3-4.2,8.5-4.5,11.6
				c-0.7,8.7,8.6,24.9,9.3,33.6c1.4,17.8-6.5,23.8-6.3,31.9c0.1,5.5,5.5-1.2,7.3,20.6C142.9,493.7,143.8,508.9,139.5,513.1z"/>
			<path class="st57" d="M129.4,387.1c0,4.9-1.4,11.6-7,15.3c-8.1,5.3-22.8,6.6-37.3,6.6c-12.8,0-27.5-0.4-35.5-4.6
				c-7.3-3.9-8.8-11.4-8.8-17.2c0-4.9,0.4-12.3,6-15.9c8.1-5.3,23.9-6,38.3-6c14.1,0,27.7,0.2,35.8,5.3
				C127,374.3,129.4,382,129.4,387.1z"/>
			<path class="st58" d="M58.7,423.2c1.3,4.4-2.2,13.4-7.6,13.4s-15.1-10.2-15.1-18.1c0-7.9,3.2-16.2,8.3-14.1
				C48.1,406.4,56.8,417.2,58.7,423.2z"/>
			<path class="st57" d="M136.2,417.8c1.3-8-4.9-14.6-8.5-13.2c-5.5,2.2-14.7,15.6-14.5,22.4c0.1,5.8,5.3,10.5,8,9.6
				C127.8,434.2,135,424.8,136.2,417.8z"/>
		</g>
		<g id="Sunny_Seated_00000109736115099640426790000013125052049438847117_">
			<g id="Right_Sneaker_00000167375134963905333510000000280512318292502700_">
				<path class="st59" d="M131.8,576.8c-3.8,4.1-10.6,3.6-16,1.3c-3.6-1.4-6.9-3.7-9.6-6.6c-8.1-8.2-11.2-18.3-5.3-22.9
					c5.8-4.6,13.1-0.1,21.5,7.3c5.2,4.6,10.3,5,11.2,9.7C134.1,568.3,134.6,573.8,131.8,576.8z"/>
				<path class="st60" d="M105.5,568.3c-5.6-6-9.4-15.2-7-20.1c1-2,3.8-1.4,6-2.5c7.2-3.4,17.4,1.9,24.7,11c7.3,9,5.3,16.7,0.3,18.4
					C126,576.3,119.7,583.4,105.5,568.3z"/>
				<polygon class="st61" points="108.6,550.4 116.1,549.9 125.9,565.9 119.3,567 				"/>
				<path class="st59" d="M124.5,578.4c4.9,0,8.1-0.7,9.1-4.1c1.1-4,0.5-8.5,0-8.7c-3.6-1.1-7.4-1.2-11.2-0.3
					c-4.6,1.2-9.5,2.9-11.7,7.5C110.4,573.4,116.2,578.4,124.5,578.4z"/>
				<path class="st62" d="M110.8,558.4c0,0,5.1-1.2,6.9-1.5c1.5-0.2,6-0.4,6-0.4l-2-1.9c0,0-3.8,0.1-5.1,0.2
					c-1.8,0.1-6.9,1.3-6.9,1.3L110.8,558.4z"/>
				<path class="st63" d="M114.8,563.6c2-0.7,3.9-1.2,5.9-1.7c1.5-0.2,7.2,0,7.2,0l-2-2.6c-2.3-0.1-4.4,0-6.7,0.2
					c-1.7,0.3-6.3,1.8-6.3,1.8L114.8,563.6z"/>
			</g>
			<g id="Left_Sneaker_00000038395306377908216430000017442830980743360933_">
				<path class="st59" d="M47.9,579.7c6.5,5.5,15.1,3.1,22.7-4.8c7.6-7.9,9.5-18.1,4.1-23s-15.6-2.4-23.1,5.4
					c-4.6,4.8-6.3,5.4-6.3,10.3C45.3,570.5,44.9,577,47.9,579.7z"/>
				<path class="st60" d="M72.6,570.8c5-5.9,7.1-15.7,4.8-20.9c-1-2.2-3.7-1.7-5.7-2.8c-6.8-3.9-16.1,1.2-22.5,10.1
					c-6.4,8.9-4.1,17,0.5,19C52.9,577.5,60,585.8,72.6,570.8z"/>
				<polygon class="st61" points="68.9,551.7 62.2,551.3 51.8,566.3 59,567.7 				"/>
				<path class="st59" d="M54.5,581.3c-4.3,0-8-2-8.9-5.5c-0.7-2.7-0.8-5.4-0.3-8.1c0.4-1.8,7.5-2,10.4-1.5c4.3,0.7,11.8,4.6,12,9.4
					C67.8,576.2,62.1,581.3,54.5,581.3z"/>
				<path class="st62" d="M67.1,559.6c0,0-4.5-1.3-6.2-1.5c-1.3-0.2-5.4-0.5-5.4-0.5l1.8-2c0,0,3.5,0.1,4.6,0.2
					c1.5,0.2,6.2,1.4,6.2,1.4L67.1,559.6z"/>
				<path class="st63" d="M63.6,564.6c-1.8-0.7-3.5-1.3-5.4-1.8c-1.3-0.2-6.5,0-6.5,0l1.8-2.7c2-0.1,4,0,6,0.2
					c1.5,0.3,5.7,1.8,5.7,1.8L63.6,564.6z"/>
			</g>
			<g id="Clothes_00000074399767246257943590000011327776946864435623_">
				<path class="st64" d="M126.1,435.7c0.6,3.7,1.4,11.6,1.4,11.6c-4.5,14.4-24.1,16.8-33.2,16.3c-20-1.3-46.8,5.9-47.6-16.5
					c-1-30.2,19.1-39.8,39.3-39.8C106.1,407.2,121.9,409.9,126.1,435.7z"/>
				<path class="st65" d="M118,479.8c0,0,12.7-0.8,14.1,18.6c0.3,4.6-6.9,43.6-8.5,49.3c-1,3.9-23.9,2.6-25,2.1
					c-2.9-1.4,4.1-43.4,2.2-47c-4.2-7.3-5.1-15.9-14.1-14.9c-2.4,0.3-6.7,13.4-9.6,17c-2.5,3.2,2.6,44.5,0.3,45.1
					c-5.9,1.3-17.2,4.6-22.6-0.6c-1.8-1.5-11-48.3-11-52.8c0-5,10.4-17.7,10.3-18c-1-9.7,7.3-14.6,9.5-27.7
					c0.8-5.2,0.7-15.1,1.8-22.1c0.5-3.5,42.2-5,43.9-1.7C112.5,433,118,479.8,118,479.8z"/>
				<path class="st66" d="M107.7,458.5c-0.2,1.1-6.7,7.5-9.8,8.3c-3.1,0.8-15.5,0.7-21-1.3c-1.9-0.7-5.7-2.8-6.2-4.6
					c-0.7-2.6-2.8-17.8,1.9-20.1c3-1.5,29.3-2.1,31.5-1C108.4,442.1,108.5,454.7,107.7,458.5z"/>
				<path class="st67" d="M72.4,442.8c-0.2,0.4-0.2,0.8-0.2,1.2"/>
				<path class="st68" d="M72,446.5c-0.3,4-0.2,8.2,0.3,12.2c0.7,4.8,6.9,6.2,10.1,6.7c2.2,0.3,9.6,1.5,15.3-0.4
					c2.9-0.9,6.6-5.2,7-6.3c0.9-2,0.6-9.6,0.1-13.6"/>
				<path class="st67" d="M104.6,443.8c0-0.4-0.1-0.8-0.3-1.2"/>
				<path class="st66" d="M94.1,448.4c-1.3,0.6-8.5,0.6-10.3-0.1c-3-1.2-12.5-5.4-12.3-6.5c0.2-1.1,1.7-1.3,2.4-1.5
					c7.2-1.5,25.6-1.5,30.4-0.6c0.7,0.1,2,1.5,1.5,2C103.2,443.9,95.8,447.7,94.1,448.4z"/>
				<path class="st66" d="M104.6,444.1"/>
				<path class="st65" d="M72.3,425l-6.2,0.2c-2.6-2.6,1.3-14.5,1.3-14.5l3.8-1.5C71.2,409.1,71,420.6,72.3,425z"/>
				<path class="st65" d="M103,424.6l5.1-0.1c1.7-3.6-2.7-15-2.7-15l-3.3-0.9C102.2,408.5,103.7,420.4,103,424.6z"/>
				<path class="st69" d="M66,425.2c0.5,0.6,2.2,3.6,2.1,4.6c0,1.3-0.7,1.5-0.7,2.7c0,1.1,0.9,1.5,1.9,1.9c1.7,0.6,3.3-1.1,3.5-2.4
					c0.2-1.7-2.1-1.5-2.2-3.3c-0.1-1.3,0.3-2.6,1-3.7"/>
				<path class="st69" d="M108.2,424.5c-0.7,0.8-1.1,1.9-1.2,3c0,1.3,1,1.5,1.2,2.7c0.1,1.2-0.7,2.3-1.9,2.7c-1.2,0.5-2.6,0-3.2-1.1
					c-0.1-0.2-0.1-0.4-0.2-0.5c-0.2-1.7,1.1-1.7,1.3-3.5c-0.1-1.1-0.5-2.2-1.3-2.9"/>
				<ellipse class="st70" cx="70.1" cy="433.8" rx="1.9" ry="1.8"/>
				<ellipse class="st70" cx="88.8" cy="445.4" rx="1.9" ry="1.8"/>
				<ellipse class="st70" cx="105.2" cy="432.5" rx="1.9" ry="1.8"/>
			</g>
			<g id="Head_00000009568052119851724100000003912661114794277041_">
				<path id="right_outter_ear-2_00000119092883997672764570000011267963645557365131_" class="st71" d="M117,367.2
					c1,10.3-9.1,11.2-15.1,7.9c-6.4-3.7-8.8-8.1-8.9-9.6c-0.2-7.3,2.9-12,10.3-11.5C110.7,354.3,116.6,360,117,367.2z"/>
				<path id="left_outter_ear-2_00000160174074525364836730000004432844612479962761_" class="st72" d="M52.7,366.6
					c-0.9,10.1,9.1,11.1,14.9,7.7c6.4-3.7,8.7-8,8.8-9.5c0.2-7.3-2.8-11.9-10.2-11.4C59,353.9,53.2,359.5,52.7,366.6z"/>
				<path id="right_innner_ear-2_00000142889139252314390720000010702323803002745252_" class="st40" d="M111.1,367.3
					c0.4,5.6-4.3,6.2-7.2,4.3c-3.1-2-4.1-4.5-4.2-5.3c-0.1-4,1.3-6.2,4.9-5.7C107.3,361,110.7,363.7,111.1,367.3z"/>
				<path class="st40" d="M59.8,367.2c-0.4,5.6,4.3,6.1,7.1,4.2c3.1-2,4.1-4.4,4.1-5.2c0.1-4-1.3-6.1-4.8-5.6
					C62.9,361.1,60.3,363.7,59.8,367.2z"/>
				<path id="head-2_00000014631108265848520390000003366088928290800567_" class="st72" d="M112.5,390.1c0.1,6.3-1.7,13.7-8,16.6
					c-5.1,2.3-6.2,8.6-18.6,9.2c-11.7,0.6-12.6-5.2-19.8-7.3c-2.9-0.9-9.2-9.5-8.9-18.1c0.2-4.1,1.9-12.3,5.3-17.5
					c5-7.4,12.4-13.5,21.7-13.5s16,5.6,21.3,13.1C109.2,377.7,112.5,386.2,112.5,390.1z"/>
				<path id="snoot-2_00000051364909394408418050000008053233690321367686_" class="st40" d="M73.2,400.5c0-5.8,2.9-8.6,5.4-11.2
					c2.8-2.8,3-6.8,7.2-6.8c1.9,0,3.5,1,4.3,2.7c3.8,8.7,6.7,3.2,8,13.4c0.8,6.4-3.8,11.1-9.8,12.9C82,413.4,73.2,407.1,73.2,400.5z
					"/>
				<path id="nose-2_00000050664432413991272270000009998383106772919945_" class="st73" d="M80,392c-1-2.6-0.2-4.6,5.3-4.6
					c6.9,0,6.9,1.5,6.3,4c-0.4,1.5-3.2,4-5.9,4C83.4,395.3,81.1,394,80,392z"/>
				<path id="nose_shine-2_00000133529105087647083480000013967274594965512383_" class="st74" d="M88.6,389.2
					c0.1,0.3-0.6,0.9-0.9,0.9c-0.8,0.2-0.4-0.5-2.2-0.6c-1.5,0-1.4,0.6-2.1,0.6c-0.4,0-0.9-0.5-0.8-0.8c0.2-0.6,2-0.6,2.7-0.6
					C86.2,388.8,88.3,388.4,88.6,389.2z"/>
				<g id="right_eye-2_00000057144542684292125930000001572674981493533367_">
					<path class="st37" d="M100.1,385.2c-0.3,1.5-0.6,1.9-1,1.9s-1.1-0.3-2,0c-0.8,0.2-1.7,0.5-2.5,1c-0.5,0.4-1.3-2.4-1.7-3.1
						c-0.8-2.5,0.4-5.5,3.4-5.6C99.8,379.2,100.5,382.7,100.1,385.2z"/>
					<path class="st38" d="M99.9,384.4c0,0.8-0.3,2.3-0.8,2.6s0-0.1-2,0c-0.7,0.1-2.1,1-2.6,0.9c-0.9-0.2-1.4-2-1.4-3.4
						c0-1.9,1.5-3.3,3.4-3.3C98.3,381.2,99.8,382.6,99.9,384.4L99.9,384.4z"/>
					<ellipse class="st39" cx="96.4" cy="384.6" rx="2" ry="1.9"/>
					<ellipse class="st0" cx="95.8" cy="384.1" rx="0.8" ry="0.8"/>
					
						<ellipse id="l_twinkle-3_00000182507501366520804050000013492190223636659074_" class="st0" cx="96.8" cy="385.2" rx="0.4" ry="0.4"/>
					<path id="l_eyebrow-3_00000178900006888821568900000015531051399909355944_" class="st40" d="M99.5,374.9
						c0.7-0.9-1.9-3.1-3.8-3.5c-2.1-0.4-3.6,0.4-3.7,1.9c0,0.8,1.7,0.5,3.7,1C97.6,374.6,98.7,375.9,99.5,374.9z"/>
				</g>
				<g id="left_eye-2_00000121254847410960464760000005252406347062413494_">
					<path class="st37" d="M70.8,385.5c0.3,1.5,0.6,1.9,1,1.9s1.1-0.3,2,0c0.8,0.2,1.7,0.5,2.5,1c0.5,0.4,1.3-2.4,1.7-3.1
						c0.8-2.5-0.4-5.5-3.4-5.6C71,379.7,70.2,383,70.8,385.5z"/>
					<path class="st41" d="M71,384.7c0,0.8,0.3,2.3,0.8,2.6s0-0.1,2,0c0.7,0.1,2.1,1,2.6,0.9c0.9-0.2,1.4-2,1.4-3.4
						c0-1.9-1.5-3.3-3.4-3.3C72.5,381.5,71,382.9,71,384.7L71,384.7z"/>
					<ellipse class="st39" cx="74.4" cy="384.9" rx="2" ry="1.9"/>
					<ellipse class="st0" cx="73.7" cy="384.2" rx="0.8" ry="0.8"/>
					
						<ellipse id="l_twinkle-4_00000080197146916146428120000008308489678091052975_" class="st0" cx="74.8" cy="385.1" rx="0.4" ry="0.4"/>
					<path id="l_eyebrow-4_00000103962426855093881480000004648245107343517865_" class="st40" d="M71.4,375.2
						c-0.7-0.9,1.9-3.1,3.8-3.5c2.1-0.4,3.6,0.4,3.7,1.9c0,0.8-1.7,0.5-3.7,1C73.1,375.1,72.2,376.3,71.4,375.2z"/>
				</g>
				<g id="mouth-2_00000091734444329742754430000003706315925022986648_">
					<path class="st42" d="M77.1,396.8c0,0,1.4,4.1,4,4.1c2.6,0,4.4-1.3,5-1.3s2.2,1.3,4.4,0.6c2.3-0.7,3.8-4.2,3.8-4.2"/>
					<path class="st42" d="M86.2,399.4c-0.1-0.3-0.1-0.5,0-0.8"/>
					<path id="chin-2_00000085965601014969392470000013370013631806558897_" class="st42" d="M85.3,404.5c0,0.7,2.7,0.7,2.7,0"/>
				</g>
			</g>
			<g id="Left_Arm_00000131349279877294802170000013126267103944616115_">
				<path class="st72" d="M55.2,471.4L44,460.4l3.3-19.5c0,0,6.5,5.7,9.1,7.1c2,1.1,8.9,2.9,8.9,2.9s-1.2,14.1-1.8,15.8
					c-0.3,0.9-2.2,3.9-4.2,4.9C57.8,471.9,56.4,471.9,55.2,471.4z"/>
				<path class="st75" d="M60.5,464.9c0,6.9-7.4,7.1-14.4,7.1s-12.9,2-14.6-5.6c-1-4.6,3-11.1,13.3-11.9
					C56.1,453.9,60.5,461.2,60.5,464.9z"/>
				<path class="st42" d="M39.4,466.5c-0.5,2.1,0,4.2,1.3,5.9"/>
				<path class="st42" d="M46.3,466c-0.1,2,0.1,3.9,0.6,5.8"/>
				<path class="st42" d="M52.7,464.7c0.9,1.4,1.1,5.7,0.5,6.6"/>
			</g>
			<g id="Right_Arm_00000181078679394062382180000001244606583159423624_">
				<path class="st76" d="M130.1,450.2c1,1.3,2.1,2.7,3.3,3.9l0.5,13.2l-10.6,4.5c0,0-5.1-6.9-6.2-9.5c-1.5-3.7-3.2-15.5-3.2-15.5
					c2.8-0.4,5.5-1.2,8.1-2.5c0.9-0.4,5-4.5,5-4.5S129.2,448.6,130.1,450.2z"/>
				<path class="st72" d="M146.6,463.8c0,2,0.2,5.5-3.4,6.2c-1.9,0.4-4.1-0.6-8.2-0.7c-2.9-0.1-5.9,1.7-7.9,1.3
					c-4.2-1-5.3-5-5.3-7.3c0-3.3,3.2-9.1,12.7-8.4C142.4,455.3,146.6,460.5,146.6,463.8z"/>
				<path class="st42" d="M134.8,463.2c-0.3,2.1,0,4.1,0.7,6.1"/>
				<path class="st42" d="M128.7,462.9c-1.2,1.5,0.5,5.4,1.7,6.3"/>
				<path class="st42" d="M139.5,469.2c2.1-1.2,1.8-4.5,0.9-5.7"/>
			</g>
		</g>
		<g id="Seatbelt_00000057847198211396677280000009540875024750924464_">
			<path class="st77" d="M119.6,472.6c2.2,1.4,5.3,9.1,2.9,8.3c-20.8-7.6-53.1-8.5-70,1.1c-2.3,1.2,3.5-5.9,5.5-7.4
				C71.2,465.1,106.2,463.9,119.6,472.6z"/>
			<path class="st77" d="M86.1,466l-7.6,4.1l-4.8-41l-10.5-16.5c2.2-1.4,4.5-2.5,7-3.3l12.6,16.1L86.1,466z"/>
			<path class="st77" d="M99.3,468l-7.7-3.3l1.4-38.2l9.4-18.3c2.9,0.4,5.7,1.3,8.3,2.8l-7.5,16.8L99.3,468z"/>
			<path class="st78" d="M77.2,465.4c10.1-6.7,11.2,1.4,11.2,1.4s2.5-7.4,11.2-1.5c4.2,2.9-4.3,9.7-8.3,10.2c-2.9,0.4-3.5,0-6.1-0.4
				C81.7,474.5,72.5,468.5,77.2,465.4z"/>
			<path class="st79" d="M94.4,476.6H81.7v-6.1c-0.1-3.4,4.3-5,6.5-5c2.2,0,6.3,1.2,6.2,5V476.6z"/>
			<path class="st80" d="M91.2,471.4c-1.3,1-4.9,0.8-6.2,0c-0.6-0.6-0.9-1.5-0.8-2.4c0.9-1.9,6.5-1.7,7.6,0
				C92.3,469.4,91.7,471,91.2,471.4z"/>
			<path class="st81" d="M102.4,432.9c-3,1.8-9.3-2.5-15.5-2.5c-6,0-12.1,4.4-14.8,2.5c-1.9-1.4-1.7-6.3,0-7.9
				c2.4-2.2,8.7-4.8,15-4.6c5.5,0.2,10.7,1.8,15.3,4.6C104.1,426.5,104.3,431.6,102.4,432.9z"/>
			<path class="st77" d="M82.7,476.6c0,0-0.3,11.3,1.4,14.3h10.3c0.2-4.3-0.8-14.3-0.8-14.3H82.7z"/>
		</g>
		<g id="Armrest_00000115515958530746118920000004218835575051581572_">
			<path class="st56" d="M29,479.4c-0.4-5.5,8-6.7,16.7-7.7c9.2-1,17.2-0.7,17.2,5c0,5.3-5.5,8-16,8.8C38,486.2,29.4,485.6,29,479.4
				z"/>
			<path class="st56" d="M118.3,475.6c-0.7-5.2,6.4-7.5,14.9-7.5c8.3,0,14.9,2.3,14.9,7.5c0,5.5-6.6,5.9-14.9,5.9
				C124.9,481.4,118.8,479.8,118.3,475.6z"/>
		</g>
	</g>
	<text id="line1" transform="matrix(1 0 0 1 241.0581 233.29)" class="st82 st83">Type Your Name Here</text>
	<text id="line2" transform="matrix(1 0 0 1 234.3359 333.7)" class="st82 st83">Type Your School Here</text>
	<g>
		<rect x="61.7" y="245.9" width="651" height="2"/>
	</g>
	<g>
		<rect x="174.2" y="347.1" width="447" height="2"/>
	</g>
</g>
<g>
	<g>
		<g>
			<defs>
				<polygon id="SVGID_00000100365707066829920070000006483239804842523047_" points="62,199 63,199 62,200 				"/>
			</defs>
			<defs>
				<polygon id="SVGID_00000000214341227310094290000001111830361414597023_" points="60,197 59,197 60,196 				"/>
			</defs>
			<clipPath id="SVGID_00000019672949565902293910000010036998932357678231_">
				<use xlink:href="#SVGID_00000100365707066829920070000006483239804842523047_"  style="overflow:visible;"/>
			</clipPath>
			
				<clipPath id="SVGID_00000158017060885114139670000000318789479248594094_" style="clip-path:url(#SVGID_00000019672949565902293910000010036998932357678231_);">
				<use xlink:href="#SVGID_00000000214341227310094290000001111830361414597023_"  style="overflow:visible;"/>
			</clipPath>
		</g>
	</g>
</g>
<g>
	<g>
		<g>
			<defs>
				<polygon id="SVGID_00000036952707580012889430000000576148455065095596_" points="176,300 177,300 176,301 				"/>
			</defs>
			<defs>
				<polygon id="SVGID_00000109016568249681498220000007980151871468403859_" points="174,298 173,298 174,297 				"/>
			</defs>
			<clipPath id="SVGID_00000102507563117093273540000016596714504433560478_">
				<use xlink:href="#SVGID_00000036952707580012889430000000576148455065095596_"  style="overflow:visible;"/>
			</clipPath>
			
				<clipPath id="SVGID_00000111171348187546644910000005365726485735294346_" style="clip-path:url(#SVGID_00000102507563117093273540000016596714504433560478_);">
				<use xlink:href="#SVGID_00000109016568249681498220000007980151871468403859_"  style="overflow:visible;"/>
			</clipPath>
		</g>
	</g>
</g>
</svg>
