<?xml version="1.0" encoding="utf-8"?>
<!-- Generator: Adobe Illustrator 25.4.1, SVG Export Plug-In . SVG Version: 6.00 Build 0)  -->
<svg version="1.1" xmlns="http://www.w3.org/2000/svg" xmlns:xlink="http://www.w3.org/1999/xlink" x="0px" y="0px"
	 viewBox="0 0 792 612" style="enable-background:new 0 0 792 612;" xml:space="preserve">
<style type="text/css">
	.st0{fill:#FFFFFF;}
	.st1{fill:#BA001D;}
	.st2{fill:#57BCAF;}
	.st3{fill:none;}
	.st4{font-family:'Effra-Medium';}
	.st5{font-size:66px;}
	.st6{font-family:'Effra-Regular';}
	.st7{font-size:17px;}
	.st8{font-family:'Effra-Light';}
	.st9{font-family:'Effra-Bold';}
	.st10{font-size:21px;}
	.st11{fill:#09367B;}
	.st12{fill:#026649;}
	.st13{clip-path:url(#SVGID_00000068646785316407897700000003281452818403495845_);fill:#FFFFFF;}
	.st14{clip-path:url(#SVGID_00000034767809967950634490000005683960220595268506_);}
	.st15{clip-path:url(#SVGID_00000152244768758891197820000002968831332736345231_);}
	.st16{fill:none;stroke:#999999;}
	.st17{display:none;fill:#B3B3B3;}
	.st18{display:none;}
	.st19{font-family:'ArialMT';}
	.st20{font-size:12px;}
	.st21{fill:#FFFFFF;stroke:#4D037D;stroke-width:0.4898;stroke-miterlimit:10;}
	.st22{fill:#980026;stroke:#4D037D;stroke-width:0.4898;stroke-miterlimit:10;}
	.st23{fill:#180068;stroke:#4D037D;stroke-width:0.4898;stroke-miterlimit:10;}
	.st24{fill:#FD6B2C;stroke:#4D037D;stroke-width:0.4898;stroke-linecap:round;stroke-linejoin:round;stroke-miterlimit:10;}
	.st25{fill:#FD6B2C;stroke:#4D037D;stroke-width:0.4898;stroke-linejoin:round;stroke-miterlimit:10;}
	.st26{fill:#7F0F6B;stroke:#4D037D;stroke-width:0.4898;stroke-miterlimit:10;}
	.st27{fill:#21347E;stroke:#4D037D;stroke-width:0.4898;stroke-miterlimit:10;}
	.st28{fill:#5B7D9F;stroke:#4D037D;stroke-width:0.4898;stroke-miterlimit:10;}
	.st29{fill:none;stroke:#4D037D;stroke-width:0.4898;stroke-linecap:round;stroke-miterlimit:10;}
	.st30{fill:none;stroke:#4D037D;stroke-width:0.4898;stroke-linecap:round;stroke-miterlimit:10;stroke-dasharray:2.4821,2.4821;}
	.st31{fill:none;stroke:#4D037D;stroke-width:0.4898;stroke-miterlimit:10;}
	.st32{fill:#FEA53E;stroke:#4D037D;stroke-width:0.4898;stroke-miterlimit:10;}
	.st33{fill:#FDD609;stroke:#751284;stroke-width:0.4898;stroke-miterlimit:10;}
	.st34{fill:none;stroke:#751384;stroke-width:0.4898;stroke-linecap:round;stroke-miterlimit:10;}
	.st35{fill:#FDD609;stroke:#751384;stroke-width:0.4898;stroke-miterlimit:10;}
	.st36{fill:#F9CD0C;stroke:#751284;stroke-width:0.4898;stroke-miterlimit:10;}
	.st37{fill:#FFF27B;stroke:#751284;stroke-width:0.4898;stroke-miterlimit:10;}
	.st38{fill:#49015F;stroke:#751284;stroke-width:0.4898;stroke-miterlimit:10;}
	.st39{fill:#FCFEFE;}
	.st40{fill:#FFFFFF;stroke:#751284;stroke-width:0.4898;stroke-miterlimit:10;}
	.st41{fill:#751284;stroke:#4C0179;stroke-width:0.4898;stroke-miterlimit:10;}
	.st42{fill:#070606;}
	.st43{fill:#751284;stroke:#4D037D;stroke-width:0.4898;stroke-miterlimit:10;}
	.st44{fill:none;stroke:#751284;stroke-width:0.4898;stroke-linecap:round;stroke-miterlimit:10;}
	.st45{fill:#51515A;stroke:#751284;stroke-width:0.4898;stroke-miterlimit:10;}
	.st46{fill:#2DAEC0;stroke:#751284;stroke-width:0.4898;stroke-miterlimit:10;}
	.st47{fill:#76ABD0;stroke:#751284;stroke-width:0.4898;stroke-miterlimit:10;}
	.st48{fill:#76ABD0;stroke:#10157B;stroke-width:0.4898;stroke-miterlimit:10;}
	.st49{fill:#FDD609;stroke:#751284;stroke-width:0.4898;stroke-linecap:round;stroke-miterlimit:10;}
	.st50{fill:#FDD609;stroke:#751484;stroke-width:0.4898;stroke-miterlimit:10;}
	.st51{fill:#747A82;stroke:#10157B;stroke-width:0.4898;stroke-miterlimit:10;}
	.st52{fill:#454147;stroke:#1D1B1E;stroke-width:0.56;stroke-miterlimit:10;}
	.st53{fill:#3C4044;stroke:#10157B;stroke-width:0.5616;stroke-miterlimit:10;}
	.st54{fill:#2A282B;stroke:#1D1B1E;stroke-width:0.56;stroke-miterlimit:10;}
	.st55{fill:#980026;stroke:#7C0C08;stroke-width:0.38;stroke-miterlimit:10;}
</style>
<g id="Layer_1">
	<rect x="-1" y="-2" class="st0" width="792" height="615"/>
	<rect x="0.2" class="st1" width="792" height="159"/>
	<rect x="0.1" y="598.6" class="st2" width="792" height="13.4"/>
	<rect x="32.7" y="28.3" class="st3" width="735.6" height="431.8"/>
	<text transform="matrix(1 0 0 1 195.4734 72.272)" class="st0 st4 st5">I Know How to  </text>
	<text transform="matrix(1 0 0 1 91.3734 138.272)" class="st0 st4 st5">Stay Safe on the Road</text>
	<text transform="matrix(1 0 0 1 350.4734 193.472)" class="st6 st7">Presented to:</text>
	<text transform="matrix(1 0 0 1 47.6734 245.872)" class="st8 st7">___________________________________________________________________________________ </text>
	<text transform="matrix(1 0 0 1 361.2734 274.272)" class="st6 st7">Attending:</text>
	<text transform="matrix(1 0 0 1 175.1734 347.072)" class="st8 st7">_____________________________________________________ </text>
	<text transform="matrix(1 0 0 1 165.8734 380.472)" class="st9 st10">For completing the Stony Brook Children’s Hospital  </text>
	<text transform="matrix(1 0 0 1 256.7734 405.472)" class="st9 st10">Teddy Bear Clinic Safety Game.</text>
	<g>
		<g>
			<path class="st11" d="M277.6,536.5l1.1-1.8h1l0.3,7.3h-1.2c-0.8-3.2-2.7-6.2-6.3-6.2c-2.7,0-4.1,1.5-4.1,3.3
				c0,1.5,0.9,2.7,3.1,3.3c0,0,3.1,0.8,5.5,1.5c1.6,0.4,3.8,2.1,3.8,5.6c0,3.6-2.7,6-6.7,6c-1.9,0-4-0.5-5.8-2.1l-1.2,1.9h-1
				l-0.2-7.8l1.2-0.1c0.6,3.6,2.8,6.9,7,6.9c3.1,0,4.6-1.8,4.6-3.6s-0.7-3.1-3.1-3.7c0,0-3.2-0.8-5.2-1.4c-1.7-0.5-4.1-1.7-4.1-5.2
				c0-3.8,2.7-5.7,6.1-5.7C273.9,534.6,275.9,534.9,277.6,536.5z"/>
			<path class="st11" d="M286.4,536.6v5.6h4.1v1.2h-4.1v8.5c0,1.1,0.4,1.9,1.8,1.9c1.8,0,2.2-2.4,2.2-3.8h1.1
				c0.1,2.7-0.9,5.4-4.2,5.4c-1.8,0-3.4-1.1-3.4-3v-9.1h-2.3v-1.2c3.8-0.2,3.6-5.4,3.7-5.6L286.4,536.6L286.4,536.6z"/>
			<path class="st11" d="M304.5,548.8c0,3.6-2.1,6.7-6.1,6.7c-3.9,0-5.9-3.3-5.9-6.8c0-4,2.7-7,5.9-7
				C302.2,541.8,304.5,544.9,304.5,548.8z M295.3,548.7c0,1.9,0.4,5.8,3.1,5.8c3.1,0,3.3-3.7,3.3-5.9c0-2.4-0.4-5.7-3.1-5.7
				C295.7,542.9,295.3,546.5,295.3,548.7z"/>
			<path class="st11" d="M318.7,547v6.1c0,1,0.3,0.8,1.7,0.9c0,0,0.2,0,0.5,0v1h-7v-1h0.6c0.4,0,0.8,0,1.1-0.1
				c0.4-0.1,0.6-0.3,0.6-0.8v-6.4c0-2.4-1-3.3-2.6-3.3c-2.3,0-3.5,2.2-3.5,4.3v5.2c0,0.3,0,0.5,0.1,0.7c0.1,0.4,0.6,0.5,1.1,0.5
				c0.3,0,0.7,0,1.1,0v1h-7.1v-1h0.7c0.8,0,1.6-0.1,1.6-0.9V545c0-1.1-0.2-1.2-0.8-1.3c-0.2,0-1.5-0.1-1.5-0.1v-1.2l4.8-0.3v2.4h0.1
				c0.6-1.1,1.9-2.8,4.2-2.8C316.8,541.8,318.7,543.6,318.7,547z"/>
			<path class="st11" d="M326,542.2v1c-0.7,0.1-1.9-0.3-1.9,0.6c0,0.1,0.1,0.4,0.2,0.6l3.1,7.4l2.8-7.1c0-0.1,0.1-0.3,0.1-0.4
				c0-1.3-1.2-1.1-2-1.1v-1h5.5v1c-1.1,0.1-1.6,0.2-2.5,2.3l-3.3,8.1c-0.1,0.1-0.8,1.8-1.6,3.5c-1.1,2.2-2.7,3.8-4.8,3.8
				c-1.5,0-2.6-0.8-2.6-2.2c0-1,0.8-1.6,1.7-1.6c0.7,0,1.3,0.6,1.3,1.2c0,0.9-0.2,0.8-0.2,1c0,0.3,0.3,0.3,0.4,0.3
				c1.6,0,3.2-3.3,3.8-4.6l-4.5-10.3c-0.5-1.1-0.8-1.5-2.2-1.4v-1L326,542.2L326,542.2z"/>
			<path class="st11" d="M348.2,535c4.4,0,6.2,2.5,6.2,4.8c0,3-2.4,4.6-4.9,4.8v0.1c0.5,0.1,2.1,0.1,3.8,1.2c1,0.6,2.1,1.8,2.1,3.8
				c0,1.5-0.6,2.9-1.4,3.6c-1.5,1.4-3.8,1.9-7.1,1.9h-9.3v-1.3c2.7-0.1,3.1,0.1,3.1-1.8v-14.3c0-1.4-0.6-1.4-1.9-1.4
				c-0.3,0-0.8,0-1.1,0V535H348.2z M350.3,537.3c-0.8-1-2.6-1.1-4.3-1.1c-0.9,0-2.3-0.3-2.3,1.4v6.5c0,0,0.8,0,1.4,0
				c3.6,0,6.1-0.2,6.1-3.9C351.2,538.8,350.8,537.9,350.3,537.3z M343.7,545.4v6.4c0,2,0.2,2,2.5,2c2.4,0,3.9-0.3,4.7-1.1
				c0.7-0.7,1.1-1.7,1.1-3.1c0-4-2.8-4.4-6-4.4C345.3,545.3,344.6,545.3,343.7,545.4z"/>
			<path class="st11" d="M367.6,543.9c0,1.1-0.6,1.9-1.6,1.9s-1.5-0.8-1.5-1.5c0-0.8,0.3-1.1,0.6-1.4c-3.1,0.4-3.9,5.5-3.9,7.2v3.2
				c0,0.8,0.8,0.8,1.6,0.8c0.4,0,0.8,0,1,0v1h-7.5v-1c1.6-0.1,2.3,0.2,2.3-1.1v-8c0-1.4-1-1.4-1.9-1.4h-0.6v-1.2l5.1-0.3v3.3h0.1
				c0.3-1.3,1.6-3.7,4.1-3.7C366.7,541.8,367.6,542.7,367.6,543.9z"/>
			<path class="st11" d="M380.1,548.8c0,3.6-2.1,6.7-6.1,6.7c-3.9,0-5.9-3.3-5.9-6.8c0-4,2.7-7,5.9-7
				C377.8,541.8,380.1,544.9,380.1,548.8z M371,548.7c0,1.9,0.4,5.8,3.1,5.8c3.1,0,3.3-3.7,3.3-5.9c0-2.4-0.4-5.7-3.1-5.7
				C371.3,542.9,371,546.5,371,548.7z"/>
			<path class="st11" d="M394.4,548.8c0,3.6-2.1,6.7-6.1,6.7c-3.9,0-5.9-3.3-5.9-6.8c0-4,2.7-7,5.9-7
				C392.1,541.8,394.4,544.9,394.4,548.8z M385.2,548.7c0,1.9,0.4,5.8,3.1,5.8c3.1,0,3.3-3.7,3.3-5.9c0-2.4-0.4-5.7-3.1-5.7
				C385.6,542.9,385.2,546.5,385.2,548.7z"/>
			<path class="st11" d="M399.8,548.5l3.9-3.8c0.4-0.4,0.7-0.6,0.7-1.1c0-0.4-0.6-0.5-1-0.5h-1.3v-1h7.3v1c-2.7,0.1-3.9,1.6-6,3.6
				l4.4,6c0.5,0.7,1.5,1.3,2.9,1.3v1h-7.3v-1c0.3,0,0.7-0.1,1-0.1s0.8,0,0.8-0.4c0-0.3-0.2-0.4-0.4-0.7l-3.2-4.6l-1.8,1.6v3.2
				c0,1,0.5,0.9,1.6,0.9h0.5v1H395v-1h0.5c1,0,1.7,0.1,1.7-1.1V537c0-1.2-0.5-1.2-1.8-1.2c0,0-0.2,0-0.7,0v-1.2l5.1-0.3L399.8,548.5
				L399.8,548.5z"/>
			<path class="st12" d="M428.8,536.5l1.1-1.8h1l0.4,8l-1.2,0.1c-1-4.1-2.7-7-6.3-7c-2,0-3.8,1.1-4.8,3.3c-0.6,1.5-1,3.2-1,6.4
				c0,5.8,2,8.7,6.1,8.7c3.9,0,5.8-2.8,6.3-6.2l1.3,0.2c-0.7,4.7-3.6,7.3-8,7.3c-5.5,0-9.4-4.4-9.4-10c0-2.9,0.8-5.5,2.4-7.4
				c1.8-2.2,3.9-3.5,6.9-3.5C426.1,534.6,427.8,535.5,428.8,536.5z"/>
			<path class="st12" d="M437.5,544.5L437.5,544.5c0.7-1.4,2.3-2.8,4.5-2.8c3.1,0,4.3,2.1,4.3,5v5.8c0,1.4-0.1,1.4,1.3,1.5
				c0,0,0.6,0,0.9,0v1h-7.1v-1h0.5c1.2,0,1.8,0,1.8-1.2v-6c0-1.7-0.5-3.4-2.6-3.4c-2.4,0-3.7,2.2-3.7,4.3v5.1c0,1.2,0.6,1.2,1.3,1.2
				c0.3,0,0.6,0,0.9,0v1h-7v-1h0.6c0.9,0,1.7,0,1.7-1.3V537c0-1.1-0.4-1-1.8-1.1h-0.6v-1.2l5-0.3L437.5,544.5L437.5,544.5z"/>
			<path class="st12" d="M449.3,555.1v-1h0.7c1.3,0,1.7-0.1,1.7-1.3V545c0-1.3-0.3-1.3-1.6-1.3c-0.3,0-0.7,0-1,0v-1.2l5.2-0.3v11.2
				c0,0.7,0.4,0.7,1.6,0.8c0.3,0,0.6,0,0.8,0v1h-7.4L449.3,555.1L449.3,555.1z M454.4,536.8c0,0.8-0.7,1.7-1.6,1.7s-1.6-0.7-1.6-1.7
				c0-0.8,0.7-1.6,1.6-1.6S454.4,536,454.4,536.8z"/>
			<path class="st12" d="M462.7,553.3c0,0.8,0.4,0.8,1.4,0.8c0.3,0,0.6,0,0.9,0v1h-7.2v-1h0.6c0.6,0,1.7,0.2,1.7-1.1v-15.9
				c0-1.1-0.6-1.1-1.6-1.1c-0.3,0-0.6,0-0.9,0v-1.2l5.1-0.3V553.3z"/>
			<path class="st12" d="M477.4,552.7c0,1.5,1.3,1.1,2.3,1.2v1.2l-4.8,0.3V553c-0.6,1.4-1.6,2.6-3.8,2.6c-3.7,0-5.6-3-5.6-6.7
				c0-3.8,2-7,5.5-7c1.8,0,3,0.8,3.9,2.1v-6.8c0-1.2-0.9-1.1-1.8-1.1c-0.3,0-0.8,0-1,0v-1.2l5.4-0.3v18.1L477.4,552.7L477.4,552.7z
				 M468.3,548.8c0,2.4,0.6,5.2,3.3,5.2c2.7,0,3.3-3.2,3.3-5.3c0-2.4-0.6-5.5-3.3-5.5C468.7,543.2,468.3,546.6,468.3,548.8z"/>
			<path class="st12" d="M492,543.9c0,1.1-0.6,1.9-1.6,1.9s-1.5-0.8-1.5-1.5c0-0.8,0.3-1.1,0.6-1.4c-3.1,0.4-3.9,5.5-3.9,7.2v3.2
				c0,0.8,0.8,0.8,1.6,0.8c0.4,0,0.8,0,1,0v1h-7.5v-1c1.6-0.1,2.3,0.2,2.3-1.1v-8c0-1.4-1-1.4-1.9-1.4h-0.6v-1.2l5.1-0.3v3.3h0.1
				c0.3-1.3,1.6-3.7,4.1-3.7C491.2,541.8,492,542.7,492,543.9z"/>
			<path class="st12" d="M504.2,548.8h-9.1c-0.1,2.8,1.1,5.3,3.9,5.3c2.2,0,3.4-1.3,4.2-3l0.9,0.5c-1.1,2.3-2.6,3.9-5.6,3.9
				c-3.3,0-6.3-2-6.3-6.5c0-3.9,2.4-7.2,6.2-7.2c2.3,0,3.8,1.3,4.8,2.9C503.9,545.9,504.2,548.4,504.2,548.8z M495.2,547.7h5.1
				c0.8,0,1-0.2,1-1.1c0-1.3-0.5-3.7-2.9-3.7C495.9,542.9,495.3,545.7,495.2,547.7z"/>
			<path class="st12" d="M519.3,547v6.1c0,1,0.3,0.8,1.7,0.9c0,0,0.2,0,0.5,0v1h-7v-1h0.6c0.4,0,0.8,0,1.1-0.1
				c0.4-0.1,0.6-0.3,0.6-0.8v-6.4c0-2.4-1-3.3-2.6-3.3c-2.3,0-3.5,2.2-3.5,4.3v5.2c0,0.3,0,0.5,0.1,0.7c0.1,0.4,0.6,0.5,1.1,0.5
				c0.3,0,0.7,0,1.1,0v1h-7.1v-1h0.7c0.8,0,1.6-0.1,1.6-0.9V545c0-1.1-0.2-1.2-0.8-1.3c-0.2,0-1.5-0.1-1.5-0.1v-1.2l4.8-0.3v2.4h0.1
				c0.6-1.1,1.9-2.8,4.2-2.8C517.4,541.8,519.3,543.6,519.3,547z"/>
			<path class="st12" d="M521.7,542c0.9-0.8,2.8-2.4,2.8-3.9c0-0.2,0-0.3-0.2-0.3c-0.3,0-0.4,0.1-0.7,0.1c-0.9,0-1.6-0.7-1.7-1.7
				c0-0.9,0.9-1.6,1.8-1.6c1.5,0,2.2,1.4,2.2,2.7c0,3.4-3.4,5.1-3.7,5.5L521.7,542z"/>
			<path class="st12" d="M532.3,542.9l0.8-1h0.9v4.6h-1c-0.5-2-1.8-3.6-4.1-3.6c-1.3,0-2.6,0.7-2.6,2c0,0.9,0.7,1.5,1.7,1.8
				c1.1,0.3,3.8,0.8,4.4,1c1.1,0.4,2.4,1.4,2.4,3.6c0,3.1-2.4,4.2-4.6,4.2c-1.4,0-2.7-0.4-3.8-1.4l-1,1.2h-0.9V550h1
				c0.6,2.5,2.2,4.3,4.8,4.3c1.3,0,2.8-0.7,2.8-2.2c0-1.2-0.9-1.7-1.9-2c-1.1-0.4-2.7-0.6-4.1-1.1c-2.1-0.7-2.4-2.1-2.4-3.5
				c0-2.5,1.8-3.9,4.1-3.9C530.4,541.8,531.4,542.2,532.3,542.9z"/>
		</g>
		<g>
			<g>
				<g>
					<defs>
						<path id="SVGID_1_" d="M399.8,455.3c-18.4,0-33.3,14.9-33.3,33.3s14.9,33.3,33.3,33.3s33.3-14.9,33.3-33.3
							C433.2,470.2,418.2,455.3,399.8,455.3z"/>
					</defs>
					<clipPath id="SVGID_00000160905700698413525410000017349428027727733131_">
						<use xlink:href="#SVGID_1_"  style="overflow:visible;"/>
					</clipPath>
					<path style="clip-path:url(#SVGID_00000160905700698413525410000017349428027727733131_);fill:#FFFFFF;" d="M399.8,522
						c18.4,0,33.3-14.9,33.3-33.3s-14.9-33.3-33.3-33.3s-33.3,14.9-33.3,33.3S381.4,522,399.8,522L399.8,522z"/>
				</g>
			</g>
			<g>
				<g>
					<defs>
						<path id="SVGID_00000111192147850973891760000008110428968420406920_" d="M399.8,455.3c-18.4,0-33.3,14.9-33.3,33.3
							s14.9,33.3,33.3,33.3s33.3-14.9,33.3-33.3C433.2,470.2,418.2,455.3,399.8,455.3z"/>
					</defs>
					<clipPath id="SVGID_00000165221380186606428210000011784127933600296832_">
						<use xlink:href="#SVGID_00000111192147850973891760000008110428968420406920_"  style="overflow:visible;"/>
					</clipPath>
					<g style="clip-path:url(#SVGID_00000165221380186606428210000011784127933600296832_);">
						<g>
							<path class="st1" d="M399.8,455.3c-18.4,0-33.3,14.9-33.3,33.3s14.9,33.3,33.3,33.3s33.3-14.9,33.3-33.3
								C433.2,470.2,418.2,455.3,399.8,455.3z"/>
						</g>
					</g>
				</g>
			</g>
			<g>
				<g>
					<defs>
						<path id="SVGID_00000016784604901280087970000017074240681341013380_" d="M399.8,455.3c-18.4,0-33.3,14.9-33.3,33.3
							s14.9,33.3,33.3,33.3s33.3-14.9,33.3-33.3C433.2,470.2,418.2,455.3,399.8,455.3z"/>
					</defs>
					<clipPath id="SVGID_00000160172690546546293410000014469590642503546807_">
						<use xlink:href="#SVGID_00000016784604901280087970000017074240681341013380_"  style="overflow:visible;"/>
					</clipPath>
					<g style="clip-path:url(#SVGID_00000160172690546546293410000014469590642503546807_);">
						<polygon class="st0" points="409.4,532.8 412.5,502.3 412,502.3 409,531.5 394,479.5 393.5,479.6 407.8,529.3 394.5,499.3 
							394.1,499.5 408.9,532.9 						"/>
						<path class="st0" d="M402.5,473.4c0-5.4-4.4-9.8-9.8-9.8s-9.8,4.4-9.8,9.8s4.4,9.8,9.8,9.8c0.4,0,0.7,0,1-0.1l-0.1,2
							c0,0.1,0.1,0.3,0.2,0.3s0.1,0.1,0.2,0.1h0.1l2.7-1c0.1,0,0.2-0.1,0.2-0.3c0-0.1,0-0.3-0.1-0.4l-1.2-1.2
							C399.8,481.3,402.5,477.7,402.5,473.4z"/>
						<path class="st0" d="M402.3,496.5c0-5.4-4.4-9.8-9.8-9.8s-9.8,4.4-9.8,9.8s4.4,9.8,9.8,9.8c1.2,0,2.3-0.2,3.3-0.6l0.2,1.6
							c0,0.1,0.1,0.2,0.2,0.3c0.1,0,0.1,0.1,0.2,0.1s0.1,0,0.2,0l2.3-1c0.1-0.1,0.2-0.2,0.2-0.3c0-0.1,0-0.3-0.1-0.3l-1.2-1.3
							C400.5,503,402.3,500,402.3,496.5z"/>
						<path class="st0" d="M422.8,496.5c0-5.4-4.4-9.8-9.8-9.8s-9.8,4.4-9.8,9.8c0,4.6,3.1,8.4,7.3,9.4l-0.7,1
							c-0.1,0.1-0.1,0.2,0,0.4c0,0.1,0.1,0.2,0.3,0.2l2.7,0.7h0.1c0.1,0,0.2,0,0.3-0.1c0.1-0.1,0.1-0.2,0.1-0.4l-0.4-1.5
							c0,0,0,0,0.1,0C418.4,506.3,422.8,501.9,422.8,496.5z"/>
					</g>
				</g>
			</g>
		</g>
	</g>
	<rect x="0.1" y="-0.1" class="st16" width="792" height="612.2"/>
	<g id="_x34_BsN48.tif_3_">
		
			<image style="overflow:visible;enable-background:new    ;" width="498" height="1039" id="Layer_1_2_" xlink:href="E58A7B50A0703EF4.png"  transform="matrix(0.2773 0 0 0.2773 644.2537 315.9106)">
		</image>
	</g>
	<path class="st17" d="M164,598.6H35.7v-72.8c0,0,12.9-14.3,64.2-14.3s64.2,14.3,64.2,14.3L164,598.6L164,598.6z"/>
	<g id="yhfI6i.tif" class="st18">
		
			<image style="display:inline;overflow:visible;enable-background:new    ;" width="433" height="808" id="Layer_1_3_" xlink:href="E58A7B50A0703EF5.png"  transform="matrix(0.2364 0 0 0.2364 49.6887 398.5018)">
		</image>
	</g>
	<rect x="373.1" y="331.2" class="st3" width="469.9" height="40.9"/>
	<text id="line2" transform="matrix(1 0 0 1 373.1073 339.6973)" class="st19 st20">Your Institution</text>
	<g id="Sunnybear">
		<path class="st21" d="M132.2,576.9c-3.8,4.1-10.4,3.6-15.7,1.3c-4.2-1.8-6.8-3.9-9.4-6.6c-7.9-8.2-10.9-18.3-5.2-22.9
			c5.7-4.6,12.9-0.1,21.1,7.3c5.1,4.6,10.1,5,11,9.7C134.5,568.4,135,573.9,132.2,576.9z"/>
		<path class="st22" d="M106.4,568.4c-5.5-6-9.2-15.2-6.9-20.1c1-2,3.8-1.4,5.9-2.5c7.1-3.4,17,1.9,24.2,10.9
			c7.1,8.9,5.2,16.7,0.3,18.4C126.6,576.3,120.4,583.5,106.4,568.4z"/>
		<polygon class="st23" points="109.4,550.4 116.8,550 126.5,565.9 120,567 		"/>
		<path class="st21" d="M125.1,578.4c4.8,0,7.9-0.7,8.9-4.1c1.1-4,0.5-8.5,0-8.7c-3.6-1.1-7.5-1.2-10.9-0.3
			c-4.6,1.2-9.3,2.9-11.5,7.5C111.3,573.4,116.9,578.4,125.1,578.4z"/>
		<path class="st24" d="M111.7,558.5c0,0,5-1.2,6.8-1.5c1.5-0.2,5.9-0.4,5.9-0.4l-1.9-1.9c0,0-3.8,0.1-5,0.2
			c-1.7,0.1-6.8,1.3-6.8,1.3L111.7,558.5z"/>
		<path class="st25" d="M115.5,563.6c0,0,4.1-1.5,5.8-1.7c1.5-0.2,7.1,0,7.1,0l-1.9-2.6c0,0-4.9-0.2-6.6,0.2
			c-1.6,0.3-6.2,1.8-6.2,1.8L115.5,563.6z"/>
		<path class="st21" d="M49.9,579.7c6.4,5.5,14.8,3.1,22.3-4.8c7.4-7.8,9.3-18.1,4.1-23c-5.1-4.9-15.3-2.4-22.7,5.4
			c-4.6,4.8-6.2,5.4-6.2,10.3C47.4,570.6,47,577.1,49.9,579.7z"/>
		<path class="st22" d="M74.2,570.9c4.9-5.9,7-15.7,4.7-20.9c-1-2.2-3.6-1.7-5.6-2.8c-6.7-3.9-15.8,1.2-22.1,10.1
			c-6.2,8.8-4.1,17,0.5,19C54.8,577.6,61.8,585.8,74.2,570.9z"/>
		<polygon class="st23" points="70.5,551.8 63.9,551.3 53.8,566.3 60.8,567.8 		"/>
		<path class="st21" d="M56.4,581.3c-4.3,0-7.8-2-8.7-5.5c-1-4.2-0.5-7.6-0.3-8.1c0.4-1.8,7.4-2,10.2-1.5c4.3,0.7,11.6,4.6,11.8,9.4
			C69.4,576.2,63.8,581.3,56.4,581.3z"/>
		<path class="st24" d="M68.8,559.6c0,0-4.5-1.3-6.1-1.5c-1.3-0.2-5.3-0.5-5.3-0.5l1.7-2c0,0,3.4,0.1,4.6,0.2
			c1.5,0.2,6.1,1.4,6.1,1.4L68.8,559.6z"/>
		<path class="st25" d="M65.3,564.7c0,0-3.7-1.6-5.3-1.8c-1.3-0.2-6.4,0-6.4,0l1.7-2.7c0,0,4.4-0.2,5.9,0.2c1.5,0.3,5.6,1.8,5.6,1.8
			L65.3,564.7z"/>
		<path class="st26" d="M126.7,435.7c0.6,3.7,1.4,11.6,1.4,11.6c-4.5,14.4-23.6,16.8-32.5,16.3c-19.7-1.3-45.9,5.9-46.7-16.5
			c-1.1-30.2,18.7-39.8,38.4-39.8S122.5,410,126.7,435.7z"/>
		<path class="st27" d="M118.7,479.9c0,0,12.5-0.8,13.8,18.6c0.3,4.7-6.8,43.6-8.3,49.3c-1,3.9-23.4,2.6-24.5,2.1
			c-2.8-1.4,4.1-43.4,2.1-47c-4.2-7.3-5-15.9-13.8-14.9c-2.3,0.3-6.6,13.4-9.4,17c-2.4,3.2,2.5,44.5,0.3,45
			c-5.8,1.3-16.8,4.6-22.2-0.6C55,547.8,46,501.2,46,496.6c0-5,10.2-17.7,10.1-18c-1-9.7,7.2-14.6,9.3-27.7
			c0.8-5.2,0.7-15.1,1.7-22.1c0.5-3.5,41.4-5,43.1-1.7C113.3,433.1,118.7,479.9,118.7,479.9z"/>
		<path class="st28" d="M108.6,458.6c-0.2,1.1-6.6,7.5-9.6,8.3c-2.9,0.7-15.2,0.7-20.6-1.3c-1.8-0.7-5.6-2.8-6.1-4.7
			c-0.7-2.6-2.7-17.8,1.8-20.1c2.9-1.6,28.8-2.1,30.9-1C109.2,442.1,109.3,454.7,108.6,458.6z"/>
		<g>
			<g>
				<path class="st29" d="M74,442.9c-0.1,0.1-0.2,0.5-0.2,1.2"/>
				<path class="st30" d="M73.5,446.6c-0.2,3.2-0.3,8.1,0.3,12.2c0.7,4.8,6.8,6.2,9.9,6.7c2.1,0.3,9.4,1.5,15-0.4
					c2.8-0.9,6.5-5.2,6.9-6.3c0.9-2,0.6-9.6,0.1-13.6"/>
				<path class="st29" d="M105.6,443.9c-0.1-0.6-0.2-1-0.3-1.2"/>
			</g>
		</g>
		<path class="st28" d="M95.2,448.4c-1.3,0.6-8.3,0.6-10.1-0.1c-2.9-1.2-12.3-5.4-12.1-6.5c0.2-1,1.6-1.3,2.3-1.5
			c7.1-1.6,25.1-1.6,29.8-0.6c0.7,0.1,1.9,1.6,1.5,2C104.2,444,96.9,447.7,95.2,448.4z"/>
		<path class="st28" d="M105.6,444.2"/>
		<path class="st27" d="M73.8,425.1l-6.1,0.2c-2.5-2.6,1.3-14.5,1.3-14.5l3.8-1.6C72.7,409.2,72.5,420.7,73.8,425.1z"/>
		<path class="st27" d="M104,424.7l5-0.1c1.6-3.6-2.6-15-2.6-15l-3.2-0.9C103.2,408.6,104.7,420.5,104,424.7z"/>
		<path class="st31" d="M67.7,425.3c0.5,0.6,2.1,3.6,2,4.6c0,1.3-0.7,1.5-0.7,2.7s0.9,1.5,1.8,1.9c1.6,0.6,3.2-1.1,3.4-2.4
			c0.2-1.7-2-1.6-2.1-3.3c-0.1-1.1,0.4-3,1-3.7"/>
		<path class="st31" d="M109,424.6c-0.5,0.6-1.2,1.9-1.2,3c0,1.3,1,1.6,1.2,2.7c0.2,1.2-0.8,2.3-1.8,2.7c-1.6,0.6-3.1-0.3-3.3-1.7
			c-0.2-1.7,1.1-1.7,1.3-3.5c0.1-1.1-0.8-2.3-1.3-2.9"/>
		<circle class="st32" cx="71.7" cy="433.9" r="1.8"/>
		<circle class="st32" cx="90.1" cy="445.5" r="1.8"/>
		<circle class="st32" cx="106.1" cy="432.5" r="1.8"/>
		<path class="st33" d="M79.6,480.6c0.8,0.4,3.7,0.7,5.8,1.7c1.9,0.9,5.1,3.6,5.6,5.4c0.5,1.5-0.1,5-0.9,6.4c-1.2,2-4.6,2.2-5.3,1.8
			c0,0-1.2,0.8-3,0.7c-4.6-0.5-3.5-1.6-3.9-1.2c-0.7,0.7-1.9,0.6-3,0.5c-1.4-0.1-3.2-1-3.6-1.2c-3.6-2.2-4.4-7.8-4.4-7.8
			s-13.5-9.8-15.9-14.7c-3.3-7-2.1-30.8-2.1-30.8s4.9,5.2,8.9,7.2c4.2,2.1,7.6,2.4,7.6,2.4s0.2,12.2,1.8,15.9
			C69,470.9,76.8,479,79.6,480.6z"/>
		<path class="st34" d="M76.4,488.6c0,0,1.3,1.4,1.5,3.1c0.2,1,0.1,3.5,0.1,3.5"/>
		<path class="st34" d="M82.8,489.2c0,0,1,0.7,1.6,3.1c0.2,0.9,0.4,3.6,0.4,3.6"/>
		<path class="st34" d="M86.5,487.3c0,0,2.1,1.4,2.8,2.7c0.6,1.1,1.1,3.7,1.1,3.7"/>
		<path class="st34" d="M74.9,480.7c0,0,1.7-0.3,2.6-0.4c0.7,0,2.9,0.5,2.9,0.5"/>
		<path class="st35" d="M104.5,482c-0.8,0.4-6.3-0.1-8.4,0.9c-1.9,0.9-5.1,3.6-5.6,5.4c-0.5,1.5,0.4,3.8,1.2,5.3
			c0.9,1.8,3.2,3.5,5.9,3.7c0,0,0.1,1.1,2.2,1.6c4.4,1.1,3.8-1,4.2-0.5c0.7,0.7,3.1,0.2,3.7,0.2c1.4-0.2,2.6-1.6,3.1-1.9
			c3.3-2.7,3.2-5.6,3.2-5.6s13.3-10.8,15.6-15.7c3.3-7-2.3-35.4-2.3-35.4s-1.6,2.9-5.5,4.9c-4.2,2.1-7.4,2.3-7.4,2.3s2,14.5,0.9,20
			c-0.1,0.4-0.2,0.7-0.4,1C113.5,470.6,107,480.6,104.5,482z"/>
		<path class="st34" d="M105.4,491.4c0,0-1.3,1.4-1.5,3.1c-0.2,1,0.1,3.9,0.1,3.9"/>
		<path class="st34" d="M99.7,490.5c0,0-1.4,0.4-2,2.9c-0.2,0.9-0.1,4-0.1,4"/>
		<path class="st34" d="M95.3,486.8c0,0-1.5,0.9-2.5,2c-1.6,1.7-0.6,5.6-0.6,5.6"/>
		<path class="st34" d="M107.5,483.5c0,0-2.9-1.5-3.5-1.3"/>
		<path id="right_outter_ear" class="st36" d="M117.8,367.3c1,10.3-8.9,11.2-14.8,7.8c-6.3-3.7-8.6-8.1-8.7-9.6
			c-0.2-7.3,2.8-12,10.1-11.5C111.7,354.5,117.1,360,117.8,367.3z"/>
		<path id="left_outter_ear" class="st33" d="M54.6,366.7c-0.9,10.1,8.9,11.1,14.6,7.7c6.3-3.7,8.5-8,8.6-9.5
			c0.2-7.3-2.7-11.9-10-11.4C60.7,354.1,55.2,359.5,54.6,366.7z"/>
		<path id="right_innner_ear" class="st37" d="M111.9,367.4c0.4,5.6-4.3,6.2-7.1,4.3c-3-2-4.1-4.5-4.2-5.3c-0.1-4,1.3-6.2,4.8-5.7
			C108.2,361.1,111.6,363.8,111.9,367.4z"/>
		<path class="st37" d="M61.6,367.2c-0.4,5.6,4.3,6.1,7,4.2c3-2,4.1-4.4,4.1-5.2c0.1-4-1.3-6.1-4.7-5.6
			C65.2,361,61.9,363.6,61.6,367.2z"/>
		<path id="head_1_" class="st33" d="M113.3,390.2c0.1,6.3-1.6,13.7-7.8,16.6c-5,2.3-6.1,8.6-18.2,9.2c-11.5,0.6-12.4-5.2-19.5-7.3
			c-2.8-0.9-9-9.5-8.7-18.1c0.2-4.1,1.8-12.3,5.2-17.5c4.9-7.4,12.2-13.5,21.3-13.5s15.7,5.6,20.9,13.1
			C110,377.8,113.3,386.3,113.3,390.2z"/>
		<path id="snoot_1_" class="st37" d="M74.8,400.6c0-5.8,2.8-8.6,5.3-11.2c2.7-2.8,2.9-6.8,7.1-6.8c0.7,0,3.2,0.3,4.3,2.7
			c3.8,8.7,6.6,3.2,7.8,13.4c0.8,6.4-3.8,11.1-9.6,12.9C83.4,413.5,74.8,407.2,74.8,400.6z"/>
		<path id="nose" class="st38" d="M81.4,392c-1-2.6-0.2-4.6,5.2-4.6c6.8,0,6.8,1.6,6.2,4c-0.4,1.5-3.1,4-5.8,4S82,393.5,81.4,392z"
			/>
		<path id="nose_shine" class="st39" d="M89.9,389.3c0.1,0.3-0.6,0.9-0.9,0.9c-0.8,0.2-0.4-0.5-2.1-0.6c-1.5,0-1.4,0.6-2,0.6
			c-0.4,0-0.9-0.5-0.8-0.8c0.2-0.6,1.9-0.6,2.6-0.6C87.5,388.7,89.6,388.5,89.9,389.3z"/>
		<g id="right_eye">
			<path class="st40" d="M101.1,385.3c-0.3,1.5-0.6,1.9-1,1.9c-0.5,0.1-1.1-0.3-1.9,0c-1.4,0.4-2.1,0.8-2.4,1
				c-0.5,0.4-1.3-2.4-1.6-3.1c-0.8-2.5,0.4-5.5,3.3-5.6C100.8,379.3,101.5,382.7,101.1,385.3z"/>
			<path class="st41" d="M100.9,384.5c0,0.8-0.3,2.3-0.8,2.6c-0.5,0.3,0-0.1-1.9,0c-0.7,0.1-2,1-2.5,0.9c-0.9-0.2-1.4-2-1.4-3.4
				c0-1.8,1.5-3.3,3.3-3.3S100.9,382.7,100.9,384.5z"/>
			<circle class="st42" cx="97.5" cy="384.7" r="1.9"/>
			<circle class="st0" cx="96.9" cy="384.2" r="0.8"/>
			<circle id="l_twinkle_1_" class="st0" cx="97.9" cy="385.3" r="0.4"/>
			<path id="l_eyebrow_1_" class="st37" d="M100.5,375c0.7-0.9-1.8-3.1-3.8-3.5c-1.9-0.4-3.5,0.4-3.6,1.9c0,0.8,1.6,0.5,3.6,1
				C98.7,374.7,99.7,376,100.5,375z"/>
		</g>
		<g id="left_eye">
			<path class="st40" d="M72.3,385.6c0.3,1.5,0.6,1.9,1,1.9c0.5,0.1,1.1-0.3,1.9,0c1.4,0.4,2.1,0.8,2.4,1c0.5,0.4,1.3-2.4,1.6-3.1
				c0.8-2.5-0.4-5.5-3.3-5.6C72.5,379.7,71.8,383.1,72.3,385.6z"/>
			<path class="st43" d="M72.5,384.8c0,0.8,0.3,2.3,0.8,2.6c0.5,0.3,0-0.1,1.9,0c0.7,0.1,2,1,2.5,0.9c0.9-0.2,1.4-2,1.4-3.4
				c0-1.8-1.5-3.3-3.3-3.3S72.5,383,72.5,384.8z"/>
			<circle class="st42" cx="75.9" cy="385" r="1.9"/>
			<circle class="st0" cx="75.2" cy="384.3" r="0.8"/>
			<circle id="l_twinkle" class="st0" cx="76.3" cy="385.2" r="0.4"/>
			<path id="l_eyebrow" class="st37" d="M72.9,375.3c-0.7-0.9,1.8-3.1,3.8-3.5c1.9-0.4,3.5,0.4,3.6,1.9c0,0.8-1.6,0.5-3.6,1
				C74.6,375.1,73.7,376.3,72.9,375.3z"/>
		</g>
		<g id="mouth">
			<path class="st44" d="M78.5,396.9c0,0,1.4,4.1,4,4.1s4.4-1.3,4.9-1.3s2.1,1.3,4.4,0.6c2.2-0.7,3.8-4.2,3.8-4.2"/>
			<path class="st44" d="M87.4,399.5c0,0-0.1-0.2,0-0.8"/>
			<path id="chin" class="st44" d="M86.6,404.5c0,0.7,2.6,0.7,2.6,0"/>
		</g>
		<path class="st45" d="M129.8,525.4c-8,6.1-29.4,6.9-39.4,6.8c-10.5-0.1-33-1.3-41.5-7.7c-3.5-2.7-8.9-15.3-8.9-15.3l97.4,2.1
			C137.4,511.4,133,523,129.8,525.4z"/>
		<path class="st46" d="M139.6,513.2c-8.7,8.2-36.5,10-48.4,9.1c-13.6-1-41.6-0.1-50.8-10.1c-3.9-4.3-4.1-17.9-3.3-23.6
			c0.9-5.6,7.8-15.6,7.8-21.3c0.1-9.2-13.7-17.3-11.1-34.9c1-6.8,7.1-19.8,7-26.8c-0.1-3.6-4-10-4.6-13.5c-1-6.5,0.3-21.1,4.9-25.8
			c8.2-8.2,33.9-9.5,45.4-8.8c11.7,0.8,38.4-1.5,46.6,6.9c4.5,4.6,5,19.3,3.7,25.6c-0.6,3-4.2,8.5-4.5,11.6
			c-0.7,8.7,8.4,24.9,9.1,33.6c1.4,17.8-6.4,23.8-6.2,31.9c0.1,5.5,5.4-1.2,7.2,20.6C143,493.9,143.9,509.1,139.6,513.2z"/>
		<path class="st47" d="M129.8,387.3c0,4.9-1.4,11.6-6.9,15.3c-7.9,5.3-22.4,6.6-36.6,6.6c-12.6,0-27-0.4-34.9-4.7
			c-7.2-3.9-8.6-11.4-8.6-17.2c0-4.9,0.4-12.3,5.9-15.9c7.9-5.3,23.4-6,37.6-6c13.8,0,27.2,0.2,35.1,5.3
			C127.4,374.4,129.8,382.2,129.8,387.3z"/>
		<path class="st48" d="M60.3,423.3c1.3,4.4-2.1,13.4-7.5,13.4S38,426.5,38,418.6c0-7.8,3.1-16.2,8.1-14
			C50,406.6,58.5,417.3,60.3,423.3z"/>
		<path class="st47" d="M136.4,417.9c1.3-8-4.8-14.6-8.3-13.2c-5.4,2.2-14.4,15.6-14.2,22.4c0.1,5.8,5.2,10.5,7.8,9.6
			C128.2,434.4,135.3,425,136.4,417.9z"/>
		<path class="st21" d="M132.2,576.9c-3.8,4.1-10.4,3.6-15.7,1.3c-4.2-1.8-6.8-3.9-9.4-6.6c-7.9-8.2-10.9-18.3-5.2-22.9
			c5.7-4.6,12.9-0.1,21.1,7.3c5.1,4.6,10.1,5,11,9.7C134.5,568.4,135,573.9,132.2,576.9z"/>
		<path class="st22" d="M106.4,568.4c-5.5-6-9.2-15.2-6.9-20.1c1-2,3.8-1.4,5.9-2.5c7.1-3.4,17,1.9,24.2,10.9
			c7.1,8.9,5.2,16.7,0.3,18.4C126.6,576.3,120.4,583.5,106.4,568.4z"/>
		<polygon class="st23" points="109.4,550.4 116.8,550 126.5,565.9 120,567 		"/>
		<path class="st21" d="M125.1,578.4c4.8,0,7.9-0.7,8.9-4.1c1.1-4,0.5-8.5,0-8.7c-3.6-1.1-7.5-1.2-10.9-0.3
			c-4.6,1.2-9.3,2.9-11.5,7.5C111.3,573.4,116.9,578.4,125.1,578.4z"/>
		<path class="st24" d="M111.7,558.5c0,0,5-1.2,6.8-1.5c1.5-0.2,5.9-0.4,5.9-0.4l-1.9-1.9c0,0-3.8,0.1-5,0.2
			c-1.7,0.1-6.8,1.3-6.8,1.3L111.7,558.5z"/>
		<path class="st25" d="M115.5,563.6c0,0,4.1-1.5,5.8-1.7c1.5-0.2,7.1,0,7.1,0l-1.9-2.6c0,0-4.9-0.2-6.6,0.2
			c-1.6,0.3-6.2,1.8-6.2,1.8L115.5,563.6z"/>
		<path class="st21" d="M49.9,579.7c6.4,5.5,14.8,3.1,22.3-4.8c7.4-7.8,9.3-18.1,4.1-23c-5.1-4.9-15.3-2.4-22.7,5.4
			c-4.6,4.8-6.2,5.4-6.2,10.3C47.4,570.6,47,577.1,49.9,579.7z"/>
		<path class="st22" d="M74.2,570.9c4.9-5.9,7-15.7,4.7-20.9c-1-2.2-3.6-1.7-5.6-2.8c-6.7-3.9-15.8,1.2-22.1,10.1
			c-6.2,8.8-4.1,17,0.5,19C54.8,577.6,61.8,585.8,74.2,570.9z"/>
		<polygon class="st23" points="70.5,551.8 63.9,551.3 53.8,566.3 60.8,567.8 		"/>
		<path class="st21" d="M56.4,581.3c-4.3,0-7.8-2-8.7-5.5c-1-4.2-0.5-7.6-0.3-8.1c0.4-1.8,7.4-2,10.2-1.5c4.3,0.7,11.6,4.6,11.8,9.4
			C69.4,576.2,63.8,581.3,56.4,581.3z"/>
		<path class="st24" d="M68.8,559.6c0,0-4.5-1.3-6.1-1.5c-1.3-0.2-5.3-0.5-5.3-0.5l1.7-2c0,0,3.4,0.1,4.6,0.2
			c1.5,0.2,6.1,1.4,6.1,1.4L68.8,559.6z"/>
		<path class="st25" d="M65.3,564.7c0,0-3.7-1.6-5.3-1.8c-1.3-0.2-6.4,0-6.4,0l1.7-2.7c0,0,4.4-0.2,5.9,0.2c1.5,0.3,5.6,1.8,5.6,1.8
			L65.3,564.7z"/>
		<path class="st26" d="M126.7,435.7c0.6,3.7,1.4,11.6,1.4,11.6c-4.5,14.4-23.6,16.8-32.5,16.3c-19.7-1.3-45.9,5.9-46.7-16.5
			c-1.1-30.2,18.7-39.8,38.4-39.8S122.5,410,126.7,435.7z"/>
		<path class="st27" d="M118.7,479.9c0,0,12.5-0.8,13.8,18.6c0.3,4.7-6.8,43.6-8.3,49.3c-1,3.9-23.4,2.6-24.5,2.1
			c-2.8-1.4,4.1-43.4,2.1-47c-4.2-7.3-5-15.9-13.8-14.9c-2.3,0.3-6.6,13.4-9.4,17c-2.4,3.2,2.5,44.5,0.3,45
			c-5.8,1.3-16.8,4.6-22.2-0.6C55,547.8,46,501.2,46,496.6c0-5,10.2-17.7,10.1-18c-1-9.7,7.2-14.6,9.3-27.7
			c0.8-5.2,0.7-15.1,1.7-22.1c0.5-3.5,41.4-5,43.1-1.7C113.3,433.1,118.7,479.9,118.7,479.9z"/>
		<path class="st28" d="M108.6,458.6c-0.2,1.1-6.6,7.5-9.6,8.3c-2.9,0.7-15.2,0.7-20.6-1.3c-1.8-0.7-5.6-2.8-6.1-4.7
			c-0.7-2.6-2.7-17.8,1.8-20.1c2.9-1.6,28.8-2.1,30.9-1C109.2,442.1,109.3,454.7,108.6,458.6z"/>
		<g>
			<g>
				<path class="st29" d="M74,442.9c-0.1,0.1-0.2,0.5-0.2,1.2"/>
				<path class="st30" d="M73.5,446.6c-0.2,3.2-0.3,8.1,0.3,12.2c0.7,4.8,6.8,6.2,9.9,6.7c2.1,0.3,9.4,1.5,15-0.4
					c2.8-0.9,6.5-5.2,6.9-6.3c0.9-2,0.6-9.6,0.1-13.6"/>
				<path class="st29" d="M105.6,443.9c-0.1-0.6-0.2-1-0.3-1.2"/>
			</g>
		</g>
		<path class="st28" d="M95.2,448.4c-1.3,0.6-8.3,0.6-10.1-0.1c-2.9-1.2-12.3-5.4-12.1-6.5c0.2-1,1.6-1.3,2.3-1.5
			c7.1-1.6,25.1-1.6,29.8-0.6c0.7,0.1,1.9,1.6,1.5,2C104.2,444,96.9,447.7,95.2,448.4z"/>
		<path class="st28" d="M105.6,444.2"/>
		<path class="st27" d="M73.8,425.1l-6.1,0.2c-2.5-2.6,1.3-14.5,1.3-14.5l3.8-1.6C72.7,409.2,72.5,420.7,73.8,425.1z"/>
		<path class="st27" d="M104,424.7l5-0.1c1.6-3.6-2.6-15-2.6-15l-3.2-0.9C103.2,408.6,104.7,420.5,104,424.7z"/>
		<path class="st31" d="M67.7,425.3c0.5,0.6,2.1,3.6,2,4.6c0,1.3-0.7,1.5-0.7,2.7s0.9,1.5,1.8,1.9c1.6,0.6,3.2-1.1,3.4-2.4
			c0.2-1.7-2-1.6-2.1-3.3c-0.1-1.1,0.4-3,1-3.7"/>
		<path class="st31" d="M109,424.6c-0.5,0.6-1.2,1.9-1.2,3c0,1.3,1,1.6,1.2,2.7c0.2,1.2-0.8,2.3-1.8,2.7c-1.6,0.6-3.1-0.3-3.3-1.7
			c-0.2-1.7,1.1-1.7,1.3-3.5c0.1-1.1-0.8-2.3-1.3-2.9"/>
		<circle class="st32" cx="71.7" cy="433.9" r="1.8"/>
		<circle class="st32" cx="90.1" cy="445.5" r="1.8"/>
		<circle class="st32" cx="106.1" cy="432.5" r="1.8"/>
		<path class="st33" d="M57,471.5l-11-11.1l3.2-19.5c0,0,6.4,5.7,8.9,7.1c1.9,1.1,8.7,2.9,8.7,2.9s-1.2,14.1-1.7,15.8
			c-0.3,0.9-2.1,3.9-4.2,4.9C59.1,472.4,57,471.5,57,471.5z"/>
		<path class="st49" d="M62.3,465c0,6.9-7.3,7.1-14.1,7.1s-12.7,2-14.3-5.6c-1-4.6,2.9-11.1,13.1-11.9
			C57.9,453.9,62.3,461.3,62.3,465z"/>
		<path class="st44" d="M41.6,466.5c-0.5,1.7,0,4.4,1.3,5.9"/>
		<path class="st44" d="M48.3,466.1c0,1.5,0,4.2,0.6,5.8"/>
		<path class="st44" d="M54.6,464.8c0.9,1.4,1.1,5.7,0.5,6.6"/>
		<path class="st50" d="M130.5,450.3c0.6,1.1,3.2,3.9,3.2,3.9l0.5,13.2l-10.4,4.5c0,0-5-6.9-6.1-9.5c-1.5-3.7-3.1-15.5-3.1-15.5
			s2.9-0.2,7.9-2.5c0.9-0.4,4.9-4.5,4.9-4.5S129.7,448.7,130.5,450.3z"/>
		<path class="st33" d="M146.7,463.8c0,2,0.2,5.5-3.3,6.2c-1.8,0.4-4.1-0.6-8-0.7c-2.8-0.1-5.8,1.7-7.7,1.3c-4.2-1-5.2-5-5.2-7.3
			c0-3.3,3.1-9.1,12.5-8.4C142.6,455.4,146.7,460.5,146.7,463.8z"/>
		<path class="st44" d="M135.2,463.2c0,0-0.5,3.5,0.7,6.1"/>
		<path class="st44" d="M129.2,463c-1.2,1.6,0.5,5.4,1.6,6.3"/>
		<path class="st44" d="M139.8,469.3c2-1.2,1.7-4.5,0.9-5.7"/>
		<path class="st51" d="M87.2,466.2l-7.5,4.1l-4.7-41l-10.3-16.5c3.5-2.3,6.9-3.3,6.9-3.3L84,425.6L87.2,466.2z"/>
		<path class="st51" d="M100.2,468.1l-7.6-3.3l1.4-38.2l9.2-18.3c0,0,4.6,0.5,8.1,2.8l-7.4,16.8L100.2,468.1z"/>
		<path id="right_outter_ear_1_" class="st36" d="M117.8,367.3c1,10.3-8.9,11.2-14.8,7.8c-6.3-3.7-8.6-8.1-8.7-9.6
			c-0.2-7.3,2.8-12,10.1-11.5C111.7,354.5,117.1,360,117.8,367.3z"/>
		<path id="left_outter_ear_1_" class="st33" d="M54.6,366.7c-0.9,10.1,8.9,11.1,14.6,7.7c6.3-3.7,8.5-8,8.6-9.5
			c0.2-7.3-2.7-11.9-10-11.4C60.7,354.1,55.2,359.5,54.6,366.7z"/>
		<path id="right_innner_ear_1_" class="st37" d="M111.9,367.4c0.4,5.6-4.3,6.2-7.1,4.3c-3-2-4.1-4.5-4.2-5.3
			c-0.1-4,1.3-6.2,4.8-5.7C108.2,361.1,111.6,363.8,111.9,367.4z"/>
		<path class="st37" d="M61.6,367.2c-0.4,5.6,4.3,6.1,7,4.2c3-2,4.1-4.4,4.1-5.2c0.1-4-1.3-6.1-4.7-5.6
			C65.2,361,61.9,363.6,61.6,367.2z"/>
		<path id="head_3_" class="st33" d="M113.3,390.2c0.1,6.3-1.6,13.7-7.8,16.6c-5,2.3-6.1,8.6-18.2,9.2c-11.5,0.6-12.4-5.2-19.5-7.3
			c-2.8-0.9-9-9.5-8.7-18.1c0.2-4.1,1.8-12.3,5.2-17.5c4.9-7.4,12.2-13.5,21.3-13.5s15.7,5.6,20.9,13.1
			C110,377.8,113.3,386.3,113.3,390.2z"/>
		<path id="snoot_2_" class="st37" d="M74.8,400.6c0-5.8,2.8-8.6,5.3-11.2c2.7-2.8,2.9-6.8,7.1-6.8c0.7,0,3.2,0.3,4.3,2.7
			c3.8,8.7,6.6,3.2,7.8,13.4c0.8,6.4-3.8,11.1-9.6,12.9C83.4,413.5,74.8,407.2,74.8,400.6z"/>
		<path id="nose_1_" class="st38" d="M81.4,392c-1-2.6-0.2-4.6,5.2-4.6c6.8,0,6.8,1.6,6.2,4c-0.4,1.5-3.1,4-5.8,4S82,393.5,81.4,392
			z"/>
		<path id="nose_shine_1_" class="st39" d="M89.9,389.3c0.1,0.3-0.6,0.9-0.9,0.9c-0.8,0.2-0.4-0.5-2.1-0.6c-1.5,0-1.4,0.6-2,0.6
			c-0.4,0-0.9-0.5-0.8-0.8c0.2-0.6,1.9-0.6,2.6-0.6C87.5,388.7,89.6,388.5,89.9,389.3z"/>
		<g id="right_eye_1_">
			<path class="st40" d="M101.1,385.3c-0.3,1.5-0.6,1.9-1,1.9c-0.5,0.1-1.1-0.3-1.9,0c-1.4,0.4-2.1,0.8-2.4,1
				c-0.5,0.4-1.3-2.4-1.6-3.1c-0.8-2.5,0.4-5.5,3.3-5.6C100.8,379.3,101.5,382.7,101.1,385.3z"/>
			<path class="st41" d="M100.9,384.5c0,0.8-0.3,2.3-0.8,2.6c-0.5,0.3,0-0.1-1.9,0c-0.7,0.1-2,1-2.5,0.9c-0.9-0.2-1.4-2-1.4-3.4
				c0-1.8,1.5-3.3,3.3-3.3S100.9,382.7,100.9,384.5z"/>
			<circle class="st42" cx="97.5" cy="384.7" r="1.9"/>
			<circle class="st0" cx="96.9" cy="384.2" r="0.8"/>
			<circle id="l_twinkle_3_" class="st0" cx="97.9" cy="385.3" r="0.4"/>
			<path id="l_eyebrow_3_" class="st37" d="M100.5,375c0.7-0.9-1.8-3.1-3.8-3.5c-1.9-0.4-3.5,0.4-3.6,1.9c0,0.8,1.6,0.5,3.6,1
				C98.7,374.7,99.7,376,100.5,375z"/>
		</g>
		<g id="left_eye_1_">
			<path class="st40" d="M72.3,385.6c0.3,1.5,0.6,1.9,1,1.9c0.5,0.1,1.1-0.3,1.9,0c1.4,0.4,2.1,0.8,2.4,1c0.5,0.4,1.3-2.4,1.6-3.1
				c0.8-2.5-0.4-5.5-3.3-5.6C72.5,379.7,71.8,383.1,72.3,385.6z"/>
			<path class="st43" d="M72.5,384.8c0,0.8,0.3,2.3,0.8,2.6c0.5,0.3,0-0.1,1.9,0c0.7,0.1,2,1,2.5,0.9c0.9-0.2,1.4-2,1.4-3.4
				c0-1.8-1.5-3.3-3.3-3.3S72.5,383,72.5,384.8z"/>
			<circle class="st42" cx="75.9" cy="385" r="1.9"/>
			<circle class="st0" cx="75.2" cy="384.3" r="0.8"/>
			<circle id="l_twinkle_2_" class="st0" cx="76.3" cy="385.2" r="0.4"/>
			<path id="l_eyebrow_2_" class="st37" d="M72.9,375.3c-0.7-0.9,1.8-3.1,3.8-3.5c1.9-0.4,3.5,0.4,3.6,1.9c0,0.8-1.6,0.5-3.6,1
				C74.6,375.1,73.7,376.3,72.9,375.3z"/>
		</g>
		<g id="mouth_1_">
			<path class="st44" d="M78.5,396.9c0,0,1.4,4.1,4,4.1s4.4-1.3,4.9-1.3s2.1,1.3,4.4,0.6c2.2-0.7,3.8-4.2,3.8-4.2"/>
			<path class="st44" d="M87.4,399.5c0,0-0.1-0.2,0-0.8"/>
			<path id="chin_1_" class="st44" d="M86.6,404.5c0,0.7,2.6,0.7,2.6,0"/>
		</g>
		<path class="st51" d="M120.2,472.7c2.1,1.4,5.2,9.1,2.8,8.3c-20.4-7.6-52.1-8.5-68.6,1.1c-2.2,1.2,3.4-5.9,5.4-7.4
			C72.6,465.3,107,464,120.2,472.7z"/>
		<path class="st52" d="M78.5,465.6c9.9-6.7,11,1.4,11,1.4s2.4-7.4,10.9-1.5c4.2,2.9-4.3,9.7-8.1,10.2c-2.8,0.4-3.4,0-6-0.4
			C83,474.7,73.9,468.7,78.5,465.6z"/>
		<path class="st53" d="M103.2,433c-2.9,1.8-9.1-2.5-15.2-2.5c-5.9,0-11.9,4.4-14.5,2.5c-1.8-1.4-1.6-6.3,0-7.8
			c2.3-2.2,8.5-4.8,14.7-4.7s12.4,2.8,15,4.7C105,426.6,105.2,431.8,103.2,433z"/>
		<path class="st54" d="M95.4,476.7H82.9v-6.1c-0.1-3.4,4.3-5,6.4-5s6.2,1.2,6.1,5C95.4,472.7,95.4,474.7,95.4,476.7z"/>
		<path class="st55" d="M92.3,471.5c-1.3,1-4.8,0.8-6.1,0c-0.5-0.3-1-1.9-0.8-2.4c0.9-1.9,6.4-1.7,7.5,0
			C93.3,469.5,92.8,471.1,92.3,471.5z"/>
		<path class="st46" d="M31.2,479.5c-0.4-5.5,7.8-6.7,16.4-7.7c9-1,16.8-0.7,16.8,5c0,5.3-5.4,8-15.7,8.8
			C40.1,486.3,31.7,485.7,31.2,479.5z"/>
		<path class="st46" d="M118.8,475.7c-0.7-5.2,6.3-7.5,14.6-7.5c8.1,0,14.6,2.3,14.6,7.5c0,5.5-6.5,5.9-14.6,5.9
			S119.4,479.9,118.8,475.7z"/>
	</g>
	<rect x="358.5" y="220.8" class="st3" width="469.9" height="40.9"/>
	<text id="line1" transform="matrix(1 0 0 1 358.4755 229.2936)" class="st19 st20">Your name here</text>
</g>
<g id="Layer_2">
</g>
</svg>
