<?xml version="1.0" encoding="utf-8"?>
<!-- Generator: Adobe Illustrator 25.2.0, SVG Export Plug-In . SVG Version: 6.00 Build 0)  -->
<svg version="1.1" id="Layer_1" xmlns="http://www.w3.org/2000/svg" xmlns:xlink="http://www.w3.org/1999/xlink" x="0px" y="0px"
	 viewBox="0 0 1650.8 1006.2" style="enable-background:new 0 0 1650.8 1006.2;" xml:space="preserve">
<style type="text/css">
	.st0{fill:#C0BEC2;stroke:#000000;stroke-miterlimit:10;}
	.st1{fill:#EFCDB1;stroke:#000000;stroke-miterlimit:10;}
	.st2{fill:#EFD3BF;stroke:#000000;stroke-miterlimit:10;}
	.st3{opacity:0.44;fill:none;stroke:#B29E8E;stroke-miterlimit:10;enable-background:new    ;}
	.st4{opacity:0.44;}
	.st5{fill:#B29E8E;}
	.st6{fill:#B29E8E;stroke:#000000;stroke-miterlimit:10;}
	.st7{fill:#770000;stroke:#000000;stroke-miterlimit:10;}
	.st8{fill:#00AA00;stroke:#000000;stroke-miterlimit:10;}
	.st9{fill:#000077;stroke:#000000;stroke-width:0.75;stroke-miterlimit:10;}
	.st10{fill:#FFFF00;stroke:#000000;stroke-miterlimit:10;}
	.st11{fill:#00CC00;stroke:#000000;stroke-miterlimit:10;}
	.st12{fill:#DD0000;stroke:#000000;stroke-miterlimit:10;}
	.st13{fill:none;stroke:#000000;stroke-miterlimit:10;}
	.st14{fill:none;stroke:#000000;stroke-linecap:round;stroke-miterlimit:10;}
	.st15{opacity:0.5;fill:#FFFFFF;enable-background:new    ;}
	.st16{fill:#FFFFFF;stroke:#000000;stroke-miterlimit:10;}
	.st17{fill:#4F4242;stroke:#000000;stroke-miterlimit:10;}
	.st18{fill:#5B5151;stroke:#000000;stroke-miterlimit:10;}
	.st19{fill:#444444;stroke:#000000;stroke-miterlimit:10;}
	.st20{fill:#222222;stroke:#000000;stroke-miterlimit:10;}
	.st21{fill:#826868;stroke:#000000;stroke-miterlimit:10;}
	.st22{fill:#9B7676;stroke:#000000;stroke-miterlimit:10;}
	.st23{fill:#B78B8B;stroke:#000000;stroke-miterlimit:10;}
	.st24{fill:#9B7979;stroke:#000000;stroke-miterlimit:10;}
	.st25{fill:#FFFFFF;stroke:#0C055E;stroke-width:0.5;stroke-miterlimit:10;}
	.st26{fill:none;stroke:#0C055E;stroke-width:0.5;stroke-miterlimit:10;}
	.st27{fill:#FFFFFF;}
	.st28{fill:#D42E2C;stroke:#0C055E;stroke-width:0.5;stroke-miterlimit:10;}
	.st29{fill:#00AF9A;stroke:#0C055E;stroke-width:0.5;stroke-miterlimit:10;}
	.st30{fill:#9CE0FF;stroke:#0C055E;stroke-width:0.5;stroke-miterlimit:10;}
	.st31{fill:#FF6A69;stroke:#0C055E;stroke-width:0.5;stroke-miterlimit:10;}
	.st32{fill:#0CE0C7;stroke:#0C055E;stroke-width:0.5;stroke-miterlimit:10;}
	.st33{fill:#5E0078;stroke:#0C055E;stroke-width:0.5;stroke-miterlimit:10;}
	.st34{fill:#7951E8;stroke:#0C055E;stroke-width:0.5;stroke-miterlimit:10;}
	.st35{stroke:#0C055E;stroke-width:0.5;stroke-miterlimit:10;}
	.st36{fill:#7D57E9;stroke:#0C055E;stroke-width:0.5;stroke-miterlimit:10;}
	.st37{fill:#FFD110;stroke:#0C055E;stroke-width:0.5;stroke-miterlimit:10;}
	.st38{fill:#777777;stroke:#000000;stroke-width:1;stroke-miterlimit:10.0007;}
	.st39{fill:#CC9999;stroke:#000000;stroke-miterlimit:10;}
	.st40{fill:#777777;stroke:#000000;stroke-miterlimit:10;}
	.st41{display:none;}
	.st42{display:inline;}
	.st43{fill:#FFFFFF;stroke:#662B02;stroke-miterlimit:10;}
	.st44{fill:none;stroke:#662B02;stroke-linecap:round;stroke-miterlimit:10;}
	.st45{fill:#FEAD40;stroke:#662B02;stroke-miterlimit:10;}
	.st46{fill:#C2678D;stroke:#662B02;stroke-miterlimit:10;}
	.st47{fill:#FED090;stroke:#662B02;stroke-linecap:round;stroke-miterlimit:10;}
	.st48{fill:#C2678D;stroke:#662B02;stroke-width:1;stroke-miterlimit:10.0028;}
	.st49{fill:#005B7A;}
	.st50{fill:#060075;}
	.st51{display:inline;fill:#555555;stroke:#383838;stroke-miterlimit:10;}
	.st52{display:inline;fill:#FEAD40;stroke:#662B02;stroke-miterlimit:10;}
	.st53{fill:none;}
	.st54{fill:#111111;stroke:#5E3F3F;stroke-miterlimit:10;}
	.st55{fill:#FEAD40;}
	.st56{display:none;opacity:0.49;}
	.st57{fill:#C2678D;stroke:#662B02;stroke-width:1;stroke-miterlimit:10.0002;}
	.st58{display:none;fill:#FEAD40;}
	.st59{fill:#555555;stroke:#383838;stroke-miterlimit:10;}
	.st60{fill:#C2678D;stroke:#662B02;stroke-miterlimit:10.0002;}
	.st61{display:inline;fill:none;stroke:#662B02;stroke-linecap:round;stroke-miterlimit:10;}
	.st62{fill:#C2678D;stroke:#662B02;stroke-width:1;stroke-miterlimit:9.9996;}
	.st63{fill:#C2678D;stroke:#662B02;stroke-width:1;stroke-miterlimit:10.0014;}
	.st64{fill:#005500;stroke:#000000;stroke-miterlimit:10;}
	.st65{fill:#FFFF99;stroke:#000000;stroke-miterlimit:10;}
</style>
<g id="Background">
	<path id="Pavement" class="st0" d="M1648.8,1006.2H-2V115h383.9c0,0,14-11,23.9-37.4c8.2-27-9.3-39.7-9.3-39.7L-2,39V24h401.8h18.6
		h934.2v14H431.7L626,115l1022.8,388.1V1006.2z"/>
	<polygon id="Sidewalk_path" class="st1" points="628,115 433.7,37.9 466.1,37.9 1348.2,37.9 1348.2,45.2 480.2,42.3 681.8,105 
		628.2,105.3 	"/>
	<g id="Sidewalk_1_">
		<polygon id="Sidewalk" class="st2" points="1650.8,503.1 628,115 628.2,105.3 1348.2,105.3 1348.3,138.1 1650.8,182.9 		"/>
		<line id="Crack_10" class="st3" x1="1518.5" y1="428.8" x2="1650.8" y2="353.6"/>
		<line id="Crack_9" class="st3" x1="1394.9" y1="383.9" x2="1650.8" y2="277.1"/>
		<line id="Crack_8" class="st3" x1="1276.9" y1="341" x2="1650.8" y2="223.3"/>
		<line id="Crack_7" class="st3" x1="1167" y1="301.1" x2="1646.2" y2="183.7"/>
		<line id="Crack_6" class="st3" x1="1067.3" y1="264.9" x2="1559.6" y2="169.4"/>
		<line id="Crack_5" class="st3" x1="971.1" y1="229.9" x2="1469.5" y2="156.1"/>
		<line id="Crack_4" class="st3" x1="885.1" y1="198.7" x2="1387.3" y2="143.5"/>
		<line id="Crack_3" class="st3" x1="807.6" y1="170.5" x2="1348.2" y2="126.5"/>
		<line id="Crack_2" class="st3" x1="734.5" y1="145.7" x2="1348.2" y2="105.3"/>
		<g id="Crack_1" class="st4">
			<polygon class="st5" points="683.4,125.8 683.3,124.8 973.4,105.8 989.1,105.8 989.1,105.8 			"/>
		</g>
		<polygon id="Sidewalk_shadow" class="st6" points="1650.8,503.1 628,115 628.2,105.3 1650.8,476.9 		"/>
	</g>
	<polygon id="School" class="st7" points="1650.8,182.9 1348.3,138.1 1348.3,0 1650.8,0 	"/>
	<path id="Grass_Right" class="st8" d="M383.9,115H0V39l398.5-1.1c0,0,11.5,9.2,11.5,29.2C410,88.3,383.9,115,383.9,115z"/>
	<polygon id="Grass_left" class="st8" points="1348.2,105.3 681.8,105 480.2,42.3 1348.2,45.2 	"/>
	<rect id="Grass_Top" class="st8" width="1348.2" height="24"/>
	<path id="Bike_rack" class="st9" d="M1425.2,87.8L1020.4,53l-17-1.8c-2.6,0-5.1,1-7,2.9L919.8,129l0,0l-2.7,3.5
		c-0.7,1.7,0.7,3.6,2.6,3.4l86.5-8.7l317.7,65l-32.9,33.3c-0.9,0.9-1.4,2.1-1.4,3.3c0,1,0.3,2,0.9,2.8c0.3,0.4,0.8,0.7,1.4,0.7
		c0.1,0,0.2,0,0.3,0l126.2-20.1l7.7-0.9c1.6-0.2,2.9-1.6,2.9-3.2l1.6-114.6C1430.7,91.9,1430.7,87.8,1425.2,87.8z M999.3,120.5
		L929,128l70.3-69.7V120.5z M1394.9,99.3c0-2,1.7-3.5,3.7-3.3l18.3,1.8l-22,22.3V99.3z M1366.3,98.4c0-3,2.5-5.3,5.5-5l13.2,1.3
		c2.6,0.2,4.5,2.4,4.5,5v25.9l-23.2,23.5V98.4z M1366.3,158.8l23.2-23.8v53.6c0,3.1-2.9,5.5-5.9,4.9l-13.2-2.5
		c-2.4-0.5-4.1-2.5-4.1-4.9V158.8z M1338.2,95.6c0-3,2.5-5.3,5.5-5l12.8,1.2c2.6,0.2,4.5,2.4,4.5,5v57.6l-22.8,23.1V95.6z
		 M1361,164.3v18.8c0,3.1-2.9,5.5-5.9,4.9l-14.5-2.8L1361,164.3z M1023.1,118.1c0,3.1-2.9,5.5-6,4.9l-6.9-1.3
		c-2.4-0.4-4.1-2.5-4.1-4.9l0.1-53.4c0-2.9,2.5-5.2,5.5-5l6.7,0.6c2.6,0.2,4.5,2.4,4.5,5v54.1
		C1022.9,118.1,1023.1,118.1,1023.1,118.1z M1045.1,122.4c0,3.1-2.9,5.5-5.9,4.9l-6.7-1.3c-2.4-0.5-4.1-2.5-4.1-4.9V65.6
		c0-3,2.5-5.3,5.5-5l7,0.7h0.1c2.4,0.2,4.1,2.2,4.1,4.6V122.4z M1067.3,126.6c0,3.1-2.9,5.5-6,4.9l-6.8-1.3
		c-2.4-0.5-4.1-2.5-4.1-4.9V67.7c0-2.9,2.5-5.3,5.5-5l6.8,0.7c2.6,0.2,4.5,2.4,4.5,5L1067.3,126.6L1067.3,126.6z M1089.5,130.9
		c0,3.1-2.9,5.5-5.9,4.9l-6.8-1.3c-2.4-0.5-4.1-2.5-4.1-4.9V69.9c0-3,2.5-5.3,5.5-5l6.8,0.7c2.6,0.2,4.5,2.4,4.5,5V130.9z
		 M1111.8,135.2c0,3.1-2.9,5.5-5.9,4.9l-6.9-1.3c-2.4-0.5-4.1-2.5-4.1-4.9V72c0-3,2.5-5.3,5.5-5l6.9,0.7c2.6,0.2,4.5,2.4,4.5,5
		V135.2z M1137.7,140.2c0,3.1-2.9,5.5-5.9,4.9l-10.6-2c-2.4-0.5-4.1-2.5-4.1-4.9v-64c0-3,2.5-5.3,5.5-5l10.6,1
		c2.6,0.2,4.5,2.4,4.5,5V140.2z M1161.7,144.8c0,3.2-2.9,5.5-5.9,4.9l-8.6-1.7c-2.3-0.5-4-2.5-4-4.9V76.7c0-3,2.5-5.3,5.5-5l8.6,0.8
		c2.6,0.2,4.5,2.4,4.5,5L1161.7,144.8L1161.7,144.8z M1187,149.7c0,3.1-2.9,5.5-5.9,4.9l-10-1.9c-2.4-0.4-4.1-2.5-4.1-4.9V79
		c0-3,2.5-5.3,5.5-5l10,1c2.6,0.2,4.5,2.4,4.5,5V149.7z M1217.3,155.5c0,3.1-2.9,5.5-6,4.9l-14.9-2.9c-2.3-0.4-4.1-2.5-4.1-4.9V81.5
		c0-3,2.5-5.3,5.5-5l14.9,1.5c2.6,0.2,4.5,2.4,4.5,5L1217.3,155.5L1217.3,155.5z M1245.9,161c0,3.1-2.9,5.5-5.9,4.9l-13.2-2.5
		c-2.4-0.5-4.1-2.5-4.1-4.9v-74c0-3,2.5-5.3,5.5-5l13.2,1.3c2.6,0.2,4.5,2.4,4.5,5V161z M1274.5,166.5c0,3.1-2.9,5.5-5.9,4.9
		l-13.2-2.5c-2.4-0.5-4.1-2.5-4.1-4.9V87.2c0-3,2.5-5.3,5.5-5l13.2,1.3c2.6,0.2,4.5,2.4,4.5,5V166.5z M1303.1,172
		c0,3.1-2.9,5.5-5.9,4.9l-13.2-2.5c-2.4-0.5-4.1-2.5-4.1-4.9V90c0-2.9,2.5-5.3,5.5-5l13.2,1.3c2.6,0.2,4.5,2.4,4.5,5V172z
		 M1312.5,179.9c-2.4-0.5-4.1-2.5-4.1-4.9V92.8c0-3,2.5-5.3,5.5-5l14.3,1.4c2.6,0.2,4.5,2.4,4.5,5l1,85.6c0,1.5-0.6,2.9-1.6,3.9l0,0
		L1312.5,179.9z M1303.5,223.3l28.8-29.5l66.1,13.5L1303.5,223.3z M1418.7,195.3c0,2.6-2.4,4.6-5,4.1l-15.1-2.9
		c-2.1-0.4-3.7-2.3-3.7-4.4v-62.5l24.7-25.4L1418.7,195.3z"/>
	<g id="Balloons">
		<path class="st10" d="M1405.9,44.6c-5.2-8.8-1-17.1,6.3-19.6c6.7-2.3,15,1.2,16.2,10.5c1.2,9.6,0.3,17.9-6.1,20
			C1416,57.6,1410.7,52.7,1405.9,44.6z"/>
		<path class="st11" d="M1424.6,23.4c-0.7-10.8,5.9-15.6,13.2-15.6c7.3,0,14.1,4.8,13.2,15.6c-0.9,10.4-5.9,18.9-13.2,18.9
			S1425.3,33.8,1424.6,23.4z"/>
		<path class="st12" d="M1467.5,61c4.8-9.1,0.2-19.8-7.5-22.6c-7.7-2.9-19.3,2.1-20.4,12.3c-1.2,10.8-0.2,19.8,7.5,22.6
			S1462.6,70.2,1467.5,61z"/>
		<path class="st13" d="M1436.4,42.3c-3,7.1-3.6,8.1-4,13.3c-0.7,10.5,3.2,18,5,22.6c8.7,22.5-5.9,48.7-5.8,48.7s2.9-14,4.2-30.9
			c0.4-5,0.5-9-1.5-13.1c-0.6-1.2-0.9-1.5-8-10.8c-2.7-3.6-3.4-4.5-4.1-6.1c-1.7-3.8-1.9-7.5-1.8-10.1"/>
		<path class="st13" d="M1445.7,72.7c-4.1,4.2-2.9,11.2-1.7,15.9c5.5,22.3-10.8,37-12.5,38.2"/>
		<path class="st14" d="M1431.5,126.9c-0.9,0.9-2,5.4-5.8,5.8c-6.2,0.7-7.5-3-7.5-3.5c0-1.5,0.3,1.4,5.5,0.8
			C1428.3,129.5,1431.6,126.9,1431.5,126.9c0-0.1-0.5,5-13.4,5"/>
		<path class="st14" d="M1433.8,143.5c-1.2-4.4-2.8-17.2-2.5-16.1c0.8,2.4,1.2,1.2,0,0c-3.9-3.9-3.7,4.9-3.3,6
			c2.2,7.1-0.7-5.7,4.1-5.6c0.9,0-0.6,6.1,0.8,7c4.2,2.6,2-4.1-0.8-7c-2-2.1-2.2,10.3-1.8,13.5"/>
		<path class="st15" d="M1408.8,40.6c-0.3,0.5-1.9,0.6-2.4,0c-1.3-1.8-0.2-7.5,0.6-8.4c0.7-0.8,1.9-1.1,2.8-0.2
			C1410.4,32.7,1409.8,39,1408.8,40.6z"/>
		<path class="st15" d="M1435.8,17.1c0.3-2.1-0.8-3.8-2-3.8c-2.4,0-4.4,4.1-4.1,6.4c0.2,1.4,1.1,2.7,2.7,1.8
			C1433.6,20.8,1435.4,19.1,1435.8,17.1z"/>
		<path class="st15" d="M1452.8,45.8c-0.1-0.8-1.6-1.7-3.6-1.1c-1.4,0.5-4.7,4.2-4.7,5.9c0,2.1,2.4,2.8,3.8,2.2
			C1450.9,51.6,1453,47.5,1452.8,45.8z"/>
	</g>
	<g id="White_Lines_2_">
		<path id="White_Lines_1_" class="st16" d="M1543.8,806.2l-41.2-27.3l-213.9,0.4L771.8,319.4l73.6-0.2l-13.3-8.6h-70.2L566.1,136.4
			h-13.6l189.7,174.2h-419l77.3-174.2h-10l-81.8,174.2H0v10.6l304.1-0.7L87.8,781.3l-87,0.1v24.7h75.4L0,968.4v37.8h14.4l88.8-200
			h1178.6l217.8,200h44.2l-224.8-200H1543.8z M114.2,781.3l204.5-460.8l433.1-1l500.6,459.8L114.2,781.3z"/>
		<g>
			<polygon class="st16" points="177,136.4 0,203.2 0,215.2 193,136.4 			"/>
		</g>
	</g>
</g>
<g id="Car_1">
	<g id="Car_interior">
		<g>
			<polygon class="st17" points="1017.8,574.1 224.6,553 338.8,423.1 880.9,425 			"/>
			<polygon class="st18" points="397.6,196.5 397.6,290.9 321.7,458.8 247.6,485.2 301.7,357.1 340.3,241.9 			"/>
			<polygon class="st18" points="916.1,468.5 833.4,371.1 825.6,186.8 911.6,292.4 955.3,465.2 			"/>
			<rect x="397.6" y="167.1" class="st18" width="441.2" height="96.1"/>
			<path id="Right_tire_2_" class="st19" d="M902.3,824.1c0-67.3,29.7-121.9,66.4-121.9s66.4,54.6,66.4,121.9
				c0,36.4-8.7,87.4-22.4,109.8c-11.7,19-38.5,18.5-44,18.6c-6.5,0.1-32.7,1.1-44.5-18.4C910.8,911.8,902.3,860,902.3,824.1z"/>
			<path id="Left_tire_2_" class="st19" d="M319.4,824.1c0-67.3-29.7-121.9-66.4-121.9s-66.4,54.6-66.4,121.9
				c0,36.4,8.7,87.4,22.4,109.8c11.7,19,38.5,18.5,44,18.6c6.5,0.1,32.7,1.1,44.5-18.4C310.9,911.8,319.4,860,319.4,824.1z"/>
			<path id="Right_mirror_2_" class="st20" d="M1001.2,403.4c21.1-7.3,51-6.1,71.6,0s6.6,49.6,0,57.6s-59.2,8.3-71.6,0
				c-2.8-1.9-19.2-9.7-23.8-7.6l-6.5-20.4c1.1-2.2,7.7-0.9,14.7-7.8C992.1,418.8,994.7,405.7,1001.2,403.4z"/>
			<path id="Left_mirror_2_" class="st20" d="M227.1,403.4c-21.1-7.3-51-6.1-71.6,0s-6.6,49.6,0,57.6s59.2,8.3,71.6,0
				c2.8-1.9,19.2-9.7,23.8-7.6l6.5-20.4c-1.1-2.2-7.7-0.9-14.7-7.8C236.2,418.8,233.6,405.7,227.1,403.4z"/>
		</g>
	</g>
	<g id="Back_seat">
		<g>
			<g id="Back_seat_2_">
				<path class="st21" d="M879.9,424.1H339.8c-0.5,0-0.9-0.4-0.9-0.9v-52.5c0-0.5,0.4-0.9,0.9-0.9H880c0.5,0,0.9,0.4,0.9,0.9v52.5
					C880.9,423.7,880.4,424.1,879.9,424.1z"/>
				<path class="st22" d="M856.5,357.1H370.3c-1.2,0-2.2-1-2.2-2.2v-75.5c0-17.9,14.5-32.3,32.4-32.3l422.6,0.2
					c17.7,0,32.1,14.2,32.3,31.9L856.5,357.1z"/>
				<path class="st23" d="M578,231.8l-0.1-13.7c0-5.9,4.7-10.6,10.6-10.6l37-0.2c5.9,0,10.6,4.7,10.6,10.6l0.1,13.7
					c0,5.9-4.7,10.6-10.6,10.6l-37,0.2C582.8,242.4,578,237.7,578,231.8z"/>
				<path class="st23" d="M429.4,231.8l-0.1-13.7c0-5.9,4.7-10.6,10.6-10.6l37-0.2c5.9,0,10.6,4.7,10.6,10.6l0.1,13.7
					c0,5.9-4.7,10.6-10.6,10.6l-37,0.2C434.2,242.4,429.4,237.7,429.4,231.8z"/>
				<path class="st24" d="M880.5,370.8L339.2,370c-0.4,0,0.6-0.5,0.9-0.7l26.6-12.1h0.1h489.4c0.1,0,0.1,0,0.2,0l24.2,12.9
					C881,370.3,880.9,370.8,880.5,370.8z"/>
			</g>
		</g>
	</g>
	<g id="soccer_x5F_before">
		<polygon class="st25" points="566.5,419.5 600.5,420.8 599.8,445.5 571,447.3 		"/>
		<polygon class="st25" points="618.9,419.8 650.7,418.6 648.4,446.6 619.8,447.3 		"/>
		<line class="st26" x1="580.9" y1="422.9" x2="581.1" y2="428.8"/>
		<line class="st26" x1="583.5" y1="422.9" x2="583.5" y2="428.9"/>
		<line class="st26" x1="585.9" y1="422.8" x2="585.9" y2="428.6"/>
		<line class="st26" x1="588.9" y1="422.9" x2="588.9" y2="429.2"/>
		<line class="st26" x1="591.4" y1="422.5" x2="591.4" y2="428.1"/>
		<line class="st26" x1="593.9" y1="422.1" x2="594.1" y2="428.5"/>
		<line class="st26" x1="596.5" y1="421.7" x2="596.5" y2="427.7"/>
		<line class="st26" x1="598.5" y1="421.3" x2="598.6" y2="426.3"/>
		<line class="st26" x1="569.7" y1="420.7" x2="570.3" y2="426.2"/>
		<line class="st26" x1="578.6" y1="422.6" x2="578.6" y2="428.5"/>
		<line class="st26" x1="575.9" y1="422.2" x2="575.9" y2="427.4"/>
		<line class="st26" x1="573" y1="421.7" x2="573.3" y2="426.6"/>
		<line class="st26" x1="580.9" y1="422.9" x2="581.1" y2="428.8"/>
		<line class="st26" x1="583.5" y1="422.9" x2="583.5" y2="428.9"/>
		<line class="st26" x1="585.9" y1="422.8" x2="585.9" y2="428.6"/>
		<line class="st26" x1="588.9" y1="422.9" x2="588.9" y2="429.2"/>
		<line class="st26" x1="591.4" y1="422.5" x2="591.4" y2="428.1"/>
		<line class="st26" x1="593.9" y1="422.1" x2="594.1" y2="428.5"/>
		<line class="st26" x1="596.5" y1="421.7" x2="596.5" y2="427.7"/>
		<line class="st26" x1="598.5" y1="421.3" x2="598.6" y2="426.3"/>
		<line class="st26" x1="569.7" y1="420.7" x2="570.3" y2="426.2"/>
		<line class="st26" x1="578.6" y1="422.6" x2="578.6" y2="428.5"/>
		<line class="st26" x1="575.9" y1="422.2" x2="575.9" y2="427.4"/>
		<line class="st26" x1="573" y1="421.7" x2="573.3" y2="426.6"/>
		<path class="st27" d="M567.6,424.5c0,0,8,3.8,15.7,3.5c9.1-0.4,16.2-2.7,16.2-2.7l-3.7,11.4h-22.5L567.6,424.5z"/>
		<line class="st26" x1="637.9" y1="421" x2="637.9" y2="428.1"/>
		<line class="st26" x1="635.5" y1="421.1" x2="635.7" y2="428.3"/>
		<line class="st26" x1="633.3" y1="421.1" x2="633.5" y2="428"/>
		<line class="st26" x1="630.5" y1="421.3" x2="630.7" y2="428.8"/>
		<line class="st26" x1="628.2" y1="420.9" x2="628.4" y2="427.6"/>
		<line class="st26" x1="625.8" y1="420.5" x2="625.8" y2="428.2"/>
		<line class="st26" x1="623.4" y1="420.1" x2="623.6" y2="427.3"/>
		<line class="st26" x1="621.5" y1="419.7" x2="621.6" y2="425.6"/>
		<line class="st26" x1="648.2" y1="418" x2="647.9" y2="424.7"/>
		<line class="st26" x1="640.1" y1="420.6" x2="640.2" y2="427.7"/>
		<line class="st26" x1="642.5" y1="420" x2="642.7" y2="426.3"/>
		<line class="st26" x1="645.2" y1="419.3" x2="645.1" y2="425.3"/>
		<path class="st27" d="M650,421.9c0,0-7.3,4.8-14.5,4.6c-8.4-0.1-15.1-2.7-15.1-2.7l3.8,13.5l20.9-0.7L650,421.9z"/>
		<path class="st25" d="M634.2,446.7h-0.4c-0.3,0-0.6,0.3-0.6,0.6l0,0c0,0.3,0.3,0.6,0.6,0.6h0.4c0.3,0,0.6-0.3,0.6-0.6l0,0
			C634.9,447,634.6,446.7,634.2,446.7z"/>
		<g>
			<path class="st25" d="M568.3,468.8c0-2.2,7.5-2.1,17.6-2.1s18.3-0.4,18.3,1.8s-4.8,6.2-17.6,6.2
				C572.9,474.7,568.3,471,568.3,468.8z"/>
			<path class="st28" d="M570.6,444.4c0-0.9,1.8-1.2,4.3-1c0.9,0.1,1.6,0.2,2.4,0.4c1.5,0.4,3.6,1,6.2,2.1c1.5-0.1,2.9-0.2,4.4-0.2
				c3.5-1.3,12.1-4.7,13.3-1.6c0,0,3.1,8.2,3.5,10.2c0.6,2.9,2.4,10.7,0.1,13.8c-3.9,5.2-14.3,4.5-18.7,4.5
				c-5.4,0-16.9,0.7-19.5-6.6c-1-2.7-0.8-8.4,0-11.1C567.3,452.4,570.6,444.4,570.6,444.4z"/>
			<path class="st28" d="M577.3,443.8c-1.7,2.6-1.2,11.5,1.5,13.5c1.3,0.9,3.6,1.1,4,2.9c0.1,0.4,0,1.6-2,1.8
				c-1.4,0.1-12.5-0.5-12.5,6.8"/>
			<path class="st28" d="M594.3,443.4c1.7,2.6,3,11.6,0.3,13.6c-1.3,0.9-2,0.9-3.3,2c-1.1,0.9-0.9,3.3,1.1,3.4
				c1.4,0.1,10.9-0.5,11.8,6"/>
			<path class="st28" d="M566,463c0.7-0.3,2.1-1.3,3-2.8s0.3-7-1.1-9.1"/>
			<path class="st28" d="M605.9,462.9c-0.7-0.3-2.3-1.2-3-2.8c-2-4.3-0.6-7,1.1-8.4"/>
			<path class="st26" d="M583.5,445.9c0,0-2.2,3.8-2.4,5.2c-0.1,0.7,0.4,2.2,0.7,2.8c0.2,0.4,0.7,1.3,1.1,1.5
				c1.4,0.8,4.9,0.4,6.4-0.2c0.8-0.3,1.9-1.7,2.2-2.4c0.2-0.5-0.2-1.7-0.4-2.2c-0.4-1.2-2.3-4.5-2.3-4.5"/>
			<polygon class="st25" points="582.3,448.5 590.6,450.6 590.1,449.4 583,447.6 			"/>
			<polygon class="st25" points="587.9,448.2 588.9,449.2 582.5,451.5 581.8,450.6 			"/>
			<polygon class="st25" points="581.8,453.9 582.4,454.9 591,450.6 590.4,449.7 			"/>
			<polygon class="st25" points="585.9,447.1 586.5,446.4 589.9,449 589.7,450.1 			"/>
			<polygon class="st25" points="582.9,450.2 583.6,451.1 585.9,446.7 585.1,446.7 			"/>
			<path class="st25" d="M581.5,446.3c2.2-0.3,4-0.9,4.1,0.1c0,0.9-1.5,2.2-3.7,2.2s-3.8,0.9-3.8,0
				C578,447.7,579.3,446.6,581.5,446.3z M581.7,447.8c1.1,0,3-1.1,3-1.3s-1.8,0.4-2.8,0.6c-1,0.1-2.7,0.6-2.7,0.9
				C579.1,448.2,580.6,447.8,581.7,447.8z"/>
			<polygon class="st25" points="581.8,450.4 591,453.3 590.4,454.2 581.5,451.4 			"/>
			<path class="st25" d="M651.6,469.5c0-2.2-7.5-2.1-17.6-2.1s-18.3-0.4-18.3,1.8s4.8,6.2,17.6,6.2
				C647.1,475.4,651.6,471.7,651.6,469.5z"/>
			<path class="st28" d="M649.4,445.1c0-0.9-1.8-1.2-4.3-1c-0.9,0.1-1.6,0.2-2.4,0.4c-1.5,0.4-3.6,1-6.2,2.1
				c-1.5-0.1-2.9-0.2-4.4-0.2c-3.5-1.3-12.1-4.7-13.3-1.6c0,0-3.1,8.2-3.5,10.2c-0.6,2.9-2.4,10.7-0.1,13.8
				c3.9,5.2,14.3,4.5,18.7,4.5c5.4,0,16.9,0.7,19.5-6.6c1-2.7,0.8-8.4,0-11.1C652.6,453,649.4,445.1,649.4,445.1z"/>
			<path class="st28" d="M642.7,444.5c1.7,2.6,1.2,11.5-1.5,13.5c-1.3,0.9-3.6,1.1-4,2.9c-0.1,0.4,0,1.6,2,1.8
				c1.4,0.1,12.5-0.5,12.5,6.8"/>
			<path class="st28" d="M625.7,444.1c-1.7,2.6-3,11.6-0.3,13.6c1.3,0.9,2,0.9,3.3,2c1.1,0.9,0.9,3.3-1.1,3.4
				c-1.4,0.1-10.9-0.5-11.8,6"/>
			<path class="st28" d="M654,463.7c-0.7-0.3-2.1-1.3-3-2.8s-0.3-7,1.1-9.1"/>
			<path class="st28" d="M614,463.6c0.7-0.3,2.3-1.2,3-2.8c2-4.3,0.6-7-1.1-8.4"/>
			<path class="st26" d="M636.4,446.5c0,0,2.2,3.8,2.4,5.2c0.1,0.7-0.4,2.2-0.7,2.8c-0.2,0.4-0.7,1.3-1.1,1.5
				c-1.4,0.8-4.9,0.4-6.4-0.2c-0.8-0.3-1.9-1.7-2.2-2.4c-0.2-0.5,0.2-1.7,0.4-2.2c0.4-1.2,2.3-4.5,2.3-4.5"/>
			<polygon class="st25" points="637.6,449.2 629.3,451.3 629.9,450.1 637,448.3 			"/>
			<polygon class="st25" points="632.1,448.9 631.1,449.9 637.5,452.2 638.1,451.3 			"/>
			<polygon class="st25" points="638.1,454.6 637.5,455.6 629,451.3 629.5,450.4 			"/>
			<polygon class="st25" points="634.1,447.8 633.5,447.1 630,449.7 630.2,450.8 			"/>
			<polygon class="st25" points="637.1,450.9 636.3,451.8 634.1,447.3 634.9,447.3 			"/>
			<path class="st25" d="M629,446c2.6,0,4.6,0.1,4.6,1s-1.7,1.3-4.3,1.3s-4.4,0.9-4.4,0C625,447.4,626.4,446,629,446z M629.1,447.6
				c1.2,0,2.9-0.3,2.9-0.5s-1.5-0.2-2.7-0.2s-3.1,0.6-3.1,0.9C626.2,448,627.9,447.6,629.1,447.6z"/>
			<path class="st25" d="M638.4,447c-2.2-0.3-4-0.9-4.1,0.1c0,0.9,1.5,2.2,3.7,2.2s3.8,0.9,3.8,0C641.9,448.4,640.6,447.2,638.4,447
				z M638.3,448.5c-1.1,0-3-1.1-3-1.3s1.8,0.4,2.8,0.6c1,0.1,2.7,0.6,2.7,0.9C640.8,448.9,639.3,448.5,638.3,448.5z"/>
			<polygon class="st25" points="638.1,451.1 629,454 629.5,454.9 638.4,452.1 			"/>
		</g>
		<path class="st25" d="M591,445.3c-2.6,0-4.6,0.1-4.6,1s1.7,1.3,4.3,1.3s4.4,0.9,4.4,0C595,446.7,593.5,445.3,591,445.3z
			 M590.8,446.9c-1.2,0-2.9-0.3-2.9-0.5s1.5-0.2,2.7-0.2s3.1,0.6,3.1,0.9C593.7,447.3,592,446.9,590.8,446.9z"/>
		<path class="st25" d="M585.7,446h0.4c0.3,0,0.6,0.3,0.6,0.6l0,0c0,0.3-0.3,0.6-0.6,0.6h-0.4c-0.3,0-0.6-0.3-0.6-0.6l0,0
			C585.1,446.3,585.3,446,585.7,446z"/>
		<g id="legs_2_">
			<path class="st29" d="M563.3,381.3l38.4,4.1l-1.2,35.4c0,0-6.3,1.9-18,2c-6.7,0.1-15.9-3.4-15.9-3.4L563.3,381.3z"/>
			<path class="st29" d="M616.8,384.4l38-1.7l-4.1,35.9c0,0-8.8,2.3-16.4,2.9c-7.9,0.7-15.4-1.5-15.4-1.5L616.8,384.4z"/>
		</g>
		<g id="Right_arm_2_">
			<path class="st29" d="M639.7,339.4c0,0,7.4,14.7,12.3,17.9c1.8,1.2,8.7,3.1,10.9,3.5c1.6,0.3,8.8-1,10.4-1c3.1,0,4.3-1.1,5.2-1
				c3.3,0.6,5.2-1.9,5.3-3.9c0.2-2.1-2-5.9-3.3-7.5c-1.5-1.9-7.4-4.5-10.7-5c-2.3-0.3-5.6-0.3-7.9,0c-2.3,0.3-4.2-2.6-4.2-2.6
				c-2.1-12.9-3.7-43.7-3.7-43.7l-18.6,5.3L639.7,339.4z"/>
			<path class="st26" d="M683.7,354.9c0-2.4-3.3-7.4-5.7-7.4"/>
			<path class="st26" d="M672.4,359.8c2.4-3.2-3-10.5-6.7-10.1"/>
			<path class="st26" d="M677.1,358.8c2.8-3.9-1.7-9.4-4.5-10.6"/>
		</g>
		<g id="left_arm_2_">
			<path class="st29" d="M574.1,342.6c0,0-5.5,17.5-10.3,20.6c-1.8,1.2-11.8,1.2-13.9,1.6c-1.6,0.3-3.6,0.7-5.2,0.7
				c-3.1,0-3.1-2.5-4-2.4c-3.3,0.6-4.7-1.5-4.8-3.5c-0.2-2.1,1-6.5,2.3-8.2c1.5-1.9,7.9-5,10.2-5.7c2.2-0.7,5.3-0.2,7.9-0.9
				c2.2-0.6,2.1-0.9,2.1-0.9c-1.1-12.5,0-44.2,0-44.2l16.3,5.2L574.1,342.6z"/>
			<path class="st26" d="M535.7,359.6c0-2.4,3.1-7.8,5.5-7.8"/>
			<path class="st26" d="M548.9,365c-3.4-3.9,0.1-10.1,5.8-12.4"/>
			<path class="st26" d="M541.3,363.7c-1.2-2.8,3-9.6,5.7-10.8"/>
		</g>
		<g id="pants_2_">
			<path id="left_2_" class="st30" d="M601.6,385.4c0,0-10.3,2.2-20.2,1.5c-8.6-0.6-18.1-5.6-18.1-5.6l-0.1-2.8l38.4,4.8
				L601.6,385.4L601.6,385.4z"/>
			<path id="right_2_" class="st30" d="M654.8,382.7c0,0-11.8,3-19.3,3.4c-8.4,0.4-18.7-1.7-18.7-1.7l-0.3-2.4l38.5-3.2L654.8,382.7
				z"/>
			<path id="shorts_2_" class="st31" d="M639.3,332.8c0,0,1,4.7,3.6,9.5c3.1,5.7,8.3,11.9,10.7,18.7c3.5,9.7,1.2,19.2,1.2,19.2
				s-9.3,2.8-18.5,3.8s-19.8-1.9-19.8-1.9s-0.1-10.1-0.5-12.4c-1.3-5.9-5.7-9.7-6.9-9.5c-1.8,0.3-3.9,3.3-6.1,6.6
				c-1.8,2.6-1.4,16.5-1.4,16.5s-6.4,1.7-16.9,1.7s-21.5-6.4-21.5-6.4s-1.8-7.5,0.5-15.2c2-6.5,8.2-18.4,8.8-20.8
				c1-3.6,0.7-6.9,0.7-6.9L639.3,332.8z"/>
		</g>
		<g id="tee_4_">
			<path class="st30" d="M558.4,296.9h14.2v7.9c0.6,0.2-3,0.5-7.1-0.9c-3.6-1.2-7.1-2.6-7.1-2.6L558.4,296.9L558.4,296.9z"/>
			<path class="st30" d="M636.2,292.4h17.5l0.3,3.7c0,0-3.7,2.7-7.5,4.1c-4.9,1.8-10.3,1.2-10.3,1.2V292.4z"/>
			<path id="tee_5_" class="st31" d="M635.9,299l3.5,33.8c0,0-21.1,3.4-31.1,4.2c-13.9,1.1-34.9-1.4-34.9-1.4l-0.7-32.3
				c0,0-3.4-0.1-6.8-1.3c-3.6-1.3-7.3-3-7.3-3s0.3-15.7,4.5-24.9c4.2-9.2,20.8-18.1,20.8-18.1l38.9-1.9c0,0,11.7,3.8,16.7,8.7
				s12.1,14.1,13.7,24.7c0.9,6.1,0.5,6.7,0.5,6.7s-3.3,2.7-6.8,3.9C641.9,299.8,635.9,299,635.9,299z"/>
			<path id="collar_2_" class="st30" d="M618,259.8c-1.1,3-4.5,8.7-13.1,8.7c-7.6,0-13.5-5.6-13.5-10.2c0-3.2,5.4-1.1,13.1-1.1
				C612,257.1,620.2,253.6,618,259.8z"/>
		</g>
		<path class="st29" d="M616.9,257.9c0,4-5.1,9.2-11.2,9.2c-6.1,0-12.5-4.1-12.5-8.1s4.9-7.3,11-7.3S616.9,253.9,616.9,257.9z"/>
		<g id="Head_2_">
			<g id="head_4_">
				<path id="right_outter_ear_2_" class="st29" d="M637.9,206c1,11.6-9.3,12.7-15.4,8.8c-6.6-4.2-9-9.2-9-10.9
					c-0.2-8.3,2.9-13.6,10.5-13C631.5,191.5,637.2,197.7,637.9,206z"/>
				<path id="right_innner_ear_2_" class="st32" d="M631.7,206c0.4,6.4-4.5,7-7.4,4.9c-3.2-2.3-4.3-5-4.3-6c-0.1-4.6,1.3-7,5-6.4
					C627.9,198.9,631.4,202,631.7,206z"/>
				<path id="left_outter_ear_2_" class="st29" d="M567,206.8c-1,10.6,8.6,11.7,14.3,8.2c6.2-3.8,8.5-8.3,8.6-9.9
					c0.3-7.6-2.6-12.5-9.8-12C573.2,193.6,567.8,199.2,567,206.8z"/>
				<path class="st32" d="M574,207.4c-0.5,5.9,4.1,6.4,6.9,4.5c3-2.1,4.1-4.6,4.1-5.5c0.1-4.2-1.2-6.5-4.6-5.9
					C577.6,200.9,574.3,203.7,574,207.4z"/>
				<path id="head_5_" class="st29" d="M634.7,233.5c0.1,7.4-1.3,14.4-9.1,19.6c-9.2,6.1-13.1,11.1-21.3,10.8
					c-8.3-0.3-13-7.1-19.2-7.9c-5.5-0.7-14.1-12-13.7-22.1c0.2-4.8,3.1-14.4,7-20.4c5.7-8.7,13.3-16,23.9-16
					c8.5,0,17.2,7.6,24.2,16.1C630.2,218.2,634.6,228.9,634.7,233.5z"/>
				<path id="snoot_3_" class="st32" d="M589.6,243.8c-1.1-6.5,3.2-9.8,6-12.7c3-3.2,3.2-7.7,8.1-7.7c0.8,0,3.5,0.4,4.9,3
					c4.9,9.3,9.9,6.1,9.9,15.6c0,4.8-4.3,13.1-13.8,13C597.1,254.9,590.7,250.7,589.6,243.8z"/>
			</g>
			<path id="nose_2_" class="st33" d="M598.3,232.3c0-2.3,1.6-4.9,5.6-5c3-0.1,5.1,1.7,5.1,3.9c0,2.3-2.2,5.9-5,5.9
				S598.3,234.6,598.3,232.3z"/>
			<path id="chin_2_" class="st26" d="M602.5,247.5c0,0,0.9,0.2,1.7,0.2s1.5-0.2,1.5-0.2"/>
			<path id="mouth_2_" class="st26" d="M595.2,240.7c0,0,0.5,3.9,3.4,3.9s4.6-2.6,5.3-2.6s2.6,2.4,5,1.4s3.2-4.2,3.2-4.2"/>
			<g id="left_eye_2_">
				<g>
					<ellipse class="st25" cx="592.4" cy="223.8" rx="3.4" ry="4.7"/>
					<circle class="st34" cx="592.4" cy="225.2" r="3.2"/>
					<circle class="st35" cx="592.4" cy="225.2" r="1.9"/>
					<circle class="st25" cx="593" cy="224.6" r="0.8"/>
					<circle class="st25" cx="592" cy="225.4" r="0.4"/>
				</g>
			</g>
			<g id="right_eye_2_">
				<ellipse class="st25" cx="615" cy="223.8" rx="3.4" ry="4.7"/>
				<circle class="st36" cx="615" cy="225.2" r="3.2"/>
				<circle class="st35" cx="615" cy="225.2" r="1.9"/>
				<circle class="st25" cx="615.6" cy="224.6" r="0.8"/>
				<circle class="st25" cx="614.5" cy="225.5" r="0.4"/>
			</g>
			<path class="st32" d="M589,215.4c-1.3-1.3,1.1-3.4,3.6-3.9c2.2-0.4,4.5,0.3,4.5,1.9c0,1.4-1.8,1.1-4.3,1.5
				C590.4,215.5,590.3,216.7,589,215.4z"/>
			<path class="st32" d="M618.2,215.4c1.2-1.3-1-3.4-3.3-3.9c-2-0.4-4.1,0.3-4.1,1.9c0,1.4,1.7,1.1,3.9,1.5
				C616.8,215.5,617,216.7,618.2,215.4z"/>
			<path class="st37" d="M626.5,214.5h-16.2c-1.3,0-2.4,1.1-2.4,2.4v1.7c-0.8-0.4-1.9-0.8-3.3-0.8c-1.9,0-3.4,0.6-4.2,1v-2
				c0-1.3-1.1-2.4-2.4-2.4h-16.2c-1.3,0-2.4,1.1-2.4,2.4v10.1c0,1.3,1.1,2.4,2.4,2.4H598c1.3,0,2.4-1.1,2.4-2.4v-6
				c0.8-0.4,2.2-1,3.7-1.1c1.4-0.1,2.9,0.5,3.8,0.9v6.2c0,1.3,1.1,2.4,2.4,2.4h16.2c1.3,0,2.4-1.1,2.4-2.4v-10.1
				C628.9,215.6,627.8,214.5,626.5,214.5z M597.9,225.2c0,1.3-1.1,2.4-2.4,2.4h-11.2c-1.3,0-2.4-1.1-2.4-2.4v-6.6
				c0-1.3,1.1-2.4,2.4-2.4h11.2c1.3,0,2.4,1.1,2.4,2.4V225.2z M626.4,225.2c0,1.3-1.1,2.4-2.4,2.4h-11.2c-1.3,0-2.4-1.1-2.4-2.4
				v-6.6c0-1.3,1.1-2.4,2.4-2.4H624c1.3,0,2.4,1.1,2.4,2.4V225.2z"/>
		</g>
		<circle class="st25" cx="691.2" cy="441.7" r="31.6"/>
		<polygon class="st35" points="681.9,416.4 669,419.9 665.2,432.5 675,435.7 685.4,426 		"/>
		<polygon class="st35" points="708.2,423.8 697.7,429.6 700.7,442.7 712.2,445.6 717.2,435.2 		"/>
		<polygon class="st35" points="677.8,447.6 671.2,457 680.4,466.6 692.5,463.6 691.2,451.8 		"/>
		<polygon class="st35" points="718.9,457 713.5,457 703.3,466.1 703.8,470.7 712.8,464.7 		"/>
		<line class="st26" x1="690.3" y1="452.2" x2="702" y2="441.7"/>
		<line class="st26" x1="713.8" y1="457.9" x2="711.9" y2="444.2"/>
		<line class="st26" x1="699.3" y1="430.5" x2="684" y2="425.3"/>
		<path class="st35" d="M692.5,410.5"/>
		<path class="st35" d="M681.4,417.1"/>
		<line class="st26" x1="675" y1="435.7" x2="678.2" y2="448.9"/>
		<line class="st26" x1="691.6" y1="463.2" x2="704.3" y2="466.2"/>
		<path class="st35" d="M680.4,471.4"/>
		<path class="st35" d="M680.6,465.7"/>
		<path class="st35" d="M662,453"/>
		<path class="st35" d="M674.1,458.4"/>
		<path class="st35" d="M722.2,435.3"/>
		<path class="st35" d="M716.5,435.7"/>
		<polygon class="st35" points="659.5,441.7 659.5,439.9 665.2,432 666.1,432.2 		"/>
		<polygon class="st35" points="661.2,452.1 671.7,456.4 671.4,457.4 662,453.8 		"/>
		<rect x="680.1" y="465.2" class="st35" width="1" height="6.3"/>
		<rect x="716.3" y="434.8" class="st35" width="5.8" height="0.9"/>
		<polygon class="st35" points="705.8,413.8 707,414.3 708.8,425.3 707.8,425.2 		"/>
		<polygon class="st35" points="694.4,410.2 682.1,417.1 681.2,416.4 693,410.1 		"/>
		<polygon class="st35" points="668.4,419.7 669.1,419.3 670.2,420.5 669.2,420.9 		"/>
	</g>
	<polygon id="Seatbelt" class="st19" points="641.4,340.1 633.8,338.6 557,247.1 566.5,247.1 	"/>
	<path id="Seatbelt_2" class="st19" d="M573.1,340.1c0,0,19-4.5,34.6-4.5c14,0,34.2,4.6,34.2,4.6l3,5.8c0,0-20.8-3.6-37.8-3.6
		c-16,0-36,3.6-36,3.6L573.1,340.1z"/>
	<g id="front_Seats">
		<g id="Chairs">
			
				<rect x="429.7" y="322.9" transform="matrix(1 -4.096481e-03 4.096481e-03 1 -1.3398 1.7792)" class="st38" width="7.9" height="10.1"/>
		</g>
		<path class="st39" d="M569.5,488.2c0.2,40.2-32.3,72.9-72.5,73.1l-78.5,0.3c-40.2,0.2-72.9-32.3-73.1-72.5l-0.3-82.7
			c-0.2-40.2,32.3-72.9,72.5-73.1l78.5-0.3c40.2-0.2,72.9,32.3,73.1,72.5L569.5,488.2z"/>
		
			<rect x="741.2" y="322.9" transform="matrix(1 -4.096481e-03 4.096481e-03 1 -1.3372 3.0553)" class="st38" width="7.9" height="10.1"/>
		<path class="st39" d="M881,488.2c0.2,40.2-32.3,72.9-72.5,73.1l-78.5,0.3c-40.2,0.2-72.9-32.3-73.1-72.5l-0.4-82.7
			c-0.2-40.2,32.3-72.9,72.5-73.1l78.5-0.3c40.2-0.2,72.9,32.3,73.1,72.5L881,488.2z"/>
		<path class="st39" d="M697.7,297l-0.1-33.4c-0.1-14.3,11.4-25.9,25.7-25.9l90-0.4c14.3-0.1,25.9,11.5,25.9,25.7l0.1,33.4
			c0.1,14.3-11.4,25.9-25.7,25.9l-90,0.4C709.3,322.8,697.7,311.3,697.7,297z"/>
		<polygon class="st40" points="788.7,322.5 796.7,322.5 796.7,332.9 788.8,333 		"/>
		<polygon class="st40" points="477.3,322.5 485.2,322.5 485.3,332.9 477.3,333 		"/>
		<path class="st39" d="M386.2,297l-0.2-33.4c-0.1-14.3,11.4-25.9,25.7-25.9l90-0.4c14.3-0.1,25.9,11.5,25.9,25.7l0.1,33.4
			c0.1,14.3-11.4,25.9-25.7,25.9l-90,0.4C397.9,322.8,386.3,311.3,386.2,297z"/>
	</g>
	<g id="Chefbear_After" class="st41">
		<g id="body_1_" class="st42">
			<g>
				<path class="st43" d="M668,470.7l117.4,5l83.5-3.1c-5.9-25.6-7.2-44.7-17.6-78.6c-13.6-44-36-48.2-44.6-49.6
					c-15.4-2.5-44.9-2.5-62.3-1.6c-17.4,1-47.9,18.8-59.4,33.4C664.8,401.8,668,470.7,668,470.7z"/>
			</g>
			<path class="st44" d="M712.3,404.4c-6.9,14.2-8.8,49.1-8.9,58"/>
			<path class="st44" d="M815.2,394.4c15.8,12.4,16.9,69.3,18.7,75.2"/>
			<line class="st44" x1="766.8" y1="351.6" x2="767.8" y2="368.1"/>
			<circle class="st44" cx="772.5" cy="355.1" r="2.5"/>
			<circle class="st44" cx="772.9" cy="363.6" r="2.5"/>
		</g>
		<g id="Head_4_" class="st42">
			<path id="right_ear_out_1_" class="st45" d="M785,249.6c-3-6.6,2.8-13.9,6.3-16.5c2.8-2.1,12.7-9.1,24.9,5.3
				c7.9,9.4,8.9,14.8,6,20.8c-3,6.2-19.3,7.3-18.4,7.4"/>
			<path id="right_ear_in_1_" class="st46" d="M791,252.9c-1.6-7.3,5.8-20.7,17.7-9.8c14.6,13.3-2,18.3-8,18.7"/>
			<path id="left_ear_out_1_" class="st45" d="M742,250.8c3.4-6.4-1.2-16.4-3.9-18.6c-4.6-3.9-13.5-4.7-23.3,2.6
				c-10.4,7.8-13.5,15.8-9.9,22.1c3.5,6.4,14.1,11,18.8,10.5"/>
			<path id="left_ear_in_1_" class="st46" d="M737.3,253.3c2-7.3-4.5-21.2-17.1-11c-15.4,12.6,1,19.4,7,20.1"/>
			<path id="Head_5_" class="st45" d="M789.1,345.6c-12.1,4.6-25.1,6.6-37.8,4.4s-24.7-8.7-32.9-19.3c-8.2-10.6-12-25.2-8.9-38.6
				c1.8-7.7,5.6-14.7,10-21c8.5-12.3,19.9-23,33.7-26.7c13.3-3.5,27.7,0.2,38.7,8.8s18.6,21.8,22.1,36c2.7,11.3,2.9,23.7-1.3,34.5
				S799.2,341.8,789.1,345.6z"/>
			<path id="snoot_7_" class="st47" d="M763.8,284.5c-6,3.6-7.8,10.5-12.9,15c-2.2,1.9-4.8,3.3-7.1,5.2c-5.2,4.4-7.3,11.1-5.8,17.2
				c2.2,9,18,18.9,30.1,17.8c16.8-1.6,24-12.8,23.8-19.1c-0.2-6.3-2-8.9-5.4-13.8c-3.5-5-10.5-9.7-13.3-15c-1-2-2.5-5.1-4.4-6.6
				S765.4,283.5,763.8,284.5z"/>
			
				<ellipse id="nose_6_" transform="matrix(2.950999e-02 -0.9996 0.9996 2.950999e-02 443.8584 1054.9039)" class="st48" cx="765.2" cy="298.9" rx="5.7" ry="10.2"/>
			<path id="right_moth_1_" class="st44" d="M765.4,315.5c1.1,3.4,2.2,4.2,4.3,4.5c1.7,0.3,3.9-0.2,5.5-0.8c1.6-0.7,4.1-1.8,4.3-4.9
				"/>
			<path id="left_mouth_4_" class="st44" d="M765.4,315.5c-0.7,3.2-6.2,5.6-8.2,4.9s-5.2-2.9-6.4-6.1"/>
			<path id="chin_5_" class="st44" d="M760.9,329.3c1.4,1.2,3,1.9,4.6,1.8s3.2-0.8,4.4-2.1"/>
		</g>
		<g id="hat_1_" class="st42">
			<path class="st43" d="M810.6,243.8c-7.8,1.7-15.4-1-16.9-6.1c-0.1-0.4-0.2-0.7-0.2-1.1c-2.1,0.3-4.3,0.4-6.4,0.2
				c-8.8-0.7-16.4-4-21-7.1c-3.8,1.6-7.6,2.5-11,2.2c-1.9-0.2-3.8-0.6-5.5-1.3c-1.8,0.9-3.8,1.6-6,2.2c1.2,2.3,1.5,4.7,0.7,6.9
				c-2.3,6.4-13.4,8.8-24.6,5.4c-11.3-3.4-18.5-11.4-16.2-17.8c0.9-2.6,3.3-4.5,6.4-5.7c-0.6-1.4-0.8-2.9-0.7-4.4
				c0.7-7.9,11.9-13.5,25.1-12.4h0.3c4.9-8,22.8-14.4,33.7-13.5c9.7,0.8,16.5,4.7,18.6,10.8c0.9-0.1,1.8-0.1,2.7,0
				c14.7,1.2,30.4,11.5,27.5,21.4c-0.1,0.5-0.7,1.2-1.6,2.2c3.2,1.1,5.7,3.1,6.4,5.7C823.5,236.6,818.4,242.1,810.6,243.8z"/>
			<path class="st43" d="M727,236.5c0,0,0.5-12.2,36.2-10.9c40.7,1.4,37.9,13.5,37.9,13.5l2.5,25.6c0,0-8.1-9.3-38.6-10.4
				c-27.7-1-40.4,11.1-40.4,11.1L727,236.5z"/>
			<path class="st43" d="M795.7,220.3"/>
		</g>
		<g id="right_eye_1_" class="st42">
			<path class="st43" d="M775.3,282.5c0.4-4.9,4.7-8.6,8-8.7c3-0.1,7.6,3.5,7.5,8.5s-0.5,7.2-1.5,8.7c-1.6,2.4-7.9,4-9,3.2
				C778,292.6,774.9,288,775.3,282.5z"/>
			<path class="st49" d="M788.7,287.7c0-3.4-2.5-6.3-5.9-6.4s-6.2,2.6-6.3,6c-0.1,2.1,2.1,5.2,2.2,5.3c0.1,0,1.3,1.7,2,1.7
				c1.7,0,2.6-0.4,2.6-0.4S788.7,293,788.7,287.7z"/>
			<circle class="st50" cx="782.6" cy="287.9" r="4.6"/>
			<path class="st47" d="M777.4,263.3c2.6-1.5,5.7-2,8.7-1.6s5.8,2,7.4,4.5c0.5,0.8,0.9,1.7,0.7,2.5c-0.2,0.9-0.9,1.6-1.7,1.9
				c-0.8,0.4-1.8,0.4-2.6,0.2c-2.5-0.4-4.7-1.9-7.2-2.4c-0.9-0.2-1.9-0.1-2.8-0.2c-0.9-0.1-1.9-0.3-2.7-0.8s-1.4-1.4-1.4-2.3
				C775.9,264.4,776.9,263.7,777.4,263.3z"/>
			<circle class="st27" cx="781.4" cy="286.9" r="2.9"/>
		</g>
		<g id="Left_eye_1_" class="st42">
			<path class="st43" d="M753.1,283.9c-0.1-5-4.2-8.9-7.4-9.2c-3-0.3-7.4,2-8.1,6.9c-0.4,2.7-0.3,5.7,1.3,9.8c1.2,3,7.4,4.6,8.6,3.9
				C749.8,293.8,753.2,289.4,753.1,283.9z"/>
			<path class="st49" d="M739.5,288.3c0.2-3.4,2.9-6.1,6.3-6c3.4,0.1,6,2.9,5.9,6.4c-0.1,2.1-2.4,5.1-2.5,5.2
				c-0.1,0-1.4,1.6-2.1,1.6c-1.7,0-2.6-0.5-2.6-0.5S739.2,293.6,739.5,288.3z"/>
			<circle class="st50" cx="745.6" cy="288.8" r="4.6"/>
			<path class="st47" d="M755.4,264.5c-0.2,1.9-3,3.7-4.4,4c-2.2,0.5-5.8,0.7-8,1.5c-2,0.8-5,2.6-6.4-0.2c-2.3-4.8,7-8.2,9.9-8.5
				C750.9,261,755.7,262.4,755.4,264.5z"/>
			<circle class="st27" cx="745.7" cy="287.6" r="2.9"/>
		</g>
		<path id="seatbelt" class="st51" d="M697.6,341.2l148.7,128.9l-22.7,2L679.9,352.7c0,0,5.1-4.8,7.1-6
			C692.5,343.4,697.6,341.2,697.6,341.2z"/>
		<path id="right_arm" class="st52" d="M877.5,511.7c-1.3,7.7-26.3-0.2-30.9-7.2c-10.2-15.4-19.2-57.7-16.6-75.3
			c0.6-4.4,5.6-18,8.9-16.4C855.6,421.3,881,490.9,877.5,511.7z"/>
		<path id="left_arm" class="st52" d="M655.7,492.1c-1.1,7.7,25.1,7.9,31.6,2.7c14.5-11.5,36.1-49,39.1-66.5
			c0.7-4.3,0.2-18.8-3.4-18.3C704.4,412.9,658.8,471.3,655.7,492.1z"/>
		<g id="Wheel_3_" class="st42">
			<path class="st53" d="M855.7,469.8L855.7,469.8c-1.4-19.1-9.9-36.9-24-50c-14.2-13.3-32.7-20.6-52.2-20.6
				c-42.1,0-76.4,34.3-76.4,76.4c0,4.5,0.4,8.9,1.2,13.2c0.2-0.1,0.4-0.2,0.6-0.2c0,0,0,0,0.1,0s0.1,0,0.2,0l0,0l0,0
				c0.1,0,0.1,0,0.2,0c0.1,0,0.1,0,0.2,0.1c0.1,0,0.3,0,0.4,0.1c-0.1,0-0.1,0-0.1,0c0.1,0,0.2,0,0.2,0c0.1,0,0.2,0,0,0
				c0,0,0,0-0.1,0c0.4,0.1,1.4,0.3,0.6,0.1c0.1,0,0.6,0.1,0.3,0.1c0.1,0,0.1,0,0.2,0c0.3-0.2,0.7-0.3,1-0.3c0,0,0.1,0,0.2,0
				c0.1,0,0.2,0,0.3,0c0.2,0,0.3-0.1,0.5-0.1c0.2-0.1,0.4-0.2,0.7-0.1l0,0c1-0.2,2.1-0.4,3.1-0.5c0.8-0.1,1.5-0.1,2.1,0
				c0.6-0.4,1.5-0.4,2.2-0.2h0.1c1.1-0.2,2,0.1,2.6,0.9c0.1,0.1,0.2,0.3,0.4,0.4s0.4,0.2,0.6,0.2c0.9,0.4,1.6,1.1,1.8,2
				c0.3,1.1-0.1,2-0.7,2.7c0.5,0.3,0.9,0.8,1,1.4c0.3,1.2,0.4,2.5,0.2,3.7c0.6,0.7,1.3,1.5,1.9,2.2c0.6,0.7,1.4,1.6,1.6,2.5
				c0.5,0.1,0.9,0.2,1.4,0.3c0.6-0.1,1.2-0.2,1.8-0.3c6.2-1,13.2-2.2,19.1,0.3c1.1,0.5,0.8,1.9,0,2.5c-3.9,2.8-9.6,2-14,1.5
				c-2.4-0.3-4.7-0.6-7-1.1c-0.6,0.1-1.2,0.2-1.8,0.3c0.1,0.1,0.1,0.2,0.2,0.3c2.5,0.8,4.8,2.1,6.7,3.8c2.4,2.1,3.8,4.9,4.9,7.8v0.1
				c0.3,0.2,0.6,0.4,1,0.7v-0.1c0-0.2,0.1-0.4,0.3-0.3c0.2,0.2,0.5,0.3,0.7,0.5c0.1,0.1,0.2,0.2,0.3,0.3c0.5-1,1.2-2,2-2.9
				c3-3.2,7.5-3.7,11.6-3c3.3,0.6,6.5,2.3,9.3,4.5c1.4-0.6,3.1-1,4.8-0.9c4.9,0.3,8.5,3,11.2,6.7c1.1-3.8,3.4-6.9,7.8-8.5
				c3-1.1,6.5,0.2,8.7,2.3c0.1,0.1,0.1,0.1,0.2,0.2c0.9-3,2.6-5.6,5.3-7.2c2.7-1.6,5.8-1.6,8.6-0.7c3.2-2.2,7.9-1.4,11,0.8
				c0.5-0.4,1-0.8,1.6-1.1c2.7-1.7,5.7-1.4,8,0c0.3-3.1,0.6-6.1,1.3-9.2c0.9-3.8,2.3-7.6,3.9-11.1c1.2-2.8,3-5.2,4.8-7.7
				c0.1-0.2,0.3-0.4,0.4-0.6c-0.2-0.3-0.3-0.5-0.4-0.8c-0.2-0.6-0.2-1.2-0.1-1.8c-0.2-0.2-0.3-0.5-0.4-0.7c-0.4-1.4-0.2-2.8,0.1-4.2
				c-1-1.2-0.6-3.5,1.2-4.1c0.1,0,0.1-0.1,0.2-0.1c0.1,0,0.2-0.1,0.3-0.1c0.4-0.1,0.7-0.1,1-0.1c0.2,0,0.4,0,0.7,0.1
				c0.5,0,1,0,1.5-0.1s1,0,1.5,0.1c0.3,0,0.8,0,0.9,0c0.1,0,0.2,0,0.3,0c0.5,0,1,0,1.6,0.1l0,0c0.3,0,0.6,0,0.9,0c0.1,0,0.1,0,0.2,0
				h-0.1c0.1,0,0.2,0,0.2,0h0.1c0.1,0,0.1,0,0.2,0h-0.1c0.1,0,0.3,0,0.4,0c0,0,0.7-0.1,0.9-0.1c0.1,0,0.3,0,0.4,0
				c1.1-0.2,2.2-0.2,3.3,0L855.7,469.8z"/>
			<path class="st53" d="M738.1,505.6c-0.1,0-0.1,0-0.2,0c1.8,0.2,3.7,0.2,5.5,0C741.7,505.4,739.8,505.5,738.1,505.6z"/>
			<path class="st54" d="M831.2,420.3c-14.1-13.2-32.4-20.4-51.7-20.4c-41.7,0-75.6,33.9-75.6,75.6c0,4.4,0.4,8.5,1.2,12.7h0.1l0,0
				c0,0,0,0-0.1,0h0.1l10.7-0.7c0.2,0,0.3,0,0.5,0l1.4-0.1c-0.8-3.9-1.2-7.9-1.2-11.9c0-34,28.2-61.7,62.9-61.7
				c15.8,0,30.9,5.8,42.6,16.3c11.5,10.4,18.6,24.4,20.1,39.6l12.8,0.1C853.5,450.9,845.1,433.3,831.2,420.3z"/>
		</g>
		<g id="right_paw" class="st42">
			<path class="st45" d="M846.1,445c6.5-8.9,6.7-21.8,1-31.2c-2.4-3.9-5.7-7.2-9.1-10.2c-2.7-2.4-5.7-4.8-9.2-5.6
				c-2.7-0.6-5.4-0.2-8.1,0.2c-4.4,0.7-8.8,1.6-12.8,3.5s-7.7,4.8-9.7,8.8c-2.1,4.1-2.2,9-1.1,13.4c0.5,1.9,1.1,3.6,2,5.4
				c1.1,2.4,2.6,4.7,4.1,6.9c1.5,2.1,3.2,4.2,5,6.1c1.2,1.1,2.4,2.2,3.7,3.1c4.7,3.2,10.4,4.5,16,5.2c2.6,0.3,5.3,0.5,7.9-0.1
				C840.2,449.4,844.6,447.1,846.1,445z"/>
			<path id="patch_1_" class="st55" d="M848.9,443.6c-2.7-3.5-13.9-1.4-16.2-5.2c-3.1-5.1-8.4-25.7-3.6-27.3
				c2.8-0.9,16.5,6.2,22.6,17.7C853.6,432.3,850,445.1,848.9,443.6z"/>
			<path class="st44" d="M819.1,419.9c-1-1.1-3.3-1.5-4.4-1.7c-1.1-0.3-2.3-0.1-3.4,0.2c-5.2,1.3-9.8,4.8-12.4,9.5"/>
			<path class="st44" d="M824,431.6c-1.4-0.3-2.1-0.2-3.7-0.1c-5.4,0.2-9.8,4.8-12.4,9.5"/>
			<path class="st44" d="M815.3,408.8c-1.9-2-5.8-1.6-6.9-1.4c-5.2,1.3-9.1,4.3-11.7,9"/>
		</g>
		<g id="left_paw_2_" class="st42">
			<path class="st45" d="M703,454.7c-8.2-7.3-11.3-19.8-7.7-30.2c1.5-4.3,4-8.3,6.7-12c2.1-2.9,4.5-5.9,7.8-7.4
				c2.5-1.1,5.2-1.4,7.9-1.6c4.4-0.3,8.9-0.3,13.3,0.6c4.3,1,8.5,3.1,11.3,6.5c2.9,3.6,4.1,8.3,4,12.9c-0.1,1.9-0.3,3.8-0.8,5.7
				c-0.6,2.6-1.5,5.2-2.5,7.7c-1,2.4-2.2,4.8-3.6,7c-0.9,1.4-1.9,2.6-3,3.8c-3.9,4.1-9.1,6.7-14.5,8.5c-2.5,0.9-5.1,1.6-7.7,1.6
				C709.7,457.8,704.9,456.4,703,454.7z"/>
			<path class="st55" d="M702.9,456.8c4.1-1.6,10.3-7.2,11.7-11.3c1.9-5.7,2.6-26.9-2.4-27.4c-2.9-0.3-13.9,20.7-14.2,25.6
				C697.7,447.6,698.1,458.6,702.9,456.8z"/>
			<path class="st44" d="M723.9,424.4c0.8-1.3,2.9-2.1,3.9-2.6s2.2-0.6,3.4-0.5c5.4,0.1,10.6,2.6,14.2,6.6"/>
			<path class="st44" d="M721.6,436.9c1.3-0.6,2-0.6,3.6-0.9c5.3-1,10.6,2.6,14.2,6.6"/>
			<path class="st44" d="M725.3,412.7c1.4-2.3,5.3-2.9,6.4-2.8c5.4,0.1,9.8,2.3,13.3,6.3"/>
		</g>
	</g>
	<g id="Chefbear">
		<g id="Chefbear-5" class="st56">
			<g id="body_6_" class="st42">
				<g>
					<path class="st43" d="M668.5,473.2l117.5,2.4l83.4-5c-6.5-25.6-8.2-44.5-19.4-78.2c-14.5-43.7-37-47.4-45.7-48.6
						c-15.4-2.2-45-1.5-62.2-0.2s-47.5,19.9-58.7,34.8C663.8,404.4,668.5,473.2,668.5,473.2z"/>
				</g>
				<path class="st44" d="M711.3,406c-6.6,14.4-7.7,49.3-7.6,58.2"/>
				<path class="st44" d="M814,393.7c16.1,12.1,18.4,68.9,20.4,74.8"/>
				<line class="st44" x1="764.7" y1="352" x2="766" y2="368.5"/>
				<circle class="st44" cx="770.4" cy="355.4" r="2.5"/>
				<circle class="st44" cx="770.9" cy="363.9" r="2.5"/>
			</g>
			<path id="right_arm_5_" class="st52" d="M866.7,491.4c-2.4,7.4-26-3.9-29.6-11.5c-7.9-16.7-10.8-59.8-5.7-76.9
				c1.2-4.3,8.1-17,11.1-15C857.9,398.8,873.1,471.3,866.7,491.4z"/>
			<g id="head_7_" class="st42">
				<g id="Head_14_">
					<path id="right_ear_out_6_" class="st45" d="M783.5,250c-3-6.6,2.7-13.9,6.2-16.6c2.8-2.2,12.6-9.3,24.9,5.1
						c8,9.3,9,14.7,6.2,20.7c-3,6.3-19.2,7.5-18.3,7.5"/>
					<path id="right_ear_in_6_" class="st46" d="M789.5,253.2c-1.7-7.3,5.6-20.7,17.6-10c14.8,13.1-1.8,18.3-7.8,18.8"/>
					<path id="left_ear_out_6_" class="st45" d="M740.6,251.7c3.4-6.5-1.4-16.3-4-18.6c-4.6-3.9-13.6-4.5-23.3,2.9
						c-10.3,7.8-13.3,15.9-9.7,22.2c3.5,6.3,14.2,10.8,18.9,10.2"/>
					<path id="left_ear_in_6_" class="st46" d="M735.9,254.1c2-7.4-4.7-21.2-17.2-10.8c-15.3,12.7,1.2,19.3,7.2,20"/>
					<path id="Head_15_" class="st45" d="M788.6,345.9c-12.1,4.7-25.1,6.8-37.8,4.8c-12.7-2.1-24.8-8.5-33.1-19
						c-8.2-10.4-12.3-25.1-9.3-38.5c1.7-7.7,5.5-14.7,9.8-21.1c8.4-12.3,19.7-23.2,33.4-27c13.2-3.6,27.7,0,38.8,8.4
						c11.1,8.5,18.8,21.6,22.4,35.8c2.9,11.2,3.1,23.6-1,34.5C807.9,334.6,798.6,342.1,788.6,345.9z"/>
					<path id="snoot_8_" class="st47" d="M762.6,285.1c-6,3.7-7.7,10.6-12.8,15.1c-2.2,1.9-4.8,3.4-7,5.3
						c-5.1,4.4-7.2,11.2-5.6,17.2c2.2,9,18.2,18.8,30.3,17.5c16.8-1.7,23.8-12.9,23.6-19.4c-0.2-6.3-2-8.9-5.6-13.8
						c-3.5-5-10.6-9.5-13.4-14.9c-1.1-2-2.5-5.1-4.4-6.5C765.8,284,764.2,284.1,762.6,285.1z"/>
					
						<ellipse id="nose_8_" transform="matrix(1.995101e-02 -0.9998 0.9998 1.995101e-02 449.0603 1057.6135)" class="st57" cx="764" cy="299.8" rx="5.7" ry="10.2"/>
					<path id="right_moth_6_" class="st44" d="M764.6,316c1.1,3.4,2.3,4.2,4.4,4.5c1.7,0.3,3.9-0.2,5.5-0.8c1.7-0.7,4.1-1.9,4.3-5"
						/>
					<path id="left_mouth_7_" class="st44" d="M764.6,316c-0.7,3.3-6.1,5.7-8.2,5c-1.9-0.7-5.2-2.8-6.5-6"/>
					<path id="chin_8_" class="st44" d="M760.1,329.9c1.4,1.2,3.1,1.8,4.7,1.8s3.2-0.9,4.4-2.2"/>
				</g>
				<g id="Right_eye_5_">
					<path class="st43" d="M774.1,283c0.3-5,4.6-8.7,7.9-8.8c3-0.1,7.7,3.5,7.6,8.4s-0.4,7.2-1.5,8.7c-1.5,2.4-7.8,4-9,3.2
						C776.9,293,773.8,288.6,774.1,283z"/>
					<path class="st49" d="M787.6,288.1c0-3.4-2.6-6.2-5.9-6.3c-3.3,0-6.1,2.6-6.2,6.1c-0.1,2.1,2.1,5.3,2.2,5.3
						c0.1,0,1.4,1.7,2.1,1.8c1.7,0,2.5-0.4,2.5-0.4S787.7,293.4,787.6,288.1z"/>
					
						<ellipse transform="matrix(7.494247e-02 -0.9972 0.9972 7.494247e-02 435.3839 1045.7898)" class="st50" cx="781.4" cy="288.2" rx="4.6" ry="4.6"/>
					<path class="st47" d="M776,263.9c2.5-1.5,5.7-2.1,8.6-1.7s5.9,1.9,7.5,4.4c0.5,0.7,0.9,1.7,0.7,2.6s-0.8,1.6-1.7,2
						c-0.8,0.3-1.7,0.4-2.6,0.3c-2.5-0.4-4.7-1.9-7.3-2.2c-0.9-0.2-1.9-0.1-2.8-0.2c-0.9-0.1-1.9-0.2-2.6-0.8
						c-0.8-0.5-1.4-1.3-1.4-2.3C774.6,264.8,775.5,264.1,776,263.9z"/>
					
						<ellipse transform="matrix(7.494246e-02 -0.9972 0.9972 7.494246e-02 435.514 1043.7609)" class="st27" cx="780.3" cy="287.1" rx="2.9" ry="2.9"/>
				</g>
				<g id="Left_eye_6_">
					<path class="st43" d="M751.9,284.6c-0.1-4.9-4.2-8.8-7.5-9.1c-3-0.2-7.4,2.1-8,6.9c-0.4,2.7-0.3,5.7,1.5,9.8
						c1.3,3,7.5,4.6,8.6,3.8C748.8,294.5,752.1,290.1,751.9,284.6z"/>
					<path class="st49" d="M738.4,289.1c0.3-3.4,2.9-6.1,6.2-6.1c3.4,0.1,6,2.9,5.9,6.3c-0.1,2.1-2.3,5.1-2.5,5.2
						c-0.1,0-1.4,1.6-2.1,1.6c-1.7,0-2.6-0.5-2.6-0.5S738.1,294.5,738.4,289.1z"/>
					
						<ellipse transform="matrix(7.494245e-02 -0.9972 0.9972 7.494245e-02 400.1307 1010.2564)" class="st50" cx="744.6" cy="289.5" rx="4.6" ry="4.6"/>
					<path class="st47" d="M754.1,265.2c-0.2,2-3,3.7-4.3,4c-2.1,0.5-5.9,0.8-8,1.6c-2,0.8-5,2.6-6.4-0.2c-2.3-4.8,6.9-8.3,9.8-8.6
						C749.5,261.7,754.3,263.1,754.1,265.2z"/>
					
						<ellipse transform="matrix(7.494242e-02 -0.9972 0.9972 7.494242e-02 401.3363 1009.079)" class="st27" cx="744.5" cy="288.2" rx="2.9" ry="2.9"/>
				</g>
				<g id="hat_4_">
					<path class="st43" d="M806.7,242.5c-7.8,2.1-15.4-0.3-17.1-5.4c-0.1-0.4-0.2-0.7-0.3-1.1c-2.1,0.4-4.2,0.5-6.4,0.4
						c-8.9-0.4-16.6-3.3-21.3-6.2c-3.8,1.8-7.5,2.8-10.9,2.7c-1.9-0.1-3.8-0.5-5.6-1c-1.7,1-3.7,1.9-5.8,2.5c1.3,2.3,1.7,4.6,1,6.8
						c-2.1,6.5-13,9.4-24.4,6.5c-11.4-3-19-10.6-16.9-17.1c0.8-2.6,3.1-4.6,6.1-6c-0.6-1.4-1-2.8-0.9-4.3c0.3-8,11.3-14,24.6-13.4
						h0.3c4.5-8.2,22.1-15.4,33.1-15c9.7,0.4,16.7,4,19.1,10c0.9-0.2,1.8-0.1,2.7-0.1c14.8,0.6,30.9,10,28.4,20.1
						c-0.1,0.5-0.7,1.3-1.5,2.2c3.3,0.9,5.8,2.8,6.7,5.5C819.3,234.7,814.4,240.4,806.7,242.5z"/>
					<path class="st43" d="M722.9,238.9c0,0-0.1-12.2,35.6-12.6c40.7-0.4,38.5,11.8,38.5,11.8l3.6,25.5c0,0-8.5-8.9-39.1-8.7
						c-27.7,0.2-39.9,12.9-39.9,12.9l1.2-29L722.9,238.9z"/>
					<path class="st43" d="M790.8,219.6"/>
				</g>
			</g>
			<g id="Wheel_6_" class="st42">
				<path class="st53" d="M855.7,469.8L855.7,469.8c-1.4-19.1-9.9-36.9-24-50c-14.2-13.3-32.7-20.6-52.2-20.6
					c-42.1,0-76.4,34.3-76.4,76.4c0,4.5,0.4,8.9,1.2,13.2c0.2-0.1,0.4-0.2,0.6-0.2c0,0,0,0,0.1,0s0.1,0,0.2,0l0,0l0,0
					c0.1,0,0.1,0,0.2,0c0.1,0,0.1,0,0.2,0.1c0.1,0,0.3,0,0.4,0.1c-0.1,0-0.1,0-0.1,0c0.1,0,0.2,0,0.2,0c0.1,0,0.2,0,0,0
					c0,0,0,0-0.1,0c0.4,0.1,1.4,0.3,0.6,0.1c0.1,0,0.6,0.1,0.3,0.1c0.1,0,0.1,0,0.2,0c0.3-0.2,0.7-0.3,1-0.3c0,0,0.1,0,0.2,0
					c0.1,0,0.2,0,0.3,0c0.2,0,0.3-0.1,0.5-0.1c0.2-0.1,0.4-0.2,0.7-0.1l0,0c1-0.2,2.1-0.4,3.1-0.5c0.8-0.1,1.5-0.1,2.1,0
					c0.6-0.4,1.5-0.4,2.2-0.2h0.1c1.1-0.2,2,0.1,2.6,0.9c0.1,0.1,0.2,0.3,0.4,0.4s0.4,0.2,0.6,0.2c0.9,0.4,1.6,1.1,1.8,2
					c0.3,1.1-0.1,2-0.7,2.7c0.5,0.3,0.9,0.8,1,1.4c0.3,1.2,0.4,2.5,0.2,3.7c0.6,0.7,1.3,1.5,1.9,2.2c0.6,0.7,1.4,1.6,1.6,2.5
					c0.5,0.1,0.9,0.2,1.4,0.3c0.6-0.1,1.2-0.2,1.8-0.3c6.2-1,13.2-2.2,19.1,0.3c1.1,0.5,0.8,1.9,0,2.5c-3.9,2.8-9.6,2-14,1.5
					c-2.4-0.3-4.7-0.6-7-1.1c-0.6,0.1-1.2,0.2-1.8,0.3c0.1,0.1,0.1,0.2,0.2,0.3c2.5,0.8,4.8,2.1,6.7,3.8c2.4,2.1,3.8,4.9,4.9,7.8
					v0.1c0.3,0.2,0.6,0.4,1,0.7v-0.1c0-0.2,0.1-0.4,0.3-0.3c0.2,0.2,0.5,0.3,0.7,0.5c0.1,0.1,0.2,0.2,0.3,0.3c0.5-1,1.2-2,2-2.9
					c3-3.2,7.5-3.7,11.6-3c3.3,0.6,6.5,2.3,9.3,4.5c1.4-0.6,3.1-1,4.8-0.9c4.9,0.3,8.5,3,11.2,6.7c1.1-3.8,3.4-6.9,7.8-8.5
					c3-1.1,6.5,0.2,8.7,2.3c0.1,0.1,0.1,0.1,0.2,0.2c0.9-3,2.6-5.6,5.3-7.2c2.7-1.6,5.8-1.6,8.6-0.7c3.2-2.2,7.9-1.4,11,0.8
					c0.5-0.4,1-0.8,1.6-1.1c2.7-1.7,5.7-1.4,8,0c0.3-3.1,0.6-6.1,1.3-9.2c0.9-3.8,2.3-7.6,3.9-11.1c1.2-2.8,3-5.2,4.8-7.7
					c0.1-0.2,0.3-0.4,0.4-0.6c-0.2-0.3-0.3-0.5-0.4-0.8c-0.2-0.6-0.2-1.2-0.1-1.8c-0.2-0.2-0.3-0.5-0.4-0.7
					c-0.4-1.4-0.2-2.8,0.1-4.2c-1-1.2-0.6-3.5,1.2-4.1c0.1,0,0.1-0.1,0.2-0.1c0.1,0,0.2-0.1,0.3-0.1c0.4-0.1,0.7-0.1,1-0.1
					c0.2,0,0.4,0,0.7,0.1c0.5,0,1,0,1.5-0.1s1,0,1.5,0.1c0.3,0,0.8,0,0.9,0c0.1,0,0.2,0,0.3,0c0.5,0,1,0,1.6,0.1l0,0
					c0.3,0,0.6,0,0.9,0c0.1,0,0.1,0,0.2,0h-0.1c0.1,0,0.2,0,0.2,0h0.1c0.1,0,0.1,0,0.2,0h-0.1c0.1,0,0.3,0,0.4,0
					c0,0,0.7-0.1,0.9-0.1c0.1,0,0.3,0,0.4,0c1.1-0.2,2.2-0.2,3.3,0L855.7,469.8z"/>
				<path class="st53" d="M738.1,505.6c-0.1,0-0.1,0-0.2,0c1.8,0.2,3.7,0.2,5.5,0C741.7,505.4,739.8,505.5,738.1,505.6z"/>
				<path class="st54" d="M831.2,420.3c-14.1-13.2-32.4-20.4-51.7-20.4c-41.7,0-75.6,33.9-75.6,75.6c0,4.4,0.4,8.5,1.2,12.7h0.1l0,0
					c0,0,0,0-0.1,0h0.1l10.7-0.7c0.2,0,0.3,0,0.5,0l1.4-0.1c-0.8-3.9-1.2-7.9-1.2-11.9c0-34,28.2-61.7,62.9-61.7
					c15.8,0,30.9,5.8,42.6,16.3c11.5,10.4,18.6,24.4,20.1,39.6l12.8,0.1C853.5,450.9,845.1,433.3,831.2,420.3z"/>
			</g>
			<g id="right_paw_5_" class="st42">
				<path class="st45" d="M853.4,431.9c6.5-8.9,6.7-21.8,1-31.2c-2.4-3.9-5.7-7.2-9.1-10.2c-2.7-2.4-5.7-4.8-9.2-5.6
					c-2.7-0.6-5.4-0.2-8.1,0.2c-4.4,0.7-8.8,1.6-12.8,3.5s-7.7,4.8-9.7,8.8c-2.1,4.1-2.2,9-1.1,13.4c0.5,1.9,1.1,3.6,2,5.4
					c1.1,2.4,2.6,4.7,4.1,6.9c1.5,2.1,3.2,4.2,5,6.1c1.2,1.1,2.4,2.2,3.7,3.1c4.7,3.2,10.4,4.5,16,5.2c2.6,0.3,5.3,0.5,7.9-0.1
					C847.5,436.3,851.9,434,853.4,431.9z"/>
				<path id="patch_5_" class="st58" d="M856.2,430.5c-2.7-3.5-13.9-1.4-16.2-5.2c-3.1-5.1-8.4-25.7-3.6-27.3
					c2.8-0.9,16.5,6.2,22.6,17.7C860.9,419.2,857.3,432,856.2,430.5z"/>
				<path class="st44" d="M826.4,406.8c-1-1.1-3.3-1.5-4.4-1.7c-1.1-0.3-2.3-0.1-3.4,0.2c-5.2,1.3-9.8,4.8-12.4,9.5"/>
				<path class="st44" d="M831.3,418.5c-1.4-0.3-2.1-0.2-3.7-0.1c-5.4,0.2-9.8,4.8-12.4,9.5"/>
				<path class="st44" d="M822.6,395.7c-1.9-2-5.8-1.6-6.9-1.4c-5.2,1.3-9.1,4.3-11.7,9"/>
			</g>
			<g id="right_arm_patch_2_" class="st42">
				<path class="st55" d="M859.7,444.1c-3.8,5.4-9.1-1.3-11.5-3.7c-3.5-3.5,3.3-5.7-3.5-7c-12.9-2.5-11.3-38.8-7.5-43.4
					c2.7-3.3,17.3,19.6,19.9,26.3C859.1,421.7,863.1,439.4,859.7,444.1z"/>
			</g>
			<g id="Seatbelt_6_" class="st42">
				<path class="st59" d="M697.6,341.2l148.7,128.9l-22.7,2L679.9,352.7c0,0,5.1-4.8,7.1-6C692.5,343.4,697.6,341.2,697.6,341.2z"/>
			</g>
			<g id="arm_4_" class="st42">
				<path class="st45" d="M671.1,477.5c-0.9,7.4,19.7,7.6,24.8,2.6c11.4-11,28.3-47.2,30.7-64.1c0.6-4.2,0.2-18.2-2.7-17.6
					C709.4,401.1,673.6,457.4,671.1,477.5z"/>
			</g>
			<g id="left_paw_6_" class="st42">
				<path class="st45" d="M697.1,432.3c-2-10.8,3.4-22.5,12.6-28.5c3.8-2.5,8.2-4,12.6-5.3c3.5-1,7.2-1.9,10.7-1
					c2.6,0.6,5,2.1,7.2,3.7c3.7,2.5,7.2,5.3,10,8.7c2.8,3.4,4.8,7.7,4.9,12.1c0.1,4.6-1.9,9.1-4.9,12.6c-1.2,1.5-2.6,2.8-4.1,4
					c-2.1,1.7-4.4,3.1-6.7,4.4s-4.7,2.4-7.2,3.3c-1.5,0.5-3.1,0.9-4.7,1.2c-5.6,0.8-11.3-0.4-16.7-2.2c-2.5-0.9-5-1.9-7-3.5
					C700.5,438.8,697.6,434.8,697.1,432.3z"/>
				<path class="st55" d="M695.8,433.9c4.2,1.3,12.5,0.7,16.2-1.7c5-3.3,18.7-19.6,15-23.1c-2.1-2-23.7,7.8-27,11.4
					C697.4,423.4,690.9,432.4,695.8,433.9z"/>
				<path class="st44" d="M732.3,421.3c1.4-0.6,3.6,0.1,4.7,0.4s2.1,0.9,3,1.7c4.1,3.4,6.8,8.6,7.1,13.9"/>
				<path class="st44" d="M722.8,429.8c1.4,0.4,2,0.7,3.4,1.5c4.8,2.5,6.8,8.6,7.1,13.9"/>
				<path class="st44" d="M740.6,413c2.6-1,5.9,1,6.8,1.8c4.1,3.4,6.3,7.8,6.6,13.2"/>
			</g>
		</g>
		<g id="Chefbear-4" class="st41">
			<g id="body_2_" class="st42">
				<g>
					<path class="st43" d="M668.5,473.2l117.5,2.4l83.4-5c-6.5-25.6-8.2-44.5-19.4-78.2c-14.5-43.7-37-47.4-45.7-48.6
						c-15.4-2.2-45-1.5-62.2-0.2s-47.5,19.9-58.7,34.8C663.8,404.4,668.5,473.2,668.5,473.2z"/>
				</g>
				<path class="st44" d="M711.3,406c-6.6,14.4-7.7,49.3-7.6,58.2"/>
				<path class="st44" d="M814,393.7c16.1,12.1,18.4,68.9,20.4,74.8"/>
				<line class="st44" x1="764.7" y1="352" x2="766" y2="368.5"/>
				<circle class="st44" cx="770.4" cy="355.4" r="2.5"/>
				<circle class="st44" cx="770.9" cy="363.9" r="2.5"/>
			</g>
			<path id="right_arm_1_" class="st52" d="M889.7,506.4c-2.4,7.4-26-3.9-29.6-11.5c-7.9-16.7-10.8-59.8-5.7-76.9
				c1.2-4.3,8.1-17,11.1-15C880.9,413.8,896.1,486.3,889.7,506.4z"/>
			<g id="head_3_" class="st42">
				<g id="Head_6_">
					<path id="right_ear_out_2_" class="st45" d="M781.1,249.5c-3.1-6.6,2.4-14,5.8-16.7c2.7-2.3,12.4-9.5,25,4.6
						c8.2,9.2,9.3,14.5,6.6,20.6c-2.9,6.4-19.1,7.9-18.2,7.9"/>
					<path id="right_ear_in_2_" class="st46" d="M787.1,252.6c-1.8-7.3,5.1-20.9,17.4-10.4c15,12.8-1.4,18.4-7.4,18.9"/>
					<path id="left_ear_out_2_" class="st45" d="M738.2,252.1c3.3-6.5-1.7-16.3-4.4-18.5c-4.7-3.8-13.7-4.3-23.2,3.3
						c-10.2,8.1-13,16.2-9.2,22.4c3.7,6.2,14.4,10.5,19.1,9.9"/>
					<path id="left_ear_in_2_" class="st46" d="M733.5,254.6c1.8-7.4-5.2-21.1-17.5-10.5c-15,13,1.5,19.3,7.6,19.8"/>
					<path id="Head_7_" class="st45" d="M788.1,345.3c-12,5-24.9,7.3-37.7,5.6c-12.7-1.8-25-8-33.4-18.4
						c-8.5-10.3-12.8-24.8-10.1-38.3c1.5-7.7,5.2-14.8,9.4-21.3c8.2-12.5,19.2-23.6,32.9-27.6c13.1-3.9,27.7-0.6,38.9,7.6
						c11.3,8.2,19.3,21.2,23.1,35.3c3.1,11.2,3.6,23.5-0.3,34.5C807.2,333.6,798.1,341.3,788.1,345.3z"/>
					<path id="snoot_2_" class="st47" d="M760.9,285c-5.9,3.8-7.5,10.7-12.5,15.3c-2.1,2-4.7,3.4-6.9,5.4
						c-5.1,4.5-6.9,11.3-5.3,17.3c2.4,8.9,18.6,18.4,30.6,16.9c16.7-2.1,23.6-13.4,23.2-19.9c-0.4-6.3-2.2-8.8-5.9-13.6
						c-3.6-4.9-10.8-9.3-13.7-14.7c-1.1-2-2.6-5.1-4.6-6.5C764.1,283.9,762.4,284,760.9,285z"/>
					<ellipse id="nose_3_" class="st60" cx="762.5" cy="299.7" rx="10.2" ry="5.7"/>
					<path id="right_moth_2_" class="st44" d="M763.5,315.9c1.2,3.4,2.4,4.1,4.5,4.5c1.7,0.3,3.9-0.3,5.5-0.9c1.6-0.7,4-2,4.2-5.1"
						/>
					<path id="left_mouth_2_" class="st44" d="M763.5,315.9c-0.7,3.3-6,5.8-8.1,5.2c-2-0.7-5.3-2.7-6.6-5.9"/>
					<path id="chin_3_" class="st44" d="M759.3,329.9c1.4,1.2,3.1,1.8,4.7,1.7c1.6-0.1,3.2-0.9,4.3-2.3"/>
				</g>
				<g id="Right_eye_1_">
					<path class="st43" d="M772.3,282.7c0.2-5,4.4-8.8,7.7-9c3-0.1,7.7,3.3,7.8,8.2s-0.3,7.2-1.3,8.7c-1.4,2.4-7.7,4.2-8.9,3.4
						C775.3,292.6,772.1,288.3,772.3,282.7z"/>
					<path class="st49" d="M785.9,287.5c-0.1-3.4-2.8-6.2-6.1-6.1c-3.3,0-6.1,2.8-6,6.2c0,2.1,2.2,5.2,2.3,5.2s1.4,1.7,2.1,1.7
						c1.7,0,2.5-0.5,2.5-0.5S786.1,292.8,785.9,287.5z"/>
					
						<ellipse transform="matrix(5.457999e-02 -0.9985 0.9985 5.457999e-02 449.6461 1050.8217)" class="st50" cx="779.7" cy="288" rx="4.6" ry="4.6"/>
					<path class="st47" d="M773.9,263.5c2.5-1.6,5.6-2.2,8.6-1.8c3,0.4,5.9,1.8,7.6,4.2c0.6,0.7,0.9,1.7,0.8,2.5
						c-0.1,0.9-0.8,1.7-1.6,2c-0.8,0.4-1.7,0.4-2.6,0.4c-2.5-0.3-4.7-1.8-7.3-2.1c-0.9-0.1-1.9-0.1-2.8-0.2c-0.9,0-1.9-0.2-2.7-0.7
						c-0.8-0.4-1.4-1.3-1.5-2.3C772.4,264.5,773.4,263.8,773.9,263.5z"/>
					
						<ellipse transform="matrix(5.458001e-02 -0.9985 0.9985 5.458001e-02 449.4917 1048.6814)" class="st27" cx="778.5" cy="287" rx="2.9" ry="2.9"/>
				</g>
				<g id="Left_eye_2_">
					<path class="st43" d="M750.2,284.8c-0.2-4.9-4.4-8.8-7.7-8.9c-3-0.2-7.3,2.2-7.9,7.1c-0.3,2.7-0.2,5.7,1.7,9.8
						c1.3,3,7.6,4.4,8.7,3.6C747.2,294.7,750.5,290.3,750.2,284.8z"/>
					<path class="st49" d="M736.8,289.5c0.2-3.4,2.7-6.2,6-6.2c3.4,0,6.1,2.7,6.1,6.1c0,2.1-2.2,5.2-2.4,5.3c-0.1,0-1.4,1.6-2.1,1.7
						c-1.7,0-2.6-0.4-2.6-0.4S736.6,294.9,736.8,289.5z"/>
					
						<ellipse transform="matrix(5.458000e-02 -0.9985 0.9985 5.458000e-02 412.9119 1016.0195)" class="st50" cx="743" cy="290" rx="4.6" ry="4.6"/>
					<path class="st47" d="M751.9,265.3c-0.2,2-2.9,3.7-4.2,4.1c-2.1,0.6-5.9,0.9-8,1.8c-1.9,0.8-5,2.7-6.4,0
						c-2.4-4.7,6.8-8.4,9.6-8.8C747.3,261.9,752.2,263.2,751.9,265.3z"/>
					
						<ellipse transform="matrix(5.457995e-02 -0.9985 0.9985 5.457995e-02 413.99 1014.5312)" class="st27" cx="742.7" cy="288.6" rx="2.9" ry="2.9"/>
				</g>
				<g id="hat_2_">
					<path class="st43" d="M804.1,241.5c-7.7,2.2-15.4,0-17.2-5c-0.1-0.4-0.2-0.7-0.3-1.1c-2.1,0.5-4.2,0.6-6.4,0.6
						c-8.9-0.2-16.6-2.9-21.4-5.7c-3.7,1.8-7.5,3-10.9,2.9c-1.9,0-3.8-0.4-5.6-0.9c-1.7,1.1-3.6,1.9-5.8,2.6
						c1.4,2.2,1.8,4.5,1.2,6.8c-1.9,6.6-12.8,9.7-24.2,7s-19.2-10.2-17.3-16.7c0.8-2.6,3-4.6,6-6.1c-0.7-1.4-1-2.8-1-4.3
						c0.2-8,11-14.2,24.3-13.9h0.3c4.4-8.3,21.8-15.9,32.8-15.7c9.7,0.2,16.7,3.6,19.3,9.6c0.9-0.2,1.8-0.2,2.7-0.1
						c14.8,0.3,31.1,9.4,28.8,19.6c-0.1,0.5-0.6,1.3-1.4,2.3c3.3,0.9,5.8,2.7,6.8,5.3C816.6,233.5,811.7,239.3,804.1,241.5z"/>
					<path class="st43" d="M720.2,239.7c0,0-0.4-12.2,35.4-13.3c40.7-1.2,38.7,11.1,38.7,11.1l4.1,25.4c0,0-8.7-8.8-39.3-7.9
						c-27.7,0.8-39.7,13.7-39.7,13.7l0.6-29L720.2,239.7z"/>
					<path class="st43" d="M787.7,219"/>
				</g>
			</g>
			<g id="right_paw_1_" class="st42">
				<path class="st45" d="M865.4,427.9c6.5-8.9,6.7-21.8,1-31.2c-2.4-3.9-5.7-7.2-9.1-10.2c-2.7-2.4-5.7-4.8-9.2-5.6
					c-2.7-0.6-5.4-0.2-8.1,0.2c-4.4,0.7-8.8,1.6-12.8,3.5s-7.7,4.8-9.7,8.8c-2.1,4.1-2.2,9-1.1,13.4c0.5,1.9,1.1,3.6,2,5.4
					c1.1,2.4,2.6,4.7,4.1,6.9c1.5,2.1,3.2,4.2,5,6.1c1.2,1.1,2.4,2.2,3.7,3.1c4.7,3.2,10.4,4.5,16,5.2c2.6,0.3,5.3,0.5,7.9-0.1
					C859.5,432.3,863.9,430,865.4,427.9z"/>
				<path id="patch_3_" class="st55" d="M868.2,426.5c-2.7-3.5-13.9-1.4-16.2-5.2c-3.1-5.1-8.4-25.7-3.6-27.3
					c2.8-0.9,16.5,6.2,22.6,17.7C872.9,415.2,869.3,428,868.2,426.5z"/>
				<path class="st44" d="M838.4,402.8c-1-1.1-3.3-1.5-4.4-1.7c-1.1-0.3-2.3-0.1-3.4,0.2c-5.2,1.3-9.8,4.8-12.4,9.5"/>
				<path class="st44" d="M843.3,414.5c-1.4-0.3-2.1-0.2-3.7-0.1c-5.4,0.2-9.8,4.8-12.4,9.5"/>
				<path class="st44" d="M834.6,391.7c-1.9-2-5.8-1.6-6.9-1.4c-5.2,1.3-9.1,4.3-11.7,9"/>
			</g>
			<g id="right_arm_patch" class="st42">
				<path class="st55" d="M876.8,431.2c-3.6,4.9-7-3.3-10.3-5c-5.7-3-27.8-32.8-23.2-38c2.6-3,22.5,14.6,26.5,20
					C873.1,412.4,880,426.9,876.8,431.2z"/>
			</g>
			<g id="Seatbelt_1_" class="st42">
				<path class="st59" d="M697.6,341.2l148.7,128.9l-22.7,2L679.9,352.7c0,0,5.1-4.8,7.1-6C692.5,343.4,697.6,341.2,697.6,341.2z"/>
			</g>
			<g id="arm_1_" class="st42">
				<path class="st45" d="M671.1,477.5c-0.9,7.4,19.7,7.6,24.8,2.6c11.4-11,28.3-47.2,30.7-64.1c0.6-4.2,0.2-18.2-2.7-17.6
					C709.4,401.1,673.6,457.4,671.1,477.5z"/>
			</g>
			<g id="Wheel_1_" class="st42">
				<path class="st53" d="M855.7,469.8L855.7,469.8c-1.4-19.1-9.9-36.9-24-50c-14.2-13.3-32.7-20.6-52.2-20.6
					c-42.1,0-76.4,34.3-76.4,76.4c0,4.5,0.4,8.9,1.2,13.2c0.2-0.1,0.4-0.2,0.6-0.2c0,0,0,0,0.1,0s0.1,0,0.2,0l0,0l0,0
					c0.1,0,0.1,0,0.2,0c0.1,0,0.1,0,0.2,0.1c0.1,0,0.3,0,0.4,0.1c-0.1,0-0.1,0-0.1,0c0.1,0,0.2,0,0.2,0c0.1,0,0.2,0,0,0
					c0,0,0,0-0.1,0c0.4,0.1,1.4,0.3,0.6,0.1c0.1,0,0.6,0.1,0.3,0.1c0.1,0,0.1,0,0.2,0c0.3-0.2,0.7-0.3,1-0.3c0,0,0.1,0,0.2,0
					c0.1,0,0.2,0,0.3,0c0.2,0,0.3-0.1,0.5-0.1c0.2-0.1,0.4-0.2,0.7-0.1l0,0c1-0.2,2.1-0.4,3.1-0.5c0.8-0.1,1.5-0.1,2.1,0
					c0.6-0.4,1.5-0.4,2.2-0.2h0.1c1.1-0.2,2,0.1,2.6,0.9c0.1,0.1,0.2,0.3,0.4,0.4s0.4,0.2,0.6,0.2c0.9,0.4,1.6,1.1,1.8,2
					c0.3,1.1-0.1,2-0.7,2.7c0.5,0.3,0.9,0.8,1,1.4c0.3,1.2,0.4,2.5,0.2,3.7c0.6,0.7,1.3,1.5,1.9,2.2c0.6,0.7,1.4,1.6,1.6,2.5
					c0.5,0.1,0.9,0.2,1.4,0.3c0.6-0.1,1.2-0.2,1.8-0.3c6.2-1,13.2-2.2,19.1,0.3c1.1,0.5,0.8,1.9,0,2.5c-3.9,2.8-9.6,2-14,1.5
					c-2.4-0.3-4.7-0.6-7-1.1c-0.6,0.1-1.2,0.2-1.8,0.3c0.1,0.1,0.1,0.2,0.2,0.3c2.5,0.8,4.8,2.1,6.7,3.8c2.4,2.1,3.8,4.9,4.9,7.8
					v0.1c0.3,0.2,0.6,0.4,1,0.7v-0.1c0-0.2,0.1-0.4,0.3-0.3c0.2,0.2,0.5,0.3,0.7,0.5c0.1,0.1,0.2,0.2,0.3,0.3c0.5-1,1.2-2,2-2.9
					c3-3.2,7.5-3.7,11.6-3c3.3,0.6,6.5,2.3,9.3,4.5c1.4-0.6,3.1-1,4.8-0.9c4.9,0.3,8.5,3,11.2,6.7c1.1-3.8,3.4-6.9,7.8-8.5
					c3-1.1,6.5,0.2,8.7,2.3c0.1,0.1,0.1,0.1,0.2,0.2c0.9-3,2.6-5.6,5.3-7.2c2.7-1.6,5.8-1.6,8.6-0.7c3.2-2.2,7.9-1.4,11,0.8
					c0.5-0.4,1-0.8,1.6-1.1c2.7-1.7,5.7-1.4,8,0c0.3-3.1,0.6-6.1,1.3-9.2c0.9-3.8,2.3-7.6,3.9-11.1c1.2-2.8,3-5.2,4.8-7.7
					c0.1-0.2,0.3-0.4,0.4-0.6c-0.2-0.3-0.3-0.5-0.4-0.8c-0.2-0.6-0.2-1.2-0.1-1.8c-0.2-0.2-0.3-0.5-0.4-0.7
					c-0.4-1.4-0.2-2.8,0.1-4.2c-1-1.2-0.6-3.5,1.2-4.1c0.1,0,0.1-0.1,0.2-0.1c0.1,0,0.2-0.1,0.3-0.1c0.4-0.1,0.7-0.1,1-0.1
					c0.2,0,0.4,0,0.7,0.1c0.5,0,1,0,1.5-0.1s1,0,1.5,0.1c0.3,0,0.8,0,0.9,0c0.1,0,0.2,0,0.3,0c0.5,0,1,0,1.6,0.1l0,0
					c0.3,0,0.6,0,0.9,0c0.1,0,0.1,0,0.2,0h-0.1c0.1,0,0.2,0,0.2,0h0.1c0.1,0,0.1,0,0.2,0h-0.1c0.1,0,0.3,0,0.4,0
					c0,0,0.7-0.1,0.9-0.1c0.1,0,0.3,0,0.4,0c1.1-0.2,2.2-0.2,3.3,0L855.7,469.8z"/>
				<path class="st53" d="M738.1,505.6c-0.1,0-0.1,0-0.2,0c1.8,0.2,3.7,0.2,5.5,0C741.7,505.4,739.8,505.5,738.1,505.6z"/>
				<path class="st54" d="M831.2,420.3c-14.1-13.2-32.4-20.4-51.7-20.4c-41.7,0-75.6,33.9-75.6,75.6c0,4.4,0.4,8.5,1.2,12.7h0.1l0,0
					c0,0,0,0-0.1,0h0.1l10.7-0.7c0.2,0,0.3,0,0.5,0l1.4-0.1c-0.8-3.9-1.2-7.9-1.2-11.9c0-34,28.2-61.7,62.9-61.7
					c15.8,0,30.9,5.8,42.6,16.3c11.5,10.4,18.6,24.4,20.1,39.6l12.8,0.1C853.5,450.9,845.1,433.3,831.2,420.3z"/>
			</g>
			<g id="left_paw_1_" class="st42">
				<path class="st45" d="M697.1,432.3c-2-10.8,3.4-22.5,12.6-28.5c3.8-2.5,8.2-4,12.6-5.3c3.5-1,7.2-1.9,10.7-1
					c2.6,0.6,5,2.1,7.2,3.7c3.7,2.5,7.2,5.3,10,8.7c2.8,3.4,4.8,7.7,4.9,12.1c0.1,4.6-1.9,9.1-4.9,12.6c-1.2,1.5-2.6,2.8-4.1,4
					c-2.1,1.7-4.4,3.1-6.7,4.4s-4.7,2.4-7.2,3.3c-1.5,0.5-3.1,0.9-4.7,1.2c-5.6,0.8-11.3-0.4-16.7-2.2c-2.5-0.9-5-1.9-7-3.5
					C700.5,438.8,697.6,434.8,697.1,432.3z"/>
				<path class="st55" d="M695.8,433.9c4.2,1.3,12.5,0.7,16.2-1.7c5-3.3,18.7-19.6,15-23.1c-2.1-2-23.7,7.8-27,11.4
					C697.4,423.4,690.9,432.4,695.8,433.9z"/>
				<path class="st44" d="M732.3,421.3c1.4-0.6,3.6,0.1,4.7,0.4s2.1,0.9,3,1.7c4.1,3.4,6.8,8.6,7.1,13.9"/>
				<path class="st44" d="M722.8,429.8c1.4,0.4,2,0.7,3.4,1.5c4.8,2.5,6.8,8.6,7.1,13.9"/>
				<path class="st44" d="M740.6,413c2.6-1,5.9,1,6.8,1.8c4.1,3.4,6.3,7.8,6.6,13.2"/>
			</g>
		</g>
		<g id="Chefbear-3" class="st41">
			<g id="patch_7_" class="st42">
				<path class="st55" d="M704.2,427.2c3.6,4.9,15.5,1,20.1-2.5c6.2-4.8,23.3-28.9,18.7-34.1c-2.6-3-29,13.4-33,18.8
					C706.8,413.6,701,422.9,704.2,427.2z"/>
			</g>
			<g id="body_4_" class="st42">
				<g>
					<path class="st43" d="M668.6,473.4l117.5,2.2l83.4-5.1C863,445,861.2,426,850,392.4c-14.6-43.6-37.1-47.3-45.7-48.5
						c-15.4-2.1-45-1.5-62.2-0.1c-17.3,1.4-47.4,19.9-58.7,34.9C663.8,404.6,668.6,473.4,668.6,473.4z"/>
				</g>
				<path class="st44" d="M711.3,406c-6.6,14.4-7.6,49.3-7.5,58.2"/>
				<path class="st44" d="M813.9,393.6c16.1,12.1,18.5,68.9,20.5,74.8"/>
				<line class="st44" x1="764.6" y1="352" x2="765.9" y2="368.5"/>
				<circle class="st44" cx="770.4" cy="355.4" r="2.5"/>
				<circle class="st44" cx="770.9" cy="363.9" r="2.5"/>
			</g>
			<g id="Head_10_" class="st42">
				<path id="right_ear_out_4_" class="st45" d="M777,250.3c-3.3-6.5,2.1-14,5.5-16.8c2.7-2.3,12.3-9.8,25.1,4.1
					c8.4,9,9.6,14.3,7,20.5c-2.7,6.4-18.9,8.2-18,8.3"/>
				<path id="right_ear_in_4_" class="st46" d="M783.1,253.3c-1.9-7.3,4.7-20.9,17.2-10.7c15.3,12.5-1,18.4-7.1,19.1"/>
				<path id="left_ear_out_4_" class="st45" d="M734.1,253.7c3.1-6.6-2-16.3-4.8-18.4c-4.8-3.7-13.8-4-23.1,3.8
					c-10,8.3-12.7,16.5-8.8,22.6c3.8,6.1,14.7,10.2,19.3,9.5"/>
				<path id="left_ear_in_4_" class="st46" d="M729.5,256.3c1.7-7.4-5.6-21-17.7-10.1c-14.8,13.3,1.9,19.3,8,19.7"/>
				<path id="Head_11_" class="st45" d="M785.9,345.9c-11.9,5.2-24.8,7.8-37.5,6.3c-12.8-1.5-25.2-7.5-33.8-17.7
					c-8.7-10.1-13.2-24.6-10.9-38.1c1.4-7.8,4.9-14.9,9-21.5c7.9-12.6,18.8-24,32.3-28.3c13.1-4.1,27.7-1.1,39.1,6.9
					c11.4,8,19.7,20.8,23.8,34.9c3.3,11.1,4.1,23.5,0.4,34.5C804.7,333.9,795.8,341.7,785.9,345.9z"/>
				<path id="snoot_5_" class="st47" d="M757.5,286.2c-5.8,3.9-7.3,10.9-12.2,15.6c-2.1,2-4.6,3.5-6.8,5.6c-5,4.6-6.7,11.5-4.9,17.4
					c2.6,8.9,19,18.1,30.9,16.3c16.7-2.4,23.3-13.9,22.8-20.3c-0.5-6.3-2.4-8.8-6.1-13.5c-3.7-4.8-11-9.1-14-14.4
					c-1.1-1.9-2.7-5-4.7-6.4C760.6,285,759,285.1,757.5,286.2z"/>
				
					<ellipse id="nose_5_" transform="matrix(0.9998 -1.993523e-02 1.993523e-02 0.9998 -5.8456 15.1986)" class="st57" cx="759.4" cy="300.8" rx="10.2" ry="5.7"/>
				<path id="right_moth_4_" class="st44" d="M760.7,317c1.3,3.3,2.5,4.1,4.5,4.4c1.7,0.3,3.9-0.4,5.4-1c1.6-0.7,4-2.1,4.1-5.2"/>
				<path id="left_mouth_5_" class="st44" d="M760.7,317c-0.6,3.3-5.9,5.9-8,5.3c-2-0.7-5.3-2.6-6.7-5.7"/>
				<path id="chin_6_" class="st44" d="M756.8,331.1c1.5,1.2,3.1,1.7,4.7,1.6c1.6-0.1,3.1-1,4.3-2.4"/>
			</g>
			<path id="right_arm_3_" class="st52" d="M895.5,513.6c-1.3,7.7-26.3-0.2-30.9-7.2c-10.2-15.4-19.2-57.7-16.6-75.3
				c0.6-4.4,5.6-18,8.9-16.4C873.6,423.2,899,492.8,895.5,513.6z"/>
			<g id="right_paw_3_" class="st42">
				<path class="st45" d="M867.8,453.4c6.5-8.9,6.7-21.8,1-31.2c-2.4-3.9-5.7-7.2-9.1-10.2c-2.7-2.4-5.7-4.8-9.2-5.6
					c-2.7-0.6-5.4-0.2-8.1,0.2c-4.4,0.7-8.8,1.6-12.8,3.5s-7.7,4.8-9.7,8.8c-2.1,4.1-2.2,9-1.1,13.4c0.5,1.9,1.1,3.6,2,5.4
					c1.1,2.4,2.6,4.7,4.1,6.9c1.5,2.1,3.2,4.2,5,6.1c1.2,1.1,2.4,2.2,3.7,3.1c4.7,3.2,10.4,4.5,16,5.2c2.6,0.3,5.3,0.5,7.9-0.1
					C861.9,457.8,866.3,455.5,867.8,453.4z"/>
				<path id="patch_6_" class="st55" d="M870.6,452c-2.7-3.5-13.9-1.4-16.2-5.2c-3.1-5.1-8.4-25.7-3.6-27.3
					c2.8-0.9,16.5,6.2,22.6,17.7C875.3,440.7,871.7,453.5,870.6,452z"/>
				<path class="st44" d="M840.8,428.3c-1-1.1-3.3-1.5-4.4-1.7c-1.1-0.3-2.3-0.1-3.4,0.2c-5.2,1.3-9.8,4.8-12.4,9.5"/>
				<path class="st44" d="M845.7,440c-1.4-0.3-2.1-0.2-3.7-0.1c-5.4,0.2-9.8,4.8-12.4,9.5"/>
				<path class="st44" d="M837,417.2c-1.9-2-5.8-1.6-6.9-1.4c-5.2,1.3-9.1,4.3-11.7,9"/>
			</g>
			<g id="Right_eye_3_" class="st42">
				<path class="st43" d="M768.9,283.6c0.1-5,4.2-8.9,7.5-9.1c3-0.2,7.8,3.2,7.9,8.1c0.1,4.9-0.2,7.2-1.1,8.8
					c-1.4,2.5-7.7,4.3-8.8,3.6C772,293.5,768.8,289.2,768.9,283.6z"/>
				<path class="st49" d="M782.5,288.2c-0.2-3.4-2.9-6.1-6.2-6s-6,2.9-5.9,6.3c0,2.1,2.3,5.2,2.4,5.2s1.4,1.7,2.1,1.7
					c1.7,0,2.5-0.5,2.5-0.5S782.8,293.5,782.5,288.2z"/>
				
					<ellipse transform="matrix(3.511893e-02 -0.9994 0.9994 3.511893e-02 460.8118 1054.5688)" class="st50" cx="776.5" cy="288.6" rx="4.6" ry="4.6"/>
				<path class="st47" d="M770.1,264.4c2.5-1.6,5.6-2.3,8.6-2s5.9,1.7,7.7,4.1c0.6,0.7,0.9,1.6,0.8,2.5c-0.1,0.9-0.8,1.7-1.6,2
					c-0.8,0.4-1.7,0.4-2.6,0.4c-2.5-0.3-4.7-1.7-7.3-2c-0.9-0.1-1.9-0.1-2.8-0.1c-0.9,0-1.9-0.2-2.7-0.7c-0.8-0.4-1.5-1.3-1.5-2.3
					C768.6,265.5,769.5,264.7,770.1,264.4z"/>
				
					<ellipse transform="matrix(3.511892e-02 -0.9994 0.9994 3.511892e-02 460.5618 1052.4432)" class="st27" cx="775.3" cy="287.7" rx="2.9" ry="2.9"/>
			</g>
			<g id="Left_eye_4_" class="st42">
				<path class="st43" d="M746.8,286.1c-0.3-4.9-4.6-8.7-7.9-8.8c-3-0.1-7.3,2.3-7.8,7.2c-0.3,2.7-0.1,5.7,1.9,9.8
					c1.4,3,7.7,4.3,8.8,3.4C744,296.1,747.2,291.6,746.8,286.1z"/>
				<path class="st49" d="M733.5,291.2c0.1-3.4,2.6-6.2,5.9-6.3c3.4-0.1,6.1,2.6,6.2,6c0,2.1-2.1,5.2-2.3,5.3
					c-0.1,0-1.4,1.7-2.1,1.7c-1.7,0-2.6-0.4-2.6-0.4S733.4,296.6,733.5,291.2z"/>
				
					<ellipse transform="matrix(3.511892e-02 -0.9994 0.9994 3.511892e-02 422.5377 1020.2222)" class="st50" cx="739.6" cy="291.3" rx="4.6" ry="4.6"/>
				<path class="st47" d="M748.2,266.7c-0.2,2-2.8,3.8-4.1,4.2c-2.1,0.6-5.8,1-8,1.9c-1.9,0.8-4.9,2.8-6.4,0.1
					c-2.5-4.7,6.6-8.6,9.4-9C743.5,263.3,748.3,264.6,748.2,266.7z"/>
				
					<ellipse transform="matrix(3.511893e-02 -0.9994 0.9994 3.511893e-02 423.7474 1019.0159)" class="st27" cx="739.6" cy="290.1" rx="2.9" ry="2.9"/>
			</g>
			<g id="Seatbelt_4_" class="st42">
				<path class="st59" d="M697.6,341.2l148.7,128.9l-22.7,2L679.9,352.7c0,0,5.1-4.8,7.1-6C692.5,343.4,697.6,341.2,697.6,341.2z"/>
			</g>
			<g id="arm_3_" class="st42">
				<path class="st45" d="M671.1,477.5c-0.9,7.4,19.7,7.6,24.8,2.6c11.4-11,28.3-47.2,30.7-64.1c0.6-4.2,0.2-18.2-2.7-17.6
					C709.4,401.1,673.6,457.4,671.1,477.5z"/>
			</g>
			<g id="Wheel_4_" class="st42">
				<path class="st53" d="M855.7,469.8L855.7,469.8c-1.4-19.1-9.9-36.9-24-50c-14.2-13.3-32.7-20.6-52.2-20.6
					c-42.1,0-76.4,34.3-76.4,76.4c0,4.5,0.4,8.9,1.2,13.2c0.2-0.1,0.4-0.2,0.6-0.2c0,0,0,0,0.1,0s0.1,0,0.2,0l0,0l0,0
					c0.1,0,0.1,0,0.2,0c0.1,0,0.1,0,0.2,0.1c0.1,0,0.3,0,0.4,0.1c-0.1,0-0.1,0-0.1,0c0.1,0,0.2,0,0.2,0c0.1,0,0.2,0,0,0
					c0,0,0,0-0.1,0c0.4,0.1,1.4,0.3,0.6,0.1c0.1,0,0.6,0.1,0.3,0.1c0.1,0,0.1,0,0.2,0c0.3-0.2,0.7-0.3,1-0.3c0,0,0.1,0,0.2,0
					c0.1,0,0.2,0,0.3,0c0.2,0,0.3-0.1,0.5-0.1c0.2-0.1,0.4-0.2,0.7-0.1l0,0c1-0.2,2.1-0.4,3.1-0.5c0.8-0.1,1.5-0.1,2.1,0
					c0.6-0.4,1.5-0.4,2.2-0.2h0.1c1.1-0.2,2,0.1,2.6,0.9c0.1,0.1,0.2,0.3,0.4,0.4s0.4,0.2,0.6,0.2c0.9,0.4,1.6,1.1,1.8,2
					c0.3,1.1-0.1,2-0.7,2.7c0.5,0.3,0.9,0.8,1,1.4c0.3,1.2,0.4,2.5,0.2,3.7c0.6,0.7,1.3,1.5,1.9,2.2c0.6,0.7,1.4,1.6,1.6,2.5
					c0.5,0.1,0.9,0.2,1.4,0.3c0.6-0.1,1.2-0.2,1.8-0.3c6.2-1,13.2-2.2,19.1,0.3c1.1,0.5,0.8,1.9,0,2.5c-3.9,2.8-9.6,2-14,1.5
					c-2.4-0.3-4.7-0.6-7-1.1c-0.6,0.1-1.2,0.2-1.8,0.3c0.1,0.1,0.1,0.2,0.2,0.3c2.5,0.8,4.8,2.1,6.7,3.8c2.4,2.1,3.8,4.9,4.9,7.8
					v0.1c0.3,0.2,0.6,0.4,1,0.7v-0.1c0-0.2,0.1-0.4,0.3-0.3c0.2,0.2,0.5,0.3,0.7,0.5c0.1,0.1,0.2,0.2,0.3,0.3c0.5-1,1.2-2,2-2.9
					c3-3.2,7.5-3.7,11.6-3c3.3,0.6,6.5,2.3,9.3,4.5c1.4-0.6,3.1-1,4.8-0.9c4.9,0.3,8.5,3,11.2,6.7c1.1-3.8,3.4-6.9,7.8-8.5
					c3-1.1,6.5,0.2,8.7,2.3c0.1,0.1,0.1,0.1,0.2,0.2c0.9-3,2.6-5.6,5.3-7.2c2.7-1.6,5.8-1.6,8.6-0.7c3.2-2.2,7.9-1.4,11,0.8
					c0.5-0.4,1-0.8,1.6-1.1c2.7-1.7,5.7-1.4,8,0c0.3-3.1,0.6-6.1,1.3-9.2c0.9-3.8,2.3-7.6,3.9-11.1c1.2-2.8,3-5.2,4.8-7.7
					c0.1-0.2,0.3-0.4,0.4-0.6c-0.2-0.3-0.3-0.5-0.4-0.8c-0.2-0.6-0.2-1.2-0.1-1.8c-0.2-0.2-0.3-0.5-0.4-0.7
					c-0.4-1.4-0.2-2.8,0.1-4.2c-1-1.2-0.6-3.5,1.2-4.1c0.1,0,0.1-0.1,0.2-0.1c0.1,0,0.2-0.1,0.3-0.1c0.4-0.1,0.7-0.1,1-0.1
					c0.2,0,0.4,0,0.7,0.1c0.5,0,1,0,1.5-0.1s1,0,1.5,0.1c0.3,0,0.8,0,0.9,0c0.1,0,0.2,0,0.3,0c0.5,0,1,0,1.6,0.1l0,0
					c0.3,0,0.6,0,0.9,0c0.1,0,0.1,0,0.2,0h-0.1c0.1,0,0.2,0,0.2,0h0.1c0.1,0,0.1,0,0.2,0h-0.1c0.1,0,0.3,0,0.4,0
					c0,0,0.7-0.1,0.9-0.1c0.1,0,0.3,0,0.4,0c1.1-0.2,2.2-0.2,3.3,0L855.7,469.8z"/>
				<path class="st53" d="M738.1,505.6c-0.1,0-0.1,0-0.2,0c1.8,0.2,3.7,0.2,5.5,0C741.7,505.4,739.8,505.5,738.1,505.6z"/>
				<path class="st54" d="M831.2,420.3c-14.1-13.2-32.4-20.4-51.7-20.4c-41.7,0-75.6,33.9-75.6,75.6c0,4.4,0.4,8.5,1.2,12.7h0.1l0,0
					c0,0,0,0-0.1,0h0.1l10.7-0.7c0.2,0,0.3,0,0.5,0l1.4-0.1c-0.8-3.9-1.2-7.9-1.2-11.9c0-34,28.2-61.7,62.9-61.7
					c15.8,0,30.9,5.8,42.6,16.3c11.5,10.4,18.6,24.4,20.1,39.6l12.8,0.1C853.5,450.9,845.1,433.3,831.2,420.3z"/>
			</g>
			<g id="Layer_50_3_" class="st42">
				<path class="st43" d="M793.9,241.8c-7.7,2.4-15.4,0.3-17.3-4.7c-0.1-0.4-0.2-0.7-0.3-1.1c-2.1,0.5-4.2,0.7-6.4,0.7
					c-8.9,0-16.7-2.6-21.5-5.3c-3.7,1.9-7.4,3.1-10.8,3.1c-1.9,0-3.8-0.3-5.6-0.8c-1.7,1.1-3.6,2-5.7,2.7c1.4,2.2,1.9,4.5,1.3,6.8
					c-1.8,6.6-12.6,9.9-24.1,7.5c-11.5-2.5-19.4-9.8-17.6-16.4c0.7-2.6,2.9-4.7,5.9-6.2c-0.7-1.4-1.1-2.8-1.1-4.3
					c0-8,10.7-14.4,24-14.4h0.3c4.2-8.4,21.5-16.3,32.5-16.3c9.7,0,16.8,3.3,19.5,9.2c0.9-0.2,1.8-0.2,2.7-0.2
					c14.8,0,31.3,8.8,29.2,19c-0.1,0.5-0.6,1.3-1.4,2.3c3.3,0.8,5.9,2.6,6.9,5.2C806.2,233.5,801.5,239.4,793.9,241.8z"/>
				<path class="st43" d="M710,241.6c0,0-0.6-12.2,35.1-14c40.7-2,38.9,10.3,38.9,10.3l4.6,25.3c0,0-8.9-8.6-39.4-7.1
					c-27.7,1.3-39.4,14.5-39.4,14.5v-29H710z"/>
				<path class="st43" d="M777.1,219.6"/>
			</g>
			<path class="st61" d="M754.7,404.4c2.6-1,5.9,1,6.8,1.8c4.1,3.4,6.3,7.8,6.6,13.2"/>
			<g id="left_paw_4_" class="st42">
				<path class="st45" d="M711.2,423.7c-2-10.8,3.4-22.5,12.6-28.5c3.8-2.5,8.2-4,12.6-5.3c3.5-1,7.2-1.9,10.7-1
					c2.6,0.6,5,2.1,7.2,3.7c3.7,2.5,7.2,5.3,10,8.7c2.8,3.4,4.8,7.7,4.9,12.1c0.1,4.6-1.9,9.1-4.9,12.6c-1.2,1.5-2.6,2.8-4.1,4
					c-2.1,1.7-4.4,3.1-6.7,4.4s-4.7,2.4-7.2,3.3c-1.5,0.5-3.1,0.9-4.7,1.2c-5.6,0.8-11.3-0.4-16.7-2.2c-2.5-0.9-5-1.9-7-3.5
					C714.6,430.2,711.7,426.2,711.2,423.7z"/>
				<path class="st55" d="M709.9,425.3c4.2,1.3,12.5,0.7,16.2-1.7c5-3.3,18.7-19.6,15-23.1c-2.1-2-23.7,7.8-27,11.4
					C711.5,414.8,705,423.8,709.9,425.3z"/>
				<path class="st44" d="M746.4,412.7c1.4-0.6,3.6,0.1,4.7,0.4s2.1,0.9,3,1.7c4.1,3.4,6.8,8.6,7.1,13.9"/>
				<path class="st44" d="M736.9,421.2c1.4,0.4,2,0.7,3.4,1.5c4.8,2.5,6.8,8.6,7.1,13.9"/>
				<path class="st44" d="M754.7,404.4c2.6-1,5.9,1,6.8,1.8c4.1,3.4,6.3,7.8,6.6,13.2"/>
			</g>
		</g>
		<g id="Chefbear-2" class="st41">
			<g id="body_3_" class="st42">
				<g>
					<path class="st43" d="M670.7,476.7l117.5-1.6l83.2-7.8c-7.3-25.3-9.7-44.2-22-77.5c-16-43.1-38.6-46.1-47.3-47
						c-15.5-1.6-45,0-62.2,1.9c-17.2,2-46.8,21.5-57.5,36.7C663.7,408,670.7,476.7,670.7,476.7z"/>
				</g>
				<path class="st44" d="M711.3,408c-6.1,14.6-6,49.5-5.7,58.4"/>
				<path class="st44" d="M813.4,392.2c16.5,11.5,20.7,68.3,22.9,74.1"/>
				<line class="st44" x1="762.7" y1="352.2" x2="764.6" y2="368.7"/>
				<circle class="st44" cx="768.6" cy="355.4" r="2.5"/>
				<circle class="st44" cx="769.4" cy="363.9" r="2.5"/>
			</g>
			<g id="head_2_" class="st42">
				<g id="Head_8_">
					<path id="right_ear_out_3_" class="st45" d="M773.2,249.6c-3.4-6.4,1.8-14.1,5.1-16.9c2.6-2.4,12-10,25.2,3.5
						c8.6,8.8,9.9,14.1,7.4,20.3c-2.6,6.5-18.7,8.7-17.8,8.7"/>
					<path id="right_ear_in_3_" class="st46" d="M779.4,252.5c-2.1-7.2,4.3-21,16.9-11.1c15.5,12.2-0.6,18.4-6.6,19.2"/>
					<path id="left_ear_out_3_" class="st45" d="M730.4,254c3-6.7-2.4-16.2-5.2-18.3c-4.9-3.6-13.9-3.7-23.1,4.3
						c-9.8,8.5-12.3,16.7-8.3,22.8c3.9,6.1,14.9,9.9,19.5,9.1"/>
					<path id="left_ear_in_3_" class="st46" d="M725.9,256.7c1.5-7.5-6-20.9-17.9-9.7c-14.5,13.6,2.4,19.2,8.5,19.5"/>
					<path id="Head_9_" class="st45" d="M784.3,345.1c-11.8,5.4-24.6,8.4-37.4,7.1c-12.8-1.3-25.3-6.9-34.2-16.9
						c-8.9-9.9-13.8-24.3-11.7-37.9c1.2-7.8,4.6-15,8.5-21.7c7.7-12.8,18.2-24.4,31.7-29c13-4.4,27.6-1.7,39.2,6
						c11.6,7.7,20.1,20.4,24.6,34.3c3.6,11,4.6,23.4,1.2,34.5S794,340.6,784.3,345.1z"/>
					<path id="snoot_4_" class="st47" d="M754.5,286c-5.8,4-7,11-11.8,15.9c-2,2.1-4.5,3.6-6.7,5.7c-4.9,4.7-6.4,11.6-4.5,17.5
						c2.8,8.8,19.4,17.6,31.3,15.6c16.6-2.8,23-14.4,22.4-20.8c-0.6-6.3-2.6-8.7-6.4-13.4c-3.8-4.7-11.2-8.8-14.3-14.1
						c-1.2-1.9-2.8-4.9-4.8-6.3C757.6,284.7,756,284.9,754.5,286z"/>
					
						<ellipse id="nose_4_" transform="matrix(0.9991 -4.224509e-02 4.224509e-02 0.9991 -12.0189 32.2391)" class="st62" cx="756.8" cy="300.5" rx="10.2" ry="5.7"/>
					<path id="right_moth_3_" class="st44" d="M758.4,316.8c1.4,3.3,2.5,4,4.6,4.3c1.7,0.2,3.9-0.4,5.4-1.1c1.6-0.8,3.9-2.1,4-5.2"
						/>
					<path id="left_mouth_3_" class="st44" d="M758.4,316.8c-0.5,3.3-5.8,6-7.9,5.5c-2-0.6-5.4-2.5-6.8-5.6"/>
					<path id="chin_4_" class="st44" d="M754.9,330.9c1.5,1.1,3.2,1.6,4.8,1.5c1.6-0.2,3.1-1.1,4.2-2.4"/>
				</g>
				<g id="Left_eye_3_">
					<path class="st43" d="M743.8,286.2c-0.4-4.9-4.8-8.6-8.1-8.6c-3,0-7.2,2.5-7.6,7.4c-0.2,2.7,0,5.7,2.1,9.7
						c1.5,2.9,7.7,4.1,8.9,3.2C741.3,296.2,744.4,291.7,743.8,286.2z"/>
					<path class="st49" d="M730.7,291.5c0-3.4,2.5-6.3,5.8-6.4c3.4-0.2,6.2,2.5,6.3,5.9c0.1,2.1-2,5.3-2.2,5.4c-0.1,0-1.3,1.7-2,1.8
						c-1.7,0.1-2.6-0.3-2.6-0.3S730.7,296.9,730.7,291.5z"/>
					
						<ellipse transform="matrix(1.281136e-02 -0.9999 0.9999 1.281136e-02 435.8257 1024.6694)" class="st50" cx="736.9" cy="291.6" rx="4.6" ry="4.6"/>
					<path class="st47" d="M744.8,266.7c-0.1,2-2.7,3.9-4.1,4.2c-2.1,0.7-5.8,1.1-7.9,2.1c-1.9,0.9-4.8,2.9-6.4,0.2
						c-2.6-4.6,6.4-8.7,9.2-9.2C740,263.4,744.9,264.6,744.8,266.7z"/>
					
						<ellipse transform="matrix(1.281137e-02 -0.9999 0.9999 1.281137e-02 436.8444 1023.4495)" class="st27" cx="736.7" cy="290.5" rx="2.9" ry="2.9"/>
				</g>
				<g id="Right_eye_2_">
					<path class="st43" d="M765.9,283.2c0-5,4-8.9,7.3-9.3c3-0.3,7.9,3,8.1,7.9c0.2,4.9,0,7.2-0.9,8.8c-1.3,2.5-7.6,4.5-8.7,3.8
						C769.2,293,765.9,288.8,765.9,283.2z"/>
					<path class="st49" d="M779.6,287.4c-0.3-3.4-3-6-6.3-5.9c-3.3,0.2-5.9,3-5.8,6.4c0.1,2.1,2.4,5.1,2.5,5.1s1.5,1.6,2.2,1.6
						c1.7-0.1,2.5-0.6,2.5-0.6S780,292.7,779.6,287.4z"/>
					
						<ellipse transform="matrix(1.281134e-02 -0.9999 0.9999 1.281134e-02 475.403 1057.7859)" class="st50" cx="773.4" cy="288.1" rx="4.6" ry="4.6"/>
					<path class="st47" d="M766.6,264c2.4-1.7,5.5-2.4,8.5-2.2c3,0.2,6,1.6,7.8,3.9c0.6,0.7,1,1.6,0.9,2.5s-0.7,1.7-1.5,2.1
						s-1.7,0.5-2.6,0.5c-2.5-0.2-4.8-1.6-7.4-1.8c-0.9-0.1-1.9,0-2.8,0c-0.9,0-1.9-0.1-2.7-0.6c-0.8-0.4-1.5-1.2-1.6-2.2
						C765.2,265,766.1,264.3,766.6,264z"/>
					
						<ellipse transform="matrix(1.281143e-02 -0.9999 0.9999 1.281143e-02 475.1925 1055.7808)" class="st27" cx="772.3" cy="287.2" rx="2.9" ry="2.9"/>
				</g>
				<g id="hat">
					<path class="st43" d="M797.7,241.2c-7.7,2.3-15.4,0.2-17.3-4.9c-0.1-0.4-0.2-0.7-0.3-1.1c-2.1,0.5-4.2,0.7-6.4,0.6
						c-8.9-0.1-16.7-2.7-21.5-5.5c-3.7,1.9-7.4,3-10.8,3c-1.9,0-3.8-0.3-5.6-0.8c-1.7,1.1-3.6,2-5.7,2.6c1.4,2.2,1.9,4.5,1.2,6.8
						c-1.9,6.6-12.7,9.8-24.2,7.3c-11.5-2.6-19.3-10-17.5-16.6c0.7-2.6,2.9-4.7,6-6.1c-0.7-1.4-1.1-2.8-1.1-4.3
						c0.1-8,10.8-14.3,24.1-14.2h0.3c4.3-8.4,21.6-16.1,32.6-16c9.7,0.1,16.8,3.4,19.4,9.4c0.9-0.2,1.8-0.2,2.7-0.2
						c14.8,0.1,31.2,9.1,29,19.3c-0.1,0.5-0.6,1.3-1.4,2.3c3.3,0.8,5.9,2.7,6.9,5.3C810.1,233,805.3,238.9,797.7,241.2z"/>
					<path class="st43" d="M713.8,240.2c0,0-0.5-12.2,35.2-13.7c40.7-1.6,38.8,10.6,38.8,10.6l4.4,25.3c0,0-8.8-8.7-39.3-7.4
						c-27.7,1.1-39.5,14.1-39.5,14.1L713.8,240.2L713.8,240.2z"/>
					<path class="st43" d="M781.1,218.8"/>
				</g>
			</g>
			<path id="right_arm_2_" class="st52" d="M904.7,540c-1.3,7.7-26.3-0.2-30.9-7.2c-10.2-15.4-19.2-57.7-16.6-75.3
				c0.6-4.4,5.6-18,8.9-16.4C882.8,449.6,908.2,519.2,904.7,540z"/>
			<g id="right_paw_2_" class="st42">
				<path class="st45" d="M872.2,471.1c6.5-8.9,6.7-21.8,1-31.2c-2.4-3.9-5.7-7.2-9.1-10.2c-2.7-2.4-5.7-4.8-9.2-5.6
					c-2.7-0.6-5.4-0.2-8.1,0.2c-4.4,0.7-8.8,1.6-12.8,3.5s-7.7,4.8-9.7,8.8c-2.1,4.1-2.2,9-1.1,13.4c0.5,1.9,1.1,3.6,2,5.4
					c1.1,2.4,2.6,4.7,4.1,6.9c1.5,2.1,3.2,4.2,5,6.1c1.2,1.1,2.4,2.2,3.7,3.1c4.7,3.2,10.4,4.5,16,5.2c2.6,0.3,5.3,0.5,7.9-0.1
					C866.3,475.5,870.7,473.2,872.2,471.1z"/>
				<path id="patch_2_" class="st55" d="M875,469.7c-2.7-3.5-13.9-1.4-16.2-5.2c-3.1-5.1-8.4-25.7-3.6-27.3
					c2.8-0.9,16.5,6.2,22.6,17.7C879.7,458.4,876.1,471.2,875,469.7z"/>
				<path class="st44" d="M845.2,446c-1-1.1-3.3-1.5-4.4-1.7c-1.1-0.3-2.3-0.1-3.4,0.2c-5.2,1.3-9.8,4.8-12.4,9.5"/>
				<path class="st44" d="M850.1,457.7c-1.4-0.3-2.1-0.2-3.7-0.1c-5.4,0.2-9.8,4.8-12.4,9.5"/>
				<path class="st44" d="M841.4,434.9c-1.9-2-5.8-1.6-6.9-1.4c-5.2,1.3-9.1,4.3-11.7,9"/>
			</g>
			<g id="Seatbelt_3_" class="st42">
				<path class="st59" d="M697.6,341.2l148.7,128.9l-22.7,2L679.9,352.7c0,0,5.1-4.8,7.1-6C692.5,343.4,697.6,341.2,697.6,341.2z"/>
			</g>
			<g id="left_arm_1_" class="st42">
				<path class="st45" d="M671.1,477.5c-0.9,7.4,19.7,7.6,24.8,2.6c11.4-11,28.3-47.2,30.7-64.1c0.6-4.2,0.2-18.2-2.7-17.6
					C709.4,401.1,673.6,457.4,671.1,477.5z"/>
			</g>
			<g id="Wheel_2_" class="st42">
				<path class="st53" d="M855.7,469.8L855.7,469.8c-1.4-19.1-9.9-36.9-24-50c-14.2-13.3-32.7-20.6-52.2-20.6
					c-42.1,0-76.4,34.3-76.4,76.4c0,4.5,0.4,8.9,1.2,13.2c0.2-0.1,0.4-0.2,0.6-0.2c0,0,0,0,0.1,0s0.1,0,0.2,0l0,0l0,0
					c0.1,0,0.1,0,0.2,0c0.1,0,0.1,0,0.2,0.1c0.1,0,0.3,0,0.4,0.1c-0.1,0-0.1,0-0.1,0c0.1,0,0.2,0,0.2,0c0.1,0,0.2,0,0,0
					c0,0,0,0-0.1,0c0.4,0.1,1.4,0.3,0.6,0.1c0.1,0,0.6,0.1,0.3,0.1c0.1,0,0.1,0,0.2,0c0.3-0.2,0.7-0.3,1-0.3c0,0,0.1,0,0.2,0
					c0.1,0,0.2,0,0.3,0c0.2,0,0.3-0.1,0.5-0.1c0.2-0.1,0.4-0.2,0.7-0.1l0,0c1-0.2,2.1-0.4,3.1-0.5c0.8-0.1,1.5-0.1,2.1,0
					c0.6-0.4,1.5-0.4,2.2-0.2h0.1c1.1-0.2,2,0.1,2.6,0.9c0.1,0.1,0.2,0.3,0.4,0.4s0.4,0.2,0.6,0.2c0.9,0.4,1.6,1.1,1.8,2
					c0.3,1.1-0.1,2-0.7,2.7c0.5,0.3,0.9,0.8,1,1.4c0.3,1.2,0.4,2.5,0.2,3.7c0.6,0.7,1.3,1.5,1.9,2.2c0.6,0.7,1.4,1.6,1.6,2.5
					c0.5,0.1,0.9,0.2,1.4,0.3c0.6-0.1,1.2-0.2,1.8-0.3c6.2-1,13.2-2.2,19.1,0.3c1.1,0.5,0.8,1.9,0,2.5c-3.9,2.8-9.6,2-14,1.5
					c-2.4-0.3-4.7-0.6-7-1.1c-0.6,0.1-1.2,0.2-1.8,0.3c0.1,0.1,0.1,0.2,0.2,0.3c2.5,0.8,4.8,2.1,6.7,3.8c2.4,2.1,3.8,4.9,4.9,7.8
					v0.1c0.3,0.2,0.6,0.4,1,0.7v-0.1c0-0.2,0.1-0.4,0.3-0.3c0.2,0.2,0.5,0.3,0.7,0.5c0.1,0.1,0.2,0.2,0.3,0.3c0.5-1,1.2-2,2-2.9
					c3-3.2,7.5-3.7,11.6-3c3.3,0.6,6.5,2.3,9.3,4.5c1.4-0.6,3.1-1,4.8-0.9c4.9,0.3,8.5,3,11.2,6.7c1.1-3.8,3.4-6.9,7.8-8.5
					c3-1.1,6.5,0.2,8.7,2.3c0.1,0.1,0.1,0.1,0.2,0.2c0.9-3,2.6-5.6,5.3-7.2c2.7-1.6,5.8-1.6,8.6-0.7c3.2-2.2,7.9-1.4,11,0.8
					c0.5-0.4,1-0.8,1.6-1.1c2.7-1.7,5.7-1.4,8,0c0.3-3.1,0.6-6.1,1.3-9.2c0.9-3.8,2.3-7.6,3.9-11.1c1.2-2.8,3-5.2,4.8-7.7
					c0.1-0.2,0.3-0.4,0.4-0.6c-0.2-0.3-0.3-0.5-0.4-0.8c-0.2-0.6-0.2-1.2-0.1-1.8c-0.2-0.2-0.3-0.5-0.4-0.7
					c-0.4-1.4-0.2-2.8,0.1-4.2c-1-1.2-0.6-3.5,1.2-4.1c0.1,0,0.1-0.1,0.2-0.1c0.1,0,0.2-0.1,0.3-0.1c0.4-0.1,0.7-0.1,1-0.1
					c0.2,0,0.4,0,0.7,0.1c0.5,0,1,0,1.5-0.1s1,0,1.5,0.1c0.3,0,0.8,0,0.9,0c0.1,0,0.2,0,0.3,0c0.5,0,1,0,1.6,0.1l0,0
					c0.3,0,0.6,0,0.9,0c0.1,0,0.1,0,0.2,0h-0.1c0.1,0,0.2,0,0.2,0h0.1c0.1,0,0.1,0,0.2,0h-0.1c0.1,0,0.3,0,0.4,0
					c0,0,0.7-0.1,0.9-0.1c0.1,0,0.3,0,0.4,0c1.1-0.2,2.2-0.2,3.3,0L855.7,469.8z"/>
				<path class="st53" d="M738.1,505.6c-0.1,0-0.1,0-0.2,0c1.8,0.2,3.7,0.2,5.5,0C741.7,505.4,739.8,505.5,738.1,505.6z"/>
				<path class="st54" d="M831.2,420.3c-14.1-13.2-32.4-20.4-51.7-20.4c-41.7,0-75.6,33.9-75.6,75.6c0,4.4,0.4,8.5,1.2,12.7h0.1l0,0
					c0,0,0,0-0.1,0h0.1l10.7-0.7c0.2,0,0.3,0,0.5,0l1.4-0.1c-0.8-3.9-1.2-7.9-1.2-11.9c0-34,28.2-61.7,62.9-61.7
					c15.8,0,30.9,5.8,42.6,16.3c11.5,10.4,18.6,24.4,20.1,39.6l12.8,0.1C853.5,450.9,845.1,433.3,831.2,420.3z"/>
			</g>
			<g id="left_paw_3_" class="st42">
				<path class="st45" d="M711.2,423.7c-2-10.8,3.4-22.5,12.6-28.5c3.8-2.5,8.2-4,12.6-5.3c3.5-1,7.2-1.9,10.7-1
					c2.6,0.6,5,2.1,7.2,3.7c3.7,2.5,7.2,5.3,10,8.7c2.8,3.4,4.8,7.7,4.9,12.1c0.1,4.6-1.9,9.1-4.9,12.6c-1.2,1.5-2.6,2.8-4.1,4
					c-2.1,1.7-4.4,3.1-6.7,4.4s-4.7,2.4-7.2,3.3c-1.5,0.5-3.1,0.9-4.7,1.2c-5.6,0.8-11.3-0.4-16.7-2.2c-2.5-0.9-5-1.9-7-3.5
					C714.6,430.2,711.7,426.2,711.2,423.7z"/>
				<path class="st55" d="M709.9,425.3c4.2,1.3,12.5,0.7,16.2-1.7c5-3.3,18.7-19.6,15-23.1c-2.1-2-23.7,7.8-27,11.4
					C711.5,414.8,705,423.8,709.9,425.3z"/>
				<path class="st44" d="M746.4,412.7c1.4-0.6,3.6,0.1,4.7,0.4s2.1,0.9,3,1.7c4.1,3.4,6.8,8.6,7.1,13.9"/>
				<path class="st44" d="M736.9,421.2c1.4,0.4,2,0.7,3.4,1.5c4.8,2.5,6.8,8.6,7.1,13.9"/>
				<path class="st44" d="M754.7,404.4c2.6-1,5.9,1,6.8,1.8c4.1,3.4,6.3,7.8,6.6,13.2"/>
			</g>
		</g>
		<g id="Chefbear-1">
			<g id="body">
				<g>
					<path class="st43" d="M668.4,476.5l117.5-1.9l83.2-8c-7.4-25.3-9.8-44.2-22.2-77.4c-16.1-43.1-38.7-46-47.4-46.9
						c-15.5-1.6-45,0.1-62.2,2.1s-46.7,21.6-57.4,36.9C661.2,407.9,668.4,476.5,668.4,476.5z"/>
				</g>
				<path class="st44" d="M708.8,407.7c-6.1,14.6-5.9,49.5-5.5,58.4"/>
				<path class="st44" d="M810.9,391.7c16.5,11.5,20.9,68.2,23.1,74"/>
				<line class="st44" x1="760.1" y1="351.8" x2="762" y2="368.3"/>
				<circle class="st44" cx="766" cy="355" r="2.5"/>
				<circle class="st44" cx="766.8" cy="363.5" r="2.5"/>
			</g>
			<g id="Head">
				<path id="right_ear_out" class="st45" d="M768.9,249.7c-3.5-6.4,1.6-14.1,4.9-17c2.6-2.4,11.9-10.2,25.2,3.2
					c8.7,8.7,10.1,14,7.7,20.2c-2.5,6.5-18.6,8.9-17.7,8.9"/>
				<path id="right_ear_in" class="st46" d="M775.1,252.5c-2.2-7.2,4-21.1,16.8-11.3c15.7,12-0.4,18.4-6.4,19.3"/>
				<path id="left_ear_out" class="st45" d="M726.2,254.6c2.9-6.7-2.6-16.2-5.4-18.2c-4.9-3.5-13.9-3.5-23,4.6
					c-9.7,8.6-12.1,16.9-8,22.9c4,6,15,9.7,19.6,8.8"/>
				<path id="left_ear_in" class="st46" d="M721.7,257.4c1.4-7.5-6.3-20.8-18-9.5c-14.3,13.8,2.6,19.2,8.7,19.4"/>
				<path id="Head_1_" class="st45" d="M781.2,345c-11.7,5.6-24.5,8.7-37.3,7.6s-25.4-6.6-34.4-16.5c-9-9.8-14.1-24.1-12.2-37.7
					c1.1-7.8,4.4-15.1,8.2-21.8c7.5-12.9,17.9-24.6,31.3-29.4c12.9-4.6,27.6-2.1,39.3,5.5s20.4,20.1,25,34c3.7,11,4.9,23.3,1.6,34.5
					C799.6,332.3,790.9,340.4,781.2,345z"/>
				<path id="snoot" class="st47" d="M750.7,286.3c-5.7,4.1-6.9,11.1-11.6,16c-2,2.1-4.5,3.7-6.6,5.8c-4.8,4.8-6.3,11.7-4.3,17.6
					c2.9,8.8,19.6,17.4,31.5,15.2c16.6-3,22.8-14.7,22.1-21.1c-0.7-6.3-2.7-8.7-6.6-13.3c-3.9-4.7-11.3-8.7-14.5-13.9
					c-1.2-1.9-2.9-4.9-4.9-6.2C753.8,285,752.2,285.2,750.7,286.3z"/>
				
					<ellipse id="nose" transform="matrix(0.9985 -5.503318e-02 5.503318e-02 0.9985 -15.4129 41.902)" class="st63" cx="753.1" cy="300.8" rx="10.2" ry="5.7"/>
				<path id="right_moth" class="st44" d="M755,317c1.4,3.3,2.6,4,4.7,4.2c1.7,0.2,3.9-0.5,5.4-1.2c1.6-0.8,3.9-2.2,3.9-5.3"/>
				<path id="left_mouth_1_" class="st44" d="M755,317c-0.5,3.3-5.7,6.1-7.8,5.6c-2-0.6-5.4-2.4-6.9-5.5"/>
				<path id="chin_1_" class="st44" d="M751.6,331.2c1.5,1.1,3.2,1.6,4.8,1.4s3.1-1.1,4.2-2.5"/>
			</g>
			<g id="Right_eye">
				<path class="st43" d="M762,283.3c-0.1-5,3.9-9,7.2-9.4c3-0.3,7.9,2.9,8.2,7.8s0.1,7.2-0.8,8.8c-1.3,2.5-7.5,4.6-8.7,3.9
					C765.5,293.1,762.1,288.9,762,283.3z"/>
				<path class="st49" d="M775.8,287.4c-0.3-3.4-3.1-6-6.4-5.8s-5.9,3.1-5.7,6.5c0.1,2.1,2.5,5.1,2.6,5.1s1.5,1.6,2.2,1.6
					c1.7-0.1,2.5-0.6,2.5-0.6S776.3,292.7,775.8,287.4z"/>
				<circle class="st50" cx="769.7" cy="288.1" r="4.6"/>
				<path class="st47" d="M762.5,264.1c2.4-1.7,5.5-2.5,8.5-2.3s6,1.5,7.8,3.8c0.6,0.7,1,1.6,0.9,2.5s-0.7,1.7-1.5,2.1
					s-1.7,0.5-2.6,0.5c-2.5-0.2-4.8-1.5-7.4-1.7c-0.9-0.1-1.9,0-2.8,0c-0.9,0-1.9-0.1-2.7-0.6c-0.8-0.4-1.5-1.2-1.6-2.2
					C761.1,265.2,762,264.4,762.5,264.1z"/>
				<circle class="st27" cx="768.5" cy="287.2" r="2.9"/>
			</g>
			<g id="Left_eye">
				<path class="st43" d="M740,286.6c-0.5-4.9-4.9-8.5-8.2-8.5c-3,0-7.2,2.6-7.5,7.5c-0.2,2.7,0.1,5.7,2.2,9.7
					c1.5,2.9,7.8,4,8.9,3.1C737.6,296.7,740.6,292.1,740,286.6z"/>
				<path class="st49" d="M726.9,292.1c0-3.4,2.4-6.3,5.7-6.5c3.4-0.2,6.2,2.4,6.4,5.8c0.1,2.1-1.9,5.3-2.1,5.4
					c-0.1,0-1.3,1.7-2,1.8c-1.7,0.1-2.6-0.3-2.6-0.3S727,297.5,726.9,292.1z"/>
				<circle class="st50" cx="733" cy="292.1" r="4.6"/>
				<path class="st47" d="M740.7,267.1c-0.1,2-2.7,3.9-4,4.3c-2.1,0.7-5.8,1.2-7.9,2.2c-1.9,0.9-4.8,3-6.4,0.3
					c-2.7-4.6,6.3-8.8,9.1-9.3C735.9,263.9,740.8,265,740.7,267.1z"/>
				<circle class="st27" cx="732.9" cy="290.9" r="2.9"/>
			</g>
			<g id="Seatbelt_2_">
				<path class="st59" d="M697.6,341.2l148.7,128.9l-22.7,2L679.9,352.7c0,0,5.1-4.8,7.1-6C692.5,343.4,697.6,341.2,697.6,341.2z"/>
			</g>
			<g id="arm">
				<path class="st45" d="M671.1,477.5c-0.9,7.4,19.7,7.6,24.8,2.6c11.4-11,28.3-47.2,30.7-64.1c0.6-4.2,0.2-18.2-2.7-17.6
					C709.4,401.1,673.6,457.4,671.1,477.5z"/>
			</g>
			<g id="Wheel">
				<path class="st53" d="M855.7,469.8L855.7,469.8c-1.4-19.1-9.9-36.9-24-50c-14.2-13.3-32.7-20.6-52.2-20.6
					c-42.1,0-76.4,34.3-76.4,76.4c0,4.5,0.4,8.9,1.2,13.2c0.2-0.1,0.4-0.2,0.6-0.2c0,0,0,0,0.1,0s0.1,0,0.2,0l0,0l0,0
					c0.1,0,0.1,0,0.2,0c0.1,0,0.1,0,0.2,0.1c0.1,0,0.3,0,0.4,0.1c-0.1,0-0.1,0-0.1,0c0.1,0,0.2,0,0.2,0c0.1,0,0.2,0,0,0
					c0,0,0,0-0.1,0c0.4,0.1,1.4,0.3,0.6,0.1c0.1,0,0.6,0.1,0.3,0.1c0.1,0,0.1,0,0.2,0c0.3-0.2,0.7-0.3,1-0.3c0,0,0.1,0,0.2,0
					c0.1,0,0.2,0,0.3,0c0.2,0,0.3-0.1,0.5-0.1c0.2-0.1,0.4-0.2,0.7-0.1l0,0c1-0.2,2.1-0.4,3.1-0.5c0.8-0.1,1.5-0.1,2.1,0
					c0.6-0.4,1.5-0.4,2.2-0.2h0.1c1.1-0.2,2,0.1,2.6,0.9c0.1,0.1,0.2,0.3,0.4,0.4s0.4,0.2,0.6,0.2c0.9,0.4,1.6,1.1,1.8,2
					c0.3,1.1-0.1,2-0.7,2.7c0.5,0.3,0.9,0.8,1,1.4c0.3,1.2,0.4,2.5,0.2,3.7c0.6,0.7,1.3,1.5,1.9,2.2c0.6,0.7,1.4,1.6,1.6,2.5
					c0.5,0.1,0.9,0.2,1.4,0.3c0.6-0.1,1.2-0.2,1.8-0.3c6.2-1,13.2-2.2,19.1,0.3c1.1,0.5,0.8,1.9,0,2.5c-3.9,2.8-9.6,2-14,1.5
					c-2.4-0.3-4.7-0.6-7-1.1c-0.6,0.1-1.2,0.2-1.8,0.3c0.1,0.1,0.1,0.2,0.2,0.3c2.5,0.8,4.8,2.1,6.7,3.8c2.4,2.1,3.8,4.9,4.9,7.8
					v0.1c0.3,0.2,0.6,0.4,1,0.7v-0.1c0-0.2,0.1-0.4,0.3-0.3c0.2,0.2,0.5,0.3,0.7,0.5c0.1,0.1,0.2,0.2,0.3,0.3c0.5-1,1.2-2,2-2.9
					c3-3.2,7.5-3.7,11.6-3c3.3,0.6,6.5,2.3,9.3,4.5c1.4-0.6,3.1-1,4.8-0.9c4.9,0.3,8.5,3,11.2,6.7c1.1-3.8,3.4-6.9,7.8-8.5
					c3-1.1,6.5,0.2,8.7,2.3c0.1,0.1,0.1,0.1,0.2,0.2c0.9-3,2.6-5.6,5.3-7.2c2.7-1.6,5.8-1.6,8.6-0.7c3.2-2.2,7.9-1.4,11,0.8
					c0.5-0.4,1-0.8,1.6-1.1c2.7-1.7,5.7-1.4,8,0c0.3-3.1,0.6-6.1,1.3-9.2c0.9-3.8,2.3-7.6,3.9-11.1c1.2-2.8,3-5.2,4.8-7.7
					c0.1-0.2,0.3-0.4,0.4-0.6c-0.2-0.3-0.3-0.5-0.4-0.8c-0.2-0.6-0.2-1.2-0.1-1.8c-0.2-0.2-0.3-0.5-0.4-0.7
					c-0.4-1.4-0.2-2.8,0.1-4.2c-1-1.2-0.6-3.5,1.2-4.1c0.1,0,0.1-0.1,0.2-0.1c0.1,0,0.2-0.1,0.3-0.1c0.4-0.1,0.7-0.1,1-0.1
					c0.2,0,0.4,0,0.7,0.1c0.5,0,1,0,1.5-0.1s1,0,1.5,0.1c0.3,0,0.8,0,0.9,0c0.1,0,0.2,0,0.3,0c0.5,0,1,0,1.6,0.1l0,0
					c0.3,0,0.6,0,0.9,0c0.1,0,0.1,0,0.2,0h-0.1c0.1,0,0.2,0,0.2,0h0.1c0.1,0,0.1,0,0.2,0h-0.1c0.1,0,0.3,0,0.4,0
					c0,0,0.7-0.1,0.9-0.1c0.1,0,0.3,0,0.4,0c1.1-0.2,2.2-0.2,3.3,0L855.7,469.8z"/>
				<path class="st53" d="M738.1,505.6c-0.1,0-0.1,0-0.2,0c1.8,0.2,3.7,0.2,5.5,0C741.7,505.4,739.8,505.5,738.1,505.6z"/>
				<path class="st54" d="M831.2,420.3c-14.1-13.2-32.4-20.4-51.7-20.4c-41.7,0-75.6,33.9-75.6,75.6c0,4.4,0.4,8.5,1.2,12.7h0.1l0,0
					c0,0,0,0-0.1,0h0.1l10.7-0.7c0.2,0,0.3,0,0.5,0l1.4-0.1c-0.8-3.9-1.2-7.9-1.2-11.9c0-34,28.2-61.7,62.9-61.7
					c15.8,0,30.9,5.8,42.6,16.3c11.5,10.4,18.6,24.4,20.1,39.6l12.8,0.1C853.5,450.9,845.1,433.3,831.2,420.3z"/>
			</g>
			<g id="Layer_50">
				<path class="st43" d="M793.9,241.8c-7.7,2.4-15.4,0.3-17.3-4.7c-0.1-0.4-0.2-0.7-0.3-1.1c-2.1,0.5-4.2,0.7-6.4,0.7
					c-8.9,0-16.7-2.6-21.5-5.3c-3.7,1.9-7.4,3.1-10.8,3.1c-1.9,0-3.8-0.3-5.6-0.8c-1.7,1.1-3.6,2-5.7,2.7c1.4,2.2,1.9,4.5,1.3,6.8
					c-1.8,6.6-12.6,9.9-24.1,7.5c-11.5-2.5-19.4-9.8-17.6-16.4c0.7-2.6,2.9-4.7,5.9-6.2c-0.7-1.4-1.1-2.8-1.1-4.3
					c0-8,10.7-14.4,24-14.4h0.3c4.2-8.4,21.5-16.3,32.5-16.3c9.7,0,16.8,3.3,19.5,9.2c0.9-0.2,1.8-0.2,2.7-0.2
					c14.8,0,31.3,8.8,29.2,19c-0.1,0.5-0.6,1.3-1.4,2.3c3.3,0.8,5.9,2.6,6.9,5.2C806.2,233.5,801.5,239.4,793.9,241.8z"/>
				<path class="st43" d="M710,241.6c0,0-0.6-12.2,35.1-14c40.7-2,38.9,10.3,38.9,10.3l4.6,25.3c0,0-8.9-8.6-39.4-7.1
					c-27.7,1.3-39.4,14.5-39.4,14.5v-29H710z"/>
				<path class="st43" d="M777.1,219.6"/>
			</g>
			<path class="st44" d="M754.7,404.4c2.6-1,5.9,1,6.8,1.8c4.1,3.4,6.3,7.8,6.6,13.2"/>
			<g id="left_paw">
				<path class="st45" d="M711.2,423.7c-2-10.8,3.4-22.5,12.6-28.5c3.8-2.5,8.2-4,12.6-5.3c3.5-1,7.2-1.9,10.7-1
					c2.6,0.6,5,2.1,7.2,3.7c3.7,2.5,7.2,5.3,10,8.7c2.8,3.4,4.8,7.7,4.9,12.1c0.1,4.6-1.9,9.1-4.9,12.6c-1.2,1.5-2.6,2.8-4.1,4
					c-2.1,1.7-4.4,3.1-6.7,4.4s-4.7,2.4-7.2,3.3c-1.5,0.5-3.1,0.9-4.7,1.2c-5.6,0.8-11.3-0.4-16.7-2.2c-2.5-0.9-5-1.9-7-3.5
					C714.6,430.2,711.7,426.2,711.2,423.7z"/>
				<path class="st55" d="M709.9,425.3c4.2,1.3,12.5,0.7,16.2-1.7c5-3.3,18.7-19.6,15-23.1c-2.1-2-23.7,7.8-27,11.4
					C711.5,414.8,705,423.8,709.9,425.3z"/>
				<path class="st44" d="M746.4,412.7c1.4-0.6,3.6,0.1,4.7,0.4s2.1,0.9,3,1.7c4.1,3.4,6.8,8.6,7.1,13.9"/>
				<path class="st44" d="M736.9,421.2c1.4,0.4,2,0.7,3.4,1.5c4.8,2.5,6.8,8.6,7.1,13.9"/>
				<path class="st44" d="M754.7,404.4c2.6-1,5.9,1,6.8,1.8c4.1,3.4,6.3,7.8,6.6,13.2"/>
			</g>
			<g id="patch">
				<path class="st55" d="M704.2,427.2c3.6,4.9,15.5,1,20.1-2.5c6.2-4.8,23.3-28.9,18.7-34.1c-2.6-3-29,13.4-33,18.8
					C706.8,413.6,701,422.9,704.2,427.2z"/>
			</g>
		</g>
	</g>
	<g id="Car_exterior">
		<path id="Hood_2_" class="st64" d="M1042.7,749c0,0,9.5,35.8-429.2,38.2S183,749,183,749s-11-46.9,0-77.2s9.2-38.3,9.6-48.5
			c0.5-10.2,0,0,1.7-29.9c1.8-31,30.3-40.3,30.3-40.3l389,79.5l390.9-79.6c0,0,18.6,9.3,18.5,39.4c-0.1,30.8-0.1,21.6-0.1,30.8
			s10.2,20.1,19.8,48.5C1052.3,700.1,1042.7,749,1042.7,749z"/>
		<path id="Body_2_" class="st64" d="M999.3,524.3c-38-142.5-66.2-205.3-74.6-226c-8.8-21.4-49.1-113-77.8-132.4
			s-234.5-19.7-234.5-19.7s-204.7,0-234,20.8S309,278.4,299.9,297.9c-8,17.2-55.8,170.1-73.4,225.9c-1.7,5.5-3,11.1-3.9,16.9
			c-0.9,5.7-1.3,11.5-1.3,17.3c0,2,1,3.8,2.5,4.9c16.3,11.2,114.4,69.6,388.6,69.6c274.6,0,372.3-58.7,388.3-69.8
			c1.5-1.1,2.5-2.8,2.5-4.7v-0.2C1003.5,546.5,1002.2,535.2,999.3,524.3z M944.3,440.5c-9.9,10.5-95.8,30.3-330.8,30.3
			S288.2,449.7,280,439.3c-8.2-10.3,70.6-192.2,99.9-227.1c29.4-34.8,76.6-31.4,232.8-31.4s206.3-2.4,235.1,31.5
			C876.7,246.2,954.2,430,944.3,440.5z"/>
		<path id="Bumper_2_" class="st64" d="M182.7,749.7l429.8-0.5l429.4-0.5c0,0,3.2,11.6-7.8,59.7c-11.1,48.1-14.3,42.3-18.2,45.9
			c-3.9,3.6-76.5,12.3-104.2,0s-571.5-12.7-599.2,0s-98.5,2.1-102.6,0s-11.7,1.4-18.7-46.8C184.1,759.2,182.7,749.7,182.7,749.7z"/>
		<path id="Grill_2_" class="st19" d="M817.2,716.4c-25,12.5-157,12.5-204.7,12.5c-51.3,0-179.7-5.5-205-15.1
			c-25.4-9.7-55.5-43.6-56.8-52.6c-0.8-5.8,2.5-9.8,7.5-9.8c19.7,0,176.4,26.7,254.1,27.1s234.7-27.1,253.8-27.1
			c4.8,0,8.1,4.1,7.4,10.1C872.5,670.1,842.2,703.8,817.2,716.4z"/>
		<path id="Right_headlight_2_" class="st65" d="M803.1,560.7c5-6.2,72.4-13.8,94.6-38.2c17.8-19.5,51.3-29.3,66.4-29.3
			c8.1,0,17.1,2.9,20.7,19.1c3.1,13.8-20.2,62-42.6,72.8c-22.4,10.8-81.6,15.5-98.3,15.5s-22.5,0-32.2-8.2
			C804.4,583.7,798.1,566.9,803.1,560.7z"/>
		<path id="Left_headlight_2_" class="st65" d="M424.5,565.8c-5-6.2-72.4-13.8-94.6-38.2c-17.8-19.5-51.3-29.3-66.4-29.3
			c-8.1,0-17.1,2.9-20.7,19.1c-3.1,13.8,20.2,62,42.6,72.8s81.6,15.5,98.3,15.5s22.5,0,32.2-8.2C423.2,588.8,429.5,572,424.5,565.8z
			"/>
	</g>
</g>
</svg>
