<?xml version="1.0" encoding="utf-8"?>
<!-- Generator: Adobe Illustrator 25.2.0, SVG Export Plug-In . SVG Version: 6.00 Build 0)  -->
<svg version="1.1" id="Layer_1" xmlns="http://www.w3.org/2000/svg" xmlns:xlink="http://www.w3.org/1999/xlink" x="0px" y="0px"
	 viewBox="0 0 1650.8 1006.2" style="enable-background:new 0 0 1650.8 1006.2;" xml:space="preserve">
<style type="text/css">
	.st0{fill:#C0BEC2;stroke:#000000;stroke-miterlimit:10;}
	.st1{fill:#EFCDB1;stroke:#000000;stroke-miterlimit:10;}
	.st2{fill:#EFD3BF;stroke:#000000;stroke-miterlimit:10;}
	.st3{opacity:0.44;fill:none;stroke:#B29E8E;stroke-miterlimit:10;enable-background:new    ;}
	.st4{opacity:0.44;}
	.st5{fill:#B29E8E;}
	.st6{fill:#B29E8E;stroke:#000000;stroke-miterlimit:10;}
	.st7{fill:#770000;stroke:#000000;stroke-miterlimit:10;}
	.st8{fill:#00AA00;stroke:#000000;stroke-miterlimit:10;}
	.st9{fill:#000077;stroke:#000000;stroke-width:0.75;stroke-miterlimit:10;}
	.st10{fill:#FFFF00;stroke:#000000;stroke-miterlimit:10;}
	.st11{fill:#00CC00;stroke:#000000;stroke-miterlimit:10;}
	.st12{fill:#DD0000;stroke:#000000;stroke-miterlimit:10;}
	.st13{fill:none;stroke:#000000;stroke-miterlimit:10;}
	.st14{fill:none;stroke:#000000;stroke-linecap:round;stroke-miterlimit:10;}
	.st15{opacity:0.5;fill:#FFFFFF;enable-background:new    ;}
	.st16{fill:#FFFFFF;stroke:#000000;stroke-miterlimit:10;}
	.st17{fill:#4F4242;stroke:#000000;stroke-miterlimit:10;}
	.st18{fill:#5B5151;stroke:#000000;stroke-miterlimit:10;}
	.st19{fill:#444444;stroke:#000000;stroke-miterlimit:10;}
	.st20{fill:#222222;stroke:#000000;stroke-miterlimit:10;}
	.st21{fill:#826868;stroke:#000000;stroke-miterlimit:10;}
	.st22{fill:#9B7676;stroke:#000000;stroke-miterlimit:10;}
	.st23{fill:#B78B8B;stroke:#000000;stroke-miterlimit:10;}
	.st24{fill:#9B7979;stroke:#000000;stroke-miterlimit:10;}
	.st25{fill:#FFFFFF;stroke:#0C055E;stroke-width:0.5;stroke-miterlimit:10;}
	.st26{fill:none;stroke:#0C055E;stroke-width:0.5;stroke-miterlimit:10;}
	.st27{fill:#FFFFFF;}
	.st28{fill:#D42E2C;stroke:#0C055E;stroke-width:0.5;stroke-miterlimit:10;}
	.st29{fill:#00AF9A;stroke:#0C055E;stroke-width:0.5;stroke-miterlimit:10;}
	.st30{fill:#9CE0FF;stroke:#0C055E;stroke-width:0.5;stroke-miterlimit:10;}
	.st31{fill:#FF6A69;stroke:#0C055E;stroke-width:0.5;stroke-miterlimit:10;}
	.st32{fill:#0CE0C7;stroke:#0C055E;stroke-width:0.5;stroke-miterlimit:10;}
	.st33{fill:#5E0078;stroke:#0C055E;stroke-width:0.5;stroke-miterlimit:10;}
	.st34{fill:#7951E8;stroke:#0C055E;stroke-width:0.5;stroke-miterlimit:10;}
	.st35{stroke:#0C055E;stroke-width:0.5;stroke-miterlimit:10;}
	.st36{fill:#7D57E9;stroke:#0C055E;stroke-width:0.5;stroke-miterlimit:10;}
	.st37{fill:#FFD110;stroke:#0C055E;stroke-width:0.5;stroke-miterlimit:10;}
	.st38{display:none;}
	.st39{display:inline;fill:#FFFFFF;stroke:#0F2E6B;stroke-width:0.5;stroke-miterlimit:10;}
	.st40{display:inline;fill:none;stroke:#0F2E6B;stroke-width:0.5;stroke-miterlimit:10;}
	.st41{display:inline;fill:#FFFFFF;}
	.st42{display:inline;}
	.st43{fill:#FFFFFF;stroke:#0F2E6B;stroke-width:0.5;stroke-miterlimit:10;}
	.st44{fill:#D42E2C;stroke:#0F2E6B;stroke-width:0.5;stroke-miterlimit:10;}
	.st45{fill:none;stroke:#0F2E6B;stroke-width:0.5;stroke-miterlimit:10;}
	.st46{fill:#00AF9A;stroke:#0F2E6B;stroke-width:0.5;stroke-miterlimit:10;}
	.st47{fill:#9CE0FF;stroke:#0F2E6B;stroke-width:0.5;stroke-miterlimit:10;}
	.st48{fill:#FF6A69;stroke:#0F2E6B;stroke-width:0.5;stroke-miterlimit:10;}
	.st49{display:inline;fill:#1EAF9A;stroke:#0F2E6B;stroke-width:0.5;stroke-miterlimit:10;}
	.st50{display:inline;fill:#00AF9A;stroke:#0F2E6B;stroke-width:0.5;stroke-miterlimit:10;}
	.st51{fill:#0CE0C7;stroke:#0F2E6B;stroke-width:0.5;stroke-miterlimit:10;}
	.st52{fill:#5E0078;stroke:#0F2E6B;stroke-width:0.5;stroke-miterlimit:10;}
	.st53{fill:#7951E8;stroke:#0F2E6B;stroke-width:0.5;stroke-miterlimit:10;}
	.st54{stroke:#0F2E6B;stroke-width:0.5;stroke-miterlimit:10;}
	.st55{fill:#7D57E9;stroke:#0F2E6B;stroke-width:0.5;stroke-miterlimit:10;}
	.st56{fill:#FFCE8B;stroke:#0F2E6B;stroke-width:0.5;stroke-miterlimit:10;}
	.st57{display:inline;stroke:#0F2E6B;stroke-width:0.5;stroke-miterlimit:10;}
	.st58{display:inline;fill:#1EAF9A;}
	.st59{fill:#005500;stroke:#000000;stroke-miterlimit:10;}
	.st60{fill:#FFFF99;stroke:#000000;stroke-miterlimit:10;}
</style>
<g id="Background">
	<path id="Pavement" class="st0" d="M1648.8,1006.2H-2V115h383.9c0,0,14-11,23.9-37.4c8.2-27-9.3-39.7-9.3-39.7L-2,39V24h401.8h18.6
		h934.2v14H431.7L626,115l1022.8,388.1V1006.2z"/>
	<polygon id="Sidewalk_path" class="st1" points="628,115 433.7,37.9 466.1,37.9 1348.2,37.9 1348.2,45.2 480.2,42.3 681.8,105 
		628.2,105.3 	"/>
	<g id="Sidewalk_1_">
		<polygon id="Sidewalk" class="st2" points="1650.8,503.1 628,115 628.2,105.3 1348.2,105.3 1348.3,138.1 1650.8,182.9 		"/>
		<line id="Crack_10" class="st3" x1="1518.5" y1="428.8" x2="1650.8" y2="353.6"/>
		<line id="Crack_9" class="st3" x1="1394.9" y1="383.9" x2="1650.8" y2="277.1"/>
		<line id="Crack_8" class="st3" x1="1276.9" y1="341" x2="1650.8" y2="223.3"/>
		<line id="Crack_7" class="st3" x1="1167" y1="301.1" x2="1646.2" y2="183.7"/>
		<line id="Crack_6" class="st3" x1="1067.3" y1="264.9" x2="1559.6" y2="169.4"/>
		<line id="Crack_5" class="st3" x1="971.1" y1="229.9" x2="1469.5" y2="156.1"/>
		<line id="Crack_4" class="st3" x1="885.1" y1="198.7" x2="1387.3" y2="143.5"/>
		<line id="Crack_3" class="st3" x1="807.6" y1="170.5" x2="1348.2" y2="126.5"/>
		<line id="Crack_2" class="st3" x1="734.5" y1="145.7" x2="1348.2" y2="105.3"/>
		<g id="Crack_1" class="st4">
			<polygon class="st5" points="683.4,125.8 683.3,124.8 973.4,105.8 989.1,105.8 989.1,105.8 			"/>
		</g>
		<polygon id="Sidewalk_shadow" class="st6" points="1650.8,503.1 628,115 628.2,105.3 1650.8,476.9 		"/>
	</g>
	<polygon id="School" class="st7" points="1650.8,182.9 1348.3,138.1 1348.3,0 1650.8,0 	"/>
	<path id="Grass_Right" class="st8" d="M383.9,115H0V39l398.5-1.1c0,0,11.5,9.2,11.5,29.2C410,88.3,383.9,115,383.9,115z"/>
	<polygon id="Grass_left" class="st8" points="1348.2,105.3 681.8,105 480.2,42.3 1348.2,45.2 	"/>
	<rect id="Grass_Top" class="st8" width="1348.2" height="24"/>
	<path id="Bike_rack" class="st9" d="M1425.2,87.8L1020.4,53l-17-1.8c-2.6,0-5.1,1-7,2.9L919.8,129l0,0l-2.7,3.5
		c-0.7,1.7,0.7,3.6,2.6,3.4l86.5-8.7l317.7,65l-32.9,33.3c-0.9,0.9-1.4,2.1-1.4,3.3c0,1,0.3,2,0.9,2.8c0.3,0.4,0.8,0.7,1.4,0.7
		c0.1,0,0.2,0,0.3,0l126.2-20.1l7.7-0.9c1.6-0.2,2.9-1.6,2.9-3.2l1.6-114.6C1430.7,91.9,1430.7,87.8,1425.2,87.8z M999.3,120.5
		L929,128l70.3-69.7V120.5z M1394.9,99.3c0-2,1.7-3.5,3.7-3.3l18.3,1.8l-22,22.3V99.3z M1366.3,98.4c0-3,2.5-5.3,5.5-5l13.2,1.3
		c2.6,0.2,4.5,2.4,4.5,5v25.9l-23.2,23.5V98.4z M1366.3,158.8l23.2-23.8v53.6c0,3.1-2.9,5.5-5.9,4.9l-13.2-2.5
		c-2.4-0.5-4.1-2.5-4.1-4.9V158.8z M1338.2,95.6c0-3,2.5-5.3,5.5-5l12.8,1.2c2.6,0.2,4.5,2.4,4.5,5v57.6l-22.8,23.1V95.6z
		 M1361,164.3v18.8c0,3.1-2.9,5.5-5.9,4.9l-14.5-2.8L1361,164.3z M1023.1,118.1c0,3.1-2.9,5.5-6,4.9l-6.9-1.3
		c-2.4-0.4-4.1-2.5-4.1-4.9l0.1-53.4c0-2.9,2.5-5.2,5.5-5l6.7,0.6c2.6,0.2,4.5,2.4,4.5,5v54.1
		C1022.9,118.1,1023.1,118.1,1023.1,118.1z M1045.1,122.4c0,3.1-2.9,5.5-5.9,4.9l-6.7-1.3c-2.4-0.5-4.1-2.5-4.1-4.9V65.6
		c0-3,2.5-5.3,5.5-5l7,0.7h0.1c2.4,0.2,4.1,2.2,4.1,4.6V122.4z M1067.3,126.6c0,3.1-2.9,5.5-6,4.9l-6.8-1.3
		c-2.4-0.5-4.1-2.5-4.1-4.9V67.7c0-2.9,2.5-5.3,5.5-5l6.8,0.7c2.6,0.2,4.5,2.4,4.5,5L1067.3,126.6L1067.3,126.6z M1089.5,130.9
		c0,3.1-2.9,5.5-5.9,4.9l-6.8-1.3c-2.4-0.5-4.1-2.5-4.1-4.9V69.9c0-3,2.5-5.3,5.5-5l6.8,0.7c2.6,0.2,4.5,2.4,4.5,5V130.9z
		 M1111.8,135.2c0,3.1-2.9,5.5-5.9,4.9l-6.9-1.3c-2.4-0.5-4.1-2.5-4.1-4.9V72c0-3,2.5-5.3,5.5-5l6.9,0.7c2.6,0.2,4.5,2.4,4.5,5
		V135.2z M1137.7,140.2c0,3.1-2.9,5.5-5.9,4.9l-10.6-2c-2.4-0.5-4.1-2.5-4.1-4.9v-64c0-3,2.5-5.3,5.5-5l10.6,1
		c2.6,0.2,4.5,2.4,4.5,5V140.2z M1161.7,144.8c0,3.2-2.9,5.5-5.9,4.9l-8.6-1.7c-2.3-0.5-4-2.5-4-4.9V76.7c0-3,2.5-5.3,5.5-5l8.6,0.8
		c2.6,0.2,4.5,2.4,4.5,5L1161.7,144.8L1161.7,144.8z M1187,149.7c0,3.1-2.9,5.5-5.9,4.9l-10-1.9c-2.4-0.4-4.1-2.5-4.1-4.9V79
		c0-3,2.5-5.3,5.5-5l10,1c2.6,0.2,4.5,2.4,4.5,5V149.7z M1217.3,155.5c0,3.1-2.9,5.5-6,4.9l-14.9-2.9c-2.3-0.4-4.1-2.5-4.1-4.9V81.5
		c0-3,2.5-5.3,5.5-5l14.9,1.5c2.6,0.2,4.5,2.4,4.5,5L1217.3,155.5L1217.3,155.5z M1245.9,161c0,3.1-2.9,5.5-5.9,4.9l-13.2-2.5
		c-2.4-0.5-4.1-2.5-4.1-4.9v-74c0-3,2.5-5.3,5.5-5l13.2,1.3c2.6,0.2,4.5,2.4,4.5,5V161z M1274.5,166.5c0,3.1-2.9,5.5-5.9,4.9
		l-13.2-2.5c-2.4-0.5-4.1-2.5-4.1-4.9V87.2c0-3,2.5-5.3,5.5-5l13.2,1.3c2.6,0.2,4.5,2.4,4.5,5V166.5z M1303.1,172
		c0,3.1-2.9,5.5-5.9,4.9l-13.2-2.5c-2.4-0.5-4.1-2.5-4.1-4.9V90c0-2.9,2.5-5.3,5.5-5l13.2,1.3c2.6,0.2,4.5,2.4,4.5,5V172z
		 M1312.5,179.9c-2.4-0.5-4.1-2.5-4.1-4.9V92.8c0-3,2.5-5.3,5.5-5l14.3,1.4c2.6,0.2,4.5,2.4,4.5,5l1,85.6c0,1.5-0.6,2.9-1.6,3.9l0,0
		L1312.5,179.9z M1303.5,223.3l28.8-29.5l66.1,13.5L1303.5,223.3z M1418.7,195.3c0,2.6-2.4,4.6-5,4.1l-15.1-2.9
		c-2.1-0.4-3.7-2.3-3.7-4.4v-62.5l24.7-25.4L1418.7,195.3z"/>
	<g id="Balloons">
		<path class="st10" d="M1405.9,44.6c-5.2-8.8-1-17.1,6.3-19.6c6.7-2.3,15,1.2,16.2,10.5c1.2,9.6,0.3,17.9-6.1,20
			C1416,57.6,1410.7,52.7,1405.9,44.6z"/>
		<path class="st11" d="M1424.6,23.4c-0.7-10.8,5.9-15.6,13.2-15.6c7.3,0,14.1,4.8,13.2,15.6c-0.9,10.4-5.9,18.9-13.2,18.9
			S1425.3,33.8,1424.6,23.4z"/>
		<path class="st12" d="M1467.5,61c4.8-9.1,0.2-19.8-7.5-22.6c-7.7-2.9-19.3,2.1-20.4,12.3c-1.2,10.8-0.2,19.8,7.5,22.6
			S1462.6,70.2,1467.5,61z"/>
		<path class="st13" d="M1436.4,42.3c-3,7.1-3.6,8.1-4,13.3c-0.7,10.5,3.2,18,5,22.6c8.7,22.5-5.9,48.7-5.8,48.7s2.9-14,4.2-30.9
			c0.4-5,0.5-9-1.5-13.1c-0.6-1.2-0.9-1.5-8-10.8c-2.7-3.6-3.4-4.5-4.1-6.1c-1.7-3.8-1.9-7.5-1.8-10.1"/>
		<path class="st13" d="M1445.7,72.7c-4.1,4.2-2.9,11.2-1.7,15.9c5.5,22.3-10.8,37-12.5,38.2"/>
		<path class="st14" d="M1431.5,126.9c-0.9,0.9-2,5.4-5.8,5.8c-6.2,0.7-7.5-3-7.5-3.5c0-1.5,0.3,1.4,5.5,0.8
			C1428.3,129.5,1431.6,126.9,1431.5,126.9c0-0.1-0.5,5-13.4,5"/>
		<path class="st14" d="M1433.8,143.5c-1.2-4.4-2.8-17.2-2.5-16.1c0.8,2.4,1.2,1.2,0,0c-3.9-3.9-3.7,4.9-3.3,6
			c2.2,7.1-0.7-5.7,4.1-5.6c0.9,0-0.6,6.1,0.8,7c4.2,2.6,2-4.1-0.8-7c-2-2.1-2.2,10.3-1.8,13.5"/>
		<path class="st15" d="M1408.8,40.6c-0.3,0.5-1.9,0.6-2.4,0c-1.3-1.8-0.2-7.5,0.6-8.4c0.7-0.8,1.9-1.1,2.8-0.2
			C1410.4,32.7,1409.8,39,1408.8,40.6z"/>
		<path class="st15" d="M1435.8,17.1c0.3-2.1-0.8-3.8-2-3.8c-2.4,0-4.4,4.1-4.1,6.4c0.2,1.4,1.1,2.7,2.7,1.8
			C1433.6,20.8,1435.4,19.1,1435.8,17.1z"/>
		<path class="st15" d="M1452.8,45.8c-0.1-0.8-1.6-1.7-3.6-1.1c-1.4,0.5-4.7,4.2-4.7,5.9c0,2.1,2.4,2.8,3.8,2.2
			C1450.9,51.6,1453,47.5,1452.8,45.8z"/>
	</g>
	<g id="White_Lines_2_">
		<path id="White_Lines_1_" class="st16" d="M1543.8,806.2l-41.2-27.3l-213.9,0.4L771.8,319.4l73.6-0.2l-13.3-8.6h-70.2L566.1,136.4
			h-13.6l189.7,174.2h-419l77.3-174.2h-10l-81.8,174.2H0v10.6l304.1-0.7L87.8,781.3l-87,0.1v24.7h75.4L0,968.4v37.8h14.4l88.8-200
			h1178.6l217.8,200h44.2l-224.8-200H1543.8z M114.2,781.3l204.5-460.8l433.1-1l500.6,459.8L114.2,781.3z"/>
		<g>
			<polygon class="st16" points="177,136.4 0,203.2 0,215.2 193,136.4 			"/>
		</g>
	</g>
</g>
<g id="Car_1">
	<g id="Car_interior">
		<g>
			<polygon class="st17" points="1017.8,574.1 224.6,553 338.8,423.1 880.9,425 			"/>
			<polygon class="st18" points="397.6,196.5 397.6,290.9 321.7,458.8 247.6,485.2 301.7,357.1 340.3,241.9 			"/>
			<polygon class="st18" points="916.1,468.5 833.4,371.1 825.6,186.8 911.6,292.4 955.3,465.2 			"/>
			<rect x="397.6" y="167.1" class="st18" width="441.2" height="96.1"/>
			<path id="Right_tire_2_" class="st19" d="M902.3,824.1c0-67.3,29.7-121.9,66.4-121.9s66.4,54.6,66.4,121.9
				c0,36.4-8.7,87.4-22.4,109.8c-11.7,19-38.5,18.5-44,18.6c-6.5,0.1-32.7,1.1-44.5-18.4C910.8,911.8,902.3,860,902.3,824.1z"/>
			<path id="Left_tire_2_" class="st19" d="M319.4,824.1c0-67.3-29.7-121.9-66.4-121.9s-66.4,54.6-66.4,121.9
				c0,36.4,8.7,87.4,22.4,109.8c11.7,19,38.5,18.5,44,18.6c6.5,0.1,32.7,1.1,44.5-18.4C310.9,911.8,319.4,860,319.4,824.1z"/>
			<path id="Right_mirror_2_" class="st20" d="M1001.2,403.4c21.1-7.3,51-6.1,71.6,0s6.6,49.6,0,57.6s-59.2,8.3-71.6,0
				c-2.8-1.9-19.2-9.7-23.8-7.6l-6.5-20.4c1.1-2.2,7.7-0.9,14.7-7.8C992.1,418.8,994.7,405.7,1001.2,403.4z"/>
			<path id="Left_mirror_2_" class="st20" d="M227.1,403.4c-21.1-7.3-51-6.1-71.6,0s-6.6,49.6,0,57.6s59.2,8.3,71.6,0
				c2.8-1.9,19.2-9.7,23.8-7.6l6.5-20.4c-1.1-2.2-7.7-0.9-14.7-7.8C236.2,418.8,233.6,405.7,227.1,403.4z"/>
		</g>
	</g>
	<g id="Back_seat">
		<g>
			<g id="Back_seat_2_">
				<path class="st21" d="M879.9,424.1H339.8c-0.5,0-0.9-0.4-0.9-0.9v-52.5c0-0.5,0.4-0.9,0.9-0.9H880c0.5,0,0.9,0.4,0.9,0.9v52.5
					C880.9,423.7,880.4,424.1,879.9,424.1z"/>
				<path class="st22" d="M856.5,357.1H370.3c-1.2,0-2.2-1-2.2-2.2v-75.5c0-17.9,14.5-32.3,32.4-32.3l422.6,0.2
					c17.7,0,32.1,14.2,32.3,31.9L856.5,357.1z"/>
				<path class="st23" d="M578,231.8l-0.1-13.7c0-5.9,4.7-10.6,10.6-10.6l37-0.2c5.9,0,10.6,4.7,10.6,10.6l0.1,13.7
					c0,5.9-4.7,10.6-10.6,10.6l-37,0.2C582.8,242.4,578,237.7,578,231.8z"/>
				<path class="st23" d="M429.4,231.8l-0.1-13.7c0-5.9,4.7-10.6,10.6-10.6l37-0.2c5.9,0,10.6,4.7,10.6,10.6l0.1,13.7
					c0,5.9-4.7,10.6-10.6,10.6l-37,0.2C434.2,242.4,429.4,237.7,429.4,231.8z"/>
				<path class="st24" d="M880.5,370.8L339.2,370c-0.4,0,0.6-0.5,0.9-0.7l26.6-12.1h0.1h489.4c0.1,0,0.1,0,0.2,0l24.2,12.9
					C881,370.3,880.9,370.8,880.5,370.8z"/>
			</g>
		</g>
	</g>
	<g id="soccer_x5F_before">
		<polygon class="st25" points="566.5,419.5 600.5,420.8 599.8,445.5 571,447.3 		"/>
		<polygon class="st25" points="618.9,419.8 650.7,418.6 648.4,446.6 619.8,447.3 		"/>
		<line class="st26" x1="580.9" y1="422.9" x2="581.1" y2="428.8"/>
		<line class="st26" x1="583.5" y1="422.9" x2="583.5" y2="428.9"/>
		<line class="st26" x1="585.9" y1="422.8" x2="585.9" y2="428.6"/>
		<line class="st26" x1="588.9" y1="422.9" x2="588.9" y2="429.2"/>
		<line class="st26" x1="591.4" y1="422.5" x2="591.4" y2="428.1"/>
		<line class="st26" x1="593.9" y1="422.1" x2="594.1" y2="428.5"/>
		<line class="st26" x1="596.5" y1="421.7" x2="596.5" y2="427.7"/>
		<line class="st26" x1="598.5" y1="421.3" x2="598.6" y2="426.3"/>
		<line class="st26" x1="569.7" y1="420.7" x2="570.3" y2="426.2"/>
		<line class="st26" x1="578.6" y1="422.6" x2="578.6" y2="428.5"/>
		<line class="st26" x1="575.9" y1="422.2" x2="575.9" y2="427.4"/>
		<line class="st26" x1="573" y1="421.7" x2="573.3" y2="426.6"/>
		<line class="st26" x1="580.9" y1="422.9" x2="581.1" y2="428.8"/>
		<line class="st26" x1="583.5" y1="422.9" x2="583.5" y2="428.9"/>
		<line class="st26" x1="585.9" y1="422.8" x2="585.9" y2="428.6"/>
		<line class="st26" x1="588.9" y1="422.9" x2="588.9" y2="429.2"/>
		<line class="st26" x1="591.4" y1="422.5" x2="591.4" y2="428.1"/>
		<line class="st26" x1="593.9" y1="422.1" x2="594.1" y2="428.5"/>
		<line class="st26" x1="596.5" y1="421.7" x2="596.5" y2="427.7"/>
		<line class="st26" x1="598.5" y1="421.3" x2="598.6" y2="426.3"/>
		<line class="st26" x1="569.7" y1="420.7" x2="570.3" y2="426.2"/>
		<line class="st26" x1="578.6" y1="422.6" x2="578.6" y2="428.5"/>
		<line class="st26" x1="575.9" y1="422.2" x2="575.9" y2="427.4"/>
		<line class="st26" x1="573" y1="421.7" x2="573.3" y2="426.6"/>
		<path class="st27" d="M567.6,424.5c0,0,8,3.8,15.7,3.5c9.1-0.4,16.2-2.7,16.2-2.7l-3.7,11.4h-22.5L567.6,424.5z"/>
		<line class="st26" x1="637.9" y1="421" x2="637.9" y2="428.1"/>
		<line class="st26" x1="635.5" y1="421.1" x2="635.7" y2="428.3"/>
		<line class="st26" x1="633.3" y1="421.1" x2="633.5" y2="428"/>
		<line class="st26" x1="630.5" y1="421.3" x2="630.7" y2="428.8"/>
		<line class="st26" x1="628.2" y1="420.9" x2="628.4" y2="427.6"/>
		<line class="st26" x1="625.8" y1="420.5" x2="625.8" y2="428.2"/>
		<line class="st26" x1="623.4" y1="420.1" x2="623.6" y2="427.3"/>
		<line class="st26" x1="621.5" y1="419.7" x2="621.6" y2="425.6"/>
		<line class="st26" x1="648.2" y1="418" x2="647.9" y2="424.7"/>
		<line class="st26" x1="640.1" y1="420.6" x2="640.2" y2="427.7"/>
		<line class="st26" x1="642.5" y1="420" x2="642.7" y2="426.3"/>
		<line class="st26" x1="645.2" y1="419.3" x2="645.1" y2="425.3"/>
		<path class="st27" d="M650,421.9c0,0-7.3,4.8-14.5,4.6c-8.4-0.1-15.1-2.7-15.1-2.7l3.8,13.5l20.9-0.7L650,421.9z"/>
		<path class="st25" d="M634.2,446.7h-0.4c-0.3,0-0.6,0.3-0.6,0.6l0,0c0,0.3,0.3,0.6,0.6,0.6h0.4c0.3,0,0.6-0.3,0.6-0.6l0,0
			C634.9,447,634.6,446.7,634.2,446.7z"/>
		<g>
			<path class="st25" d="M568.3,468.8c0-2.2,7.5-2.1,17.6-2.1s18.3-0.4,18.3,1.8s-4.8,6.2-17.6,6.2
				C572.9,474.7,568.3,471,568.3,468.8z"/>
			<path class="st28" d="M570.6,444.4c0-0.9,1.8-1.2,4.3-1c0.9,0.1,1.6,0.2,2.4,0.4c1.5,0.4,3.6,1,6.2,2.1c1.5-0.1,2.9-0.2,4.4-0.2
				c3.5-1.3,12.1-4.7,13.3-1.6c0,0,3.1,8.2,3.5,10.2c0.6,2.9,2.4,10.7,0.1,13.8c-3.9,5.2-14.3,4.5-18.7,4.5
				c-5.4,0-16.9,0.7-19.5-6.6c-1-2.7-0.8-8.4,0-11.1C567.3,452.4,570.6,444.4,570.6,444.4z"/>
			<path class="st28" d="M577.3,443.8c-1.7,2.6-1.2,11.5,1.5,13.5c1.3,0.9,3.6,1.1,4,2.9c0.1,0.4,0,1.6-2,1.8
				c-1.4,0.1-12.5-0.5-12.5,6.8"/>
			<path class="st28" d="M594.3,443.4c1.7,2.6,3,11.6,0.3,13.6c-1.3,0.9-2,0.9-3.3,2c-1.1,0.9-0.9,3.3,1.1,3.4
				c1.4,0.1,10.9-0.5,11.8,6"/>
			<path class="st28" d="M566,463c0.7-0.3,2.1-1.3,3-2.8s0.3-7-1.1-9.1"/>
			<path class="st28" d="M605.9,462.9c-0.7-0.3-2.3-1.2-3-2.8c-2-4.3-0.6-7,1.1-8.4"/>
			<path class="st26" d="M583.5,445.9c0,0-2.2,3.8-2.4,5.2c-0.1,0.7,0.4,2.2,0.7,2.8c0.2,0.4,0.7,1.3,1.1,1.5
				c1.4,0.8,4.9,0.4,6.4-0.2c0.8-0.3,1.9-1.7,2.2-2.4c0.2-0.5-0.2-1.7-0.4-2.2c-0.4-1.2-2.3-4.5-2.3-4.5"/>
			<polygon class="st25" points="582.3,448.5 590.6,450.6 590.1,449.4 583,447.6 			"/>
			<polygon class="st25" points="587.9,448.2 588.9,449.2 582.5,451.5 581.8,450.6 			"/>
			<polygon class="st25" points="581.8,453.9 582.4,454.9 591,450.6 590.4,449.7 			"/>
			<polygon class="st25" points="585.9,447.1 586.5,446.4 589.9,449 589.7,450.1 			"/>
			<polygon class="st25" points="582.9,450.2 583.6,451.1 585.9,446.7 585.1,446.7 			"/>
			<path class="st25" d="M581.5,446.3c2.2-0.3,4-0.9,4.1,0.1c0,0.9-1.5,2.2-3.7,2.2s-3.8,0.9-3.8,0
				C578,447.7,579.3,446.6,581.5,446.3z M581.7,447.8c1.1,0,3-1.1,3-1.3s-1.8,0.4-2.8,0.6c-1,0.1-2.7,0.6-2.7,0.9
				C579.1,448.2,580.6,447.8,581.7,447.8z"/>
			<polygon class="st25" points="581.8,450.4 591,453.3 590.4,454.2 581.5,451.4 			"/>
			<path class="st25" d="M651.6,469.5c0-2.2-7.5-2.1-17.6-2.1s-18.3-0.4-18.3,1.8s4.8,6.2,17.6,6.2
				C647.1,475.4,651.6,471.7,651.6,469.5z"/>
			<path class="st28" d="M649.4,445.1c0-0.9-1.8-1.2-4.3-1c-0.9,0.1-1.6,0.2-2.4,0.4c-1.5,0.4-3.6,1-6.2,2.1
				c-1.5-0.1-2.9-0.2-4.4-0.2c-3.5-1.3-12.1-4.7-13.3-1.6c0,0-3.1,8.2-3.5,10.2c-0.6,2.9-2.4,10.7-0.1,13.8
				c3.9,5.2,14.3,4.5,18.7,4.5c5.4,0,16.9,0.7,19.5-6.6c1-2.7,0.8-8.4,0-11.1C652.6,453,649.4,445.1,649.4,445.1z"/>
			<path class="st28" d="M642.7,444.5c1.7,2.6,1.2,11.5-1.5,13.5c-1.3,0.9-3.6,1.1-4,2.9c-0.1,0.4,0,1.6,2,1.8
				c1.4,0.1,12.5-0.5,12.5,6.8"/>
			<path class="st28" d="M625.7,444.1c-1.7,2.6-3,11.6-0.3,13.6c1.3,0.9,2,0.9,3.3,2c1.1,0.9,0.9,3.3-1.1,3.4
				c-1.4,0.1-10.9-0.5-11.8,6"/>
			<path class="st28" d="M654,463.7c-0.7-0.3-2.1-1.3-3-2.8s-0.3-7,1.1-9.1"/>
			<path class="st28" d="M614,463.6c0.7-0.3,2.3-1.2,3-2.8c2-4.3,0.6-7-1.1-8.4"/>
			<path class="st26" d="M636.4,446.5c0,0,2.2,3.8,2.4,5.2c0.1,0.7-0.4,2.2-0.7,2.8c-0.2,0.4-0.7,1.3-1.1,1.5
				c-1.4,0.8-4.9,0.4-6.4-0.2c-0.8-0.3-1.9-1.7-2.2-2.4c-0.2-0.5,0.2-1.7,0.4-2.2c0.4-1.2,2.3-4.5,2.3-4.5"/>
			<polygon class="st25" points="637.6,449.2 629.3,451.3 629.9,450.1 637,448.3 			"/>
			<polygon class="st25" points="632.1,448.9 631.1,449.9 637.5,452.2 638.1,451.3 			"/>
			<polygon class="st25" points="638.1,454.6 637.5,455.6 629,451.3 629.5,450.4 			"/>
			<polygon class="st25" points="634.1,447.8 633.5,447.1 630,449.7 630.2,450.8 			"/>
			<polygon class="st25" points="637.1,450.9 636.3,451.8 634.1,447.3 634.9,447.3 			"/>
			<path class="st25" d="M629,446c2.6,0,4.6,0.1,4.6,1s-1.7,1.3-4.3,1.3s-4.4,0.9-4.4,0C625,447.4,626.4,446,629,446z M629.1,447.6
				c1.2,0,2.9-0.3,2.9-0.5s-1.5-0.2-2.7-0.2s-3.1,0.6-3.1,0.9C626.2,448,627.9,447.6,629.1,447.6z"/>
			<path class="st25" d="M638.4,447c-2.2-0.3-4-0.9-4.1,0.1c0,0.9,1.5,2.2,3.7,2.2s3.8,0.9,3.8,0C641.9,448.4,640.6,447.2,638.4,447
				z M638.3,448.5c-1.1,0-3-1.1-3-1.3s1.8,0.4,2.8,0.6c1,0.1,2.7,0.6,2.7,0.9C640.8,448.9,639.3,448.5,638.3,448.5z"/>
			<polygon class="st25" points="638.1,451.1 629,454 629.5,454.9 638.4,452.1 			"/>
		</g>
		<path class="st25" d="M591,445.3c-2.6,0-4.6,0.1-4.6,1s1.7,1.3,4.3,1.3s4.4,0.9,4.4,0C595,446.7,593.5,445.3,591,445.3z
			 M590.8,446.9c-1.2,0-2.9-0.3-2.9-0.5s1.5-0.2,2.7-0.2s3.1,0.6,3.1,0.9C593.7,447.3,592,446.9,590.8,446.9z"/>
		<path class="st25" d="M585.7,446h0.4c0.3,0,0.6,0.3,0.6,0.6l0,0c0,0.3-0.3,0.6-0.6,0.6h-0.4c-0.3,0-0.6-0.3-0.6-0.6l0,0
			C585.1,446.3,585.3,446,585.7,446z"/>
		<g id="legs_2_">
			<path class="st29" d="M563.3,381.3l38.4,4.1l-1.2,35.4c0,0-6.3,1.9-18,2c-6.7,0.1-15.9-3.4-15.9-3.4L563.3,381.3z"/>
			<path class="st29" d="M616.8,384.4l38-1.7l-4.1,35.9c0,0-8.8,2.3-16.4,2.9c-7.9,0.7-15.4-1.5-15.4-1.5L616.8,384.4z"/>
		</g>
		<g id="Right_arm_2_">
			<path class="st29" d="M639.7,339.4c0,0,7.4,14.7,12.3,17.9c1.8,1.2,8.7,3.1,10.9,3.5c1.6,0.3,8.8-1,10.4-1c3.1,0,4.3-1.1,5.2-1
				c3.3,0.6,5.2-1.9,5.3-3.9c0.2-2.1-2-5.9-3.3-7.5c-1.5-1.9-7.4-4.5-10.7-5c-2.3-0.3-5.6-0.3-7.9,0c-2.3,0.3-4.2-2.6-4.2-2.6
				c-2.1-12.9-3.7-43.7-3.7-43.7l-18.6,5.3L639.7,339.4z"/>
			<path class="st26" d="M683.7,354.9c0-2.4-3.3-7.4-5.7-7.4"/>
			<path class="st26" d="M672.4,359.8c2.4-3.2-3-10.5-6.7-10.1"/>
			<path class="st26" d="M677.1,358.8c2.8-3.9-1.7-9.4-4.5-10.6"/>
		</g>
		<g id="left_arm_2_">
			<path class="st29" d="M574.1,342.6c0,0-5.5,17.5-10.3,20.6c-1.8,1.2-11.8,1.2-13.9,1.6c-1.6,0.3-3.6,0.7-5.2,0.7
				c-3.1,0-3.1-2.5-4-2.4c-3.3,0.6-4.7-1.5-4.8-3.5c-0.2-2.1,1-6.5,2.3-8.2c1.5-1.9,7.9-5,10.2-5.7c2.2-0.7,5.3-0.2,7.9-0.9
				c2.2-0.6,2.1-0.9,2.1-0.9c-1.1-12.5,0-44.2,0-44.2l16.3,5.2L574.1,342.6z"/>
			<path class="st26" d="M535.7,359.6c0-2.4,3.1-7.8,5.5-7.8"/>
			<path class="st26" d="M548.9,365c-3.4-3.9,0.1-10.1,5.8-12.4"/>
			<path class="st26" d="M541.3,363.7c-1.2-2.8,3-9.6,5.7-10.8"/>
		</g>
		<g id="pants_2_">
			<path id="left_2_" class="st30" d="M601.6,385.4c0,0-10.3,2.2-20.2,1.5c-8.6-0.6-18.1-5.6-18.1-5.6l-0.1-2.8l38.4,4.8
				L601.6,385.4L601.6,385.4z"/>
			<path id="right_2_" class="st30" d="M654.8,382.7c0,0-11.8,3-19.3,3.4c-8.4,0.4-18.7-1.7-18.7-1.7l-0.3-2.4l38.5-3.2L654.8,382.7
				z"/>
			<path id="shorts_2_" class="st31" d="M639.3,332.8c0,0,1,4.7,3.6,9.5c3.1,5.7,8.3,11.9,10.7,18.7c3.5,9.7,1.2,19.2,1.2,19.2
				s-9.3,2.8-18.5,3.8s-19.8-1.9-19.8-1.9s-0.1-10.1-0.5-12.4c-1.3-5.9-5.7-9.7-6.9-9.5c-1.8,0.3-3.9,3.3-6.1,6.6
				c-1.8,2.6-1.4,16.5-1.4,16.5s-6.4,1.7-16.9,1.7s-21.5-6.4-21.5-6.4s-1.8-7.5,0.5-15.2c2-6.5,8.2-18.4,8.8-20.8
				c1-3.6,0.7-6.9,0.7-6.9L639.3,332.8z"/>
		</g>
		<g id="tee_4_">
			<path class="st30" d="M558.4,296.9h14.2v7.9c0.6,0.2-3,0.5-7.1-0.9c-3.6-1.2-7.1-2.6-7.1-2.6L558.4,296.9L558.4,296.9z"/>
			<path class="st30" d="M636.2,292.4h17.5l0.3,3.7c0,0-3.7,2.7-7.5,4.1c-4.9,1.8-10.3,1.2-10.3,1.2V292.4z"/>
			<path id="tee_5_" class="st31" d="M635.9,299l3.5,33.8c0,0-21.1,3.4-31.1,4.2c-13.9,1.1-34.9-1.4-34.9-1.4l-0.7-32.3
				c0,0-3.4-0.1-6.8-1.3c-3.6-1.3-7.3-3-7.3-3s0.3-15.7,4.5-24.9c4.2-9.2,20.8-18.1,20.8-18.1l38.9-1.9c0,0,11.7,3.8,16.7,8.7
				s12.1,14.1,13.7,24.7c0.9,6.1,0.5,6.7,0.5,6.7s-3.3,2.7-6.8,3.9C641.9,299.8,635.9,299,635.9,299z"/>
			<path id="collar_2_" class="st30" d="M618,259.8c-1.1,3-4.5,8.7-13.1,8.7c-7.6,0-13.5-5.6-13.5-10.2c0-3.2,5.4-1.1,13.1-1.1
				C612,257.1,620.2,253.6,618,259.8z"/>
		</g>
		<path class="st29" d="M616.9,257.9c0,4-5.1,9.2-11.2,9.2c-6.1,0-12.5-4.1-12.5-8.1s4.9-7.3,11-7.3S616.9,253.9,616.9,257.9z"/>
		<g id="Head_2_">
			<g id="head_4_">
				<path id="right_outter_ear_2_" class="st29" d="M637.9,206c1,11.6-9.3,12.7-15.4,8.8c-6.6-4.2-9-9.2-9-10.9
					c-0.2-8.3,2.9-13.6,10.5-13C631.5,191.5,637.2,197.7,637.9,206z"/>
				<path id="right_innner_ear_2_" class="st32" d="M631.7,206c0.4,6.4-4.5,7-7.4,4.9c-3.2-2.3-4.3-5-4.3-6c-0.1-4.6,1.3-7,5-6.4
					C627.9,198.9,631.4,202,631.7,206z"/>
				<path id="left_outter_ear_2_" class="st29" d="M567,206.8c-1,10.6,8.6,11.7,14.3,8.2c6.2-3.8,8.5-8.3,8.6-9.9
					c0.3-7.6-2.6-12.5-9.8-12C573.2,193.6,567.8,199.2,567,206.8z"/>
				<path class="st32" d="M574,207.4c-0.5,5.9,4.1,6.4,6.9,4.5c3-2.1,4.1-4.6,4.1-5.5c0.1-4.2-1.2-6.5-4.6-5.9
					C577.6,200.9,574.3,203.7,574,207.4z"/>
				<path id="head_5_" class="st29" d="M634.7,233.5c0.1,7.4-1.3,14.4-9.1,19.6c-9.2,6.1-13.1,11.1-21.3,10.8
					c-8.3-0.3-13-7.1-19.2-7.9c-5.5-0.7-14.1-12-13.7-22.1c0.2-4.8,3.1-14.4,7-20.4c5.7-8.7,13.3-16,23.9-16
					c8.5,0,17.2,7.6,24.2,16.1C630.2,218.2,634.6,228.9,634.7,233.5z"/>
				<path id="snoot_3_" class="st32" d="M589.6,243.8c-1.1-6.5,3.2-9.8,6-12.7c3-3.2,3.2-7.7,8.1-7.7c0.8,0,3.5,0.4,4.9,3
					c4.9,9.3,9.9,6.1,9.9,15.6c0,4.8-4.3,13.1-13.8,13C597.1,254.9,590.7,250.7,589.6,243.8z"/>
			</g>
			<path id="nose_2_" class="st33" d="M598.3,232.3c0-2.3,1.6-4.9,5.6-5c3-0.1,5.1,1.7,5.1,3.9c0,2.3-2.2,5.9-5,5.9
				S598.3,234.6,598.3,232.3z"/>
			<path id="chin_2_" class="st26" d="M602.5,247.5c0,0,0.9,0.2,1.7,0.2s1.5-0.2,1.5-0.2"/>
			<path id="mouth_2_" class="st26" d="M595.2,240.7c0,0,0.5,3.9,3.4,3.9s4.6-2.6,5.3-2.6s2.6,2.4,5,1.4s3.2-4.2,3.2-4.2"/>
			<g id="left_eye_2_">
				<g>
					<ellipse class="st25" cx="592.4" cy="223.8" rx="3.4" ry="4.7"/>
					<circle class="st34" cx="592.4" cy="225.2" r="3.2"/>
					<circle class="st35" cx="592.4" cy="225.2" r="1.9"/>
					<circle class="st25" cx="593" cy="224.6" r="0.8"/>
					<circle class="st25" cx="592" cy="225.4" r="0.4"/>
				</g>
			</g>
			<g id="right_eye_2_">
				<ellipse class="st25" cx="615" cy="223.8" rx="3.4" ry="4.7"/>
				<circle class="st36" cx="615" cy="225.2" r="3.2"/>
				<circle class="st35" cx="615" cy="225.2" r="1.9"/>
				<circle class="st25" cx="615.6" cy="224.6" r="0.8"/>
				<circle class="st25" cx="614.5" cy="225.5" r="0.4"/>
			</g>
			<path class="st32" d="M589,215.4c-1.3-1.3,1.1-3.4,3.6-3.9c2.2-0.4,4.5,0.3,4.5,1.9c0,1.4-1.8,1.1-4.3,1.5
				C590.4,215.5,590.3,216.7,589,215.4z"/>
			<path class="st32" d="M618.2,215.4c1.2-1.3-1-3.4-3.3-3.9c-2-0.4-4.1,0.3-4.1,1.9c0,1.4,1.7,1.1,3.9,1.5
				C616.8,215.5,617,216.7,618.2,215.4z"/>
			<path class="st37" d="M626.5,214.5h-16.2c-1.3,0-2.4,1.1-2.4,2.4v1.7c-0.8-0.4-1.9-0.8-3.3-0.8c-1.9,0-3.4,0.6-4.2,1v-2
				c0-1.3-1.1-2.4-2.4-2.4h-16.2c-1.3,0-2.4,1.1-2.4,2.4v10.1c0,1.3,1.1,2.4,2.4,2.4H598c1.3,0,2.4-1.1,2.4-2.4v-6
				c0.8-0.4,2.2-1,3.7-1.1c1.4-0.1,2.9,0.5,3.8,0.9v6.2c0,1.3,1.1,2.4,2.4,2.4h16.2c1.3,0,2.4-1.1,2.4-2.4v-10.1
				C628.9,215.6,627.8,214.5,626.5,214.5z M597.9,225.2c0,1.3-1.1,2.4-2.4,2.4h-11.2c-1.3,0-2.4-1.1-2.4-2.4v-6.6
				c0-1.3,1.1-2.4,2.4-2.4h11.2c1.3,0,2.4,1.1,2.4,2.4V225.2z M626.4,225.2c0,1.3-1.1,2.4-2.4,2.4h-11.2c-1.3,0-2.4-1.1-2.4-2.4
				v-6.6c0-1.3,1.1-2.4,2.4-2.4H624c1.3,0,2.4,1.1,2.4,2.4V225.2z"/>
		</g>
		<circle class="st25" cx="691.2" cy="441.7" r="31.6"/>
		<polygon class="st35" points="681.9,416.4 669,419.9 665.2,432.5 675,435.7 685.4,426 		"/>
		<polygon class="st35" points="708.2,423.8 697.7,429.6 700.7,442.7 712.2,445.6 717.2,435.2 		"/>
		<polygon class="st35" points="677.8,447.6 671.2,457 680.4,466.6 692.5,463.6 691.2,451.8 		"/>
		<polygon class="st35" points="718.9,457 713.5,457 703.3,466.1 703.8,470.7 712.8,464.7 		"/>
		<line class="st26" x1="690.3" y1="452.2" x2="702" y2="441.7"/>
		<line class="st26" x1="713.8" y1="457.9" x2="711.9" y2="444.2"/>
		<line class="st26" x1="699.3" y1="430.5" x2="684" y2="425.3"/>
		<path class="st35" d="M692.5,410.5"/>
		<path class="st35" d="M681.4,417.1"/>
		<line class="st26" x1="675" y1="435.7" x2="678.2" y2="448.9"/>
		<line class="st26" x1="691.6" y1="463.2" x2="704.3" y2="466.2"/>
		<path class="st35" d="M680.4,471.4"/>
		<path class="st35" d="M680.6,465.7"/>
		<path class="st35" d="M662,453"/>
		<path class="st35" d="M674.1,458.4"/>
		<path class="st35" d="M722.2,435.3"/>
		<path class="st35" d="M716.5,435.7"/>
		<polygon class="st35" points="659.5,441.7 659.5,439.9 665.2,432 666.1,432.2 		"/>
		<polygon class="st35" points="661.2,452.1 671.7,456.4 671.4,457.4 662,453.8 		"/>
		<rect x="680.1" y="465.2" class="st35" width="1" height="6.3"/>
		<rect x="716.3" y="434.8" class="st35" width="5.8" height="0.9"/>
		<polygon class="st35" points="705.8,413.8 707,414.3 708.8,425.3 707.8,425.2 		"/>
		<polygon class="st35" points="694.4,410.2 682.1,417.1 681.2,416.4 693,410.1 		"/>
		<polygon class="st35" points="668.4,419.7 669.1,419.3 670.2,420.5 669.2,420.9 		"/>
	</g>
	<g id="soccer_x5F_after" class="st38">
		<polygon class="st39" points="566.7,419.9 600.7,421.2 600,445.9 571.2,447.7 		"/>
		<polygon class="st39" points="619.2,420.2 651,419 648.7,447 620.1,447.7 		"/>
		<line class="st40" x1="581.1" y1="423.2" x2="581.3" y2="429.2"/>
		<line class="st40" x1="583.7" y1="423.2" x2="583.7" y2="429.3"/>
		<line class="st40" x1="586.1" y1="423.2" x2="586.1" y2="429"/>
		<line class="st40" x1="589.1" y1="423.2" x2="589.1" y2="429.5"/>
		<line class="st40" x1="591.6" y1="422.8" x2="591.6" y2="428.5"/>
		<line class="st40" x1="594.2" y1="422.5" x2="594.4" y2="428.9"/>
		<line class="st40" x1="596.7" y1="422.1" x2="596.7" y2="428.1"/>
		<line class="st40" x1="598.8" y1="421.6" x2="598.8" y2="426.6"/>
		<line class="st40" x1="569.9" y1="421" x2="570.5" y2="426.6"/>
		<line class="st40" x1="578.8" y1="423" x2="578.8" y2="428.9"/>
		<line class="st40" x1="576.1" y1="422.5" x2="576.1" y2="427.8"/>
		<line class="st40" x1="573.2" y1="422.1" x2="573.5" y2="427"/>
		<path class="st39" d="M568.1,424.3c0,0,8,3.8,15.7,3.5c9.1-0.4,16.2-2.7,16.2-2.7l-3.7,11.5h-22.6L568.1,424.3z"/>
		<line class="st40" x1="581.1" y1="423.2" x2="581.3" y2="429.2"/>
		<line class="st40" x1="583.7" y1="423.2" x2="583.7" y2="429.3"/>
		<line class="st40" x1="586.1" y1="423.2" x2="586.1" y2="429"/>
		<line class="st40" x1="589.1" y1="423.2" x2="589.1" y2="429.5"/>
		<line class="st40" x1="591.6" y1="422.8" x2="591.6" y2="428.5"/>
		<line class="st40" x1="594.2" y1="422.5" x2="594.4" y2="428.9"/>
		<line class="st40" x1="596.7" y1="422.1" x2="596.7" y2="428.1"/>
		<line class="st40" x1="598.8" y1="421.6" x2="598.8" y2="426.6"/>
		<line class="st40" x1="569.9" y1="421" x2="570.5" y2="426.6"/>
		<line class="st40" x1="578.8" y1="423" x2="578.8" y2="428.9"/>
		<line class="st40" x1="576.1" y1="422.5" x2="576.1" y2="427.8"/>
		<line class="st40" x1="573.2" y1="422.1" x2="573.5" y2="427"/>
		<path class="st41" d="M568.1,424.3c0,0,8,3.8,15.7,3.5c9.1-0.4,16.2-2.7,16.2-2.7l-3.7,11.5h-22.6L568.1,424.3z"/>
		<line class="st40" x1="638.2" y1="421.4" x2="638.2" y2="428.5"/>
		<line class="st40" x1="635.8" y1="421.5" x2="636" y2="428.6"/>
		<line class="st40" x1="633.6" y1="421.4" x2="633.8" y2="428.4"/>
		<line class="st40" x1="630.8" y1="421.6" x2="631" y2="429.1"/>
		<line class="st40" x1="628.5" y1="421.3" x2="628.6" y2="428"/>
		<line class="st40" x1="626.1" y1="420.9" x2="626.1" y2="428.5"/>
		<line class="st40" x1="623.7" y1="420.5" x2="623.9" y2="427.7"/>
		<line class="st40" x1="621.8" y1="420" x2="621.9" y2="426"/>
		<line class="st40" x1="648.5" y1="418.4" x2="648.2" y2="425.1"/>
		<line class="st40" x1="640.4" y1="421" x2="640.5" y2="428"/>
		<line class="st40" x1="642.8" y1="420.4" x2="643" y2="426.6"/>
		<line class="st40" x1="645.5" y1="419.7" x2="645.4" y2="425.6"/>
		<path class="st41" d="M650.3,422.3c0,0-7.3,4.8-14.5,4.7c-8.4-0.1-15.1-2.7-15.1-2.7l3.8,13.5l20.9-0.7L650.3,422.3z"/>
		<path class="st39" d="M634.5,447.1h-0.4c-0.3,0-0.6,0.3-0.6,0.6l0,0c0,0.3,0.3,0.6,0.6,0.6h0.4c0.3,0,0.6-0.3,0.6-0.6l0,0
			C635.2,447.4,634.9,447.1,634.5,447.1z"/>
		<g class="st42">
			<path class="st43" d="M568.5,469.2c0-2.2,7.5-2.1,17.6-2.1s18.3-0.4,18.3,1.8c0,2.2-4.8,6.2-17.6,6.2
				C573.1,475.1,568.5,471.4,568.5,469.2z"/>
			<path class="st44" d="M570.8,444.8c0-0.9,1.8-1.2,4.3-1c0.9,0.1,1.6,0.2,2.4,0.4c1.5,0.4,3.6,1,6.2,2.1c1.5-0.1,2.9-0.2,4.4-0.2
				c3.5-1.3,12.2-4.8,13.3-1.6c0,0,3.1,8.2,3.5,10.3c0.6,2.9,2.4,10.7,0.1,13.8c-3.9,5.2-14.4,4.5-18.7,4.5
				c-5.4,0-16.9,0.7-19.6-6.6c-1-2.7-0.8-8.5,0-11.2C567.5,452.8,570.8,444.8,570.8,444.8z"/>
			<path class="st44" d="M577.5,444.2c-1.7,2.6-1.2,11.5,1.5,13.5c1.3,0.9,3.6,1.1,4,3c0.1,0.4,0,1.6-2,1.8
				c-1.4,0.1-12.5-0.5-12.5,6.8"/>
			<path class="st44" d="M594.5,443.8c1.7,2.6,3,11.7,0.3,13.6c-1.3,0.9-2,0.9-3.3,2c-1.1,0.9-0.9,3.3,1.1,3.4
				c1.4,0.1,10.9-0.5,11.8,6"/>
			<path class="st44" d="M566.1,463.4c0.7-0.3,2.1-1.3,3-2.8s0.3-7-1.1-9.1"/>
			<path class="st44" d="M606.1,463.3c-0.7-0.3-2.3-1.2-3-2.8c-2-4.4-0.6-7,1.1-8.4"/>
			<path class="st45" d="M583.7,446.3c0,0-2.2,3.8-2.4,5.3c-0.1,0.7,0.4,2.2,0.7,2.9c0.2,0.4,0.7,1.3,1.1,1.5
				c1.4,0.8,4.9,0.4,6.4-0.2c0.8-0.3,1.9-1.7,2.2-2.4c0.2-0.5-0.2-1.7-0.4-2.2c-0.4-1.2-2.3-4.5-2.3-4.5"/>
			<polygon class="st43" points="582.5,448.9 590.8,451 590.3,449.8 583.2,448 			"/>
			<polygon class="st43" points="588.1,448.6 589.1,449.6 582.7,451.9 582,451.1 			"/>
			<polygon class="st43" points="582,454.4 582.7,455.4 591.2,451.1 590.7,450.1 			"/>
			<polygon class="st43" points="586.1,447.5 586.7,446.8 590.1,449.4 589.9,450.5 			"/>
			<polygon class="st43" points="583.1,450.6 583.8,451.5 586.1,447.1 585.3,447.1 			"/>
			<path class="st43" d="M581.7,446.7c2.2-0.3,4-0.9,4.1,0.1c0,0.9-1.5,2.2-3.7,2.2s-3.8,0.9-3.8,0
				C578.2,448.1,579.5,447,581.7,446.7z M581.9,448.3c1.1,0,3-1.1,3-1.3s-1.8,0.4-2.8,0.6c-1,0.1-2.7,0.6-2.7,0.9
				C579.3,448.6,580.8,448.3,581.9,448.3z"/>
			<polygon class="st43" points="582.1,450.8 591.2,453.7 590.6,454.7 581.7,451.8 			"/>
			<path class="st43" d="M651.9,469.9c0-2.2-7.5-2.1-17.6-2.1s-18.3-0.4-18.3,1.8c0,2.2,4.8,6.2,17.6,6.2
				C647.4,475.8,651.9,472.1,651.9,469.9z"/>
			<path class="st44" d="M649.7,445.5c0-0.9-1.8-1.2-4.3-1c-0.9,0.1-1.6,0.2-2.4,0.4c-1.5,0.4-3.6,1-6.2,2.1
				c-1.5-0.1-2.9-0.2-4.4-0.2c-3.5-1.3-12.2-4.8-13.3-1.6c0,0-3.1,8.2-3.5,10.3c-0.6,2.9-2.4,10.7-0.1,13.8
				c3.9,5.2,14.4,4.5,18.7,4.5c5.4,0,16.9,0.7,19.6-6.6c1-2.7,0.8-8.5,0-11.2C652.9,453.5,649.7,445.5,649.7,445.5z"/>
			<path class="st44" d="M643,444.9c1.7,2.6,1.2,11.5-1.5,13.5c-1.3,0.9-3.6,1.1-4,3c-0.1,0.4,0,1.6,2,1.8
				c1.4,0.1,12.5-0.5,12.5,6.8"/>
			<path class="st44" d="M625.9,444.5c-1.7,2.6-3,11.7-0.3,13.6c1.3,0.9,2,0.9,3.3,2c1.1,0.9,0.9,3.3-1.1,3.4
				c-1.4,0.1-10.9-0.5-11.8,6"/>
			<path class="st44" d="M654.3,464.1c-0.7-0.3-2.1-1.3-3-2.8s-0.3-7,1.1-9.1"/>
			<path class="st44" d="M614.3,464c0.7-0.3,2.3-1.2,3-2.8c2-4.4,0.6-7-1.1-8.4"/>
			<path class="st45" d="M636.7,447c0,0,2.2,3.8,2.4,5.3c0.1,0.7-0.4,2.2-0.7,2.9c-0.2,0.4-0.7,1.3-1.1,1.5
				c-1.4,0.8-4.9,0.4-6.4-0.2c-0.8-0.3-1.9-1.7-2.2-2.4c-0.2-0.5,0.2-1.7,0.4-2.2c0.4-1.2,2.3-4.5,2.3-4.5"/>
			<polygon class="st43" points="637.9,449.6 629.6,451.7 630.2,450.5 637.3,448.7 			"/>
			<polygon class="st43" points="632.3,449.3 631.4,450.3 637.7,452.6 638.4,451.7 			"/>
			<polygon class="st43" points="638.4,455.1 637.8,456.1 629.2,451.8 629.8,450.8 			"/>
			<polygon class="st43" points="634.3,448.2 633.8,447.5 630.3,450.1 630.5,451.2 			"/>
			<polygon class="st43" points="637.4,451.3 636.6,452.2 634.3,447.8 635.2,447.8 			"/>
			<path class="st43" d="M629.2,446.4c2.6,0,4.7,0.1,4.7,1s-1.7,1.3-4.3,1.3s-4.4,0.9-4.4,0S626.7,446.4,629.2,446.4z M629.4,448
				c1.2,0,2.9-0.3,2.9-0.5s-1.5-0.2-2.7-0.2s-3.1,0.6-3.1,0.9C626.5,448.4,628.2,448,629.4,448z"/>
			<path class="st43" d="M638.7,447.4c-2.2-0.3-4-0.9-4.1,0.1c0,0.9,1.5,2.2,3.7,2.2s3.8,0.9,3.8,0
				C642.2,448.8,640.9,447.7,638.7,447.4z M638.6,448.9c-1.1,0-3-1.1-3-1.3c0-0.2,1.8,0.4,2.8,0.6c1,0.1,2.7,0.6,2.7,0.9
				C641.1,449.3,639.6,448.9,638.6,448.9z"/>
			<polygon class="st43" points="638.4,451.5 629.2,454.4 629.8,455.4 638.7,452.5 			"/>
		</g>
		<path class="st39" d="M591.2,445.7c-2.6,0-4.7,0.1-4.7,1s1.7,1.3,4.3,1.3s4.4,0.9,4.4,0S593.8,445.7,591.2,445.7z M591,447.3
			c-1.2,0-2.9-0.3-2.9-0.5s1.5-0.2,2.7-0.2s3.1,0.6,3.1,0.9C593.9,447.7,592.2,447.3,591,447.3z"/>
		<path class="st39" d="M585.9,446.4h0.4c0.3,0,0.6,0.3,0.6,0.6l0,0c0,0.3-0.3,0.6-0.6,0.6h-0.4c-0.3,0-0.6-0.3-0.6-0.6l0,0
			C585.3,446.7,585.6,446.4,585.9,446.4z"/>
		<g id="legs" class="st42">
			<path class="st46" d="M563.4,381.6l38.4,4.2l-1.2,35.5c0,0-6.3,1.9-18,2.1c-6.7,0.1-15.9-3.4-15.9-3.4L563.4,381.6z"/>
			<path class="st46" d="M617.1,384.7l38-1.7l-4.1,35.9c0,0-8.8,2.3-16.4,3c-8,0.7-15.4-1.5-15.4-1.5L617.1,384.7z"/>
		</g>
		<g id="pants" class="st42">
			<path id="left" class="st47" d="M601.9,385.7c0,0-10.3,2.2-20.3,1.5c-8.6-0.6-18.2-5.7-18.2-5.7l-0.1-2.8l38.5,4.8L601.9,385.7
				L601.9,385.7z"/>
			<path id="right" class="st47" d="M655.1,383c0,0-11.8,3-19.3,3.4c-8.4,0.4-18.7-1.7-18.7-1.7l-0.3-2.4l38.6-3.2L655.1,383z"/>
			<path id="shorts" class="st48" d="M639.6,333c0,0,1,4.8,3.6,9.5c3.1,5.7,8.3,11.9,10.8,18.7c3.5,9.7,1.2,19.2,1.2,19.2
				s-9.4,2.8-18.5,3.8s-19.8-1.9-19.8-1.9s-0.1-10.1-0.5-12.4c-1.3-5.9-5.7-9.7-6.9-9.5c-1.8,0.3-3.9,3.3-6.1,6.6
				c-1.8,2.6-1.4,16.6-1.4,16.6s-6.4,1.7-16.9,1.7s-21.5-6.5-21.5-6.5s-1.8-7.5,0.5-15.2c2-6.5,8.2-18.4,8.9-20.8
				c1-3.6,0.7-6.9,0.7-6.9L639.6,333z"/>
		</g>
		<polygon class="st49" points="555.6,298.9 576.9,305.2 576,326 553.9,326 		"/>
		<polygon class="st49" points="637.7,299.3 656.2,295.5 664.1,318.8 644.6,323 		"/>
		<g id="tee_1_" class="st42">
			<path class="st47" d="M555.6,299.1l22.3-2.4l-1,8.5c0.6,0.2-7,0.4-11.2-1.1c-3.6-1.2-10.1-3.4-10.1-3.4V299.1z"/>
			<path class="st47" d="M636.1,295.8l19.6-2.3l0.5,2c0,0-3.6,3.2-7.3,4.6c-4.9,1.8-11.1,1.3-11.1,1.3L636.1,295.8z"/>
			<path id="tee" class="st48" d="M637.7,299.3l1.9,33.7c0,0-21.1,3.4-31.2,4.2c-13.9,1.1-32.9-1.7-32.9-1.7l1.5-31.8
				c0,0-7.7-0.3-11.1-1.5c-3.7-1.3-10.3-3.1-10.3-3.1s1.8-15.5,6-24.7s22.4-18.3,22.4-18.3l38.9-1.9c0,0,11.2,4.4,16.8,8.7
				c8.7,6.8,9.1,15,13.8,24.8c0.9,1.9,2.3,5.8,2.3,5.8s-5.2,3.6-8.7,4.9C642.2,300,637.7,299.3,637.7,299.3z"/>
			<path id="collar" class="st47" d="M618.2,259.9c-1.1,3-4.5,8.7-13.2,8.7c-7.7,0-13.5-5.6-13.5-10.3c0-3.2,5.4-1.1,13.1-1.1
				C612.3,257.2,620.4,253.7,618.2,259.9z"/>
		</g>
		<path class="st50" d="M617.1,258c0,4-5.1,9.2-11.2,9.2c-6.1,0-12.5-4.1-12.5-8.1s4.9-7.3,11-7.3C610.5,251.8,617.1,254,617.1,258z
			"/>
		<g id="Head_3_" class="st42">
			<g id="head">
				<path id="right_outter_ear" class="st46" d="M638.2,206.1c1,11.6-9.3,12.7-15.4,8.8c-6.6-4.2-9-9.2-9-10.9
					c-0.2-8.3,2.9-13.7,10.6-13C631.8,191.6,637.5,197.8,638.2,206.1z"/>
				<path id="right_innner_ear" class="st51" d="M632,206.1c0.4,6.4-4.5,7-7.4,4.9c-3.2-2.3-4.3-5.1-4.3-6c-0.1-4.6,1.3-7,5-6.4
					C628.2,199,631.7,202.1,632,206.1z"/>
				<path id="left_outter_ear" class="st46" d="M567.2,206.9c-1,10.6,8.6,11.7,14.4,8.2c6.2-3.8,8.5-8.3,8.6-9.9
					c0.3-7.6-2.6-12.5-9.8-12C573.4,193.7,568,199.3,567.2,206.9z"/>
				<path class="st51" d="M574.2,207.5c-0.5,5.9,4.1,6.5,6.9,4.5c3-2.1,4.1-4.6,4.1-5.5c0.1-4.2-1.2-6.5-4.6-6
					C577.8,201,574.5,203.8,574.2,207.5z"/>
				<path id="head_1_" class="st46" d="M635,233.6c0.1,7.4-1.3,14.4-9.1,19.6c-9.3,6.1-13.1,11.1-21.3,10.8
					c-8.4-0.3-13-7.1-19.3-7.9c-5.5-0.7-14.1-12-13.7-22.1c0.2-4.8,3.1-14.4,7-20.5c5.7-8.7,13.3-16.1,23.9-16.1
					c8.5,0,17.3,7.6,24.2,16.1C630.5,218.3,634.9,229,635,233.6z"/>
				<path id="snoot_1_" class="st51" d="M589.8,243.9c-1.1-6.5,3.2-9.8,6-12.7c3-3.2,3.2-7.7,8.1-7.7c0.8,0,3.5,0.4,4.9,3
					c4.9,9.3,9.9,6.1,9.9,15.6c0,4.8-4.3,13.1-13.9,13C597.4,255.1,590.9,250.8,589.8,243.9z"/>
			</g>
			<path id="nose_1_" class="st52" d="M598.5,232.4c0-2.3,1.6-4.9,5.6-5c3-0.1,5.1,1.7,5.1,4s-2.2,5.9-5,5.9
				C601.4,237.3,598.5,234.7,598.5,232.4z"/>
			<path id="chin" class="st45" d="M602.7,247.6c0,0,0.9,0.2,1.7,0.2s1.5-0.2,1.5-0.2"/>
			<path id="mouth" class="st45" d="M595.4,240.8c0,0,0.5,3.9,3.4,3.9s4.7-2.6,5.4-2.7s2.6,2.4,5,1.4s3.2-4.2,3.2-4.2"/>
			<g id="left_eye">
				<g>
					<ellipse class="st43" cx="592.6" cy="223.9" rx="3.4" ry="4.7"/>
					<circle class="st53" cx="592.6" cy="225.3" r="3.3"/>
					<circle class="st54" cx="592.6" cy="225.3" r="1.9"/>
					<circle class="st43" cx="593.3" cy="224.6" r="0.8"/>
					<circle class="st43" cx="592.2" cy="225.5" r="0.4"/>
				</g>
			</g>
			<g id="right_eye">
				<ellipse class="st43" cx="615.2" cy="223.9" rx="3.4" ry="4.7"/>
				<circle class="st55" cx="615.2" cy="225.3" r="3.3"/>
				<circle class="st54" cx="615.2" cy="225.3" r="1.9"/>
				<circle class="st43" cx="615.9" cy="224.7" r="0.8"/>
				<circle class="st43" cx="614.8" cy="225.6" r="0.4"/>
			</g>
			<path class="st51" d="M589.2,215.5c-1.3-1.3,1.1-3.4,3.6-3.9c2.2-0.4,4.5,0.3,4.5,1.9c0,1.4-1.8,1.1-4.3,1.6
				C590.7,215.6,590.5,216.8,589.2,215.5z"/>
			<path class="st51" d="M618.4,215.5c1.2-1.3-1-3.4-3.3-3.9c-2-0.4-4.1,0.3-4.2,1.9c0,1.4,1.7,1.1,3.9,1.6
				C617.1,215.6,617.2,216.8,618.4,215.5z"/>
			<path class="st56" d="M626.8,214.6h-16.2c-1.3,0-2.4,1.1-2.4,2.4v1.7c-0.8-0.4-1.9-0.8-3.3-0.8c-1.9,0-3.4,0.6-4.2,1.1v-2
				c0-1.3-1.1-2.4-2.4-2.4h-16.2c-1.3,0-2.4,1.1-2.4,2.4v10.1c0,1.3,1.1,2.4,2.4,2.4h16.2c1.3,0,2.4-1.1,2.4-2.4v-6
				c0.8-0.4,2.2-1,3.7-1.1c1.4-0.1,2.9,0.5,3.8,0.9v6.2c0,1.3,1.1,2.4,2.4,2.4h16.2c1.3,0,2.4-1.1,2.4-2.4V217
				C629.2,215.7,628.1,214.6,626.8,214.6z M598.2,225.3c0,1.3-1.1,2.4-2.4,2.4h-11.2c-1.3,0-2.4-1.1-2.4-2.4v-6.6
				c0-1.3,1.1-2.4,2.4-2.4h11.2c1.3,0,2.4,1.1,2.4,2.4V225.3z M626.7,225.3c0,1.3-1.1,2.4-2.4,2.4h-11.2c-1.3,0-2.4-1.1-2.4-2.4
				v-6.5c0-1.3,1.1-2.4,2.4-2.4h11.2c1.3,0,2.4,1.1,2.4,2.4V225.3z"/>
		</g>
		<circle class="st39" cx="606.3" cy="326" r="31.7"/>
		<polygon class="st57" points="597,300.7 584.1,304.3 580.2,316.8 590.1,320 600.5,310.4 		"/>
		<polygon class="st57" points="623.3,308.1 612.8,314 615.9,327 627.3,330 632.3,319.6 		"/>
		<polygon class="st57" points="592.9,332 586.2,341.4 595.4,351 607.6,348 606.3,336.2 		"/>
		<polygon class="st57" points="634,341.4 628.6,341.4 618.4,350.5 619,355.1 628,349.1 		"/>
		<line class="st40" x1="605.4" y1="336.6" x2="617.1" y2="326"/>
		<line class="st40" x1="628.9" y1="342.3" x2="627" y2="328.5"/>
		<line class="st40" x1="614.4" y1="314.8" x2="599.1" y2="309.6"/>
		<path class="st57" d="M607.6,294.8"/>
		<path class="st57" d="M596.5,301.4"/>
		<line class="st40" x1="590.1" y1="320" x2="593.3" y2="333.3"/>
		<line class="st40" x1="606.7" y1="347.6" x2="619.5" y2="350.6"/>
		<path class="st57" d="M595.5,355.8"/>
		<path class="st57" d="M595.7,350.1"/>
		<path class="st57" d="M577,337.4"/>
		<path class="st57" d="M589.2,342.7"/>
		<path class="st57" d="M637.3,319.7"/>
		<path class="st57" d="M631.6,320"/>
		<polygon class="st57" points="574.6,326 574.6,324.3 580.2,316.3 581.2,316.6 		"/>
		<polygon class="st57" points="576.2,336.5 586.8,340.7 586.4,341.8 577,338.2 		"/>
		<rect x="595.1" y="349.6" class="st57" width="1" height="6.3"/>
		<rect x="631.5" y="319.2" class="st57" width="5.9" height="0.9"/>
		<polygon class="st57" points="620.9,298.1 622.1,298.6 623.9,309.6 622.9,309.5 		"/>
		<polygon class="st57" points="609.5,294.5 597.2,301.4 596.3,300.7 608.1,294.4 		"/>
		<polygon class="st57" points="583.5,304 584.1,303.7 585.2,304.9 584.3,305.2 		"/>
		<path class="st49" d="M555,332.3c2.3,3.7,10.7,7.8,15,8.7c2.1,0.4,8.9,0.8,12.1-0.2c4.7-1.6,9.3-12,10.3-16.8
			c0.6-3.1,0.2-4-0.2-5.7c-0.3-1.1-1.4-0.8-1.7-0.9c-0.5-0.2,0.4-2.5-0.6-4.6c-0.7-1.4-1-1.1-1.1-1.6c-0.2-0.8-0.2-2.2-0.7-2.9
			c-0.6-0.7-2.7-1.2-3.6-1.1c-2.5,0.3-6.3,3.9-7.9,5.8c-1.4,1.7-2.5,5.5-3.2,7.5c-0.1,0.4-0.8,4.1-0.8,4.1l-18.6,1.8
			C553.9,326.4,554.1,330.9,555,332.3z"/>
		<path class="st49" d="M580.9,318.6c0.2-0.9,0.8-3.1,3.2-5.1c1.7-1.4,3.6-2.1,4.6-2.4"/>
		<path class="st49" d="M590.4,317.2c-2.1,0.3-3.2,1.6-4.4,2.8c-1.9,1.9-3,4.2-2.7,4.3"/>
		<path class="st49" d="M563.8,319.5c2.4-0.8,7.5-0.4,9.4,1"/>
		<path class="st58" d="M554.3,323.8c0-1,4.4-0.6,9.4-0.6s9.1,0.8,9.1,1.7s-4.2,0.6-9.1,1.7c-2.9,0.7-9.3,2.9-9.5,0.6
			C554,325.5,554.3,324.3,554.3,323.8z"/>
		<path class="st49" d="M662.4,330.3c-2.3,3.7-10.6,6.2-14.8,7.1c-2.1,0.4-9,2.4-12.2,1.3c-4.7-1.6-9.3-12-10.3-16.8
			c-0.6-3.1-0.2-3.6-0.2-3.6c-0.7-1.1-1.4-1.1-1.4-2.5c0-1.5,0.4-3.1,0.4-3.1c0.7-1.4,1.2-1.1,1.3-1.6c0.2-0.8-0.8-3.1,0.7-4.3
			c1.8-1.5,6.1-0.9,7-0.8c2.5,0.3,4.6,3.4,6.2,5.4c1.4,1.7,3.7,5.2,4.4,7.3c0.1,0.4,1.4,4,1.4,4s17.7-8.6,19.2-3.9
			C664.8,320.9,663.2,329,662.4,330.3z"/>
		<path class="st49" d="M635,315.3c-0.4-0.8-1.6-1.8-4.4-3.1c-2-0.9-4.2-1.6-5.5-1"/>
		<path class="st49" d="M624.9,318.3c2-0.7,3.5-1.1,5.1-0.6c2.6,0.8,5.8,3.5,5.6,3.7"/>
		<path class="st58" d="M663.7,318.1c-2.2-6.2-3.2-0.2-8.2-0.2s-11,4.2-11,5.2s4.2,0.6,9.1,1.7c2.9,0.7,9.3,2.9,9.5,0.6
			C663.2,323.6,664.9,321.6,663.7,318.1z"/>
		<path class="st49" d="M653.9,318.6c-2.4-0.8-10.1,1.6-9.3,4.3"/>
		<path class="st40" d="M634.9,309.4c0-1.5-3.7-3.4-5.1-3.6"/>
	</g>
	<polygon id="Seatbelt" class="st19" points="641.4,340.1 633.8,338.6 557,247.1 566.5,247.1 	"/>
	<path id="Seatbelt_2" class="st19" d="M573.1,340.1c0,0,19-4.5,34.6-4.5c14,0,34.2,4.6,34.2,4.6l3,5.8c0,0-20.8-3.6-37.8-3.6
		c-16,0-36,3.6-36,3.6L573.1,340.1z"/>
	<g id="Car_exterior">
		<path id="Hood_2_" class="st59" d="M1042.7,749c0,0,9.5,35.8-429.2,38.2S183,749,183,749s-11-46.9,0-77.2s9.2-38.3,9.6-48.5
			c0.5-10.2,0,0,1.7-29.9c1.8-31,30.3-40.3,30.3-40.3l389,79.5l390.9-79.6c0,0,18.6,9.3,18.5,39.4c-0.1,30.8-0.1,21.6-0.1,30.8
			s10.2,20.1,19.8,48.5C1052.3,700.1,1042.7,749,1042.7,749z"/>
		<path id="Body_2_" class="st59" d="M999.3,524.3c-38-142.5-66.2-205.3-74.6-226c-8.8-21.4-49.1-113-77.8-132.4
			s-234.5-19.7-234.5-19.7s-204.7,0-234,20.8S309,278.4,299.9,297.9c-8,17.2-55.8,170.1-73.4,225.9c-1.7,5.5-3,11.1-3.9,16.9
			c-0.9,5.7-1.3,11.5-1.3,17.3c0,2,1,3.8,2.5,4.9c16.3,11.2,114.4,69.6,388.6,69.6c274.6,0,372.3-58.7,388.3-69.8
			c1.5-1.1,2.5-2.8,2.5-4.7v-0.2C1003.5,546.5,1002.2,535.2,999.3,524.3z M944.3,440.5c-9.9,10.5-95.8,30.3-330.8,30.3
			S288.2,449.7,280,439.3c-8.2-10.3,70.6-192.2,99.9-227.1c29.4-34.8,76.6-31.4,232.8-31.4s206.3-2.4,235.1,31.5
			C876.7,246.2,954.2,430,944.3,440.5z"/>
		<path id="Bumper_2_" class="st59" d="M182.7,749.7l429.8-0.5l429.4-0.5c0,0,3.2,11.6-7.8,59.7c-11.1,48.1-14.3,42.3-18.2,45.9
			c-3.9,3.6-76.5,12.3-104.2,0s-571.5-12.7-599.2,0s-98.5,2.1-102.6,0s-11.7,1.4-18.7-46.8C184.1,759.2,182.7,749.7,182.7,749.7z"/>
		<path id="Grill_2_" class="st19" d="M817.2,716.4c-25,12.5-157,12.5-204.7,12.5c-51.3,0-179.7-5.5-205-15.1
			c-25.4-9.7-55.5-43.6-56.8-52.6c-0.8-5.8,2.5-9.8,7.5-9.8c19.7,0,176.4,26.7,254.1,27.1s234.7-27.1,253.8-27.1
			c4.8,0,8.1,4.1,7.4,10.1C872.5,670.1,842.2,703.8,817.2,716.4z"/>
		<path id="Right_headlight_2_" class="st60" d="M803.1,560.7c5-6.2,72.4-13.8,94.6-38.2c17.8-19.5,51.3-29.3,66.4-29.3
			c8.1,0,17.1,2.9,20.7,19.1c3.1,13.8-20.2,62-42.6,72.8c-22.4,10.8-81.6,15.5-98.3,15.5s-22.5,0-32.2-8.2
			C804.4,583.7,798.1,566.9,803.1,560.7z"/>
		<path id="Left_headlight_2_" class="st60" d="M424.5,565.8c-5-6.2-72.4-13.8-94.6-38.2c-17.8-19.5-51.3-29.3-66.4-29.3
			c-8.1,0-17.1,2.9-20.7,19.1c-3.1,13.8,20.2,62,42.6,72.8s81.6,15.5,98.3,15.5s22.5,0,32.2-8.2C423.2,588.8,429.5,572,424.5,565.8z
			"/>
	</g>
</g>
</svg>
