<?xml version="1.0" encoding="utf-8"?>
<!-- Generator: Adobe Illustrator 25.2.1, SVG Export Plug-In . SVG Version: 6.00 Build 0)  -->
<svg version="1.1" id="Layer_1" xmlns="http://www.w3.org/2000/svg" xmlns:xlink="http://www.w3.org/1999/xlink" x="0px" y="0px"
	 viewBox="0 0 1650.8 1006.2" style="enable-background:new 0 0 1650.8 1006.2;" xml:space="preserve">
<style type="text/css">
	.st0{fill:#C0BEC2;stroke:#000000;stroke-miterlimit:10;}
	.st1{fill:#EFCDB1;stroke:#000000;stroke-miterlimit:10;}
	.st2{fill:#EFD3BF;stroke:#000000;stroke-miterlimit:10;}
	.st3{opacity:0.44;fill:none;stroke:#B29E8E;stroke-miterlimit:10;enable-background:new    ;}
	.st4{opacity:0.44;}
	.st5{fill:#B29E8E;}
	.st6{fill:#B29E8E;stroke:#000000;stroke-miterlimit:10;}
	.st7{fill:#770000;stroke:#000000;stroke-miterlimit:10;}
	.st8{fill:#00AA00;stroke:#000000;stroke-miterlimit:10;}
	.st9{fill:#000077;stroke:#000000;stroke-width:0.75;stroke-miterlimit:10;}
	.st10{fill:#FFFF00;stroke:#000000;stroke-miterlimit:10;}
	.st11{fill:#00CC00;stroke:#000000;stroke-miterlimit:10;}
	.st12{fill:#DD0000;stroke:#000000;stroke-miterlimit:10;}
	.st13{fill:none;stroke:#000000;stroke-miterlimit:10;}
	.st14{fill:none;stroke:#000000;stroke-linecap:round;stroke-miterlimit:10;}
	.st15{opacity:0.5;fill:#FFFFFF;enable-background:new    ;}
	.st16{fill:#FFFFFF;stroke:#000000;stroke-miterlimit:10;}
	.st17{fill:#353535;stroke:#000000;stroke-miterlimit:10;}
	.st18{fill:#2B2B2B;stroke:#000000;stroke-miterlimit:10;}
	.st19{fill:#3C3B44;stroke:#000000;stroke-miterlimit:10;}
	.st20{fill:#28282D;stroke:#000000;stroke-miterlimit:10;}
	.st21{fill:#222222;stroke:#000000;stroke-miterlimit:10;}
	.st22{fill:#484A5B;stroke:#000000;stroke-miterlimit:10;}
	.st23{fill:#4F5263;stroke:#000000;stroke-miterlimit:10;}
	.st24{fill:#393C47;stroke:#000000;stroke-miterlimit:10;}
	.st25{display:none;}
	.st26{display:inline;}
	.st27{fill:#006DC6;stroke:#1A1129;stroke-miterlimit:10;}
	.st28{fill:#FE9A00;stroke:#1A1129;stroke-miterlimit:10;}
	.st29{display:inline;fill:#006DC6;stroke:#1A1129;stroke-miterlimit:10;}
	.st30{display:inline;fill:#0027C6;stroke:#1A1129;stroke-miterlimit:10;}
	.st31{display:inline;fill:#FEEAAC;}
	.st32{display:inline;fill:#00228E;}
	.st33{fill:#458BFE;stroke:#1A1129;stroke-miterlimit:10;}
	.st34{fill:#002BB2;stroke:#1A1129;stroke-linecap:round;stroke-miterlimit:10;}
	.st35{fill:none;stroke:#1A1129;stroke-linecap:round;stroke-miterlimit:10;}
	.st36{fill:#FEFEFE;stroke:#1A1129;stroke-miterlimit:10;}
	.st37{fill:#62353D;stroke:#1A1129;stroke-miterlimit:10;}
	.st38{stroke:#1A1129;stroke-miterlimit:10;}
	.st39{fill:#FEF1F5;stroke:#1A1129;stroke-miterlimit:10;}
	.st40{fill:#FDFEFE;stroke:#1A1129;stroke-miterlimit:10;}
	.st41{display:inline;fill:#451440;stroke:#1A1129;stroke-miterlimit:10;}
	.st42{display:inline;fill:#914831;stroke:#1A1129;stroke-miterlimit:10;}
	.st43{display:inline;fill:#C07356;stroke:#1A1129;stroke-miterlimit:10;}
	.st44{display:inline;fill:none;stroke:#1A1129;stroke-miterlimit:10;}
	.st45{fill:#C07356;}
	.st46{fill:none;stroke:#1A1129;stroke-miterlimit:10;}
	.st47{fill:none;stroke:#1A1129;stroke-miterlimit:10;stroke-dasharray:3.0746,3.0746;}
	.st48{fill:none;stroke:#1A1129;stroke-linecap:square;stroke-miterlimit:10;}
	.st49{fill:none;stroke:#1A1129;stroke-linecap:square;stroke-miterlimit:10;stroke-dasharray:3.0135,3.0135;}
	.st50{display:inline;fill:#D62BBE;stroke:#1A1129;stroke-miterlimit:10;}
	.st51{display:inline;fill:#353535;stroke:#100B39;stroke-miterlimit:10;}
	.st52{fill:#0027C6;stroke:#1A1129;stroke-miterlimit:10;}
	.st53{fill:#FEEAAC;}
	.st54{fill:#00228E;}
	.st55{fill:#451440;stroke:#1A1129;stroke-miterlimit:10;}
	.st56{fill:#914831;stroke:#1A1129;stroke-miterlimit:10;}
	.st57{fill:#C07356;stroke:#1A1129;stroke-miterlimit:10;}
	.st58{fill:#D62BBE;stroke:#1A1129;stroke-miterlimit:10;}
	.st59{fill:#353535;stroke:#100B39;stroke-miterlimit:10;}
	.st60{display:inline;fill:#656C75;stroke:#511E69;stroke-width:0.5;stroke-miterlimit:10;}
	.st61{display:inline;fill:#1EB2D9;stroke:#511E69;stroke-width:0.5;stroke-miterlimit:10;}
	.st62{display:inline;fill:#7FB0DD;stroke:#511E69;stroke-width:0.5;stroke-miterlimit:10;}
	.st63{display:inline;fill:#FFFFFF;stroke:#511E69;stroke-width:0.5;stroke-miterlimit:10;}
	.st64{display:inline;fill:#902944;stroke:#511E69;stroke-width:0.5;stroke-miterlimit:10;}
	.st65{display:inline;fill:#322E7A;stroke:#511E69;stroke-width:0.5;stroke-miterlimit:10;}
	
		.st66{display:inline;fill:#E38A5A;stroke:#511E69;stroke-width:0.5;stroke-linecap:round;stroke-linejoin:round;stroke-miterlimit:10;}
	.st67{display:inline;fill:#E38A5A;stroke:#511E69;stroke-width:0.5;stroke-linejoin:round;stroke-miterlimit:10;}
	.st68{display:inline;fill:#833A7C;stroke:#511E69;stroke-width:0.5;stroke-miterlimit:10;}
	.st69{display:inline;fill:#395B90;stroke:#511E69;stroke-width:0.5;stroke-miterlimit:10;}
	.st70{display:inline;fill:#6C8FB0;stroke:#511E69;stroke-width:0.5;stroke-miterlimit:10;}
	.st71{fill:none;stroke:#511E69;stroke-width:0.5;stroke-linecap:round;stroke-miterlimit:10;}
	.st72{fill:none;stroke:#511E69;stroke-width:0.5;stroke-linecap:round;stroke-miterlimit:10;stroke-dasharray:4.6286,4.6286;}
	.st73{display:inline;fill:none;stroke:#511E69;stroke-width:0.5;stroke-miterlimit:10;}
	.st74{display:inline;fill:#EDB26E;stroke:#511E69;stroke-width:0.5;stroke-miterlimit:10;}
	.st75{display:inline;fill:#F6D249;stroke:#511E69;stroke-width:0.5;stroke-miterlimit:10;}
	.st76{display:inline;fill:#F6D249;stroke:#511E69;stroke-width:0.5;stroke-linecap:round;stroke-miterlimit:10;}
	.st77{display:inline;fill:none;stroke:#511E69;stroke-width:0.5;stroke-linecap:round;stroke-miterlimit:10;}
	.st78{display:inline;fill:#F1CB4A;stroke:#511E69;stroke-width:0.5;stroke-miterlimit:10;}
	.st79{display:inline;fill:#FFEB9F;stroke:#511E69;stroke-width:0.5;stroke-miterlimit:10;}
	.st80{display:inline;fill:#5D2E73;stroke:#511E69;stroke-width:0.5;stroke-miterlimit:10;}
	.st81{display:inline;fill:#FBFDFF;stroke:#511E69;stroke-width:0.5;stroke-miterlimit:10;}
	.st82{fill:#FFFFFF;stroke:#511E69;stroke-width:0.5;stroke-miterlimit:10;}
	.st83{fill:#7C3F90;stroke:#511E69;stroke-width:0.5;stroke-miterlimit:10;}
	.st84{stroke:#511E69;stroke-width:0.5;stroke-miterlimit:10;}
	.st85{fill:#FFEB9F;stroke:#511E69;stroke-width:0.5;stroke-miterlimit:10;}
	.st86{display:inline;fill:#808C96;stroke:#511E69;stroke-width:0.5;stroke-miterlimit:10;}
	.st87{display:inline;fill:#5A5E62;stroke:#511E69;stroke-width:0.5;stroke-miterlimit:10;}
	.st88{display:inline;fill:#E38A5A;stroke:#511E69;stroke-width:0.5;stroke-miterlimit:10;}
	.st89{fill:#F1CB4A;stroke:#511E69;stroke-width:0.5;stroke-miterlimit:10;}
	.st90{fill:#F6D249;stroke:#511E69;stroke-width:0.5;stroke-miterlimit:10;}
	.st91{fill:#5D2E73;stroke:#511E69;stroke-width:0.5;stroke-miterlimit:10;}
	.st92{fill:#FBFDFF;stroke:#511E69;stroke-width:0.5;stroke-miterlimit:10;}
	.st93{fill:none;stroke:#511E69;stroke-width:0.5;stroke-miterlimit:10;}
	.st94{fill:#902944;stroke:#511E69;stroke-width:0.5;stroke-miterlimit:10;}
	.st95{fill:#322E7A;stroke:#511E69;stroke-width:0.5;stroke-miterlimit:10;}
	.st96{fill:#E38A5A;stroke:#511E69;stroke-width:0.5;stroke-miterlimit:10;}
	.st97{fill:#833A7C;stroke:#511E69;stroke-width:0.5;stroke-miterlimit:10;}
	.st98{fill:#395B90;stroke:#511E69;stroke-width:0.5;stroke-miterlimit:10;}
	.st99{fill:#6C8FB0;stroke:#511E69;stroke-width:0.5;stroke-miterlimit:10;}
	.st100{fill:#EDB26E;stroke:#511E69;stroke-width:0.5;stroke-miterlimit:10;}
	.st101{display:none;fill:none;stroke:#511E69;stroke-width:0.5;stroke-miterlimit:10;}
	.st102{fill:#444444;stroke:#000000;stroke-miterlimit:10;}
	.st103{fill:#CE2607;stroke:#000000;stroke-miterlimit:10;}
	.st104{fill:#FEF9B7;stroke:#000000;stroke-width:3;stroke-miterlimit:10;}
</style>
<g id="Background">
	<path id="Pavement" class="st0" d="M1648.8,1006.2H-2V115h383.9c0,0,14-11,23.9-37.4c8.2-27-9.3-39.7-9.3-39.7L-2,39V24h401.8h18.6
		h934.2v14H431.7L626,115l1022.8,388.1V1006.2z"/>
	<polygon id="Sidewalk_path" class="st1" points="628,115 433.7,37.9 466.1,37.9 1348.2,37.9 1348.2,45.2 480.2,42.3 681.8,105 
		628.2,105.3 	"/>
	<g id="Sidewalk_1_">
		<polygon id="Sidewalk" class="st2" points="1650.8,503.1 628,115 628.2,105.3 1348.2,105.3 1348.3,138.1 1650.8,182.9 		"/>
		<line id="Crack_10" class="st3" x1="1518.5" y1="428.8" x2="1650.8" y2="353.6"/>
		<line id="Crack_9" class="st3" x1="1394.9" y1="383.9" x2="1650.8" y2="277.1"/>
		<line id="Crack_8" class="st3" x1="1276.9" y1="341" x2="1650.8" y2="223.3"/>
		<line id="Crack_7" class="st3" x1="1167" y1="301.1" x2="1646.2" y2="183.7"/>
		<line id="Crack_6" class="st3" x1="1067.3" y1="264.9" x2="1559.6" y2="169.4"/>
		<line id="Crack_5" class="st3" x1="971.1" y1="229.9" x2="1469.5" y2="156.1"/>
		<line id="Crack_4" class="st3" x1="885.1" y1="198.7" x2="1387.3" y2="143.5"/>
		<line id="Crack_3" class="st3" x1="807.6" y1="170.5" x2="1348.2" y2="126.5"/>
		<line id="Crack_2" class="st3" x1="734.5" y1="145.7" x2="1348.2" y2="105.3"/>
		<g id="Crack_1" class="st4">
			<polygon class="st5" points="683.4,125.8 683.3,124.8 973.4,105.8 989.1,105.8 989.1,105.8 			"/>
		</g>
		<polygon id="Sidewalk_shadow" class="st6" points="1650.8,503.1 628,115 628.2,105.3 1650.8,476.9 		"/>
	</g>
	<polygon id="School" class="st7" points="1650.8,182.9 1348.3,138.1 1348.3,0 1650.8,0 	"/>
	<path id="Grass_Right" class="st8" d="M383.9,115H0V39l398.5-1.1c0,0,11.5,9.2,11.5,29.2C410,88.3,383.9,115,383.9,115z"/>
	<polygon id="Grass_left" class="st8" points="1348.2,105.3 681.8,105 480.2,42.3 1348.2,45.2 	"/>
	<rect id="Grass_Top" class="st8" width="1348.2" height="24"/>
	<path id="Bike_rack" class="st9" d="M1425.2,87.8L1020.4,53l-17-1.8c-2.6,0-5.1,1-7,2.9L919.8,129l0,0l-2.7,3.5
		c-0.7,1.7,0.7,3.6,2.6,3.4l86.5-8.7l317.7,65l-32.9,33.3c-0.9,0.9-1.4,2.1-1.4,3.3c0,1,0.3,2,0.9,2.8c0.3,0.4,0.8,0.7,1.4,0.7
		c0.1,0,0.2,0,0.3,0l126.2-20.1l7.7-0.9c1.6-0.2,2.9-1.6,2.9-3.2l1.6-114.6C1430.7,91.9,1430.7,87.8,1425.2,87.8z M999.3,120.5
		L929,128l70.3-69.7V120.5z M1394.9,99.3c0-2,1.7-3.5,3.7-3.3l18.3,1.8l-22,22.3V99.3z M1366.3,98.4c0-3,2.5-5.3,5.5-5l13.2,1.3
		c2.6,0.2,4.5,2.4,4.5,5v25.9l-23.2,23.5V98.4z M1366.3,158.8l23.2-23.8v53.6c0,3.1-2.9,5.5-5.9,4.9l-13.2-2.5
		c-2.4-0.5-4.1-2.5-4.1-4.9V158.8z M1338.2,95.6c0-3,2.5-5.3,5.5-5l12.8,1.2c2.6,0.2,4.5,2.4,4.5,5v57.6l-22.8,23.1V95.6z
		 M1361,164.3v18.8c0,3.1-2.9,5.5-5.9,4.9l-14.5-2.8L1361,164.3z M1023.1,118.1c0,3.1-2.9,5.5-6,4.9l-6.9-1.3
		c-2.4-0.4-4.1-2.5-4.1-4.9l0.1-53.4c0-2.9,2.5-5.2,5.5-5l6.7,0.6c2.6,0.2,4.5,2.4,4.5,5v54.1
		C1022.9,118.1,1023.1,118.1,1023.1,118.1z M1045.1,122.4c0,3.1-2.9,5.5-5.9,4.9l-6.7-1.3c-2.4-0.5-4.1-2.5-4.1-4.9V65.6
		c0-3,2.5-5.3,5.5-5l7,0.7h0.1c2.4,0.2,4.1,2.2,4.1,4.6V122.4z M1067.3,126.6c0,3.1-2.9,5.5-6,4.9l-6.8-1.3
		c-2.4-0.5-4.1-2.5-4.1-4.9V67.7c0-2.9,2.5-5.3,5.5-5l6.8,0.7c2.6,0.2,4.5,2.4,4.5,5L1067.3,126.6L1067.3,126.6z M1089.5,130.9
		c0,3.1-2.9,5.5-5.9,4.9l-6.8-1.3c-2.4-0.5-4.1-2.5-4.1-4.9V69.9c0-3,2.5-5.3,5.5-5l6.8,0.7c2.6,0.2,4.5,2.4,4.5,5V130.9z
		 M1111.8,135.2c0,3.1-2.9,5.5-5.9,4.9l-6.9-1.3c-2.4-0.5-4.1-2.5-4.1-4.9V72c0-3,2.5-5.3,5.5-5l6.9,0.7c2.6,0.2,4.5,2.4,4.5,5
		V135.2z M1137.7,140.2c0,3.1-2.9,5.5-5.9,4.9l-10.6-2c-2.4-0.5-4.1-2.5-4.1-4.9v-64c0-3,2.5-5.3,5.5-5l10.6,1
		c2.6,0.2,4.5,2.4,4.5,5V140.2z M1161.7,144.8c0,3.2-2.9,5.5-5.9,4.9l-8.6-1.7c-2.3-0.5-4-2.5-4-4.9V76.7c0-3,2.5-5.3,5.5-5l8.6,0.8
		c2.6,0.2,4.5,2.4,4.5,5L1161.7,144.8L1161.7,144.8z M1187,149.7c0,3.1-2.9,5.5-5.9,4.9l-10-1.9c-2.4-0.4-4.1-2.5-4.1-4.9V79
		c0-3,2.5-5.3,5.5-5l10,1c2.6,0.2,4.5,2.4,4.5,5V149.7z M1217.3,155.5c0,3.1-2.9,5.5-6,4.9l-14.9-2.9c-2.3-0.4-4.1-2.5-4.1-4.9V81.5
		c0-3,2.5-5.3,5.5-5l14.9,1.5c2.6,0.2,4.5,2.4,4.5,5L1217.3,155.5L1217.3,155.5z M1245.9,161c0,3.1-2.9,5.5-5.9,4.9l-13.2-2.5
		c-2.4-0.5-4.1-2.5-4.1-4.9v-74c0-3,2.5-5.3,5.5-5l13.2,1.3c2.6,0.2,4.5,2.4,4.5,5V161z M1274.5,166.5c0,3.1-2.9,5.5-5.9,4.9
		l-13.2-2.5c-2.4-0.5-4.1-2.5-4.1-4.9V87.2c0-3,2.5-5.3,5.5-5l13.2,1.3c2.6,0.2,4.5,2.4,4.5,5V166.5z M1303.1,172
		c0,3.1-2.9,5.5-5.9,4.9l-13.2-2.5c-2.4-0.5-4.1-2.5-4.1-4.9V90c0-2.9,2.5-5.3,5.5-5l13.2,1.3c2.6,0.2,4.5,2.4,4.5,5V172z
		 M1312.5,179.9c-2.4-0.5-4.1-2.5-4.1-4.9V92.8c0-3,2.5-5.3,5.5-5l14.3,1.4c2.6,0.2,4.5,2.4,4.5,5l1,85.6c0,1.5-0.6,2.9-1.6,3.9l0,0
		L1312.5,179.9z M1303.5,223.3l28.8-29.5l66.1,13.5L1303.5,223.3z M1418.7,195.3c0,2.6-2.4,4.6-5,4.1l-15.1-2.9
		c-2.1-0.4-3.7-2.3-3.7-4.4v-62.5l24.7-25.4L1418.7,195.3z"/>
	<g id="Balloons">
		<path class="st10" d="M1405.9,44.6c-5.2-8.8-1-17.1,6.3-19.6c6.7-2.3,15,1.2,16.2,10.5c1.2,9.6,0.3,17.9-6.1,20
			C1416,57.6,1410.7,52.7,1405.9,44.6z"/>
		<path class="st11" d="M1424.6,23.4c-0.7-10.8,5.9-15.6,13.2-15.6c7.3,0,14.1,4.8,13.2,15.6c-0.9,10.4-5.9,18.9-13.2,18.9
			S1425.3,33.8,1424.6,23.4z"/>
		<path class="st12" d="M1467.5,61c4.8-9.1,0.2-19.8-7.5-22.6c-7.7-2.9-19.3,2.1-20.4,12.3c-1.2,10.8-0.2,19.8,7.5,22.6
			S1462.6,70.2,1467.5,61z"/>
		<path class="st13" d="M1436.4,42.3c-3,7.1-3.6,8.1-4,13.3c-0.7,10.5,3.2,18,5,22.6c8.7,22.5-5.9,48.7-5.8,48.7s2.9-14,4.2-30.9
			c0.4-5,0.5-9-1.5-13.1c-0.6-1.2-0.9-1.5-8-10.8c-2.7-3.6-3.4-4.5-4.1-6.1c-1.7-3.8-1.9-7.5-1.8-10.1"/>
		<path class="st13" d="M1445.7,72.7c-4.1,4.2-2.9,11.2-1.7,15.9c5.5,22.3-10.8,37-12.5,38.2"/>
		<path class="st14" d="M1431.5,126.9c-0.9,0.9-2,5.4-5.8,5.8c-6.2,0.7-7.5-3-7.5-3.5c0-1.5,0.3,1.4,5.5,0.8
			C1428.3,129.5,1431.6,126.9,1431.5,126.9c0-0.1-0.5,5-13.4,5"/>
		<path class="st14" d="M1433.8,143.5c-1.2-4.4-2.8-17.2-2.5-16.1c0.8,2.4,1.2,1.2,0,0c-3.9-3.9-3.7,4.9-3.3,6
			c2.2,7.1-0.7-5.7,4.1-5.6c0.9,0-0.6,6.1,0.8,7c4.2,2.6,2-4.1-0.8-7c-2-2.1-2.2,10.3-1.8,13.5"/>
		<path class="st15" d="M1408.8,40.6c-0.3,0.5-1.9,0.6-2.4,0c-1.3-1.8-0.2-7.5,0.6-8.4c0.7-0.8,1.9-1.1,2.8-0.2
			C1410.4,32.7,1409.8,39,1408.8,40.6z"/>
		<path class="st15" d="M1435.8,17.1c0.3-2.1-0.8-3.8-2-3.8c-2.4,0-4.4,4.1-4.1,6.4c0.2,1.4,1.1,2.7,2.7,1.8
			C1433.6,20.8,1435.4,19.1,1435.8,17.1z"/>
		<path class="st15" d="M1452.8,45.8c-0.1-0.8-1.6-1.7-3.6-1.1c-1.4,0.5-4.7,4.2-4.7,5.9c0,2.1,2.4,2.8,3.8,2.2
			C1450.9,51.6,1453,47.5,1452.8,45.8z"/>
	</g>
	<g id="White_Lines_2_">
		<path id="White_Lines_1_" class="st16" d="M1543.8,806.2l-41.2-27.3l-213.9,0.4L771.8,319.4l73.6-0.2l-13.3-8.6h-70.2L566.1,136.4
			h-13.6l189.7,174.2h-419l77.3-174.2h-10l-81.8,174.2H0v10.6l304.1-0.7L87.8,781.3l-87,0.1v24.7h75.4L0,968.4v37.8h14.4l88.8-200
			h1178.6l217.8,200h44.2l-224.8-200H1543.8z M114.2,781.3l204.5-460.8l433.1-1l500.6,459.8L114.2,781.3z"/>
		<g>
			<polygon class="st16" points="177,136.4 0,203.2 0,215.2 193,136.4 			"/>
		</g>
	</g>
</g>
<g id="Car_2">
	<g id="Car_interior_copy">
		<rect x="228.9" y="693.6" class="st17" width="807.9" height="152.3"/>
		<path id="Right_tire_1_" class="st18" d="M940.8,832.8c0-82-10.9-148.5,73.8-148.5c85.4,0,73.8,66.5,73.8,148.5
			c0,44.3-9.6,106.5-24.9,133.7c-13,23.2-42.8,22.6-48.9,22.7c-7.2,0.1-36.3,1.4-49.4-22.4C950.2,939.6,940.8,876.5,940.8,832.8z"/>
		<path id="Left_tire_1_" class="st18" d="M324.8,841.9c0-82,10.1-148.5-73.8-148.5c-85.2,0-73.8,66.5-73.8,148.5
			c0,44.3,9.6,106.5,24.9,133.7c13,23.2,42.8,22.6,48.9,22.7c7.2,0.1,36.3,1.4,49.4-22.4C315.4,948.7,324.8,885.6,324.8,841.9z"/>
		<g>
			<polygon id="back_wall" class="st19" points="829.5,359 427.8,368.5 355.8,177.6 623.3,151.8 886.2,183.7 			"/>
			<polygon id="floor" class="st20" points="1036.8,559.8 258,549.9 360.1,353.9 902.1,355.2 			"/>
			<polygon id="left_wall" class="st19" points="360,185.9 422.4,354.3 331.2,464.3 272.4,454.4 300.8,293.7 			"/>
			<g>
				<polygon id="right_wall" class="st19" points="898.2,475 830.8,355 886.2,183.7 950.5,321.2 975,464.2 				"/>
			</g>
			<path id="Right_mirror_1_" class="st21" d="M1006.5,400.6c21.1-7.3,51-6.1,71.6,0s6.6,49.6,0,57.6s-59.2,8.3-71.6,0
				c-2.8-1.9-19.2-9.7-23.8-7.6l-6.5-20.4c1.1-2.2,7.7-0.9,14.7-7.8C997.4,416,1000,402.9,1006.5,400.6z"/>
			<path id="Left_mirror_1_" class="st21" d="M232.4,400.6c-21.1-7.3-51-6.1-71.6,0s-6.6,49.6,0,57.6s59.2,8.3,71.6,0
				c2.8-1.9,19.2-9.7,23.8-7.6l6.5-20.4c-1.1-2.2-7.7-0.9-14.7-7.8C241.5,416,238.9,402.9,232.4,400.6z"/>
		</g>
	</g>
	<g id="Back_seat_copy">
		<path class="st22" d="M688.6,189.9c9.5-3,30.5-4.8,39.4-0.2c12.2,6.4,16.3,41.4,0.2,41.4c-9.9,0-30.5,0.3-39.4,0.2
			C668.8,231.1,677,193.5,688.6,189.9z"/>
		<path class="st22" d="M775.2,336.1c0.1,27.4-19.4,49.6-43.6,49.8l-47.1,0.2c-42.9,0-43.8-22-43.9-49.3l-0.3-59.7
			c1.3-45.3,0.4-44.8,43.6-46.4l47.1-0.2c44.1,0.1,44.1,1,43.9,49.3L775.2,336.1z"/>
		<path class="st22" d="M641,342.9c0,27.4,7.8,52.7-16,49.8l-17.3,0.2c-16.2,0-16.1-22-16.2-49.3l-0.1-56.3c0-50-0.7-50,16-49.8
			l17.3-0.2c16.7,0,16.7,0,16.2,49.3L641,342.9z"/>
		<path class="st22" d="M509.6,189.1c9.5-3,30.5-4.8,39.4-0.2c12.2,6.4,16.3,41.4,0.2,41.4c-9.9,0-30.5,0.3-39.4,0.2
			C489.8,230.3,497.9,192.8,509.6,189.1z"/>
		<path class="st22" d="M590.8,335.2c0,50.9,4.5,50-43.6,49.8l-47.1,0.2c-24.2,0.1-43.8-22-43.9-49.3l-0.2-56.3
			c0-48.2,0-49,43.6-49.8l47.1-0.2c49.4,0.4,45.3,1,44.1,33.8V335.2z"/>
		<path class="st23" d="M787.1,391.1H455.5c-4.9,0-8.8-3.9-8.8-8.8v-14.5c0-4.9,3.9-8.8,8.8-8.8h331.6c4.9,0,8.8,3.9,8.8,8.8v14.5
			C795.9,387.1,792,391.1,787.1,391.1z"/>
		<rect x="446.8" y="375" class="st24" width="349.1" height="47.3"/>
	</g>
	<g id="Wizardbear_After" class="st25">
		<g id="Right_arm_1_" class="st26">
			<path class="st27" d="M556.3,349.2c0,0,7.1,14,11.7,17c1.7,1.1,8.3,3,10.3,3.4c1.5,0.3,8.4-1,9.9-1c3,0,4.1-1.1,4.9-0.9
				c3.2,0.6,4.9-1.8,5.1-3.8c0.2-2-1.9-5.6-3.1-7.2c-1.4-1.8-7-4.3-10.2-4.8c-2.2-0.3-5.4-0.3-7.6,0c-2.2,0.3-4-2.5-4-2.5
				c-2-12.3-5.2-38.3-5.2-38.3l-16,1.7L556.3,349.2z"/>
			<path class="st27" d="M598.3,364c0-2.3-3.1-7-5.4-7"/>
			<path class="st27" d="M587.5,368.7c2.3-3-2.8-10-6.4-9.7"/>
			<path class="st27" d="M592,367.7c2.7-3.8-1.6-8.9-4.3-10.1"/>
		</g>
		<g id="left_arm_8_" class="st26">
			<path class="st27" d="M493.7,352.3c0,0-5.3,16.7-9.8,19.7c-1.7,1.1-11.3,1.1-13.3,1.5c-1.5,0.3-3.5,0.7-5,0.7c-3,0-3-2.4-3.8-2.3
				c-3.2,0.6-4.5-1.4-4.6-3.4c-0.2-2,1-6.2,2.2-7.8c1.4-1.8,7.6-4.8,9.8-5.5c2.1-0.7,5-0.2,7.5-0.9c2.1-0.5,2-0.9,2-0.9
				c-1-12,4-42.2,4-42.2l11.6,5L493.7,352.3z"/>
			<path class="st27" d="M457.2,368.5c0-2.3,3-7.4,5.2-7.4"/>
			<path class="st27" d="M469.7,373.7c-3.2-3.7,0.1-9.6,5.5-11.9"/>
			<path class="st27" d="M462.5,372.4c-1.2-2.6,2.8-9.2,5.5-10.3"/>
		</g>
		<g id="tee_1_" class="st26">
			<path class="st28" d="M573.4,349.5c0,0,0.2,2.3-3.2,3.5c-4.5,1.6-9,2.3-9,2.3l-5.3-12.4c0,0-20.1,3.2-29.7,4
				c-13.2,1-33.3-1.3-33.3-1.3l-0.7,6.6c0,0-5.5,4.7-8.7,3.5c-3.5-1.3-4.7-2-4.7-2s-0.6-64.2,6.7-72.5c9-10.2,19.8-11.6,19.8-11.6
				l34.7-1.5c0,0,11.2,3.6,16,8.2s9.5,12.3,11.1,22.4C567.9,304.4,573.4,349.5,573.4,349.5z"/>
		</g>
		<path id="Neck" class="st29" d="M534.5,271.5c0,3.8-4.9,8.8-10.6,8.8c-5.8,0-11.9-3.9-11.9-7.7c0-3.8,4.7-6.9,10.5-6.9
			C528.2,265.6,534.5,267.7,534.5,271.5z"/>
		<path class="st30" d="M524.2,277c0,0-9.9,16.1-14.8,19.8c-6.2,4.7-29.1,11.4-29.1,11.4s0-1.8,0.1-4.4c0.1-1.9,0.3-4.2,0.6-6.7
			c0.7-5.7,2-12.2,4.5-15.9c7-10.2,19.8-11.6,19.8-11.6L524.2,277z"/>
		<path class="st30" d="M568.2,308.2c0,0-22.6-5.8-28.8-10.5c-4.9-3.7-15.1-20.7-15.1-20.7l15.7-9c0,0,2.6,0.6,6.2,2.2
			c1.9,0.8,4,1.9,6.2,3.3c3.1,2,6.2,4.6,8.6,7.9C567.3,290.4,568.2,308.2,568.2,308.2z"/>
		<polygon class="st30" points="549.9,231.3 491.3,231.3 521.9,170.4 530.1,188.2 533,194.5 		"/>
		<path class="st31" d="M506.5,201.2l0.7-0.6c0.1-0.1,0.2-0.3,0.2-0.5l-0.1-0.6l1.3-2.5l1.9,1.2c0.2,0.1,0.4,0.1,0.5,0l2.7-1.1
			c0.5-0.2,0.9,0.2,0.8,0.7l-0.7,2.8c0,0.2,0,0.4,0.1,0.5l1.9,2.2c0.3,0.4,0.1,0.9-0.4,1l-2.9,0.2c-0.2,0-0.4,0.1-0.5,0.3l-1.5,2.5
			c-0.3,0.4-0.9,0.4-1.1-0.1l-1.1-2.7c-0.1-0.2-0.2-0.3-0.4-0.4l-2.7-0.6L506.5,201.2z"/>
		<path class="st31" d="M533,194.5l-1.8,0.1c-0.2,0-0.4,0.1-0.5,0.3l-1.5,2.5c-0.3,0.4-0.9,0.4-1.1-0.1l-1.1-2.7
			c-0.1-0.2-0.2-0.3-0.4-0.4l-2.8-0.7c-0.5-0.1-0.6-0.7-0.2-1l2.3-1.9c0.1-0.1,0.2-0.3,0.2-0.5l-0.3-2.9c0-0.5,0.5-0.8,0.9-0.6
			l2.5,1.6c0.2,0.1,0.4,0.1,0.5,0l0.4-0.2L533,194.5z"/>
		<ellipse class="st30" cx="520.5" cy="222.7" rx="43.4" ry="20.5"/>
		<ellipse class="st32" cx="521" cy="224.6" rx="39.3" ry="18.6"/>
		<g id="Head_6_" class="st26">
			<g id="head_14_">
				<path id="right_outter_ear_5_" class="st27" d="M554.6,223.7c0.9,11.1-8.6,12.1-14.2,8.4c-6.1-4-8.3-8.7-8.3-10.4
					c-0.2-7.9,2.7-13,9.7-12.4C548.7,209.9,553.9,215.8,554.6,223.7z"/>
				<path id="right_innner_ear_5_" class="st33" d="M548.9,223.8c0.4,6.1-4.1,6.7-6.8,4.6c-2.9-2.2-4-4.8-4-5.7
					c-0.1-4.4,1.2-6.7,4.6-6.1C545.3,217,548.6,219.9,548.9,223.8z"/>
				<path id="left_outter_ear_5_" class="st27" d="M488.5,223.4c-1,10.1,8,11.2,13.3,7.9c5.8-3.6,7.9-7.9,7.9-9.4
					c0.3-7.3-2.4-11.9-9-11.5C494.2,210.8,489.1,216.1,488.5,223.4z"/>
				<path class="st33" d="M494.9,223.9c-0.4,5.6,3.8,6.1,6.4,4.3c2.8-2,3.8-4.4,3.8-5.2c0.1-4-1.1-6.2-4.3-5.7
					C498.2,217.8,495.1,220.4,494.9,223.9z"/>
				<path id="head_15_" class="st27" d="M551,247.9c0.1,7.1-1.2,13.8-8.4,18.6c-8.5,5.8-12.1,10.6-19.7,10.3
					c-7.7-0.3-12-6.8-17.8-7.5c-5.1-0.7-13-11.5-12.6-21c0.2-4.6,2.8-13.7,6.5-19.5c5.3-8.3,12.3-15.3,22.1-15.3
					c7.9,0,16,7.2,22.3,15.4C546.9,233.3,551,243.6,551,247.9z"/>
				<path id="snoot_9_" class="st33" d="M509.3,257.8c-1-6.2,3-9.3,5.6-12.1c2.8-3,3-7.4,7.5-7.4c0.7,0,3.2,0.4,4.5,2.9
					c4.5,8.8,9.1,5.8,9.2,14.9c0,4.6-3.9,12.5-12.8,12.4C516.3,268.4,510.4,264.3,509.3,257.8z"/>
			</g>
			<path id="chin_8_" class="st34" d="M521.3,261.3c0,0,0.9,0.2,1.6,0.2c0.7,0,1.4-0.2,1.4-0.2"/>
			<path id="mouth_3_" class="st35" d="M514.5,254.8c0,0,0.5,3.7,3.1,3.7c2.7,0,4.3-2.5,4.9-2.5c0.6,0,2.4,2.3,4.6,1.4s2.9-4,2.9-4"
				/>
			<g id="left_eye_3_">
				<g>
					<ellipse class="st36" cx="511.9" cy="238.7" rx="3.2" ry="4.4"/>
					<ellipse class="st37" cx="511.9" cy="240" rx="3" ry="3.1"/>
					<path class="st38" d="M511.9,238.2c0.9,0,1.7,0.8,1.7,1.8s-0.8,1.8-1.7,1.8s-1.7-0.8-1.7-1.8S511,238.2,511.9,238.2z"/>
					<ellipse class="st39" cx="512.5" cy="239.4" rx="0.7" ry="0.8"/>
					<ellipse class="st39" cx="511.5" cy="240.3" rx="0.4" ry="0.4"/>
				</g>
			</g>
			<g id="right_eye_4_">
				<ellipse class="st36" cx="532.8" cy="238.7" rx="3.2" ry="4.4"/>
				<ellipse class="st37" cx="532.8" cy="240" rx="3" ry="3.1"/>
				<ellipse class="st38" cx="532.8" cy="240" rx="1.7" ry="1.8"/>
				<ellipse class="st39" cx="533.4" cy="239.4" rx="0.7" ry="0.8"/>
				<ellipse class="st40" cx="532.4" cy="240.3" rx="0.4" ry="0.4"/>
			</g>
			<path class="st33" d="M508.8,230.7c-1.2-1.3,1-3.3,3.3-3.7c2-0.4,4.2,0.3,4.2,1.8c0,1.3-1.7,1-4,1.5
				C510.1,230.8,510,232,508.8,230.7z"/>
			<path class="st33" d="M535.7,230.7c1.1-1.3-1-3.3-3-3.7c-1.9-0.4-3.8,0.3-3.8,1.8c0,1.3,1.6,1,3.6,1.5S534.6,232,535.7,230.7z"/>
		</g>
		<path class="st26" d="M577.6,457.6"/>
		<path id="Pants" class="st41" d="M506.8,443.5l17.5-0.3c0,0-5.8-47.4-5.8-52.4c0-4.4,1.6-10.5,2.9-15.1c1.1-3.9,4.7-6.7,5.8-6.7
			c1.5,0,5.2,4.3,6.1,8.2c1.4,5.7,1.9,11.4,2.3,15.1c1.5,12.7-3.8,51.8-3.8,51.8l25.6,3.2c0,0,15.8-56,13.1-74.8
			c-0.5-3.8-4.9-9.3-8.2-15.4c-3.7-6.9-6.4-14.3-6.4-14.3s-22.4,3.7-30,4.1c-8.2,0.4-32.9-1.5-32.9-1.5s-0.4,5.9-1.7,9.6
			c-1.5,4.1-8.3,18.2-8.4,23.3c-0.5,22.3,12.2,65.8,12.2,65.8L506.8,443.5z"/>
		<path class="st42" d="M527.4,464.2c0,2.6-10.4,9.8-21.5,11.4c-10.8,1.5-18.9-2.4-18.9-4.9s6.8-4.4,18.1-4.4
			C516.3,466.2,527.4,461.6,527.4,464.2z"/>
		<path class="st42" d="M529.2,464.5c0,2.6,12.5,8.7,22.7,11.6c9.2,2.6,16.9-2,16.9-4.7c0-2.6-5.9-4.9-17.2-4.9
			C540.3,466.5,529.2,461.9,529.2,464.5z"/>
		<path class="st43" d="M491.3,430.4c0,0,9.3,9,10.8,9c1.8,0,20.1-13.1,20.1-13.1s6,36.8,5.2,37.8c-1.7,2.3-14.2,9.5-20.1,10.2
			c-7.6,0.9-14.1,0.4-17.5-1.5c-3.8-2-5.9-6.1-5.8-8.4c0.2-4.4,12.2-11.4,12.2-11.4L491.3,430.4z"/>
		<path class="st43" d="M533.8,427.5c0,0,16.3,12.5,18.3,12.8c2.1,0.3,9.3-8.7,9.3-8.7l-5.2,21.8c0,0,12,4.8,14.6,8.4
			c2,2.9-1.5,10.4-4.1,11.9c-3.2,1.8-11,2.4-14.6,1.5c-6.2-1.6-22.4-10.2-23-11.1C528.6,463.3,533.8,427.5,533.8,427.5z"/>
		<line class="st44" x1="494.2" y1="303.8" x2="493.1" y2="345.4"/>
		<line class="st44" x1="550.4" y1="299.4" x2="556" y2="342.8"/>
		<g class="st26">
			<path class="st45" d="M526.3,451.7c-5,3.8-13.8,8.7-16.6,6.4c-0.3-0.3-3.8-2.7-3.8-5.2c0-1.6,1.6-3.1,1.2-4.1c-0.7-1.6-8-3-9-1.7
				c-0.5,0.7-0.3,1.7,0.6,3.5c1,2.1,0.2,3.3-0.3,3.5c-0.3,0.1-0.9,0.6-2-0.9"/>
			<g>
				<path class="st46" d="M526.3,451.7c-0.4,0.3-0.8,0.6-1.2,0.9"/>
				<path class="st47" d="M522.5,454.3c-4.8,3-10.7,5.6-12.8,3.8c-0.3-0.3-3.8-2.7-3.8-5.2c0-1.6,1.6-3.1,1.2-4.1
					c-0.7-1.6-8-3-9-1.7c-0.5,0.7-0.3,1.7,0.6,3.5c0.8,1.5,0.5,2.6,0.1,3.1"/>
				<path class="st46" d="M497.4,454.1c-0.3-0.1-0.7-0.4-1.1-1"/>
			</g>
		</g>
		<g class="st26">
			<g>
				<path class="st48" d="M530.6,452c0.4,0.3,0.8,0.6,1.2,0.9"/>
				<path class="st49" d="M534.4,454.5c4,2.5,8.4,4.5,10.3,3.1c0.3-0.2,3.4-2.3,3.3-4.5c0-1.4-1.4-2.7-1-3.5c0.6-1.3,7-2.5,7.9-1.5
					c0.5,0.6,0.3,1.5-0.5,3c-0.5,1-0.5,1.8-0.3,2.3"/>
				<path class="st48" d="M555.2,454.3c0.3,0,0.7-0.3,1.2-0.9"/>
			</g>
		</g>
		<path class="st31" d="M504.2,276.7l2.5,1.6c0.2,0.1,0.4,0.1,0.5,0l2.7-1.1c0.5-0.2,0.9,0.2,0.8,0.7l-0.7,2.8c0,0.2,0,0.4,0.1,0.5
			l1.9,2.2c0.3,0.4,0.1,0.9-0.4,1l-2.9,0.2c-0.2,0-0.4,0.1-0.5,0.3l-1.5,2.5c-0.3,0.4-0.9,0.4-1.1-0.1l-1.1-2.7
			c-0.1-0.2-0.2-0.3-0.4-0.4l-2.8-0.7c-0.5-0.1-0.6-0.7-0.2-1l2.2-1.9c0.1-0.1,0.2-0.3,0.2-0.5l-0.3-2.9
			C503.3,276.8,503.8,276.5,504.2,276.7z"/>
		<path class="st31" d="M548.5,289l0.5,2.9c0,0.2,0.2,0.4,0.3,0.4l2.6,1.3c0.4,0.2,0.5,0.8,0,1.1l-2.6,1.3c-0.2,0.1-0.3,0.3-0.3,0.4
			l-0.4,2.9c-0.1,0.5-0.7,0.7-1,0.3l-2.1-2.1c-0.1-0.1-0.3-0.2-0.5-0.2l-2.9,0.5c-0.5,0.1-0.9-0.4-0.6-0.8l1.3-2.6
			c0.1-0.2,0.1-0.4,0-0.5l-1.4-2.6c-0.2-0.4,0.1-0.9,0.6-0.9l2.9,0.4c0.2,0,0.4,0,0.5-0.2l2-2.1C547.8,288.4,548.4,288.5,548.5,289z
			"/>
		<path class="st31" d="M552.7,278.1l-2.9-0.5c-0.2,0-0.4,0-0.5,0.2l-2,2.1c-0.3,0.4-0.9,0.2-1-0.3l-0.4-2.9c0-0.2-0.1-0.4-0.3-0.4
			L543,275c-0.4-0.2-0.4-0.8,0-1.1l2.6-1.3c0.2-0.1,0.3-0.3,0.3-0.4l0.3-2c1.9,0.8,4,1.9,6.2,3.3l-0.4,0.7c-0.1,0.2-0.1,0.4,0,0.6
			l1.4,2.6C553.5,277.7,553.2,278.2,552.7,278.1z"/>
		<path class="st31" d="M482.7,300.6c-0.1,0.1-0.2,0.3-0.1,0.5l0.7,2.8c0.1,0.5-0.4,0.9-0.8,0.7l-2-0.9c0.1-1.9,0.3-4.2,0.6-6.7
			c0.1,0.1,0.2,0.2,0.4,0.2l2.9,0.3c0.5,0,0.7,0.6,0.4,1L482.7,300.6z"/>
		<path class="st50" d="M527.7,248.9c0,1.5-2.1,3.6-4.9,3.6s-5.2-2.1-5.2-3.6s2.3-2.8,5.1-2.8S527.7,247.4,527.7,248.9z"/>
		<path id="seatbelt_5_" class="st51" d="M472.8,231.5l84.5,114.7l8.4,16.5L464.5,234.3c0,0,1.9-2.2,3.5-2.3
			C474,231.5,472.8,231.5,472.8,231.5z"/>
	</g>
	<g id="Wizardbear">
		<g id="Wizardbear-3">
			<g id="Right_arm_8_">
				<path class="st27" d="M556.3,349.2c0,0,7.1,14,11.7,17c1.7,1.1,8.3,3,10.3,3.4c1.5,0.3,8.4-1,9.9-1c3,0,4.1-1.1,4.9-0.9
					c3.2,0.6,4.9-1.8,5.1-3.8c0.2-2-1.9-5.6-3.1-7.2c-1.4-1.8-7-4.3-10.2-4.8c-2.2-0.3-5.4-0.3-7.6,0c-2.2,0.3-4-2.5-4-2.5
					c-2-12.3-5.2-38.3-5.2-38.3l-16,1.7L556.3,349.2z"/>
				<path class="st27" d="M598.3,364c0-2.3-3.1-7-5.4-7"/>
				<path class="st27" d="M587.5,368.7c2.3-3-2.8-10-6.4-9.7"/>
				<path class="st27" d="M592,367.7c2.7-3.8-1.6-8.9-4.3-10.1"/>
			</g>
			<g id="left_arm_3_">
				<path class="st27" d="M493.7,352.3c0,0-5.3,16.7-9.8,19.7c-1.7,1.1-11.3,1.1-13.3,1.5c-1.5,0.3-3.5,0.7-5,0.7
					c-3,0-3-2.4-3.8-2.3c-3.2,0.6-4.5-1.4-4.6-3.4c-0.2-2,1-6.2,2.2-7.8c1.4-1.8,7.6-4.8,9.8-5.5c2.1-0.7,5-0.2,7.5-0.9
					c2.1-0.5,2-0.9,2-0.9c-1-12,4-42.2,4-42.2l11.6,5L493.7,352.3z"/>
				<path class="st27" d="M457.2,368.5c0-2.3,3-7.4,5.2-7.4"/>
				<path class="st27" d="M469.7,373.7c-3.2-3.7,0.1-9.6,5.5-11.9"/>
				<path class="st27" d="M462.5,372.4c-1.2-2.6,2.8-9.2,5.5-10.3"/>
			</g>
			<g id="tee_4_">
				<path class="st28" d="M573.4,349.5c0,0,0.2,2.3-3.2,3.5c-4.5,1.6-9,2.3-9,2.3l-5.3-12.4c0,0-20.1,3.2-29.7,4
					c-13.2,1-33.3-1.3-33.3-1.3l-0.7,6.6c0,0-5.5,4.7-8.7,3.5c-3.5-1.3-4.7-2-4.7-2s-0.6-64.2,6.7-72.5c9-10.2,19.8-11.6,19.8-11.6
					l34.7-1.5c0,0,11.2,3.6,16,8.2s9.5,12.3,11.1,22.4C567.9,304.4,573.4,349.5,573.4,349.5z"/>
			</g>
			<path id="Neck_4_" class="st27" d="M534.5,271.5c0,3.8-4.9,8.8-10.6,8.8c-5.8,0-11.9-3.9-11.9-7.7c0-3.8,4.7-6.9,10.5-6.9
				C528.2,265.6,534.5,267.7,534.5,271.5z"/>
			<path class="st52" d="M524.2,277c0,0-9.9,16.1-14.8,19.8c-6.2,4.7-29.1,11.4-29.1,11.4s0-1.8,0.1-4.4c0.1-1.9,0.3-4.2,0.6-6.7
				c0.7-5.7,2-12.2,4.5-15.9c7-10.2,19.8-11.6,19.8-11.6L524.2,277z"/>
			<path class="st52" d="M568.2,308.2c0,0-22.6-5.8-28.8-10.5c-4.9-3.7-15.1-20.7-15.1-20.7l15.7-9c0,0,2.6,0.6,6.2,2.2
				c1.9,0.8,4,1.9,6.2,3.3c3.1,2,6.2,4.6,8.6,7.9C567.3,290.4,568.2,308.2,568.2,308.2z"/>
			<polygon class="st52" points="549.9,231.3 491.3,231.3 521.9,170.4 530.1,188.2 533,194.5 			"/>
			<path class="st53" d="M506.5,201.2l0.7-0.6c0.1-0.1,0.2-0.3,0.2-0.5l-0.1-0.6l1.3-2.5l1.9,1.2c0.2,0.1,0.4,0.1,0.5,0l2.7-1.1
				c0.5-0.2,0.9,0.2,0.8,0.7l-0.7,2.8c0,0.2,0,0.4,0.1,0.5l1.9,2.2c0.3,0.4,0.1,0.9-0.4,1l-2.9,0.2c-0.2,0-0.4,0.1-0.5,0.3l-1.5,2.5
				c-0.3,0.4-0.9,0.4-1.1-0.1l-1.1-2.7c-0.1-0.2-0.2-0.3-0.4-0.4l-2.7-0.6L506.5,201.2z"/>
			<path class="st53" d="M533,194.5l-1.8,0.1c-0.2,0-0.4,0.1-0.5,0.3l-1.5,2.5c-0.3,0.4-0.9,0.4-1.1-0.1l-1.1-2.7
				c-0.1-0.2-0.2-0.3-0.4-0.4l-2.8-0.7c-0.5-0.1-0.6-0.7-0.2-1l2.3-1.9c0.1-0.1,0.2-0.3,0.2-0.5l-0.3-2.9c0-0.5,0.5-0.8,0.9-0.6
				l2.5,1.6c0.2,0.1,0.4,0.1,0.5,0l0.4-0.2L533,194.5z"/>
			<ellipse class="st52" cx="520.5" cy="222.7" rx="43.4" ry="20.5"/>
			<ellipse class="st54" cx="521" cy="224.6" rx="39.3" ry="18.6"/>
			<g id="Head_7_">
				<g id="head_9_">
					<path id="right_outter_ear_9_" class="st27" d="M554.6,223.7c0.9,11.1-8.6,12.1-14.2,8.4c-6.1-4-8.3-8.7-8.3-10.4
						c-0.2-7.9,2.7-13,9.7-12.4C548.7,209.9,553.9,215.8,554.6,223.7z"/>
					<path id="right_innner_ear_9_" class="st33" d="M548.9,223.8c0.4,6.1-4.1,6.7-6.8,4.6c-2.9-2.2-4-4.8-4-5.7
						c-0.1-4.4,1.2-6.7,4.6-6.1C545.3,217,548.6,219.9,548.9,223.8z"/>
					<path id="left_outter_ear_9_" class="st27" d="M488.5,223.4c-1,10.1,8,11.2,13.3,7.9c5.8-3.6,7.9-7.9,7.9-9.4
						c0.3-7.3-2.4-11.9-9-11.5C494.2,210.8,489.1,216.1,488.5,223.4z"/>
					<path class="st33" d="M494.9,223.9c-0.4,5.6,3.8,6.1,6.4,4.3c2.8-2,3.8-4.4,3.8-5.2c0.1-4-1.1-6.2-4.3-5.7
						C498.2,217.8,495.1,220.4,494.9,223.9z"/>
					<path id="head_10_" class="st27" d="M551,247.9c0.1,7.1-1.2,13.8-8.4,18.6c-8.5,5.8-12.1,10.6-19.7,10.3
						c-7.7-0.3-12-6.8-17.8-7.5c-5.1-0.7-13-11.5-12.6-21c0.2-4.6,2.8-13.7,6.5-19.5c5.3-8.3,12.3-15.3,22.1-15.3
						c7.9,0,16,7.2,22.3,15.4C546.9,233.3,551,243.6,551,247.9z"/>
					<path id="snoot_7_" class="st33" d="M509.3,257.8c-1-6.2,3-9.3,5.6-12.1c2.8-3,3-7.4,7.5-7.4c0.7,0,3.2,0.4,4.5,2.9
						c4.5,8.8,9.1,5.8,9.2,14.9c0,4.6-3.9,12.5-12.8,12.4C516.3,268.4,510.4,264.3,509.3,257.8z"/>
				</g>
				<path id="chin_7_" class="st34" d="M521.3,261.3c0,0,0.9,0.2,1.6,0.2c0.7,0,1.4-0.2,1.4-0.2"/>
				<path id="mouth_9_" class="st35" d="M514.5,254.8c0,0,0.5,3.7,3.1,3.7c2.7,0,4.3-2.5,4.9-2.5c0.6,0,2.4,2.3,4.6,1.4s2.9-4,2.9-4
					"/>
				<g id="left_eye_9_">
					<g>
						<ellipse class="st36" cx="511.9" cy="238.7" rx="3.2" ry="4.4"/>
						<ellipse class="st37" cx="511.9" cy="240" rx="3" ry="3.1"/>
						<path class="st38" d="M511.9,238.2c0.9,0,1.7,0.8,1.7,1.8s-0.8,1.8-1.7,1.8s-1.7-0.8-1.7-1.8S511,238.2,511.9,238.2z"/>
						<ellipse class="st39" cx="512.5" cy="239.4" rx="0.7" ry="0.8"/>
						<ellipse class="st39" cx="511.5" cy="240.3" rx="0.4" ry="0.4"/>
					</g>
				</g>
				<g id="right_eye_9_">
					<ellipse class="st36" cx="532.8" cy="238.7" rx="3.2" ry="4.4"/>
					<ellipse class="st37" cx="532.8" cy="240" rx="3" ry="3.1"/>
					<ellipse class="st38" cx="532.8" cy="240" rx="1.7" ry="1.8"/>
					<ellipse class="st39" cx="533.4" cy="239.4" rx="0.7" ry="0.8"/>
					<ellipse class="st40" cx="532.4" cy="240.3" rx="0.4" ry="0.4"/>
				</g>
				<path class="st33" d="M508.8,230.7c-1.2-1.3,1-3.3,3.3-3.7c2-0.4,4.2,0.3,4.2,1.8c0,1.3-1.7,1-4,1.5
					C510.1,230.8,510,232,508.8,230.7z"/>
				<path class="st33" d="M535.7,230.7c1.1-1.3-1-3.3-3-3.7c-1.9-0.4-3.8,0.3-3.8,1.8c0,1.3,1.6,1,3.6,1.5S534.6,232,535.7,230.7z"
					/>
			</g>
			<path d="M577.6,457.6"/>
			<path id="Pants_4_" class="st55" d="M506.8,443.5l17.5-0.3c0,0-5.8-47.4-5.8-52.4c0-4.4,1.6-10.5,2.9-15.1
				c1.1-3.9,4.7-6.7,5.8-6.7c1.5,0,5.2,4.3,6.1,8.2c1.4,5.7,1.9,11.4,2.3,15.1c1.5,12.7-3.8,51.8-3.8,51.8l25.6,3.2
				c0,0,15.8-56,13.1-74.8c-0.5-3.8-4.9-9.3-8.2-15.4c-3.7-6.9-6.4-14.3-6.4-14.3s-22.4,3.7-30,4.1c-8.2,0.4-32.9-1.5-32.9-1.5
				s-0.4,5.9-1.7,9.6c-1.5,4.1-8.3,18.2-8.4,23.3c-0.5,22.3,12.2,65.8,12.2,65.8L506.8,443.5z"/>
			<path class="st56" d="M527.4,464.2c0,2.6-10.4,9.8-21.5,11.4c-10.8,1.5-18.9-2.4-18.9-4.9s6.8-4.4,18.1-4.4
				C516.3,466.2,527.4,461.6,527.4,464.2z"/>
			<path class="st56" d="M529.2,464.5c0,2.6,12.5,8.7,22.7,11.6c9.2,2.6,16.9-2,16.9-4.7c0-2.6-5.9-4.9-17.2-4.9
				C540.3,466.5,529.2,461.9,529.2,464.5z"/>
			<path class="st57" d="M491.3,430.4c0,0,9.3,9,10.8,9c1.8,0,20.1-13.1,20.1-13.1s6,36.8,5.2,37.8c-1.7,2.3-14.2,9.5-20.1,10.2
				c-7.6,0.9-14.1,0.4-17.5-1.5c-3.8-2-5.9-6.1-5.8-8.4c0.2-4.4,12.2-11.4,12.2-11.4L491.3,430.4z"/>
			<path class="st57" d="M533.8,427.5c0,0,16.3,12.5,18.3,12.8c2.1,0.3,9.3-8.7,9.3-8.7l-5.2,21.8c0,0,12,4.8,14.6,8.4
				c2,2.9-1.5,10.4-4.1,11.9c-3.2,1.8-11,2.4-14.6,1.5c-6.2-1.6-22.4-10.2-23-11.1C528.6,463.3,533.8,427.5,533.8,427.5z"/>
			<line class="st46" x1="494.2" y1="303.8" x2="493.1" y2="345.4"/>
			<line class="st46" x1="550.4" y1="299.4" x2="556" y2="342.8"/>
			<g>
				<path class="st45" d="M526.3,451.7c-5,3.8-13.8,8.7-16.6,6.4c-0.3-0.3-3.8-2.7-3.8-5.2c0-1.6,1.6-3.1,1.2-4.1
					c-0.7-1.6-8-3-9-1.7c-0.5,0.7-0.3,1.7,0.6,3.5c1,2.1,0.2,3.3-0.3,3.5c-0.3,0.1-0.9,0.6-2-0.9"/>
				<g>
					<path class="st46" d="M526.3,451.7c-0.4,0.3-0.8,0.6-1.2,0.9"/>
					<path class="st47" d="M522.5,454.3c-4.8,3-10.7,5.6-12.8,3.8c-0.3-0.3-3.8-2.7-3.8-5.2c0-1.6,1.6-3.1,1.2-4.1
						c-0.7-1.6-8-3-9-1.7c-0.5,0.7-0.3,1.7,0.6,3.5c0.8,1.5,0.5,2.6,0.1,3.1"/>
					<path class="st46" d="M497.4,454.1c-0.3-0.1-0.7-0.4-1.1-1"/>
				</g>
			</g>
			<g>
				<g>
					<path class="st48" d="M530.6,452c0.4,0.3,0.8,0.6,1.2,0.9"/>
					<path class="st49" d="M534.4,454.5c4,2.5,8.4,4.5,10.3,3.1c0.3-0.2,3.4-2.3,3.3-4.5c0-1.4-1.4-2.7-1-3.5c0.6-1.3,7-2.5,7.9-1.5
						c0.5,0.6,0.3,1.5-0.5,3c-0.5,1-0.5,1.8-0.3,2.3"/>
					<path class="st48" d="M555.2,454.3c0.3,0,0.7-0.3,1.2-0.9"/>
				</g>
			</g>
			<path class="st53" d="M504.2,276.7l2.5,1.6c0.2,0.1,0.4,0.1,0.5,0l2.7-1.1c0.5-0.2,0.9,0.2,0.8,0.7l-0.7,2.8c0,0.2,0,0.4,0.1,0.5
				l1.9,2.2c0.3,0.4,0.1,0.9-0.4,1l-2.9,0.2c-0.2,0-0.4,0.1-0.5,0.3l-1.5,2.5c-0.3,0.4-0.9,0.4-1.1-0.1l-1.1-2.7
				c-0.1-0.2-0.2-0.3-0.4-0.4l-2.8-0.7c-0.5-0.1-0.6-0.7-0.2-1l2.2-1.9c0.1-0.1,0.2-0.3,0.2-0.5l-0.3-2.9
				C503.3,276.8,503.8,276.5,504.2,276.7z"/>
			<path class="st53" d="M548.5,289l0.5,2.9c0,0.2,0.2,0.4,0.3,0.4l2.6,1.3c0.4,0.2,0.5,0.8,0,1.1l-2.6,1.3
				c-0.2,0.1-0.3,0.3-0.3,0.4l-0.4,2.9c-0.1,0.5-0.7,0.7-1,0.3l-2.1-2.1c-0.1-0.1-0.3-0.2-0.5-0.2l-2.9,0.5
				c-0.5,0.1-0.9-0.4-0.6-0.8l1.3-2.6c0.1-0.2,0.1-0.4,0-0.5l-1.4-2.6c-0.2-0.4,0.1-0.9,0.6-0.9l2.9,0.4c0.2,0,0.4,0,0.5-0.2l2-2.1
				C547.8,288.4,548.4,288.5,548.5,289z"/>
			<path class="st53" d="M552.7,278.1l-2.9-0.5c-0.2,0-0.4,0-0.5,0.2l-2,2.1c-0.3,0.4-0.9,0.2-1-0.3l-0.4-2.9c0-0.2-0.1-0.4-0.3-0.4
				L543,275c-0.4-0.2-0.4-0.8,0-1.1l2.6-1.3c0.2-0.1,0.3-0.3,0.3-0.4l0.3-2c1.9,0.8,4,1.9,6.2,3.3l-0.4,0.7c-0.1,0.2-0.1,0.4,0,0.6
				l1.4,2.6C553.5,277.7,553.2,278.2,552.7,278.1z"/>
			<path class="st53" d="M482.7,300.6c-0.1,0.1-0.2,0.3-0.1,0.5l0.7,2.8c0.1,0.5-0.4,0.9-0.8,0.7l-2-0.9c0.1-1.9,0.3-4.2,0.6-6.7
				c0.1,0.1,0.2,0.2,0.4,0.2l2.9,0.3c0.5,0,0.7,0.6,0.4,1L482.7,300.6z"/>
			<path class="st58" d="M527.7,248.9c0,1.5-2.1,3.6-4.9,3.6s-5.2-2.1-5.2-3.6s2.3-2.8,5.1-2.8S527.7,247.4,527.7,248.9z"/>
			<path id="seatbelt_8_" class="st59" d="M472.8,231.5L570.2,360H561l-96.5-125.7c0,0,1.9-2.2,3.5-2.3
				C474,231.5,472.8,231.5,472.8,231.5z"/>
		</g>
		<g id="Wizardbear-2" class="st25">
			<g id="Right_arm_7_" class="st26">
				<path class="st27" d="M556.3,349.2c0,0,7.1,14,11.7,17c1.7,1.1,8.3,3,10.3,3.4c1.5,0.3,8.4-1,9.9-1c3,0,4.1-1.1,4.9-0.9
					c3.2,0.6,4.9-1.8,5.1-3.8c0.2-2-1.9-5.6-3.1-7.2c-1.4-1.8-7-4.3-10.2-4.8c-2.2-0.3-5.4-0.3-7.6,0c-2.2,0.3-4-2.5-4-2.5
					c-2-12.3-5.2-38.3-5.2-38.3l-16,1.7L556.3,349.2z"/>
				<path class="st27" d="M598.3,364c0-2.3-3.1-7-5.4-7"/>
				<path class="st27" d="M587.5,368.7c2.3-3-2.8-10-6.4-9.7"/>
				<path class="st27" d="M592,367.7c2.7-3.8-1.6-8.9-4.3-10.1"/>
			</g>
			<g id="left_arm_2_" class="st26">
				<path class="st27" d="M493.7,352.3c0,0-5.3,16.7-9.8,19.7c-1.7,1.1-11.3,1.1-13.3,1.5c-1.5,0.3-3.5,0.7-5,0.7
					c-3,0-3-2.4-3.8-2.3c-3.2,0.6-4.5-1.4-4.6-3.4c-0.2-2,1-6.2,2.2-7.8c1.4-1.8,7.6-4.8,9.8-5.5c2.1-0.7,5-0.2,7.5-0.9
					c2.1-0.5,2-0.9,2-0.9c-1-12,4-42.2,4-42.2l11.6,5L493.7,352.3z"/>
				<path class="st27" d="M457.2,368.5c0-2.3,3-7.4,5.2-7.4"/>
				<path class="st27" d="M469.7,373.7c-3.2-3.7,0.1-9.6,5.5-11.9"/>
				<path class="st27" d="M462.5,372.4c-1.2-2.6,2.8-9.2,5.5-10.3"/>
			</g>
			<g id="tee_3_" class="st26">
				<path class="st28" d="M573.4,349.5c0,0,0.2,2.3-3.2,3.5c-4.5,1.6-9,2.3-9,2.3l-5.3-12.4c0,0-20.1,3.2-29.7,4
					c-13.2,1-33.3-1.3-33.3-1.3l-0.7,6.6c0,0-5.5,4.7-8.7,3.5c-3.5-1.3-4.7-2-4.7-2s-0.6-64.2,6.7-72.5c9-10.2,19.8-11.6,19.8-11.6
					l34.7-1.5c0,0,11.2,3.6,16,8.2s9.5,12.3,11.1,22.4C567.9,304.4,573.4,349.5,573.4,349.5z"/>
			</g>
			<path id="Neck_3_" class="st29" d="M534.5,271.5c0,3.8-4.9,8.8-10.6,8.8c-5.8,0-11.9-3.9-11.9-7.7c0-3.8,4.7-6.9,10.5-6.9
				C528.2,265.6,534.5,267.7,534.5,271.5z"/>
			<path class="st30" d="M524.2,277c0,0-9.9,16.1-14.8,19.8c-6.2,4.7-29.1,11.4-29.1,11.4s0-1.8,0.1-4.4c0.1-1.9,0.3-4.2,0.6-6.7
				c0.7-5.7,2-12.2,4.5-15.9c7-10.2,19.8-11.6,19.8-11.6L524.2,277z"/>
			<path class="st30" d="M568.2,308.2c0,0-22.6-5.8-28.8-10.5c-4.9-3.7-15.1-20.7-15.1-20.7l15.7-9c0,0,2.6,0.6,6.2,2.2
				c1.9,0.8,4,1.9,6.2,3.3c3.1,2,6.2,4.6,8.6,7.9C567.3,290.4,568.2,308.2,568.2,308.2z"/>
			<polygon class="st30" points="549.9,231.3 491.3,231.3 521.9,170.4 530.1,188.2 533,194.5 			"/>
			<path class="st31" d="M506.5,201.2l0.7-0.6c0.1-0.1,0.2-0.3,0.2-0.5l-0.1-0.6l1.3-2.5l1.9,1.2c0.2,0.1,0.4,0.1,0.5,0l2.7-1.1
				c0.5-0.2,0.9,0.2,0.8,0.7l-0.7,2.8c0,0.2,0,0.4,0.1,0.5l1.9,2.2c0.3,0.4,0.1,0.9-0.4,1l-2.9,0.2c-0.2,0-0.4,0.1-0.5,0.3l-1.5,2.5
				c-0.3,0.4-0.9,0.4-1.1-0.1l-1.1-2.7c-0.1-0.2-0.2-0.3-0.4-0.4l-2.7-0.6L506.5,201.2z"/>
			<path class="st31" d="M533,194.5l-1.8,0.1c-0.2,0-0.4,0.1-0.5,0.3l-1.5,2.5c-0.3,0.4-0.9,0.4-1.1-0.1l-1.1-2.7
				c-0.1-0.2-0.2-0.3-0.4-0.4l-2.8-0.7c-0.5-0.1-0.6-0.7-0.2-1l2.3-1.9c0.1-0.1,0.2-0.3,0.2-0.5l-0.3-2.9c0-0.5,0.5-0.8,0.9-0.6
				l2.5,1.6c0.2,0.1,0.4,0.1,0.5,0l0.4-0.2L533,194.5z"/>
			<ellipse class="st30" cx="520.5" cy="222.7" rx="43.4" ry="20.5"/>
			<ellipse class="st32" cx="521" cy="224.6" rx="39.3" ry="18.6"/>
			<g id="Head_5_" class="st26">
				<g id="head_6_">
					<path id="right_outter_ear_7_" class="st27" d="M554.6,223.7c0.9,11.1-8.6,12.1-14.2,8.4c-6.1-4-8.3-8.7-8.3-10.4
						c-0.2-7.9,2.7-13,9.7-12.4C548.7,209.9,553.9,215.8,554.6,223.7z"/>
					<path id="right_innner_ear_7_" class="st33" d="M548.9,223.8c0.4,6.1-4.1,6.7-6.8,4.6c-2.9-2.2-4-4.8-4-5.7
						c-0.1-4.4,1.2-6.7,4.6-6.1C545.3,217,548.6,219.9,548.9,223.8z"/>
					<path id="left_outter_ear_7_" class="st27" d="M488.5,223.4c-1,10.1,8,11.2,13.3,7.9c5.8-3.6,7.9-7.9,7.9-9.4
						c0.3-7.3-2.4-11.9-9-11.5C494.2,210.8,489.1,216.1,488.5,223.4z"/>
					<path class="st33" d="M494.9,223.9c-0.4,5.6,3.8,6.1,6.4,4.3c2.8-2,3.8-4.4,3.8-5.2c0.1-4-1.1-6.2-4.3-5.7
						C498.2,217.8,495.1,220.4,494.9,223.9z"/>
					<path id="head_8_" class="st27" d="M551,247.9c0.1,7.1-1.2,13.8-8.4,18.6c-8.5,5.8-12.1,10.6-19.7,10.3
						c-7.7-0.3-12-6.8-17.8-7.5c-5.1-0.7-13-11.5-12.6-21c0.2-4.6,2.8-13.7,6.5-19.5c5.3-8.3,12.3-15.3,22.1-15.3
						c7.9,0,16,7.2,22.3,15.4C546.9,233.3,551,243.6,551,247.9z"/>
					<path id="snoot_6_" class="st33" d="M509.3,257.8c-1-6.2,3-9.3,5.6-12.1c2.8-3,3-7.4,7.5-7.4c0.7,0,3.2,0.4,4.5,2.9
						c4.5,8.8,9.1,5.8,9.2,14.9c0,4.6-3.9,12.5-12.8,12.4C516.3,268.4,510.4,264.3,509.3,257.8z"/>
				</g>
				<path id="chin_6_" class="st34" d="M521.3,261.3c0,0,0.9,0.2,1.6,0.2c0.7,0,1.4-0.2,1.4-0.2"/>
				<path id="mouth_8_" class="st35" d="M514.5,254.8c0,0,0.5,3.7,3.1,3.7c2.7,0,4.3-2.5,4.9-2.5c0.6,0,2.4,2.3,4.6,1.4s2.9-4,2.9-4
					"/>
				<g id="left_eye_8_">
					<g>
						<ellipse class="st36" cx="511.9" cy="238.7" rx="3.2" ry="4.4"/>
						<ellipse class="st37" cx="511.9" cy="240" rx="3" ry="3.1"/>
						<path class="st38" d="M511.9,238.2c0.9,0,1.7,0.8,1.7,1.8s-0.8,1.8-1.7,1.8s-1.7-0.8-1.7-1.8S511,238.2,511.9,238.2z"/>
						<ellipse class="st39" cx="512.5" cy="239.4" rx="0.7" ry="0.8"/>
						<ellipse class="st39" cx="511.5" cy="240.3" rx="0.4" ry="0.4"/>
					</g>
				</g>
				<g id="right_eye_8_">
					<ellipse class="st36" cx="532.8" cy="238.7" rx="3.2" ry="4.4"/>
					<ellipse class="st37" cx="532.8" cy="240" rx="3" ry="3.1"/>
					<ellipse class="st38" cx="532.8" cy="240" rx="1.7" ry="1.8"/>
					<ellipse class="st39" cx="533.4" cy="239.4" rx="0.7" ry="0.8"/>
					<ellipse class="st40" cx="532.4" cy="240.3" rx="0.4" ry="0.4"/>
				</g>
				<path class="st33" d="M508.8,230.7c-1.2-1.3,1-3.3,3.3-3.7c2-0.4,4.2,0.3,4.2,1.8c0,1.3-1.7,1-4,1.5
					C510.1,230.8,510,232,508.8,230.7z"/>
				<path class="st33" d="M535.7,230.7c1.1-1.3-1-3.3-3-3.7c-1.9-0.4-3.8,0.3-3.8,1.8c0,1.3,1.6,1,3.6,1.5S534.6,232,535.7,230.7z"
					/>
			</g>
			<path class="st26" d="M577.6,457.6"/>
			<path id="Pants_3_" class="st41" d="M506.8,443.5l17.5-0.3c0,0-5.8-47.4-5.8-52.4c0-4.4,1.6-10.5,2.9-15.1
				c1.1-3.9,4.7-6.7,5.8-6.7c1.5,0,5.2,4.3,6.1,8.2c1.4,5.7,1.9,11.4,2.3,15.1c1.5,12.7-3.8,51.8-3.8,51.8l25.6,3.2
				c0,0,15.8-56,13.1-74.8c-0.5-3.8-4.9-9.3-8.2-15.4c-3.7-6.9-6.4-14.3-6.4-14.3s-22.4,3.7-30,4.1c-8.2,0.4-32.9-1.5-32.9-1.5
				s-0.4,5.9-1.7,9.6c-1.5,4.1-8.3,18.2-8.4,23.3c-0.5,22.3,12.2,65.8,12.2,65.8L506.8,443.5z"/>
			<path class="st42" d="M527.4,464.2c0,2.6-10.4,9.8-21.5,11.4c-10.8,1.5-18.9-2.4-18.9-4.9s6.8-4.4,18.1-4.4
				C516.3,466.2,527.4,461.6,527.4,464.2z"/>
			<path class="st42" d="M529.2,464.5c0,2.6,12.5,8.7,22.7,11.6c9.2,2.6,16.9-2,16.9-4.7c0-2.6-5.9-4.9-17.2-4.9
				C540.3,466.5,529.2,461.9,529.2,464.5z"/>
			<path class="st43" d="M491.3,430.4c0,0,9.3,9,10.8,9c1.8,0,20.1-13.1,20.1-13.1s6,36.8,5.2,37.8c-1.7,2.3-14.2,9.5-20.1,10.2
				c-7.6,0.9-14.1,0.4-17.5-1.5c-3.8-2-5.9-6.1-5.8-8.4c0.2-4.4,12.2-11.4,12.2-11.4L491.3,430.4z"/>
			<path class="st43" d="M533.8,427.5c0,0,16.3,12.5,18.3,12.8c2.1,0.3,9.3-8.7,9.3-8.7l-5.2,21.8c0,0,12,4.8,14.6,8.4
				c2,2.9-1.5,10.4-4.1,11.9c-3.2,1.8-11,2.4-14.6,1.5c-6.2-1.6-22.4-10.2-23-11.1C528.6,463.3,533.8,427.5,533.8,427.5z"/>
			<line class="st44" x1="494.2" y1="303.8" x2="493.1" y2="345.4"/>
			<line class="st44" x1="550.4" y1="299.4" x2="556" y2="342.8"/>
			<g class="st26">
				<path class="st45" d="M526.3,451.7c-5,3.8-13.8,8.7-16.6,6.4c-0.3-0.3-3.8-2.7-3.8-5.2c0-1.6,1.6-3.1,1.2-4.1
					c-0.7-1.6-8-3-9-1.7c-0.5,0.7-0.3,1.7,0.6,3.5c1,2.1,0.2,3.3-0.3,3.5c-0.3,0.1-0.9,0.6-2-0.9"/>
				<g>
					<path class="st46" d="M526.3,451.7c-0.4,0.3-0.8,0.6-1.2,0.9"/>
					<path class="st47" d="M522.5,454.3c-4.8,3-10.7,5.6-12.8,3.8c-0.3-0.3-3.8-2.7-3.8-5.2c0-1.6,1.6-3.1,1.2-4.1
						c-0.7-1.6-8-3-9-1.7c-0.5,0.7-0.3,1.7,0.6,3.5c0.8,1.5,0.5,2.6,0.1,3.1"/>
					<path class="st46" d="M497.4,454.1c-0.3-0.1-0.7-0.4-1.1-1"/>
				</g>
			</g>
			<g class="st26">
				<g>
					<path class="st48" d="M530.6,452c0.4,0.3,0.8,0.6,1.2,0.9"/>
					<path class="st49" d="M534.4,454.5c4,2.5,8.4,4.5,10.3,3.1c0.3-0.2,3.4-2.3,3.3-4.5c0-1.4-1.4-2.7-1-3.5c0.6-1.3,7-2.5,7.9-1.5
						c0.5,0.6,0.3,1.5-0.5,3c-0.5,1-0.5,1.8-0.3,2.3"/>
					<path class="st48" d="M555.2,454.3c0.3,0,0.7-0.3,1.2-0.9"/>
				</g>
			</g>
			<path class="st31" d="M504.2,276.7l2.5,1.6c0.2,0.1,0.4,0.1,0.5,0l2.7-1.1c0.5-0.2,0.9,0.2,0.8,0.7l-0.7,2.8c0,0.2,0,0.4,0.1,0.5
				l1.9,2.2c0.3,0.4,0.1,0.9-0.4,1l-2.9,0.2c-0.2,0-0.4,0.1-0.5,0.3l-1.5,2.5c-0.3,0.4-0.9,0.4-1.1-0.1l-1.1-2.7
				c-0.1-0.2-0.2-0.3-0.4-0.4l-2.8-0.7c-0.5-0.1-0.6-0.7-0.2-1l2.2-1.9c0.1-0.1,0.2-0.3,0.2-0.5l-0.3-2.9
				C503.3,276.8,503.8,276.5,504.2,276.7z"/>
			<path class="st31" d="M548.5,289l0.5,2.9c0,0.2,0.2,0.4,0.3,0.4l2.6,1.3c0.4,0.2,0.5,0.8,0,1.1l-2.6,1.3
				c-0.2,0.1-0.3,0.3-0.3,0.4l-0.4,2.9c-0.1,0.5-0.7,0.7-1,0.3l-2.1-2.1c-0.1-0.1-0.3-0.2-0.5-0.2l-2.9,0.5
				c-0.5,0.1-0.9-0.4-0.6-0.8l1.3-2.6c0.1-0.2,0.1-0.4,0-0.5l-1.4-2.6c-0.2-0.4,0.1-0.9,0.6-0.9l2.9,0.4c0.2,0,0.4,0,0.5-0.2l2-2.1
				C547.8,288.4,548.4,288.5,548.5,289z"/>
			<path class="st31" d="M552.7,278.1l-2.9-0.5c-0.2,0-0.4,0-0.5,0.2l-2,2.1c-0.3,0.4-0.9,0.2-1-0.3l-0.4-2.9c0-0.2-0.1-0.4-0.3-0.4
				L543,275c-0.4-0.2-0.4-0.8,0-1.1l2.6-1.3c0.2-0.1,0.3-0.3,0.3-0.4l0.3-2c1.9,0.8,4,1.9,6.2,3.3l-0.4,0.7c-0.1,0.2-0.1,0.4,0,0.6
				l1.4,2.6C553.5,277.7,553.2,278.2,552.7,278.1z"/>
			<path class="st31" d="M482.7,300.6c-0.1,0.1-0.2,0.3-0.1,0.5l0.7,2.8c0.1,0.5-0.4,0.9-0.8,0.7l-2-0.9c0.1-1.9,0.3-4.2,0.6-6.7
				c0.1,0.1,0.2,0.2,0.4,0.2l2.9,0.3c0.5,0,0.7,0.6,0.4,1L482.7,300.6z"/>
			<path class="st50" d="M527.7,248.9c0,1.5-2.1,3.6-4.9,3.6s-5.2-2.1-5.2-3.6s2.3-2.8,5.1-2.8S527.7,247.4,527.7,248.9z"/>
			<path id="seatbelt_7_" class="st51" d="M472.8,231.5l63,83.1l-7.6,2.6l-63.7-82.9c0,0,1.9-2.2,3.5-2.3
				C474,231.5,472.8,231.5,472.8,231.5z"/>
		</g>
		<g id="Wizardbear-1" class="st25">
			<path id="seatbelt_1_" class="st51" d="M472.8,231.5L570.2,360H561l-96.5-125.7c0,0,1.9-2.2,3.5-2.3
				C474,231.5,472.8,231.5,472.8,231.5z"/>
			<g id="Right_arm_6_" class="st26">
				<path class="st27" d="M556.3,349.2c0,0,7.1,14,11.7,17c1.7,1.1,8.3,3,10.3,3.4c1.5,0.3,8.4-1,9.9-1c3,0,4.1-1.1,4.9-0.9
					c3.2,0.6,4.9-1.8,5.1-3.8c0.2-2-1.9-5.6-3.1-7.2c-1.4-1.8-7-4.3-10.2-4.8c-2.2-0.3-5.4-0.3-7.6,0c-2.2,0.3-4-2.5-4-2.5
					c-2-12.3-5.2-38.3-5.2-38.3l-16,1.7L556.3,349.2z"/>
				<path class="st27" d="M598.3,364c0-2.3-3.1-7-5.4-7"/>
				<path class="st27" d="M587.5,368.7c2.3-3-2.8-10-6.4-9.7"/>
				<path class="st27" d="M592,367.7c2.7-3.8-1.6-8.9-4.3-10.1"/>
			</g>
			<g id="left_arm_1_" class="st26">
				<path class="st27" d="M493.7,352.3c0,0-5.3,16.7-9.8,19.7c-1.7,1.1-11.3,1.1-13.3,1.5c-1.5,0.3-3.5,0.7-5,0.7
					c-3,0-3-2.4-3.8-2.3c-3.2,0.6-4.5-1.4-4.6-3.4c-0.2-2,1-6.2,2.2-7.8c1.4-1.8,7.6-4.8,9.8-5.5c2.1-0.7,5-0.2,7.5-0.9
					c2.1-0.5,2-0.9,2-0.9c-1-12,4-42.2,4-42.2l11.6,5L493.7,352.3z"/>
				<path class="st27" d="M457.2,368.5c0-2.3,3-7.4,5.2-7.4"/>
				<path class="st27" d="M469.7,373.7c-3.2-3.7,0.1-9.6,5.5-11.9"/>
				<path class="st27" d="M462.5,372.4c-1.2-2.6,2.8-9.2,5.5-10.3"/>
			</g>
			<g id="tee_2_" class="st26">
				<path class="st28" d="M573.4,349.5c0,0,0.2,2.3-3.2,3.5c-4.5,1.6-9,2.3-9,2.3l-5.3-12.4c0,0-20.1,3.2-29.7,4
					c-13.2,1-33.3-1.3-33.3-1.3l-0.7,6.6c0,0-5.5,4.7-8.7,3.5c-3.5-1.3-4.7-2-4.7-2s-0.6-64.2,6.7-72.5c9-10.2,19.8-11.6,19.8-11.6
					l34.7-1.5c0,0,11.2,3.6,16,8.2s9.5,12.3,11.1,22.4C567.9,304.4,573.4,349.5,573.4,349.5z"/>
			</g>
			<path id="Neck_2_" class="st29" d="M534.5,271.5c0,3.8-4.9,8.8-10.6,8.8c-5.8,0-11.9-3.9-11.9-7.7c0-3.8,4.7-6.9,10.5-6.9
				C528.2,265.6,534.5,267.7,534.5,271.5z"/>
			<path class="st30" d="M524.2,277c0,0-9.9,16.1-14.8,19.8c-6.2,4.7-29.1,11.4-29.1,11.4s0-1.8,0.1-4.4c0.1-1.9,0.3-4.2,0.6-6.7
				c0.7-5.7,2-12.2,4.5-15.9c7-10.2,19.8-11.6,19.8-11.6L524.2,277z"/>
			<path class="st30" d="M568.2,308.2c0,0-22.6-5.8-28.8-10.5c-4.9-3.7-15.1-20.7-15.1-20.7l15.7-9c0,0,2.6,0.6,6.2,2.2
				c1.9,0.8,4,1.9,6.2,3.3c3.1,2,6.2,4.6,8.6,7.9C567.3,290.4,568.2,308.2,568.2,308.2z"/>
			<polygon class="st30" points="549.9,231.3 491.3,231.3 521.9,170.4 530.1,188.2 533,194.5 			"/>
			<path class="st31" d="M506.5,201.2l0.7-0.6c0.1-0.1,0.2-0.3,0.2-0.5l-0.1-0.6l1.3-2.5l1.9,1.2c0.2,0.1,0.4,0.1,0.5,0l2.7-1.1
				c0.5-0.2,0.9,0.2,0.8,0.7l-0.7,2.8c0,0.2,0,0.4,0.1,0.5l1.9,2.2c0.3,0.4,0.1,0.9-0.4,1l-2.9,0.2c-0.2,0-0.4,0.1-0.5,0.3l-1.5,2.5
				c-0.3,0.4-0.9,0.4-1.1-0.1l-1.1-2.7c-0.1-0.2-0.2-0.3-0.4-0.4l-2.7-0.6L506.5,201.2z"/>
			<path class="st31" d="M533,194.5l-1.8,0.1c-0.2,0-0.4,0.1-0.5,0.3l-1.5,2.5c-0.3,0.4-0.9,0.4-1.1-0.1l-1.1-2.7
				c-0.1-0.2-0.2-0.3-0.4-0.4l-2.8-0.7c-0.5-0.1-0.6-0.7-0.2-1l2.3-1.9c0.1-0.1,0.2-0.3,0.2-0.5l-0.3-2.9c0-0.5,0.5-0.8,0.9-0.6
				l2.5,1.6c0.2,0.1,0.4,0.1,0.5,0l0.4-0.2L533,194.5z"/>
			<ellipse class="st30" cx="520.5" cy="222.7" rx="43.4" ry="20.5"/>
			<ellipse class="st32" cx="521" cy="224.6" rx="39.3" ry="18.6"/>
			<g id="Head_3_" class="st26">
				<g id="head_4_">
					<path id="right_outter_ear_6_" class="st27" d="M554.6,223.7c0.9,11.1-8.6,12.1-14.2,8.4c-6.1-4-8.3-8.7-8.3-10.4
						c-0.2-7.9,2.7-13,9.7-12.4C548.7,209.9,553.9,215.8,554.6,223.7z"/>
					<path id="right_innner_ear_6_" class="st33" d="M548.9,223.8c0.4,6.1-4.1,6.7-6.8,4.6c-2.9-2.2-4-4.8-4-5.7
						c-0.1-4.4,1.2-6.7,4.6-6.1C545.3,217,548.6,219.9,548.9,223.8z"/>
					<path id="left_outter_ear_6_" class="st27" d="M488.5,223.4c-1,10.1,8,11.2,13.3,7.9c5.8-3.6,7.9-7.9,7.9-9.4
						c0.3-7.3-2.4-11.9-9-11.5C494.2,210.8,489.1,216.1,488.5,223.4z"/>
					<path class="st33" d="M494.9,223.9c-0.4,5.6,3.8,6.1,6.4,4.3c2.8-2,3.8-4.4,3.8-5.2c0.1-4-1.1-6.2-4.3-5.7
						C498.2,217.8,495.1,220.4,494.9,223.9z"/>
					<path id="head_5_" class="st27" d="M551,247.9c0.1,7.1-1.2,13.8-8.4,18.6c-8.5,5.8-12.1,10.6-19.7,10.3
						c-7.7-0.3-12-6.8-17.8-7.5c-5.1-0.7-13-11.5-12.6-21c0.2-4.6,2.8-13.7,6.5-19.5c5.3-8.3,12.3-15.3,22.1-15.3
						c7.9,0,16,7.2,22.3,15.4C546.9,233.3,551,243.6,551,247.9z"/>
					<path id="snoot_4_" class="st33" d="M509.3,257.8c-1-6.2,3-9.3,5.6-12.1c2.8-3,3-7.4,7.5-7.4c0.7,0,3.2,0.4,4.5,2.9
						c4.5,8.8,9.1,5.8,9.2,14.9c0,4.6-3.9,12.5-12.8,12.4C516.3,268.4,510.4,264.3,509.3,257.8z"/>
				</g>
				<path id="chin_3_" class="st34" d="M521.3,261.3c0,0,0.9,0.2,1.6,0.2c0.7,0,1.4-0.2,1.4-0.2"/>
				<path id="mouth_7_" class="st35" d="M514.5,254.8c0,0,0.5,3.7,3.1,3.7c2.7,0,4.3-2.5,4.9-2.5c0.6,0,2.4,2.3,4.6,1.4s2.9-4,2.9-4
					"/>
				<g id="left_eye_7_">
					<g>
						<ellipse class="st36" cx="511.9" cy="238.7" rx="3.2" ry="4.4"/>
						<ellipse class="st37" cx="511.9" cy="240" rx="3" ry="3.1"/>
						<path class="st38" d="M511.9,238.2c0.9,0,1.7,0.8,1.7,1.8s-0.8,1.8-1.7,1.8s-1.7-0.8-1.7-1.8S511,238.2,511.9,238.2z"/>
						<ellipse class="st39" cx="512.5" cy="239.4" rx="0.7" ry="0.8"/>
						<ellipse class="st39" cx="511.5" cy="240.3" rx="0.4" ry="0.4"/>
					</g>
				</g>
				<g id="right_eye_1_">
					<ellipse class="st36" cx="532.8" cy="238.7" rx="3.2" ry="4.4"/>
					<ellipse class="st37" cx="532.8" cy="240" rx="3" ry="3.1"/>
					<ellipse class="st38" cx="532.8" cy="240" rx="1.7" ry="1.8"/>
					<ellipse class="st39" cx="533.4" cy="239.4" rx="0.7" ry="0.8"/>
					<ellipse class="st40" cx="532.4" cy="240.3" rx="0.4" ry="0.4"/>
				</g>
				<path class="st33" d="M508.8,230.7c-1.2-1.3,1-3.3,3.3-3.7c2-0.4,4.2,0.3,4.2,1.8c0,1.3-1.7,1-4,1.5
					C510.1,230.8,510,232,508.8,230.7z"/>
				<path class="st33" d="M535.7,230.7c1.1-1.3-1-3.3-3-3.7c-1.9-0.4-3.8,0.3-3.8,1.8c0,1.3,1.6,1,3.6,1.5S534.6,232,535.7,230.7z"
					/>
			</g>
			<path class="st26" d="M577.6,457.6"/>
			<path id="Pants_2_" class="st41" d="M506.8,443.5l17.5-0.3c0,0-5.8-47.4-5.8-52.4c0-4.4,1.6-10.5,2.9-15.1
				c1.1-3.9,4.7-6.7,5.8-6.7c1.5,0,5.2,4.3,6.1,8.2c1.4,5.7,1.9,11.4,2.3,15.1c1.5,12.7-3.8,51.8-3.8,51.8l25.6,3.2
				c0,0,15.8-56,13.1-74.8c-0.5-3.8-4.9-9.3-8.2-15.4c-3.7-6.9-6.4-14.3-6.4-14.3s-22.4,3.7-30,4.1c-8.2,0.4-32.9-1.5-32.9-1.5
				s-0.4,5.9-1.7,9.6c-1.5,4.1-8.3,18.2-8.4,23.3c-0.5,22.3,12.2,65.8,12.2,65.8L506.8,443.5z"/>
			<path class="st42" d="M527.4,464.2c0,2.6-10.4,9.8-21.5,11.4c-10.8,1.5-18.9-2.4-18.9-4.9s6.8-4.4,18.1-4.4
				C516.3,466.2,527.4,461.6,527.4,464.2z"/>
			<path class="st42" d="M529.2,464.5c0,2.6,12.5,8.7,22.7,11.6c9.2,2.6,16.9-2,16.9-4.7c0-2.6-5.9-4.9-17.2-4.9
				C540.3,466.5,529.2,461.9,529.2,464.5z"/>
			<path class="st43" d="M491.3,430.4c0,0,9.3,9,10.8,9c1.8,0,20.1-13.1,20.1-13.1s6,36.8,5.2,37.8c-1.7,2.3-14.2,9.5-20.1,10.2
				c-7.6,0.9-14.1,0.4-17.5-1.5c-3.8-2-5.9-6.1-5.8-8.4c0.2-4.4,12.2-11.4,12.2-11.4L491.3,430.4z"/>
			<path class="st43" d="M533.8,427.5c0,0,16.3,12.5,18.3,12.8c2.1,0.3,9.3-8.7,9.3-8.7l-5.2,21.8c0,0,12,4.8,14.6,8.4
				c2,2.9-1.5,10.4-4.1,11.9c-3.2,1.8-11,2.4-14.6,1.5c-6.2-1.6-22.4-10.2-23-11.1C528.6,463.3,533.8,427.5,533.8,427.5z"/>
			<line class="st44" x1="494.2" y1="303.8" x2="493.1" y2="345.4"/>
			<line class="st44" x1="550.4" y1="299.4" x2="556" y2="342.8"/>
			<g class="st26">
				<path class="st45" d="M526.3,451.7c-5,3.8-13.8,8.7-16.6,6.4c-0.3-0.3-3.8-2.7-3.8-5.2c0-1.6,1.6-3.1,1.2-4.1
					c-0.7-1.6-8-3-9-1.7c-0.5,0.7-0.3,1.7,0.6,3.5c1,2.1,0.2,3.3-0.3,3.5c-0.3,0.1-0.9,0.6-2-0.9"/>
				<g>
					<path class="st46" d="M526.3,451.7c-0.4,0.3-0.8,0.6-1.2,0.9"/>
					<path class="st47" d="M522.5,454.3c-4.8,3-10.7,5.6-12.8,3.8c-0.3-0.3-3.8-2.7-3.8-5.2c0-1.6,1.6-3.1,1.2-4.1
						c-0.7-1.6-8-3-9-1.7c-0.5,0.7-0.3,1.7,0.6,3.5c0.8,1.5,0.5,2.6,0.1,3.1"/>
					<path class="st46" d="M497.4,454.1c-0.3-0.1-0.7-0.4-1.1-1"/>
				</g>
			</g>
			<g class="st26">
				<g>
					<path class="st48" d="M530.6,452c0.4,0.3,0.8,0.6,1.2,0.9"/>
					<path class="st49" d="M534.4,454.5c4,2.5,8.4,4.5,10.3,3.1c0.3-0.2,3.4-2.3,3.3-4.5c0-1.4-1.4-2.7-1-3.5c0.6-1.3,7-2.5,7.9-1.5
						c0.5,0.6,0.3,1.5-0.5,3c-0.5,1-0.5,1.8-0.3,2.3"/>
					<path class="st48" d="M555.2,454.3c0.3,0,0.7-0.3,1.2-0.9"/>
				</g>
			</g>
			<path class="st31" d="M504.2,276.7l2.5,1.6c0.2,0.1,0.4,0.1,0.5,0l2.7-1.1c0.5-0.2,0.9,0.2,0.8,0.7l-0.7,2.8c0,0.2,0,0.4,0.1,0.5
				l1.9,2.2c0.3,0.4,0.1,0.9-0.4,1l-2.9,0.2c-0.2,0-0.4,0.1-0.5,0.3l-1.5,2.5c-0.3,0.4-0.9,0.4-1.1-0.1l-1.1-2.7
				c-0.1-0.2-0.2-0.3-0.4-0.4l-2.8-0.7c-0.5-0.1-0.6-0.7-0.2-1l2.2-1.9c0.1-0.1,0.2-0.3,0.2-0.5l-0.3-2.9
				C503.3,276.8,503.8,276.5,504.2,276.7z"/>
			<path class="st31" d="M548.5,289l0.5,2.9c0,0.2,0.2,0.4,0.3,0.4l2.6,1.3c0.4,0.2,0.5,0.8,0,1.1l-2.6,1.3
				c-0.2,0.1-0.3,0.3-0.3,0.4l-0.4,2.9c-0.1,0.5-0.7,0.7-1,0.3l-2.1-2.1c-0.1-0.1-0.3-0.2-0.5-0.2l-2.9,0.5
				c-0.5,0.1-0.9-0.4-0.6-0.8l1.3-2.6c0.1-0.2,0.1-0.4,0-0.5l-1.4-2.6c-0.2-0.4,0.1-0.9,0.6-0.9l2.9,0.4c0.2,0,0.4,0,0.5-0.2l2-2.1
				C547.8,288.4,548.4,288.5,548.5,289z"/>
			<path class="st31" d="M552.7,278.1l-2.9-0.5c-0.2,0-0.4,0-0.5,0.2l-2,2.1c-0.3,0.4-0.9,0.2-1-0.3l-0.4-2.9c0-0.2-0.1-0.4-0.3-0.4
				L543,275c-0.4-0.2-0.4-0.8,0-1.1l2.6-1.3c0.2-0.1,0.3-0.3,0.3-0.4l0.3-2c1.9,0.8,4,1.9,6.2,3.3l-0.4,0.7c-0.1,0.2-0.1,0.4,0,0.6
				l1.4,2.6C553.5,277.7,553.2,278.2,552.7,278.1z"/>
			<path class="st31" d="M482.7,300.6c-0.1,0.1-0.2,0.3-0.1,0.5l0.7,2.8c0.1,0.5-0.4,0.9-0.8,0.7l-2-0.9c0.1-1.9,0.3-4.2,0.6-6.7
				c0.1,0.1,0.2,0.2,0.4,0.2l2.9,0.3c0.5,0,0.7,0.6,0.4,1L482.7,300.6z"/>
			<path class="st50" d="M527.7,248.9c0,1.5-2.1,3.6-4.9,3.6s-5.2-2.1-5.2-3.6s2.3-2.8,5.1-2.8S527.7,247.4,527.7,248.9z"/>
		</g>
	</g>
	<g id="Sunnybear_After" class="st25">
		<path class="st60" d="M748.8,358c-7.5,5.7-27.6,6.5-37,6.4c-9.9-0.1-31-1.2-38.9-7.2c-3.3-2.5-8.3-14.4-8.3-14.4l91.4,2
			C755.9,344.9,751.7,355.8,748.8,358z"/>
		<path class="st61" d="M757.9,346.6c-8.1,7.7-34.2,9.4-45.4,8.6c-12.8-0.9-39-0.1-47.7-9.5c-3.7-4-3.9-16.8-3.1-22.1
			c0.8-5.3,7.3-14.6,7.3-19.9c0.1-8.6-12.8-16.3-10.4-32.7c1-6.4,6.7-18.6,6.6-25.1c-0.1-3.3-3.8-9.4-4.3-12.7
			c-1-6.1,0.2-19.8,4.6-24.2c7.7-7.7,31.8-8.9,42.6-8.2c11,0.7,36-1.4,43.7,6.5c4.2,4.4,4.7,18.1,3.5,24.1c-0.6,2.9-4,8-4.2,10.9
			c-0.7,8.1,7.9,23.4,8.5,31.5c1.3,16.7-6,22.3-5.8,30c0.1,5.1,5-1.1,6.7,19.3C761.1,328.5,762,342.7,757.9,346.6z"/>
		<path class="st62" d="M748.8,228.5c0,4.6-1.3,10.9-6.4,14.4c-7.4,5-21,6.2-34.3,6.2c-11.8,0-25.3-0.4-32.7-4.4
			c-6.8-3.7-8.1-10.7-8.1-16.1c0-4.6,0.4-11.5,5.5-14.9c7.4-5,21.9-5.6,35.3-5.6c12.9,0,25.5,0.2,33,5
			C746.5,216.4,748.8,223.6,748.8,228.5z"/>
		<path class="st63" d="M751.1,406.3c-3.6,3.8-9.7,3.4-14.8,1.3c-4-1.7-6.3-3.6-8.8-6.2c-7.4-7.7-10.2-17.2-4.9-21.5
			s12.1-0.1,19.8,6.8c4.8,4.3,9.5,4.7,10.3,9.1C753.2,398.4,753.7,403.5,751.1,406.3z"/>
		<path class="st64" d="M726.9,398.4c-5.2-5.6-8.6-14.3-6.5-18.8c0.9-1.9,3.6-1.4,5.5-2.3c6.6-3.2,16,1.8,22.7,10.2
			c6.6,8.3,4.8,15.7,0.3,17.3C745.7,405.8,740,412.6,726.9,398.4z"/>
		<polygon class="st65" points="729.7,381.4 736.5,381 745.7,396 739.5,397 		"/>
		<path class="st63" d="M744.4,407.7c4.5,0,7.4-0.7,8.3-3.8c1.1-3.7,0.5-8,0-8.2c-3.4-1.1-7-1.1-10.3-0.3c-4.4,1.1-8.7,2.7-10.8,7.1
			C731.4,403.1,736.7,407.7,744.4,407.7z"/>
		<path class="st66" d="M731.8,389.1c0,0,4.7-1.2,6.4-1.4c1.4-0.2,5.5-0.4,5.5-0.4l-1.8-1.8c0,0-3.6,0.1-4.7,0.2
			c-1.6,0.1-6.4,1.2-6.4,1.2L731.8,389.1z"/>
		<path class="st67" d="M735.3,393.9c0,0,3.8-1.4,5.5-1.6c1.4-0.2,6.6,0,6.6,0l-1.8-2.4c0,0-4.6-0.1-6.2,0.1
			c-1.5,0.3-5.8,1.6-5.8,1.6L735.3,393.9z"/>
		<path class="st63" d="M673.8,408.9c6,5.2,13.9,2.9,20.9-4.5s8.7-17,3.9-21.6s-14.4-2.3-21.3,5.1c-4.3,4.5-5.9,5.1-5.8,9.7
			C671.4,400.4,671.1,406.5,673.8,408.9z"/>
		<path class="st64" d="M696.7,400.7c4.6-5.5,6.5-14.8,4.4-19.6c-0.9-2-3.4-1.6-5.3-2.7c-6.3-3.6-14.8,1.1-20.7,9.5
			c-5.8,8.3-3.9,15.9,0.4,17.8C678.4,407,685,414.7,696.7,400.7z"/>
		<polygon class="st65" points="693.1,382.8 686.9,382.3 677.5,396.4 684.1,397.8 		"/>
		<path class="st63" d="M679.9,410.4c-4.1,0-7.3-1.8-8.1-5.2c-1-3.9-0.4-7.1-0.3-7.6c0.3-1.7,7-1.9,9.6-1.4c4,0.7,10.9,4.3,11.1,8.8
			C692.1,405.6,686.8,410.4,679.9,410.4z"/>
		<path class="st66" d="M691.5,390.1c0,0-4.3-1.2-5.7-1.4c-1.3-0.2-5-0.4-5-0.4l1.6-1.9c0,0,3.2,0.1,4.3,0.2
			c1.4,0.1,5.8,1.3,5.8,1.3L691.5,390.1z"/>
		<path class="st67" d="M688.3,394.9c0,0-3.5-1.5-4.9-1.7c-1.3-0.2-6,0-6,0l1.6-2.6c0,0,4.2-0.2,5.6,0.2c1.4,0.3,5.2,1.7,5.2,1.7
			L688.3,394.9z"/>
		<path class="st68" d="M745.9,273.9c0.6,3.5,1.3,10.8,1.3,10.8c-4.2,13.5-22.1,15.8-30.5,15.3c-18.5-1.2-43,5.5-43.8-15.5
			c-1-28.3,17.6-37.4,36.1-37.4S741.9,249.7,745.9,273.9z"/>
		<path class="st69" d="M738.3,315.3c0,0,11.7-0.7,12.9,17.4c0.3,4.4-6.4,40.9-7.7,46.2c-0.9,3.6-22,2.5-23,1.9
			c-2.6-1.3,3.9-40.7,1.9-44.1c-3.9-6.8-4.6-14.9-12.8-14c-2.1,0.2-6.2,12.5-8.9,16c-2.3,3,2.4,41.8,0.3,42.2
			c-5.4,1.2-15.8,4.3-20.9-0.6c-1.5-1.5-10-45.2-10-49.5c0-4.7,9.5-16.6,9.5-16.9c-1-9.1,6.8-13.7,8.7-26c0.8-4.9,0.6-14.1,1.6-20.7
			c0.5-3.3,38.9-4.7,40.5-1.6C733.3,271.4,738.3,315.3,738.3,315.3z"/>
		<path class="st70" d="M728.9,295.3c-0.2,1.1-6.1,7.1-9,7.8c-2.7,0.7-14.3,0.7-19.3-1.3c-1.7-0.7-5.3-2.7-5.7-4.4
			c-0.6-2.4-2.5-16.7,1.7-18.9c2.8-1.5,27-2,29-0.9C729.4,279.9,729.6,291.6,728.9,295.3z"/>
		<g class="st26">
			<g>
				<path class="st71" d="M696.4,280.6c-0.1,0.2-0.2,1.1-0.4,2.5"/>
				<path class="st72" d="M695.8,287.7c0,2.5,0.1,5.3,0.5,7.8c0.7,4.5,6.4,5.8,9.3,6.3c2,0.3,8.8,1.4,14.1-0.4
					c2.6-0.9,6.1-4.9,6.5-5.9c0.7-1.5,0.6-6.5,0.4-10.3"/>
				<path class="st71" d="M726.3,282.9c-0.1-1.2-0.3-2.1-0.4-2.5"/>
			</g>
		</g>
		<path class="st70" d="M716.3,285.8c-1.3,0.6-7.8,0.6-9.5-0.1c-2.7-1.1-11.5-5.1-11.3-6.1c0.2-0.9,1.5-1.2,2.2-1.4
			c6.6-1.5,23.5-1.5,27.9-0.6c0.6,0.1,1.8,1.5,1.4,1.9C724.7,281.7,717.9,285.1,716.3,285.8z"/>
		<path class="st70" d="M726.1,281.8"/>
		<path class="st69" d="M696.3,263.9l-5.8,0.2c-2.3-2.5,1.2-13.6,1.2-13.6l3.5-1.5C695.2,249,695,259.8,696.3,263.9z"/>
		<path class="st69" d="M724.5,263.5l4.7-0.1c1.5-3.4-2.4-14.1-2.4-14.1l-3-0.9C723.8,248.4,725.2,259.6,724.5,263.5z"/>
		<path class="st73" d="M690.5,264.1c0.5,0.5,1.9,3.3,1.9,4.4c0,1.2-0.6,1.4-0.6,2.6c0,1.1,0.8,1.4,1.7,1.8c1.5,0.6,3-1,3.2-2.3
			c0.2-1.6-1.8-1.5-1.9-3.1c-0.1-1.1,0.4-2.8,0.9-3.4"/>
		<path class="st73" d="M729.3,263.4c-0.5,0.5-1.2,1.8-1.1,2.8c0,1.2,1,1.5,1.2,2.5c0.2,1.1-0.7,2.1-1.7,2.5
			c-1.5,0.6-2.9-0.3-3.1-1.6c-0.2-1.6,1.1-1.6,1.2-3.2c0.1-1.1-0.7-2.1-1.3-2.8"/>
		<circle class="st74" cx="694.2" cy="272.2" r="1.7"/>
		<circle class="st74" cx="711.6" cy="283" r="1.7"/>
		<circle class="st74" cx="726.5" cy="270.8" r="1.7"/>
		<path class="st75" d="M680.5,307.4L670.2,297l3-18.3c0,0,6,5.3,8.3,6.6c1.8,1,8.2,2.7,8.2,2.7s-1.1,13.2-1.6,14.8
			c-0.3,0.8-2,3.6-3.9,4.6C682.5,308.3,680.5,307.4,680.5,307.4z"/>
		<path class="st76" d="M685.4,301.3c0,6.5-6.8,6.7-13.2,6.7s-11.9,1.9-13.4-5.2c-0.9-4.3,2.7-10.5,12.3-11.1
			C681.3,291,685.4,297.9,685.4,301.3z"/>
		<path class="st77" d="M666,302.8c-0.4,1.6,0,4.1,1.2,5.5"/>
		<path class="st77" d="M672.4,302.4c0,1.4,0,4,0.5,5.5"/>
		<path class="st77" d="M678.2,301.2c0.9,1.3,1,5.3,0.5,6.2"/>
		<path class="st75" d="M749.4,287.5c0.5,1.1,3,3.7,3,3.7l0.5,12.4l-9.7,4.2c0,0-4.7-6.4-5.7-8.9c-1.4-3.4-2.9-14.5-2.9-14.5
			s2.7-0.2,7.4-2.4c0.9-0.4,4.6-4.2,4.6-4.2S748.7,286,749.4,287.5z"/>
		<path class="st75" d="M766,298.4c0,1.9,0.2,5.2-3.1,5.9c-1.6,0.3-3.9-0.5-7.5-0.7c-2.7-0.1-5.5,1.6-7.2,1.2
			c-3.9-1-4.9-4.7-4.9-6.8c0-3.1,2.9-8.6,11.8-7.9C762.2,290.5,766,295.3,766,298.4z"/>
		<path class="st77" d="M755.2,297.8c0,0-0.5,3.2,0.7,5.7"/>
		<path class="st77" d="M749.6,297.7c-1.1,1.5,0.4,5,1.5,5.9"/>
		<path class="st77" d="M759.6,303.5c1.9-1.1,1.6-4.2,0.9-5.4"/>
		<path id="right_outter_ear_1_" class="st78" d="M737.5,209.7c0.9,9.6-8.4,10.5-13.9,7.3c-5.9-3.5-8.1-7.6-8.1-9
			c-0.2-6.9,2.6-11.3,9.5-10.8C731.8,197.7,736.9,202.8,737.5,209.7z"/>
		<path id="left_outter_ear_1_" class="st75" d="M678.2,209.1c-0.9,9.5,8.3,10.4,13.7,7.2c5.9-3.5,8-7.5,8-8.9
			c0.2-6.8-2.6-11.2-9.4-10.7C683.9,197.3,678.8,202.3,678.2,209.1z"/>
		<path id="right_innner_ear_1_" class="st79" d="M732,209.7c0.4,5.3-4,5.8-6.7,4c-2.9-1.9-3.9-4.2-3.9-5c-0.1-3.8,1.2-5.8,4.5-5.3
			C728.5,203.9,731.7,206.4,732,209.7z"/>
		<path class="st79" d="M684.8,209.6c-0.4,5.2,4,5.7,6.6,4c2.8-1.9,3.8-4.1,3.9-4.9c0.1-3.8-1.2-5.8-4.4-5.3
			C688.2,203.7,685,206.2,684.8,209.6z"/>
		<path id="head_7_" class="st75" d="M733.3,231.1c0.1,5.9-1.5,12.9-7.3,15.6c-4.7,2.1-5.7,8-17.1,8.6c-10.8,0.6-11.7-4.9-18.3-6.9
			c-2.7-0.8-8.5-8.9-8.1-16.9c0.2-3.8,1.6-11.6,4.8-16.4c4.6-6.9,11.5-12.6,20-12.6s14.7,5.3,19.6,12.3
			C730.2,219.5,733.3,227.5,733.3,231.1z"/>
		<path id="snoot_5_" class="st79" d="M697.2,240.9c0-5.4,2.7-8.1,5-10.5c2.5-2.6,2.7-6.4,6.7-6.4c0.6,0,3,0.2,4,2.5
			c3.6,8.2,6.2,3,7.4,12.6c0.7,6-3.5,10.4-9.1,12.1C705.3,253,697.2,247.1,697.2,240.9z"/>
		<path id="nose_5_" class="st80" d="M703.4,232.9c-1-2.4-0.2-4.3,4.8-4.3c6.4,0,6.4,1.5,5.8,3.8c-0.4,1.4-2.9,3.8-5.5,3.8
			S703.9,234.3,703.4,232.9z"/>
		<path id="nose_shine_1_" class="st81" d="M711.3,230.3c0.1,0.3-0.6,0.8-0.9,0.9c-0.8,0.1-0.4-0.5-2-0.5c-1.4,0-1.4,0.6-1.9,0.5
			c-0.4,0-0.8-0.4-0.8-0.8c0.2-0.6,1.8-0.6,2.4-0.6C709.1,229.7,711.1,229.6,711.3,230.3z"/>
		<g id="right_eye_3_" class="st26">
			<path class="st82" d="M721.8,226.6c-0.3,1.4-0.5,1.7-0.9,1.8s-1-0.2-1.8,0c-1.3,0.4-1.9,0.7-2.2,0.9c-0.5,0.3-1.3-2.2-1.5-2.9
				c-0.8-2.3,0.4-5.1,3.1-5.3C721.6,221,722.3,224.2,721.8,226.6z"/>
			<path class="st83" d="M721.7,225.8c0,0.8-0.3,2.1-0.7,2.4c-0.5,0.3,0-0.1-1.8,0c-0.6,0-1.9,0.9-2.4,0.8c-0.8-0.2-1.3-1.8-1.3-3.2
				c0-1.7,1.4-3.1,3.1-3.1C720.3,222.7,721.7,224.1,721.7,225.8z"/>
			<circle class="st84" cx="718.5" cy="226" r="1.8"/>
			<circle class="st82" cx="717.9" cy="225.5" r="0.8"/>
			<circle id="l_twinkle_3_" class="st82" cx="718.9" cy="226.6" r="0.4"/>
			<path id="l_eyebrow_3_" class="st85" d="M721.3,216.9c0.6-0.8-1.7-2.9-3.6-3.3c-1.7-0.4-3.3,0.4-3.3,1.8c0,0.8,1.5,0.5,3.4,0.9
				C719.6,216.7,720.5,217.8,721.3,216.9z"/>
		</g>
		<g id="left_eye_1_" class="st26">
			<path class="st82" d="M694.8,226.9c0.3,1.4,0.5,1.7,0.9,1.8s1-0.2,1.8,0c1.3,0.4,1.9,0.7,2.2,0.9c0.5,0.3,1.3-2.2,1.5-2.9
				c0.8-2.3-0.4-5.1-3.1-5.3C695.1,221.3,694.4,224.5,694.8,226.9z"/>
			<path class="st83" d="M695,226.1c0,0.8,0.3,2.1,0.7,2.4c0.5,0.3,0-0.1,1.8,0c0.6,0,1.9,0.9,2.4,0.8c0.8-0.2,1.3-1.8,1.3-3.2
				c0-1.7-1.4-3.1-3.1-3.1C696.4,223,695,224.4,695,226.1z"/>
			<circle class="st84" cx="698.2" cy="226.3" r="1.8"/>
			<circle class="st82" cx="697.6" cy="225.7" r="0.8"/>
			<circle id="l_twinkle_2_" class="st82" cx="698.6" cy="226.5" r="0.4"/>
			<path id="l_eyebrow_2_" class="st85" d="M695.4,217.2c-0.6-0.8,1.7-2.9,3.6-3.3c1.7-0.4,3.3,0.4,3.3,1.8c0,0.8-1.5,0.5-3.4,0.9
				C697,217,696.1,218.1,695.4,217.2z"/>
		</g>
		<g id="mouth_1_" class="st26">
			<path class="st71" d="M700.6,237.4c0,0,1.3,3.8,3.8,3.8c2.4,0,4.2-1.2,4.6-1.2c0.4,0,1.9,1.2,4.2,0.5c2.1-0.6,3.5-3.9,3.5-3.9"/>
			<path class="st71" d="M709,239.9c0,0-0.1-0.2,0-0.7"/>
			<path id="chin_4_" class="st71" d="M708.3,244.6c0,0.6,2.5,0.6,2.5,0"/>
		</g>
		<path class="st61" d="M741.5,310.3c-0.7-4.9,5.9-7.1,13.7-7.1c7.6,0,13.7,2.2,13.7,7.1c0,5.1-6.1,5.5-13.7,5.5
			S742.1,314.3,741.5,310.3z"/>
		<path class="st61" d="M656.3,314.9c-0.4-5.2,7.3-6.3,15.4-7.2c8.4-0.9,15.8-0.7,15.8,4.7c0,4.9-5.1,7.5-14.8,8.2
			C664.6,321.3,656.8,320.7,656.3,314.9z"/>
		<polygon class="st86" points="720,322.9 705.6,322.9 706.1,306.8 702.4,302.9 674.6,273.6 681.6,261.7 713.2,295.6 733.9,265.7 
			742.8,272.9 720.5,305.7 720.4,307.3 		"/>
		<path class="st62" d="M683.6,262.3c1.2,4.1-2,12.6-7.1,12.6s-13.9-9.6-13.9-16.9c0-7.3,2.9-15.2,7.6-13.1
			C673.9,246.5,681.9,256.6,683.6,262.3z"/>
		<path class="st62" d="M755,257.2c1.2-7.5-4.5-13.7-7.7-12.4c-5.1,2-13.5,14.6-13.3,21c0.1,5.5,4.9,9.9,7.3,9
			C747.3,272.6,753.9,263.8,755,257.2z"/>
		<path class="st87" d="M704.7,321.5c1.1-1.7,5.7-2.9,7.7-2.8c2.4,0.1,7.9,1.5,8.7,3.7c0.7,2,0.6,7.3-0.2,9.1
			c-0.9,2.1-6.3,2.6-8.6,2.7c-2.1,0-7.5-0.5-8.2-2.5C703.3,329.4,703.3,323.6,704.7,321.5z"/>
		<path class="st64" d="M717.4,324.7c-1.9,1-7.2,0.8-9.2,0c-0.7-0.3-1.5-1.8-1.1-2.4c1.3-1.9,9.5-1.7,11.2,0
			C718.8,322.7,718.1,324.3,717.4,324.7z"/>
	</g>
	<g id="Sunnybear">
		<g id="Sunnybear-3" class="st25">
			<path class="st63" d="M752.3,421.6c-3.6,3.8-9.7,3.4-14.7,1.2c-3.9-1.7-6.3-3.6-8.8-6.2c-7.4-7.7-10.2-17.1-4.9-21.5
				c5.3-4.3,12-0.1,19.7,6.8c4.8,4.3,9.5,4.7,10.3,9.1C754.4,413.7,754.9,418.8,752.3,421.6z"/>
			<path class="st64" d="M728.1,413.7c-5.2-5.6-8.6-14.3-6.5-18.8c0.9-1.9,3.6-1.4,5.5-2.3c6.6-3.2,15.9,1.8,22.6,10.2
				c6.6,8.3,4.8,15.6,0.3,17.2C747,421.1,741.2,427.9,728.1,413.7z"/>
			<polygon class="st65" points="730.9,396.8 737.8,396.4 746.9,411.3 740.8,412.4 			"/>
			<path class="st63" d="M745.6,423.1c4.5,0,7.4-0.7,8.3-3.8c1.1-3.7,0.5-8,0-8.2c-3.4-1.1-7-1.1-10.3-0.3
				c-4.4,1.1-8.7,2.7-10.8,7.1C732.7,418.4,737.9,423.1,745.6,423.1z"/>
			<path class="st88" d="M733.1,404.4c0,0,4.7-1.2,6.3-1.4c1.4-0.2,5.5-0.4,5.5-0.4l-1.7-1.8c0,0-3.6,0.1-4.7,0.2
				c-1.6,0.1-6.4,1.2-6.4,1.2L733.1,404.4z"/>
			<path class="st88" d="M736.6,409.2c0,0,3.8-1.4,5.5-1.6c1.4-0.2,6.6,0,6.6,0l-1.7-2.4c0,0-4.6-0.1-6.2,0.1
				c-1.5,0.3-5.8,1.6-5.8,1.6L736.6,409.2z"/>
			<path class="st63" d="M675.2,424.2c6,5.2,13.9,2.9,20.9-4.5c6.9-7.3,8.7-17,3.9-21.5s-14.3-2.3-21.3,5.1
				c-4.3,4.5-5.8,5.1-5.8,9.7C672.8,415.7,672.4,421.8,675.2,424.2z"/>
			<path class="st64" d="M698,416c4.6-5.5,6.5-14.7,4.4-19.5c-0.9-2-3.4-1.6-5.3-2.7c-6.3-3.6-14.8,1.1-20.7,9.4
				c-5.8,8.2-3.9,15.9,0.4,17.8C679.8,422.3,686.3,430,698,416z"/>
			<polygon id="right_shoe_tongue_3_" class="st65" points="694.4,398.1 688.3,397.7 678.9,411.7 685.4,413.1 			"/>
			<path class="st63" d="M681.2,425.8c-4.1,0-7.3-1.8-8.1-5.2c-1-3.9-0.4-7.1-0.3-7.6c0.3-1.7,7-1.8,9.6-1.4
				c4,0.7,10.9,4.3,11.1,8.8C693.5,421,688.2,425.8,681.2,425.8z"/>
			<path class="st88" d="M692.9,405.4c0,0-4.3-1.2-5.7-1.4c-1.3-0.2-5-0.4-5-0.4l1.6-1.9c0,0,3.2,0.1,4.3,0.2
				c1.4,0.1,5.8,1.3,5.8,1.3L692.9,405.4z"/>
			<path class="st88" d="M689.6,410.2c0,0-3.5-1.5-4.9-1.7c-1.3-0.2-6,0-6,0l1.6-2.6c0,0,4.1-0.2,5.6,0.2c1.4,0.3,5.2,1.7,5.2,1.7
				L689.6,410.2z"/>
			<path class="st68" d="M747.1,289.4c0.6,3.5,1.3,10.8,1.3,10.8c-4.2,13.5-22.1,15.8-30.4,15.2c-18.4-1.2-43,5.5-43.7-15.5
				c-1-28.3,17.5-37.3,36-37.3C728.8,262.6,743.1,265.3,747.1,289.4z"/>
			<path class="st69" d="M739.6,330.8c0,0,11.7-0.7,12.9,17.4c0.3,4.4-6.4,40.9-7.7,46.2c-0.9,3.6-22,2.5-23,1.9
				c-2.6-1.3,3.9-40.7,1.9-44c-3.9-6.8-4.6-14.9-12.8-13.9c-2.1,0.2-6.2,12.5-8.8,16c-2.3,3,2.4,41.7,0.3,42.2
				c-5.4,1.2-15.8,4.3-20.8-0.6c-1.5-1.5-10-45.2-10-49.4c0-4.7,9.5-16.5,9.5-16.9c-1-9.1,6.8-13.6,8.7-25.9
				c0.8-4.9,0.6-14.1,1.6-20.7c0.5-3.3,38.8-4.7,40.4-1.6C734.6,286.9,739.6,330.8,739.6,330.8z"/>
			<path class="st70" d="M730.2,310.8c-0.2,1.1-6.1,7.1-9,7.8c-2.7,0.7-14.2,0.7-19.3-1.3c-1.7-0.7-5.2-2.7-5.7-4.4
				c-0.6-2.4-2.5-16.6,1.7-18.9c2.8-1.5,27-2,28.9-0.9C730.7,295.4,730.9,307.1,730.2,310.8z"/>
			<path class="st73" d="M697.7,296.1c-0.3,0.6-1.1,8.6-0.1,14.9c0.7,4.5,6.4,5.8,9.3,6.3c2,0.3,8.8,1.4,14-0.4
				c2.6-0.9,6.1-4.9,6.5-5.9c1.1-2.4,0.3-13.7-0.3-15"/>
			<path class="st70" d="M717.6,301.3c-1.3,0.6-7.8,0.6-9.5-0.1c-2.7-1.1-11.5-5.1-11.3-6.1c0.2-0.9,1.5-1.2,2.2-1.4
				c6.6-1.5,23.5-1.5,27.9-0.6c0.6,0.1,1.8,1.5,1.4,1.9C726,297.1,719.2,300.5,717.6,301.3z"/>
			<path class="st70" d="M727.4,297.3"/>
			<path class="st69" d="M697.6,279.4l-5.7,0.2c-2.3-2.5,1.2-13.5,1.2-13.5l3.5-1.5C696.6,264.5,696.3,275.3,697.6,279.4z"/>
			<path class="st69" d="M725.8,279.1l4.7-0.1c1.5-3.4-2.4-14.1-2.4-14.1l-3-0.9C725.1,264,726.5,275.1,725.8,279.1z"/>
			<path class="st73" d="M691.8,279.6c0.5,0.5,1.9,3.3,1.9,4.3c0,1.2-0.6,1.4-0.6,2.6c0,1.1,0.8,1.4,1.7,1.8c1.5,0.6,3-1,3.2-2.3
				c0.2-1.6-1.8-1.5-1.9-3.1c-0.1-1.1,0.4-2.8,0.9-3.4"/>
			<path class="st73" d="M730.5,278.9c-0.5,0.5-1.2,1.8-1.1,2.8c0,1.2,1,1.5,1.2,2.5c0.2,1.1-0.7,2.1-1.6,2.5
				c-1.5,0.6-2.9-0.3-3.1-1.6c-0.2-1.6,1.1-1.6,1.2-3.2c0.1-1.1-0.7-2.1-1.3-2.7"/>
			<circle class="st74" cx="695.6" cy="287.7" r="1.7"/>
			<circle class="st74" cx="712.9" cy="298.5" r="1.7"/>
			<circle class="st74" cx="727.8" cy="286.3" r="1.7"/>
			<path class="st75" d="M703,331.4c0.7,0.4,3.5,0.6,5.4,1.6c1.8,0.9,4.8,3.3,5.3,5.1c0.4,1.5-0.1,4.7-0.8,6c-1.1,1.9-4.3,2.1-5,1.7
				c0,0-1.1,0.8-2.8,0.6c-4.3-0.5-3.3-1.5-3.7-1.1c-0.6,0.7-1.8,0.6-2.8,0.5c-1.3-0.1-3-0.9-3.4-1.2c-3.4-2.1-4.1-7.3-4.1-7.3
				s-12.7-9.2-14.9-13.7c-3.1-6.5-1.9-28.9-1.9-28.9s4.6,4.9,8.3,6.7c3.9,2,7.1,2.2,7.1,2.2s0.2,11.4,1.7,14.9
				C693.1,322.4,700.3,329.9,703,331.4z"/>
			<path class="st73" d="M700,338.9c0,0,1.2,1.3,1.4,2.9c0.1,0.9,0.1,3.3,0.1,3.3"/>
			<path class="st73" d="M706,339.5c0,0,0.9,0.6,1.5,2.9c0.2,0.8,0.4,3.4,0.4,3.4"/>
			<path class="st73" d="M709.5,337.7c0,0,1.9,1.3,2.6,2.5c0.5,1,1,3.5,1,3.5"/>
			<path class="st73" d="M698.6,331.5c0,0,1.6-0.3,2.4-0.3c0.7,0,2.7,0.5,2.7,0.5"/>
			<line class="st73" x1="691" y1="352" x2="691.2" y2="353.6"/>
			<path class="st73" d="M729.2,334.1c0,0-2.7-1.4-3.3-1.3"/>
			<line class="st73" x1="735.9" y1="336.7" x2="735.7" y2="338.2"/>
			<g id="Head_4_" class="st26">
				<path id="right_outter_ear_4_" class="st89" d="M738.8,225.3c0.9,9.6-8.4,10.5-13.8,7.3c-5.9-3.5-8.1-7.6-8.1-9
					c-0.2-6.9,2.6-11.3,9.5-10.8C733,213.3,738.2,218.4,738.8,225.3z"/>
				<path id="right_innner_ear_4_" class="st85" d="M733.2,225.3c0.4,5.3-4,5.8-6.7,4c-2.9-1.9-3.9-4.2-3.9-5
					c-0.1-3.8,1.2-5.8,4.5-5.3C729.8,219.5,733,222,733.2,225.3z"/>
				<path id="left_outter_ear_4_" class="st90" d="M679.5,224.7c-0.9,9.5,8.3,10.4,13.7,7.2c5.9-3.5,8-7.5,8-8.9
					c0.2-6.8-2.6-11.2-9.4-10.6C685.3,212.9,680.2,217.9,679.5,224.7z"/>
				<path class="st85" d="M686.1,225.1c-0.4,5.2,4,5.7,6.6,4c2.8-1.9,3.8-4.1,3.9-4.9c0.1-3.7-1.2-5.8-4.4-5.3
					C689.5,219.3,686.4,221.8,686.1,225.1z"/>
				<path id="head_3_" class="st90" d="M734.6,246.7c0.1,5.9-1.5,12.9-7.3,15.5c-4.7,2.1-5.7,8-17.1,8.6
					c-10.8,0.6-11.7-4.9-18.3-6.9c-2.6-0.8-8.5-8.9-8.1-16.9c0.2-3.8,1.6-11.6,4.8-16.4c4.6-6.9,11.5-12.6,19.9-12.6
					c8.5,0,14.7,5.3,19.6,12.3C731.5,235.1,734.5,243.1,734.6,246.7z"/>
				<path id="snoot_3_" class="st85" d="M698.5,256.4c0-5.4,2.7-8,5-10.5c2.5-2.6,2.7-6.4,6.7-6.4c0.6,0,3,0.2,4,2.5
					c3.6,8.2,6.2,3,7.3,12.6c0.7,6-3.5,10.4-9,12.1C706.6,268.6,698.5,262.6,698.5,256.4z"/>
				<path id="nose_3_" class="st91" d="M704.7,248.5c-1-2.4-0.2-4.3,4.8-4.3c6.4,0,6.4,1.5,5.8,3.8c-0.4,1.4-2.9,3.8-5.4,3.8
					C707.3,251.6,705.2,249.8,704.7,248.5z"/>
				<path id="nose_shine_4_" class="st92" d="M712.6,245.9c0.1,0.3-0.6,0.8-0.9,0.9c-0.8,0.1-0.4-0.5-2-0.5c-1.4,0-1.4,0.6-1.9,0.5
					c-0.4,0-0.8-0.4-0.8-0.8c0.2-0.6,1.8-0.6,2.4-0.6C710.4,245.3,712.3,245.2,712.6,245.9z"/>
				<g id="mouth_5_">
					<path class="st93" d="M701.9,253c0,0,1.3,3.8,3.8,3.8c2.4,0,4.1-1.2,4.6-1.2c0.4,0,1.9,1.2,4.1,0.5c2.1-0.6,3.5-3.9,3.5-3.9"/>
					<path class="st93" d="M710.3,255.5c0,0-0.1-0.2,0-0.7"/>
					<path id="chin_5_" class="st93" d="M709.6,260.1c0,0.6,2.5,0.6,2.5,0"/>
				</g>
				<g id="left_eye_5_">
					<path class="st82" d="M696.2,242.5c0.3,1.4,0.5,1.7,0.9,1.8s1-0.2,1.8,0c1.3,0.4,1.9,0.7,2.2,0.9c0.5,0.3,1.3-2.2,1.5-2.9
						c0.8-2.3-0.4-5.1-3.1-5.3C696.4,236.8,695.7,240,696.2,242.5z"/>
					<path class="st83" d="M696.3,241.7c0,0.8,0.3,2.1,0.7,2.4c0.5,0.3,0-0.1,1.8,0c0.6,0,1.9,0.9,2.4,0.8c0.8-0.2,1.3-1.8,1.3-3.2
						c0-1.7-1.4-3.1-3.1-3.1S696.3,240,696.3,241.7z"/>
					<circle class="st84" cx="699.5" cy="241.8" r="1.8"/>
					<circle class="st82" cx="698.9" cy="241.2" r="0.8"/>
					<circle id="l_twinkle_9_" class="st82" cx="699.9" cy="242.1" r="0.4"/>
					<path id="l_eyebrow_9_" class="st85" d="M696.7,232.8c-0.6-0.8,1.7-2.9,3.6-3.3c1.7-0.4,3.3,0.4,3.3,1.7c0,0.8-1.5,0.5-3.4,0.9
						C698.3,232.5,697.4,233.7,696.7,232.8z"/>
				</g>
				<g id="right_eye_6_">
					<path class="st82" d="M723.1,242.2c-0.3,1.4-0.5,1.7-0.9,1.8s-1-0.2-1.8,0c-1.3,0.4-1.9,0.7-2.2,0.9c-0.5,0.3-1.3-2.2-1.5-2.9
						c-0.8-2.3,0.4-5.1,3.1-5.3C722.9,236.5,723.6,239.7,723.1,242.2z"/>
					<path class="st83" d="M722.9,241.4c0,0.8-0.3,2.1-0.7,2.4c-0.5,0.3,0-0.1-1.8,0c-0.6,0-1.9,0.9-2.4,0.8
						c-0.8-0.2-1.3-1.8-1.3-3.2c0-1.7,1.4-3.1,3.1-3.1S722.9,239.7,722.9,241.4z"/>
					<circle class="st84" cx="719.8" cy="241.5" r="1.8"/>
					<circle class="st82" cx="719.2" cy="241.1" r="0.8"/>
					<circle id="l_twinkle_8_" class="st82" cx="720.2" cy="242.1" r="0.4"/>
					<path id="l_eyebrow_8_" class="st85" d="M722.6,232.5c0.6-0.8-1.7-2.9-3.6-3.3c-1.7-0.4-3.3,0.4-3.3,1.7c0,0.8,1.5,0.5,3.4,0.9
						C720.9,232.2,721.8,233.4,722.6,232.5z"/>
				</g>
			</g>
			<g id="Seatbelt_4_" class="st26">
				<path id="seatbelt_4_" class="st59" d="M747.9,231.4l-93.6,127.1h9.2l98.6-125.1c0,0-6.6-1.5-8.2-1.6
					C747.9,231.4,747.9,231.4,747.9,231.4z"/>
			</g>
			<g id="Right_arm_5_" class="st26">
				<path class="st90" d="M726.4,332.7c-0.7,0.4-5.9-0.1-7.9,0.9c-1.8,0.9-4.8,3.3-5.3,5.1c-0.4,1.5,0.4,3.6,1.1,5
					c0.9,1.7,3,3.3,5.5,3.5c0,0,0.1,1,2,1.5c4.2,1,3.6-0.9,4-0.5c0.6,0.7,2.9,0.2,3.4,0.2c1.3-0.2,2.5-1.5,2.9-1.8
					c3.1-2.5,3-5.2,3-5.2s12.5-10.1,14.6-14.7c3.1-6.5-2.2-33.2-2.2-33.2s-1.5,2.8-5.1,4.6c-3.9,2-6.9,2.2-6.9,2.2
					s1.9,13.5,0.9,18.8c-0.1,0.3-0.2,0.7-0.4,1C734.7,322,728.7,331.4,726.4,332.7z"/>
				<path class="st93" d="M727.2,341.5c0,0-1.2,1.3-1.4,2.9c-0.1,0.9,0.1,3.7,0.1,3.7"/>
				<path class="st93" d="M721.8,340.7c0,0-1.3,0.4-1.9,2.7c-0.2,0.8-0.1,3.8-0.1,3.8"/>
				<path class="st93" d="M717.7,337.2c0,0-1.4,0.8-2.4,1.9c-1.5,1.6-0.6,5.2-0.6,5.2"/>
			</g>
		</g>
		<g id="Sunnybear-2" class="st25">
			<path class="st63" d="M752.3,426.6c-3.6,3.8-9.7,3.4-14.7,1.2c-3.9-1.7-6.3-3.6-8.8-6.2c-7.4-7.7-10.2-17.1-4.9-21.5
				c5.3-4.3,12-0.1,19.7,6.8c4.8,4.3,9.5,4.7,10.3,9.1C754.4,418.7,754.9,423.8,752.3,426.6z"/>
			<path class="st64" d="M728.1,418.7c-5.2-5.6-8.6-14.3-6.5-18.8c0.9-1.9,3.6-1.4,5.5-2.3c6.6-3.2,15.9,1.8,22.6,10.2
				c6.6,8.3,4.8,15.6,0.3,17.2C747,426.1,741.2,432.9,728.1,418.7z"/>
			<polygon class="st65" points="730.9,401.8 737.8,401.4 746.9,416.3 740.8,417.4 			"/>
			<path class="st63" d="M745.6,428.1c4.5,0,7.4-0.7,8.3-3.8c1.1-3.7,0.5-8,0-8.2c-3.4-1.1-7-1.1-10.3-0.3
				c-4.4,1.1-8.7,2.7-10.8,7.1C732.7,423.4,737.9,428.1,745.6,428.1z"/>
			<path class="st88" d="M733.1,409.4c0,0,4.7-1.2,6.3-1.4c1.4-0.2,5.5-0.4,5.5-0.4l-1.7-1.8c0,0-3.6,0.1-4.7,0.2
				c-1.6,0.1-6.4,1.2-6.4,1.2L733.1,409.4z"/>
			<path class="st88" d="M736.6,414.2c0,0,3.8-1.4,5.5-1.6c1.4-0.2,6.6,0,6.6,0l-1.7-2.4c0,0-4.6-0.1-6.2,0.1
				c-1.5,0.3-5.8,1.6-5.8,1.6L736.6,414.2z"/>
			<path class="st63" d="M675.2,429.2c6,5.2,13.9,2.9,20.9-4.5c6.9-7.3,8.7-17,3.9-21.5s-14.3-2.3-21.3,5.1
				c-4.3,4.5-5.8,5.1-5.8,9.7C672.8,420.7,672.4,426.8,675.2,429.2z"/>
			<path class="st64" d="M698,421c4.6-5.5,6.5-14.7,4.4-19.5c-0.9-2-3.4-1.6-5.3-2.7c-6.3-3.6-14.8,1.1-20.7,9.4
				c-5.8,8.2-3.9,15.9,0.4,17.8C679.8,427.3,686.3,435,698,421z"/>
			<polygon id="right_shoe_tongue_2_" class="st65" points="694.4,403.1 688.3,402.7 678.9,416.7 685.4,418.1 			"/>
			<path class="st63" d="M681.2,430.8c-4.1,0-7.3-1.8-8.1-5.2c-1-3.9-0.4-7.1-0.3-7.6c0.3-1.7,7-1.8,9.6-1.4
				c4,0.7,10.9,4.3,11.1,8.8C693.5,426,688.2,430.8,681.2,430.8z"/>
			<path class="st88" d="M692.9,410.4c0,0-4.3-1.2-5.7-1.4c-1.3-0.2-5-0.4-5-0.4l1.6-1.9c0,0,3.2,0.1,4.3,0.2
				c1.4,0.1,5.8,1.3,5.8,1.3L692.9,410.4z"/>
			<path class="st88" d="M689.6,415.2c0,0-3.5-1.5-4.9-1.7c-1.3-0.2-6,0-6,0l1.6-2.6c0,0,4.1-0.2,5.6,0.2c1.4,0.3,5.2,1.7,5.2,1.7
				L689.6,415.2z"/>
			<path class="st68" d="M747.1,294.4c0.6,3.5,1.3,10.8,1.3,10.8c-4.2,13.5-22.1,15.8-30.4,15.2c-18.4-1.2-43,5.5-43.7-15.5
				c-1-28.3,17.5-37.3,36-37.3C728.8,267.6,743.1,270.3,747.1,294.4z"/>
			<path class="st69" d="M739.6,335.8c0,0,11.7-0.7,12.9,17.4c0.3,4.4-6.4,40.9-7.7,46.2c-0.9,3.6-22,2.5-23,1.9
				c-2.6-1.3,3.9-40.7,1.9-44c-3.9-6.8-4.6-14.9-12.8-13.9c-2.1,0.2-6.2,12.5-8.8,16c-2.3,3,2.4,41.7,0.3,42.2
				c-5.4,1.2-15.8,4.3-20.8-0.6c-1.5-1.5-10-45.2-10-49.4c0-4.7,9.5-16.5,9.5-16.9c-1-9.1,6.8-13.6,8.7-25.9
				c0.8-4.9,0.6-14.1,1.6-20.7c0.5-3.3,38.8-4.7,40.4-1.6C734.6,291.9,739.6,335.8,739.6,335.8z"/>
			<path class="st70" d="M730.2,315.8c-0.2,1.1-6.1,7.1-9,7.8c-2.7,0.7-14.2,0.7-19.3-1.3c-1.7-0.7-5.2-2.7-5.7-4.4
				c-0.6-2.4-2.5-16.6,1.7-18.9c2.8-1.5,27-2,28.9-0.9C730.7,300.4,730.9,312.1,730.2,315.8z"/>
			<path class="st73" d="M697.7,301.1c-0.3,0.6-1.1,8.6-0.1,14.9c0.7,4.5,6.4,5.8,9.3,6.3c2,0.3,8.8,1.4,14-0.4
				c2.6-0.9,6.1-4.9,6.5-5.9c1.1-2.4,0.3-13.7-0.3-15"/>
			<path class="st70" d="M717.6,306.3c-1.3,0.6-7.8,0.6-9.5-0.1c-2.7-1.1-11.5-5.1-11.3-6.1c0.2-0.9,1.5-1.2,2.2-1.4
				c6.6-1.5,23.5-1.5,27.9-0.6c0.6,0.1,1.8,1.5,1.4,1.9C726,302.1,719.2,305.5,717.6,306.3z"/>
			<path class="st70" d="M727.4,302.3"/>
			<path class="st69" d="M697.6,284.4l-5.7,0.2c-2.3-2.5,1.2-13.5,1.2-13.5l3.5-1.5C696.6,269.5,696.3,280.3,697.6,284.4z"/>
			<path class="st69" d="M725.8,284.1l4.7-0.1c1.5-3.4-2.4-14.1-2.4-14.1l-3-0.9C725.1,269,726.5,280.1,725.8,284.1z"/>
			<path class="st73" d="M691.8,284.6c0.5,0.5,1.9,3.3,1.9,4.3c0,1.2-0.6,1.4-0.6,2.6c0,1.1,0.8,1.4,1.7,1.8c1.5,0.6,3-1,3.2-2.3
				c0.2-1.6-1.8-1.5-1.9-3.1c-0.1-1.1,0.4-2.8,0.9-3.4"/>
			<path class="st73" d="M730.5,283.9c-0.5,0.5-1.2,1.8-1.1,2.8c0,1.2,1,1.5,1.2,2.5c0.2,1.1-0.7,2.1-1.6,2.5
				c-1.5,0.6-2.9-0.3-3.1-1.6c-0.2-1.6,1.1-1.6,1.2-3.2c0.1-1.1-0.7-2.1-1.3-2.7"/>
			<circle class="st74" cx="695.6" cy="292.7" r="1.7"/>
			<circle class="st74" cx="712.9" cy="303.5" r="1.7"/>
			<circle class="st74" cx="727.8" cy="291.3" r="1.7"/>
			<path class="st75" d="M703,336.4c0.7,0.4,3.5,0.6,5.4,1.6c1.8,0.9,4.8,3.3,5.3,5.1c0.4,1.5-0.1,4.7-0.8,6c-1.1,1.9-4.3,2.1-5,1.7
				c0,0-1.1,0.8-2.8,0.6c-4.3-0.5-3.3-1.5-3.7-1.1c-0.6,0.7-1.8,0.6-2.8,0.5c-1.3-0.1-3-0.9-3.4-1.2c-3.4-2.1-4.1-7.3-4.1-7.3
				s-12.7-9.2-14.9-13.7c-3.1-6.5-1.9-28.9-1.9-28.9s4.6,4.9,8.3,6.7c3.9,2,7.1,2.2,7.1,2.2s0.2,11.4,1.7,14.9
				C693.1,327.4,700.3,334.9,703,336.4z"/>
			<path class="st73" d="M700,343.9c0,0,1.2,1.3,1.4,2.9c0.1,0.9,0.1,3.3,0.1,3.3"/>
			<path class="st73" d="M706,344.5c0,0,0.9,0.6,1.5,2.9c0.2,0.8,0.4,3.4,0.4,3.4"/>
			<path class="st73" d="M709.5,342.7c0,0,1.9,1.3,2.6,2.5c0.5,1,1,3.5,1,3.5"/>
			<path class="st73" d="M698.6,336.5c0,0,1.6-0.3,2.4-0.3c0.7,0,2.7,0.5,2.7,0.5"/>
			<line class="st73" x1="691" y1="352" x2="691.2" y2="353.6"/>
			<path class="st73" d="M729.2,339.1c0,0-2.7-1.4-3.3-1.3"/>
			<line class="st73" x1="735.9" y1="341.7" x2="735.7" y2="343.2"/>
			<g id="Head_2_" class="st26">
				<path id="right_outter_ear_3_" class="st89" d="M738.8,230.3c0.9,9.6-8.4,10.5-13.8,7.3c-5.9-3.5-8.1-7.6-8.1-9
					c-0.2-6.9,2.6-11.3,9.5-10.8C733,218.3,738.2,223.4,738.8,230.3z"/>
				<path id="right_innner_ear_3_" class="st85" d="M733.2,230.3c0.4,5.3-4,5.8-6.7,4c-2.9-1.9-3.9-4.2-3.9-5
					c-0.1-3.8,1.2-5.8,4.5-5.3C729.8,224.5,733,227,733.2,230.3z"/>
				<path id="left_outter_ear_3_" class="st90" d="M679.5,229.7c-0.9,9.5,8.3,10.4,13.7,7.2c5.9-3.5,8-7.5,8-8.9
					c0.2-6.8-2.6-11.2-9.4-10.6C685.3,217.9,680.2,222.9,679.5,229.7z"/>
				<path class="st85" d="M686.1,230.1c-0.4,5.2,4,5.7,6.6,4c2.8-1.9,3.8-4.1,3.9-4.9c0.1-3.7-1.2-5.8-4.4-5.3
					C689.5,224.3,686.4,226.8,686.1,230.1z"/>
				<path id="head_2_" class="st90" d="M734.6,251.7c0.1,5.9-1.5,12.9-7.3,15.5c-4.7,2.1-5.7,8-17.1,8.6
					c-10.8,0.6-11.7-4.9-18.3-6.9c-2.6-0.8-8.5-8.9-8.1-16.9c0.2-3.8,1.6-11.6,4.8-16.4c4.6-6.9,11.5-12.6,19.9-12.6
					c8.5,0,14.7,5.3,19.6,12.3C731.5,240.1,734.5,248.1,734.6,251.7z"/>
				<path id="snoot_2_" class="st85" d="M698.5,261.4c0-5.4,2.7-8,5-10.5c2.5-2.6,2.7-6.4,6.7-6.4c0.6,0,3,0.2,4,2.5
					c3.6,8.2,6.2,3,7.3,12.6c0.7,6-3.5,10.4-9,12.1C706.6,273.6,698.5,267.6,698.5,261.4z"/>
				<path id="nose_2_" class="st91" d="M704.7,253.5c-1-2.4-0.2-4.3,4.8-4.3c6.4,0,6.4,1.5,5.8,3.8c-0.4,1.4-2.9,3.8-5.4,3.8
					C707.3,256.6,705.2,254.8,704.7,253.5z"/>
				<path id="nose_shine_3_" class="st92" d="M712.6,250.9c0.1,0.3-0.6,0.8-0.9,0.9c-0.8,0.1-0.4-0.5-2-0.5c-1.4,0-1.4,0.6-1.9,0.5
					c-0.4,0-0.8-0.4-0.8-0.8c0.2-0.6,1.8-0.6,2.4-0.6C710.4,250.3,712.3,250.2,712.6,250.9z"/>
				<g id="mouth_4_">
					<path class="st93" d="M701.9,258c0,0,1.3,3.8,3.8,3.8c2.4,0,4.1-1.2,4.6-1.2c0.4,0,1.9,1.2,4.1,0.5c2.1-0.6,3.5-3.9,3.5-3.9"/>
					<path class="st93" d="M710.3,260.5c0,0-0.1-0.2,0-0.7"/>
					<path id="chin_2_" class="st93" d="M709.6,265.1c0,0.6,2.5,0.6,2.5,0"/>
				</g>
				<g id="left_eye_4_">
					<path class="st82" d="M696.2,247.5c0.3,1.4,0.5,1.7,0.9,1.8s1-0.2,1.8,0c1.3,0.4,1.9,0.7,2.2,0.9c0.5,0.3,1.3-2.2,1.5-2.9
						c0.8-2.3-0.4-5.1-3.1-5.3C696.4,241.8,695.7,245,696.2,247.5z"/>
					<path class="st83" d="M696.3,246.7c0,0.8,0.3,2.1,0.7,2.4c0.5,0.3,0-0.1,1.8,0c0.6,0,1.9,0.9,2.4,0.8c0.8-0.2,1.3-1.8,1.3-3.2
						c0-1.7-1.4-3.1-3.1-3.1S696.3,245,696.3,246.7z"/>
					<circle class="st84" cx="699.5" cy="246.8" r="1.8"/>
					<circle class="st82" cx="698.9" cy="246.2" r="0.8"/>
					<circle id="l_twinkle_7_" class="st82" cx="699.9" cy="247.1" r="0.4"/>
					<path id="l_eyebrow_7_" class="st85" d="M696.7,237.8c-0.6-0.8,1.7-2.9,3.6-3.3c1.7-0.4,3.3,0.4,3.3,1.7c0,0.8-1.5,0.5-3.4,0.9
						C698.3,237.5,697.4,238.7,696.7,237.8z"/>
				</g>
				<g id="right_eye_5_">
					<path class="st82" d="M723.1,247.2c-0.3,1.4-0.5,1.7-0.9,1.8s-1-0.2-1.8,0c-1.3,0.4-1.9,0.7-2.2,0.9c-0.5,0.3-1.3-2.2-1.5-2.9
						c-0.8-2.3,0.4-5.1,3.1-5.3C722.9,241.5,723.6,244.7,723.1,247.2z"/>
					<path class="st83" d="M722.9,246.4c0,0.8-0.3,2.1-0.7,2.4c-0.5,0.3,0-0.1-1.8,0c-0.6,0-1.9,0.9-2.4,0.8
						c-0.8-0.2-1.3-1.8-1.3-3.2c0-1.7,1.4-3.1,3.1-3.1S722.9,244.7,722.9,246.4z"/>
					<circle class="st84" cx="719.8" cy="246.5" r="1.8"/>
					<circle class="st82" cx="719.2" cy="246.1" r="0.8"/>
					<circle id="l_twinkle_6_" class="st82" cx="720.2" cy="247.1" r="0.4"/>
					<path id="l_eyebrow_6_" class="st85" d="M722.6,237.5c0.6-0.8-1.7-2.9-3.6-3.3c-1.7-0.4-3.3,0.4-3.3,1.7c0,0.8,1.5,0.5,3.4,0.9
						C720.9,237.2,721.8,238.4,722.6,237.5z"/>
				</g>
			</g>
			<g id="Seatbelt_3_" class="st26">
				<path id="seatbelt_3_" class="st59" d="M747.9,231.4l-93.6,127.1h9.2l98.6-125.1c0,0-6.6-1.5-8.2-1.6
					C747.9,231.4,747.9,231.4,747.9,231.4z"/>
			</g>
			<g id="Right_arm_4_" class="st26">
				<path class="st90" d="M726.4,337.7c-0.7,0.4-5.9-0.1-7.9,0.9c-1.8,0.9-4.8,3.3-5.3,5.1c-0.4,1.5,0.4,3.6,1.1,5
					c0.9,1.7,3,3.3,5.5,3.5c0,0,0.1,1,2,1.5c4.2,1,3.6-0.9,4-0.5c0.6,0.7,2.9,0.2,3.4,0.2c1.3-0.2,2.5-1.5,2.9-1.8
					c3.1-2.5,3-5.2,3-5.2s12.5-10.1,14.6-14.7c3.1-6.5-2.2-33.2-2.2-33.2s-1.5,2.8-5.1,4.6c-3.9,2-6.9,2.2-6.9,2.2
					s1.9,13.5,0.9,18.8c-0.1,0.3-0.2,0.7-0.4,1C734.7,327,728.7,336.4,726.4,337.7z"/>
				<path class="st93" d="M727.2,346.5c0,0-1.2,1.3-1.4,2.9c-0.1,0.9,0.1,3.7,0.1,3.7"/>
				<path class="st93" d="M721.8,345.7c0,0-1.3,0.4-1.9,2.7c-0.2,0.8-0.1,3.8-0.1,3.8"/>
				<path class="st93" d="M717.7,342.2c0,0-1.4,0.8-2.4,1.9c-1.5,1.6-0.6,5.2-0.6,5.2"/>
			</g>
		</g>
		<g id="Sunnybear-1">
			<path class="st82" d="M752.3,437.6c-3.6,3.8-9.7,3.4-14.7,1.2c-3.9-1.7-6.3-3.6-8.8-6.2c-7.4-7.7-10.2-17.1-4.9-21.5
				c5.3-4.3,12-0.1,19.7,6.8c4.8,4.3,9.5,4.7,10.3,9.1C754.4,429.7,754.9,434.8,752.3,437.6z"/>
			<path class="st94" d="M728.1,429.7c-5.2-5.6-8.6-14.3-6.5-18.8c0.9-1.9,3.6-1.4,5.5-2.3c6.6-3.2,15.9,1.8,22.6,10.2
				c6.6,8.3,4.8,15.6,0.3,17.2C747,437.1,741.2,443.9,728.1,429.7z"/>
			<polygon class="st95" points="730.9,412.8 737.8,412.4 746.9,427.3 740.8,428.4 			"/>
			<path class="st82" d="M745.6,439.1c4.5,0,7.4-0.7,8.3-3.8c1.1-3.7,0.5-8,0-8.2c-3.4-1.1-7-1.1-10.3-0.3
				c-4.4,1.1-8.7,2.7-10.8,7.1C732.7,434.4,737.9,439.1,745.6,439.1z"/>
			<path class="st96" d="M733.1,420.4c0,0,4.7-1.2,6.3-1.4c1.4-0.2,5.5-0.4,5.5-0.4l-1.7-1.8c0,0-3.6,0.1-4.7,0.2
				c-1.6,0.1-6.4,1.2-6.4,1.2L733.1,420.4z"/>
			<path class="st96" d="M736.6,425.2c0,0,3.8-1.4,5.5-1.6c1.4-0.2,6.6,0,6.6,0l-1.7-2.4c0,0-4.6-0.1-6.2,0.1
				c-1.5,0.3-5.8,1.6-5.8,1.6L736.6,425.2z"/>
			<path class="st82" d="M675.2,440.2c6,5.2,13.9,2.9,20.9-4.5c6.9-7.3,8.7-17,3.9-21.5s-14.3-2.3-21.3,5.1
				c-4.3,4.5-5.8,5.1-5.8,9.7C672.8,431.7,672.4,437.8,675.2,440.2z"/>
			<path class="st94" d="M698,432c4.6-5.5,6.5-14.7,4.4-19.5c-0.9-2-3.4-1.6-5.3-2.7c-6.3-3.6-14.8,1.1-20.7,9.4
				c-5.8,8.2-3.9,15.9,0.4,17.8C679.8,438.3,686.3,446,698,432z"/>
			<polygon id="right_shoe_tongue_1_" class="st95" points="694.4,414.1 688.3,413.7 678.9,427.7 685.4,429.1 			"/>
			<path class="st82" d="M681.2,441.8c-4.1,0-7.3-1.8-8.1-5.2c-1-3.9-0.4-7.1-0.3-7.6c0.3-1.7,7-1.8,9.6-1.4
				c4,0.7,10.9,4.3,11.1,8.8C693.5,437,688.2,441.8,681.2,441.8z"/>
			<path class="st96" d="M692.9,421.4c0,0-4.3-1.2-5.7-1.4c-1.3-0.2-5-0.4-5-0.4l1.6-1.9c0,0,3.2,0.1,4.3,0.2
				c1.4,0.1,5.8,1.3,5.8,1.3L692.9,421.4z"/>
			<path class="st96" d="M689.6,426.2c0,0-3.5-1.5-4.9-1.7c-1.3-0.2-6,0-6,0l1.6-2.6c0,0,4.1-0.2,5.6,0.2c1.4,0.3,5.2,1.7,5.2,1.7
				L689.6,426.2z"/>
			<path class="st97" d="M747.1,305.4c0.6,3.5,1.3,10.8,1.3,10.8c-4.2,13.5-22.1,15.8-30.4,15.2c-18.4-1.2-43,5.5-43.7-15.5
				c-1-28.3,17.5-37.3,36-37.3C728.8,278.6,743.1,281.3,747.1,305.4z"/>
			<path class="st98" d="M739.6,346.8c0,0,11.7-0.7,12.9,17.4c0.3,4.4-6.4,40.9-7.7,46.2c-0.9,3.6-22,2.5-23,1.9
				c-2.6-1.3,3.9-40.7,1.9-44c-3.9-6.8-4.6-14.9-12.8-13.9c-2.1,0.2-6.2,12.5-8.8,16c-2.3,3,2.4,41.7,0.3,42.2
				c-5.4,1.2-15.8,4.3-20.8-0.6c-1.5-1.5-10-45.2-10-49.4c0-4.7,9.5-16.5,9.5-16.9c-1-9.1,6.8-13.6,8.7-25.9
				c0.8-4.9,0.6-14.1,1.6-20.7c0.5-3.3,38.8-4.7,40.4-1.6C734.6,302.9,739.6,346.8,739.6,346.8z"/>
			<path class="st99" d="M730.2,326.8c-0.2,1.1-6.1,7.1-9,7.8c-2.7,0.7-14.2,0.7-19.3-1.3c-1.7-0.7-5.2-2.7-5.7-4.4
				c-0.6-2.4-2.5-16.6,1.7-18.9c2.8-1.5,27-2,28.9-0.9C730.7,311.4,730.9,323.1,730.2,326.8z"/>
			<path class="st93" d="M697.7,312.1c-0.3,0.6-1.1,8.6-0.1,14.9c0.7,4.5,6.4,5.8,9.3,6.3c2,0.3,8.8,1.4,14-0.4
				c2.6-0.9,6.1-4.9,6.5-5.9c1.1-2.4,0.3-13.7-0.3-15"/>
			<path class="st99" d="M717.6,317.3c-1.3,0.6-7.8,0.6-9.5-0.1c-2.7-1.1-11.5-5.1-11.3-6.1c0.2-0.9,1.5-1.2,2.2-1.4
				c6.6-1.5,23.5-1.5,27.9-0.6c0.6,0.1,1.8,1.5,1.4,1.9C726,313.1,719.2,316.5,717.6,317.3z"/>
			<path class="st99" d="M727.4,313.3"/>
			<path class="st98" d="M697.6,295.4l-5.7,0.2c-2.3-2.5,1.2-13.5,1.2-13.5l3.5-1.5C696.6,280.5,696.3,291.3,697.6,295.4z"/>
			<path class="st98" d="M725.8,295.1l4.7-0.1c1.5-3.4-2.4-14.1-2.4-14.1l-3-0.9C725.1,280,726.5,291.1,725.8,295.1z"/>
			<path class="st93" d="M691.8,295.6c0.5,0.5,1.9,3.3,1.9,4.3c0,1.2-0.6,1.4-0.6,2.6c0,1.1,0.8,1.4,1.7,1.8c1.5,0.6,3-1,3.2-2.3
				c0.2-1.6-1.8-1.5-1.9-3.1c-0.1-1.1,0.4-2.8,0.9-3.4"/>
			<path class="st93" d="M730.5,294.9c-0.5,0.5-1.2,1.8-1.1,2.8c0,1.2,1,1.5,1.2,2.5c0.2,1.1-0.7,2.1-1.6,2.5
				c-1.5,0.6-2.9-0.3-3.1-1.6c-0.2-1.6,1.1-1.6,1.2-3.2c0.1-1.1-0.7-2.1-1.3-2.7"/>
			<circle class="st100" cx="695.6" cy="303.7" r="1.7"/>
			<circle class="st100" cx="712.9" cy="314.5" r="1.7"/>
			<circle class="st100" cx="727.8" cy="302.3" r="1.7"/>
			<path class="st90" d="M703,347.4c0.7,0.4,3.5,0.6,5.4,1.6c1.8,0.9,4.8,3.3,5.3,5.1c0.4,1.5-0.1,4.7-0.8,6c-1.1,1.9-4.3,2.1-5,1.7
				c0,0-1.1,0.8-2.8,0.6c-4.3-0.5-3.3-1.5-3.7-1.1c-0.6,0.7-1.8,0.6-2.8,0.5c-1.3-0.1-3-0.9-3.4-1.2c-3.4-2.1-4.1-7.3-4.1-7.3
				s-12.7-9.2-14.9-13.7c-3.1-6.5-1.9-28.9-1.9-28.9s4.6,4.9,8.3,6.7c3.9,2,7.1,2.2,7.1,2.2s0.2,11.4,1.7,14.9
				C693.1,338.4,700.3,345.9,703,347.4z"/>
			<path class="st93" d="M700,354.9c0,0,1.2,1.3,1.4,2.9c0.1,0.9,0.1,3.3,0.1,3.3"/>
			<path class="st93" d="M706,355.5c0,0,0.9,0.6,1.5,2.9c0.2,0.8,0.4,3.4,0.4,3.4"/>
			<path class="st93" d="M709.5,353.7c0,0,1.9,1.3,2.6,2.5c0.5,1,1,3.5,1,3.5"/>
			<path class="st93" d="M698.6,347.5c0,0,1.6-0.3,2.4-0.3c0.7,0,2.7,0.5,2.7,0.5"/>
			<line class="st101" x1="691" y1="352" x2="691.2" y2="353.6"/>
			<path class="st93" d="M729.2,350.1c0,0-2.7-1.4-3.3-1.3"/>
			<line class="st93" x1="735.9" y1="352.7" x2="735.7" y2="354.2"/>
			<g id="Head_1_">
				<path id="right_outter_ear_2_" class="st89" d="M738.8,241.3c0.9,9.6-8.4,10.5-13.8,7.3c-5.9-3.5-8.1-7.6-8.1-9
					c-0.2-6.9,2.6-11.3,9.5-10.8C733,229.3,738.2,234.4,738.8,241.3z"/>
				<path id="right_innner_ear_2_" class="st85" d="M733.2,241.3c0.4,5.3-4,5.8-6.7,4c-2.9-1.9-3.9-4.2-3.9-5
					c-0.1-3.8,1.2-5.8,4.5-5.3C729.8,235.5,733,238,733.2,241.3z"/>
				<path id="left_outter_ear_2_" class="st90" d="M679.5,240.7c-0.9,9.5,8.3,10.4,13.7,7.2c5.9-3.5,8-7.5,8-8.9
					c0.2-6.8-2.6-11.2-9.4-10.6C685.3,228.9,680.2,233.9,679.5,240.7z"/>
				<path class="st85" d="M686.1,241.1c-0.4,5.2,4,5.7,6.6,4c2.8-1.9,3.8-4.1,3.9-4.9c0.1-3.7-1.2-5.8-4.4-5.3
					C689.5,235.3,686.4,237.8,686.1,241.1z"/>
				<path id="head_1_" class="st90" d="M734.6,262.7c0.1,5.9-1.5,12.9-7.3,15.5c-4.7,2.1-5.7,8-17.1,8.6
					c-10.8,0.6-11.7-4.9-18.3-6.9c-2.6-0.8-8.5-8.9-8.1-16.9c0.2-3.8,1.6-11.6,4.8-16.4c4.6-6.9,11.5-12.6,19.9-12.6
					c8.5,0,14.7,5.3,19.6,12.3C731.5,251.1,734.5,259.1,734.6,262.7z"/>
				<path id="snoot_1_" class="st85" d="M698.5,272.4c0-5.4,2.7-8,5-10.5c2.5-2.6,2.7-6.4,6.7-6.4c0.6,0,3,0.2,4,2.5
					c3.6,8.2,6.2,3,7.3,12.6c0.7,6-3.5,10.4-9,12.1C706.6,284.6,698.5,278.6,698.5,272.4z"/>
				<path id="nose_1_" class="st91" d="M704.7,264.5c-1-2.4-0.2-4.3,4.8-4.3c6.4,0,6.4,1.5,5.8,3.8c-0.4,1.4-2.9,3.8-5.4,3.8
					C707.3,267.6,705.2,265.8,704.7,264.5z"/>
				<path id="nose_shine_2_" class="st92" d="M712.6,261.9c0.1,0.3-0.6,0.8-0.9,0.9c-0.8,0.1-0.4-0.5-2-0.5c-1.4,0-1.4,0.6-1.9,0.5
					c-0.4,0-0.8-0.4-0.8-0.8c0.2-0.6,1.8-0.6,2.4-0.6C710.4,261.3,712.3,261.2,712.6,261.9z"/>
				<g id="mouth_2_">
					<path class="st93" d="M701.9,269c0,0,1.3,3.8,3.8,3.8c2.4,0,4.1-1.2,4.6-1.2c0.4,0,1.9,1.2,4.1,0.5c2.1-0.6,3.5-3.9,3.5-3.9"/>
					<path class="st93" d="M710.3,271.5c0,0-0.1-0.2,0-0.7"/>
					<path id="chin_1_" class="st93" d="M709.6,276.1c0,0.6,2.5,0.6,2.5,0"/>
				</g>
				<g id="left_eye_2_">
					<path class="st82" d="M696.2,258.5c0.3,1.4,0.5,1.7,0.9,1.8c0.4,0.1,1-0.2,1.8,0c1.3,0.4,1.9,0.7,2.2,0.9
						c0.5,0.3,1.3-2.2,1.5-2.9c0.8-2.3-0.4-5.1-3.1-5.3C696.4,252.8,695.7,256,696.2,258.5z"/>
					<path class="st83" d="M696.3,257.7c0,0.8,0.3,2.1,0.7,2.4c0.5,0.3,0-0.1,1.8,0c0.6,0,1.9,0.9,2.4,0.8c0.8-0.2,1.3-1.8,1.3-3.2
						c0-1.7-1.4-3.1-3.1-3.1S696.3,256,696.3,257.7z"/>
					<circle class="st84" cx="699.5" cy="257.8" r="1.8"/>
					<circle class="st82" cx="698.9" cy="257.2" r="0.8"/>
					<circle id="l_twinkle_5_" class="st82" cx="699.9" cy="258.1" r="0.4"/>
					<path id="l_eyebrow_5_" class="st85" d="M696.7,248.8c-0.6-0.8,1.7-2.9,3.6-3.3c1.7-0.4,3.3,0.4,3.3,1.7c0,0.8-1.5,0.5-3.4,0.9
						C698.3,248.5,697.4,249.7,696.7,248.8z"/>
				</g>
				<g id="right_eye_2_">
					<path class="st82" d="M723.1,258.2c-0.3,1.4-0.5,1.7-0.9,1.8c-0.4,0.1-1-0.2-1.8,0c-1.3,0.4-1.9,0.7-2.2,0.9
						c-0.5,0.3-1.3-2.2-1.5-2.9c-0.8-2.3,0.4-5.1,3.1-5.3C722.9,252.5,723.6,255.7,723.1,258.2z"/>
					<path class="st83" d="M722.9,257.4c0,0.8-0.3,2.1-0.7,2.4c-0.5,0.3,0-0.1-1.8,0c-0.6,0-1.9,0.9-2.4,0.8
						c-0.8-0.2-1.3-1.8-1.3-3.2c0-1.7,1.4-3.1,3.1-3.1S722.9,255.7,722.9,257.4z"/>
					<circle class="st84" cx="719.8" cy="257.5" r="1.8"/>
					<circle class="st82" cx="719.2" cy="257.1" r="0.8"/>
					<circle id="l_twinkle_4_" class="st82" cx="720.2" cy="258.1" r="0.4"/>
					<path id="l_eyebrow_4_" class="st85" d="M722.6,248.5c0.6-0.8-1.7-2.9-3.6-3.3c-1.7-0.4-3.3,0.4-3.3,1.7c0,0.8,1.5,0.5,3.4,0.9
						C720.9,248.2,721.8,249.4,722.6,248.5z"/>
				</g>
			</g>
			<g id="Seatbelt_2_">
				<path id="seatbelt_2_" class="st59" d="M747.9,231.4l-93.6,127.1h9.2l98.6-125.1c0,0-6.6-1.5-8.2-1.6
					C747.9,231.4,747.9,231.4,747.9,231.4z"/>
			</g>
			<g id="Right_arm_2_">
				<path class="st90" d="M726.4,348.7c-0.7,0.4-5.9-0.1-7.9,0.9c-1.8,0.9-4.8,3.3-5.3,5.1c-0.4,1.5,0.4,3.6,1.1,5
					c0.9,1.7,3,3.3,5.5,3.5c0,0,0.1,1,2,1.5c4.2,1,3.6-0.9,4-0.5c0.6,0.7,2.9,0.2,3.4,0.2c1.3-0.2,2.5-1.5,2.9-1.8
					c3.1-2.5,3-5.2,3-5.2s12.5-10.1,14.6-14.7c3.1-6.5-2.2-33.2-2.2-33.2s-1.5,2.8-5.1,4.6c-3.9,2-6.9,2.2-6.9,2.2
					s1.9,13.5,0.9,18.8c-0.1,0.3-0.2,0.7-0.4,1C734.7,338,728.7,347.4,726.4,348.7z"/>
				<path class="st93" d="M727.2,357.5c0,0-1.2,1.3-1.4,2.9c-0.1,0.9,0.1,3.7,0.1,3.7"/>
				<path class="st93" d="M721.8,356.7c0,0-1.3,0.4-1.9,2.7c-0.2,0.8-0.1,3.8-0.1,3.8"/>
				<path class="st93" d="M717.7,353.2c0,0-1.4,0.8-2.4,1.9c-1.5,1.6-0.6,5.2-0.6,5.2"/>
			</g>
		</g>
	</g>
	<g id="Exterior">
		<g id="Car_exterior_1_">
			<path class="st102" d="M1011.2,507.4c0,0,58.6,33.6,70.9,54c9.2,15.3,10.2,92.8,3.1,99.4c-7.2,6.7-73.5,0-73.5,0L1011.2,507.4z"
				/>
			<path class="st102" d="M182.8,546.7c11.4-22.6,78-55.2,78-55.2l4.7,140.4c0,0-72.4,12.4-79.6,1.2
				C177.7,620.5,171.6,568.8,182.8,546.7z"/>
			<path class="st102" d="M1086.2,683.1c2.6,22.1,4.3,17.3,0,31.9c-2.9,10-67.5,21.4-87.4,43.6c-9.4,10.4-10.2,51-16.4,57.4
				c-7.2,7.4-73.6,3.6-110.1,3.8c-25.1,0.1-21-20.8-63.1-30.9c-46.2-11.1-119.8-5.5-184.1-6c-40-0.3-76.6,1.1-120.3,3
				c-58.2,2.6-111.6,32.5-118.1,36.6c0,0-92.8,5-104.4-6.8c-9.4-9.7-2.2-47.6-11.6-58c-19.3-21.4-72.5-25-83.5-33.5
				c-11.4-8.9-11.9-47.7-9.2-65.7c3.4-22.4,74.2-22,100.6-27.9c4.7-1.1,24.7,62.6,28.2,67.3c181.8,17.7,447.9,8.5,635.6-2.5
				c3.4-4.6,30.9-38.8,35.4-38.4C1045.5,662.5,1083.3,658.2,1086.2,683.1z"/>
			<path id="Body_1_" class="st103" d="M1006.5,458.9c-8.8-21.6-73.3-263-102.1-282.5c-28.7-19.5-210-34-280.8-35.6
				c-68.7-1.5-244.3,4.9-273.6,25.8c-29.3,20.9-58.9,135.2-68,154.9c-8,17.4-26.7,143.3-44.3,199.5c-1.7,5.6,0.2,28.1,0.2,34
				c0,2,6.2,4.1,8.1,4.2c37.4,2.1,107.8-25.7,381.9-25.7c274.6,0,354.7,26.1,384,26.7c1.9,0,2.5-5,2.5-5
				C1032.5,515.8,1006.5,458.9,1006.5,458.9z M955.5,437.1C885,458,863,453.4,628,453.4s-282.6,6-336.8-17.4
				c-21-9.1,35.3-199.7,64.6-234.8c29.3-35.1,111.4-34.4,267.7-34.4s238.6,8.4,267.5,42.5C919.8,243.3,976.2,430.9,955.5,437.1z"/>
			<path id="Hood_1_" class="st103" d="M615.9,707.2c-344-1-336.1,1-352-34.7c-13.2-29.7-58.8-139.7,8-167.9
				c39.1-16.5,254.7-11.1,346.9-11.2c94.3-0.1,344.6-8.8,377.8,12.5c48.5,31.3,17.1,143.9,8.4,166.5
				C993.5,702.5,996.4,708.3,615.9,707.2z"/>
		</g>
		<g id="Grate_and_headlights">
			<path class="st18" d="M799.7,651.4h-9.8c-4.8,0-8.7-3.9-8.7-8.7V526.3c0-4.8,3.9-8.7,8.7-8.7h9.8c4.8,0,8.7,3.9,8.7,8.7v116.5
				C808.5,647.5,804.5,651.4,799.7,651.4z"/>
			<path class="st18" d="M745.5,649h-9.8c-4.8,0-8.7-3.9-8.7-8.7V523.8c0-4.8,3.9-8.7,8.7-8.7h9.8c4.8,0,8.7,3.9,8.7,8.7v116.5
				C754.3,645,750.3,649,745.5,649z"/>
			<path class="st18" d="M697,645.4h-9.8c-4.8,0-8.7-3.9-8.7-8.7V520.2c0-4.8,3.9-8.7,8.7-8.7h9.8c4.8,0,8.7,3.9,8.7,8.7v116.5
				C705.7,641.5,701.8,645.4,697,645.4z"/>
			<path class="st18" d="M647,645.4h-9.8c-4.8,0-8.7-3.9-8.7-8.7V520.2c0-4.8,3.9-8.7,8.7-8.7h9.8c4.8,0,8.7,3.9,8.7,8.7v116.5
				C655.7,641.5,651.8,645.4,647,645.4z"/>
			<path class="st18" d="M598.1,645.4h-9.8c-4.8,0-8.7-3.9-8.7-8.7V520.2c0-4.8,3.9-8.7,8.7-8.7h9.8c4.8,0,8.7,3.9,8.7,8.7v116.5
				C606.8,641.5,602.9,645.4,598.1,645.4z"/>
			<path class="st18" d="M544,645.4h-9.8c-4.8,0-8.7-3.9-8.7-8.7V520.2c0-4.8,3.9-8.7,8.7-8.7h9.8c4.8,0,8.7,3.9,8.7,8.7v116.5
				C552.7,641.5,548.8,645.4,544,645.4z"/>
			<path class="st18" d="M490.7,645.4h-9.8c-4.8,0-8.7-3.9-8.7-8.7V520.2c0-4.8,3.9-8.7,8.7-8.7h9.8c4.8,0,8.7,3.9,8.7,8.7v116.5
				C499.4,641.5,495.5,645.4,490.7,645.4z"/>
			<g>
				<circle class="st104" cx="373.8" cy="550.7" r="48.7"/>
				<circle class="st104" cx="895.1" cy="550.7" r="48.7"/>
			</g>
		</g>
	</g>
</g>
</svg>
