<?xml version="1.0" encoding="utf-8"?>
<!-- Generator: Adobe Illustrator 25.2.0, SVG Export Plug-In . SVG Version: 6.00 Build 0)  -->
<svg version="1.1" xmlns="http://www.w3.org/2000/svg" xmlns:xlink="http://www.w3.org/1999/xlink" x="0px" y="0px"
	 viewBox="0 0 1650.8 1006.2" style="enable-background:new 0 0 1650.8 1006.2;" xml:space="preserve">
<style type="text/css">
	.st0{fill:#C0BEC2;stroke:#000000;stroke-miterlimit:10;}
	.st1{fill:#EFCDB1;stroke:#000000;stroke-miterlimit:10;}
	.st2{fill:#EFD3BF;stroke:#000000;stroke-miterlimit:10;}
	.st3{opacity:0.44;stroke:#B29E8E;stroke-miterlimit:10;}
	.st4{opacity:0.44;fill:none;stroke:#B29E8E;stroke-miterlimit:10;}
	.st5{opacity:0.44;}
	.st6{fill:#B29E8E;}
	.st7{fill:#B29E8E;stroke:#000000;stroke-miterlimit:10;}
	.st8{fill:#770000;stroke:#000000;stroke-miterlimit:10;}
	.st9{fill:#00AA00;stroke:#000000;stroke-miterlimit:10;}
	.st10{fill:#000077;stroke:#000000;stroke-width:0.75;stroke-miterlimit:10;}
	.st11{fill:#FFFF00;stroke:#000000;stroke-miterlimit:10;}
	.st12{fill:#00CC00;stroke:#000000;stroke-miterlimit:10;}
	.st13{fill:#DD0000;stroke:#000000;stroke-miterlimit:10;}
	.st14{fill:none;stroke:#000000;stroke-miterlimit:10;}
	.st15{fill:none;stroke:#000000;stroke-linecap:round;stroke-miterlimit:10;}
	.st16{opacity:0.5;fill:#FFFFFF;}
	.st17{fill:#FFFFFF;stroke:#000000;stroke-miterlimit:10;}
	.st18{fill:#48484C;stroke:#000000;stroke-miterlimit:10;}
	.st19{fill:#6D6D77;stroke:#000000;stroke-miterlimit:10;}
	.st20{fill:#767582;stroke:#000000;stroke-miterlimit:10;}
	.st21{fill:#4B4D68;stroke:#000000;stroke-miterlimit:10;}
	.st22{fill:#5C5E7F;stroke:#000000;stroke-miterlimit:10;}
	.st23{fill:#3B3D51;stroke:#000000;stroke-miterlimit:10;}
	.st24{fill:#30B893;stroke:#0A51A3;stroke-miterlimit:10;}
	.st25{fill:none;stroke:#0A51A3;stroke-miterlimit:10;}
	.st26{fill:#FF998A;}
	.st27{fill:#FFE9A5;stroke:#004FA8;stroke-miterlimit:10;}
	.st28{fill:#FFD351;stroke:#004FA8;stroke-miterlimit:10;}
	.st29{fill:none;stroke:#004FA8;stroke-linecap:round;stroke-miterlimit:10;}
	.st30{fill:#FFFFFF;}
	.st31{fill:#6FB2E1;stroke:#0F2E6B;stroke-width:0.5;stroke-miterlimit:10;}
	.st32{fill:none;stroke:#0A51A3;stroke-linecap:round;stroke-miterlimit:10;}
	.st33{fill:#FEDD73;stroke:#0F2E6B;stroke-width:0.5;stroke-miterlimit:10;}
	.st34{fill:#9BCDFE;stroke:#0A51A3;stroke-miterlimit:10;}
	.st35{fill:#FEB25A;stroke:#0F2E6B;stroke-width:0.5;stroke-miterlimit:10;}
	.st36{fill:#FEB25A;stroke:#0A51A3;stroke-miterlimit:10;}
	.st37{fill:#152F9B;stroke:#0A51A3;stroke-linecap:round;stroke-miterlimit:10;}
	.st38{fill:#6FB2E1;}
	.st39{fill:#FCFCFC;stroke:#0F2E6B;stroke-width:0.5;stroke-miterlimit:10;}
	.st40{fill:#FFB157;stroke:#0F2E6B;stroke-width:0.5;stroke-miterlimit:10;}
	.st41{fill:#FFC767;stroke:#0F2E6B;stroke-width:0.5;stroke-miterlimit:10;}
	.st42{fill:#FEA901;stroke:#0A51A3;stroke-width:0.5;stroke-miterlimit:10;}
	.st43{fill:#FE8F63;stroke:#0F2E6B;stroke-width:0.5;stroke-miterlimit:10;}
	.st44{fill:#FE8F63;}
	.st45{fill:#FE988A;}
	.st46{fill:none;stroke:#0F2E6B;stroke-width:0.5;stroke-linecap:round;stroke-miterlimit:10;}
	.st47{fill:#FFFFFF;stroke:#0F2E6B;stroke-width:0.5;stroke-miterlimit:10;}
	.st48{fill:#17B9F4;stroke:#0F2E6B;stroke-width:0.5;stroke-miterlimit:10;}
	.st49{display:none;}
	.st50{display:inline;fill:#6FB2E1;stroke:#0F53A1;stroke-miterlimit:10;}
	.st51{display:inline;fill:#30B893;stroke:#0A51A3;stroke-miterlimit:10;}
	.st52{display:inline;fill:none;stroke:#0A51A3;stroke-miterlimit:10;}
	.st53{display:inline;fill:#FF998A;}
	.st54{display:inline;}
	.st55{display:inline;fill:none;stroke:#0A51A3;stroke-linecap:round;stroke-miterlimit:10;}
	.st56{display:inline;fill:#6FB2E1;}
	.st57{display:inline;fill:#91D7F2;stroke:#0A51A3;stroke-miterlimit:10;}
	.st58{display:inline;fill:#FCFCFC;stroke:#0A51A3;stroke-miterlimit:10;}
	.st59{display:inline;fill:#FFB157;stroke:#0A51A3;stroke-miterlimit:10;}
	.st60{display:inline;fill:#FFC767;stroke:#0A51A3;stroke-miterlimit:10;}
	.st61{display:inline;fill:#FEA901;stroke:#0A51A3;stroke-miterlimit:10;}
	.st62{display:inline;fill:#FE8F63;stroke:#0A51A3;stroke-miterlimit:10;}
	.st63{display:inline;fill:#FE8F63;}
	.st64{display:inline;fill:#FE988A;}
	.st65{display:inline;fill:none;}
	.st66{display:inline;fill:#131360;stroke:#0A51A3;stroke-miterlimit:10;}
	.st67{display:inline;fill:#9C0F5F;stroke:#3125DA;stroke-miterlimit:10;}
	.st68{display:inline;fill:#FEDD73;stroke:#0A51A3;stroke-miterlimit:10;}
	.st69{display:inline;fill:#FEA901;stroke:#0A51A3;stroke-linejoin:round;stroke-miterlimit:10;}
	.st70{display:inline;fill:#152F9B;stroke:#0A51A3;stroke-linecap:round;stroke-miterlimit:10;}
	.st71{fill:#3E756F;}
	.st72{fill:#301381;}
	.st73{fill:#83C396;}
	.st74{fill:#5E9CA5;}
	.st75{display:inline;fill:none;stroke:#000000;stroke-miterlimit:10;}
	.st76{display:inline;fill:#C1FBF0;stroke:#301381;stroke-miterlimit:10;}
	.st77{display:inline;fill:#83C396;stroke:#301381;stroke-miterlimit:10;}
	.st78{display:inline;fill:#9999BD;stroke:#301381;stroke-miterlimit:10;}
	.st79{display:inline;fill:#80809F;}
	.st80{fill:#C1FBF0;stroke:#301381;stroke-miterlimit:10;}
	.st81{fill:#83C396;stroke:#301381;stroke-miterlimit:10;}
	.st82{fill:#9999BD;stroke:#301381;stroke-miterlimit:10;}
	.st83{fill:#80809F;}
	.st84{display:inline;fill:#91D7F2;}
	.st85{display:inline;fill:#FFFFFF;}
	.st86{fill:#555555;stroke:#5E3F3F;stroke-miterlimit:10;}
	.st87{fill:#545576;stroke:#000000;stroke-miterlimit:10;}
	.st88{fill:#FE5E5E;stroke:#1B0F75;stroke-miterlimit:10;}
	.st89{fill:#FCFCFD;stroke:#1B0F75;stroke-miterlimit:10;}
	.st90{fill:#FF6315;stroke:#1B0F75;stroke-miterlimit:10;}
	.st91{fill:#FACF0B;stroke:#1B0F75;stroke-miterlimit:10;}
	.st92{fill:#FE5E5E;stroke:#1B0F75;stroke-linecap:round;stroke-miterlimit:10;}
	.st93{fill:#FEA362;stroke:#281078;stroke-linecap:round;stroke-miterlimit:10;}
	.st94{fill:#FFFFFF;stroke:#281078;stroke-linecap:round;stroke-miterlimit:10;}
	.st95{fill:none;stroke:#5E3F3F;stroke-linecap:round;stroke-miterlimit:10;}
	.st96{fill:#330000;stroke:#330000;stroke-linecap:round;stroke-miterlimit:10;}
	.st97{fill:#330000;}
	.st98{fill:#D13834;stroke:#1B0F75;stroke-linecap:round;stroke-miterlimit:10;}
	.st99{fill:none;stroke:#281078;stroke-linecap:round;stroke-miterlimit:10;}
	.st100{fill:none;stroke:#1B0F75;stroke-linecap:round;stroke-miterlimit:10;}
	.st101{fill:none;stroke:#1B0F75;stroke-miterlimit:10;}
	.st102{fill:none;}
	.st103{fill:#111111;stroke:#5E3F3F;stroke-miterlimit:10;}
	.st104{fill:none;stroke:#220C62;stroke-linecap:round;stroke-miterlimit:10;}
	.st105{fill:#FEEB26;}
	.st106{opacity:0.75;fill:#1F2324;}
	.st107{fill:#1F2324;}
	.st108{fill:#373644;stroke:#000000;stroke-miterlimit:10;}
	.st109{fill:#191911;stroke:#191911;stroke-miterlimit:10;}
	.st110{fill:#295CD2;stroke:#000000;stroke-miterlimit:10;}
	.st111{fill:#2F2E3F;stroke:#000000;stroke-miterlimit:10;}
	.st112{fill:#1A2223;}
	.st113{fill:#FEEAAC;stroke:#000000;stroke-miterlimit:10;}
</style>
<g id="Background">
	<path id="Pavement" class="st0" d="M1648.8,1006.2H-2V115h383.9c0,0,14-11,23.9-37.4c8.2-27-9.3-39.7-9.3-39.7L-2,39V24h401.8h18.6
		h934.2v14H431.7L626,115l1022.8,388.1V1006.2z"/>
	<polygon id="Sidewalk_path" class="st1" points="628,115 433.7,37.9 466.1,37.9 1348.2,37.9 1348.2,45.2 480.2,42.3 681.8,105 
		628.2,105.3 	"/>
	<g id="Sidewalk_1_">
		<polygon id="Sidewalk" class="st2" points="1650.8,503.1 628,115 628.2,105.3 1348.2,105.3 1348.3,138.1 1650.8,182.9 		"/>
		<line id="Crack_10" class="st3" x1="1518.5" y1="428.8" x2="1650.8" y2="353.6"/>
		<line id="Crack_9" class="st4" x1="1394.9" y1="383.9" x2="1650.8" y2="277.1"/>
		<line id="Crack_8" class="st4" x1="1276.9" y1="341" x2="1650.8" y2="223.3"/>
		<line id="Crack_7" class="st4" x1="1167" y1="301.1" x2="1646.2" y2="183.7"/>
		<line id="Crack_6" class="st4" x1="1067.3" y1="264.9" x2="1559.6" y2="169.4"/>
		<line id="Crack_5" class="st4" x1="971.1" y1="229.9" x2="1469.5" y2="156.1"/>
		<line id="Crack_4" class="st4" x1="885.1" y1="198.7" x2="1387.3" y2="143.5"/>
		<line id="Crack_3" class="st4" x1="807.6" y1="170.5" x2="1348.2" y2="126.5"/>
		<line id="Crack_2" class="st4" x1="734.5" y1="145.7" x2="1348.2" y2="105.3"/>
		<g id="Crack_1" class="st5">
			<polygon class="st6" points="683.4,125.8 683.3,124.8 973.4,105.8 989.1,105.8 989.1,105.8 			"/>
		</g>
		<polygon id="Sidewalk_shadow" class="st7" points="1650.8,503.1 628,115 628.2,105.3 1650.8,476.9 		"/>
	</g>
	<polygon id="School" class="st8" points="1650.8,182.9 1348.3,138.1 1348.3,0 1650.8,0 	"/>
	<path id="Grass_Right" class="st9" d="M383.9,115H0V39l398.5-1.1c0,0,11.5,9.2,11.5,29.2C410,88.3,383.9,115,383.9,115z"/>
	<polygon id="Grass_left" class="st9" points="1348.2,105.3 681.8,105 480.2,42.3 1348.2,45.2 	"/>
	<rect id="Grass_Top" x="0" class="st9" width="1348.2" height="24"/>
	<path id="Bike_rack" class="st10" d="M1425.2,87.8L1020.4,53l-17-1.8c-2.6,0-5.1,1-7,2.9L919.8,129l0,0l-2.7,3.5
		c-0.7,1.7,0.7,3.6,2.6,3.4l86.5-8.7l317.7,65l-32.9,33.3c-0.9,0.9-1.4,2.1-1.4,3.3c0,1,0.3,2,0.9,2.8c0.3,0.4,0.8,0.7,1.4,0.7
		c0.1,0,0.2,0,0.3,0l126.2-20.1l7.7-0.9c1.6-0.2,2.9-1.6,2.9-3.2l1.6-114.6C1430.7,91.9,1430.7,87.8,1425.2,87.8z M999.3,120.5
		L929,128l70.3-69.7V120.5z M1394.9,99.3c0-2,1.7-3.5,3.7-3.3l18.3,1.8l-22,22.3V99.3z M1366.3,98.4c0-3,2.5-5.3,5.5-5l13.2,1.3
		c2.6,0.2,4.5,2.4,4.5,5v25.9l-23.2,23.5V98.4z M1366.3,158.8l23.2-23.8v53.6c0,3.1-2.9,5.5-5.9,4.9l-13.2-2.5
		c-2.4-0.5-4.1-2.5-4.1-4.9V158.8z M1338.2,95.6c0-3,2.5-5.3,5.5-5l12.8,1.2c2.6,0.2,4.5,2.4,4.5,5v57.6l-22.8,23.1V95.6z
		 M1361,164.3v18.8c0,3.1-2.9,5.5-5.9,4.9l-14.5-2.8L1361,164.3z M1023.1,118.1c0,3.1-2.9,5.5-6,4.9l-6.9-1.3
		c-2.4-0.4-4.1-2.5-4.1-4.9l0.1-53.4c0-2.9,2.5-5.2,5.5-5l6.7,0.6c2.6,0.2,4.5,2.4,4.5,5V118.1z M1045.1,122.4
		c0,3.1-2.9,5.5-5.9,4.9l-6.7-1.3c-2.4-0.5-4.1-2.5-4.1-4.9V65.6c0-3,2.5-5.3,5.5-5l7,0.7l0.1,0c2.4,0.2,4.1,2.2,4.1,4.6V122.4z
		 M1067.3,126.6c0,3.1-2.9,5.5-6,4.9l-6.8-1.3c-2.4-0.5-4.1-2.5-4.1-4.9V67.7c0-2.9,2.5-5.3,5.5-5l6.8,0.7c2.6,0.2,4.5,2.4,4.5,5
		V126.6z M1089.5,130.9c0,3.1-2.9,5.5-5.9,4.9l-6.8-1.3c-2.4-0.5-4.1-2.5-4.1-4.9V69.9c0-3,2.5-5.3,5.5-5l6.8,0.7
		c2.6,0.2,4.5,2.4,4.5,5V130.9z M1111.8,135.2c0,3.1-2.9,5.5-5.9,4.9l-6.9-1.3c-2.4-0.5-4.1-2.5-4.1-4.9V72c0-3,2.5-5.3,5.5-5
		l6.9,0.7c2.6,0.2,4.5,2.4,4.5,5V135.2z M1137.7,140.2c0,3.1-2.9,5.5-5.9,4.9l-10.6-2c-2.4-0.5-4.1-2.5-4.1-4.9v-64
		c0-3,2.5-5.3,5.5-5l10.6,1c2.6,0.2,4.5,2.4,4.5,5V140.2z M1161.7,144.8c0,3.2-2.9,5.5-5.9,4.9l-8.6-1.7c-2.3-0.5-4-2.5-4-4.9V76.7
		c0-3,2.5-5.3,5.5-5l8.6,0.8c2.6,0.2,4.5,2.4,4.5,5V144.8z M1187,149.7c0,3.1-2.9,5.5-5.9,4.9l-10-1.9c-2.4-0.4-4.1-2.5-4.1-4.9V79
		c0-3,2.5-5.3,5.5-5l10,1c2.6,0.2,4.5,2.4,4.5,5V149.7z M1217.3,155.5c0,3.1-2.9,5.5-6,4.9l-14.9-2.9c-2.3-0.4-4.1-2.5-4.1-4.9V81.5
		c0-3,2.5-5.3,5.5-5l14.9,1.5c2.6,0.2,4.5,2.4,4.5,5V155.5z M1245.9,161c0,3.1-2.9,5.5-5.9,4.9l-13.2-2.5c-2.4-0.5-4.1-2.5-4.1-4.9
		v-74c0-3,2.5-5.3,5.5-5l13.2,1.3c2.6,0.2,4.5,2.4,4.5,5V161z M1274.5,166.5c0,3.1-2.9,5.5-5.9,4.9l-13.2-2.5
		c-2.4-0.5-4.1-2.5-4.1-4.9V87.2c0-3,2.5-5.3,5.5-5l13.2,1.3c2.6,0.2,4.5,2.4,4.5,5V166.5z M1303.1,172c0,3.1-2.9,5.5-5.9,4.9
		l-13.2-2.5c-2.4-0.5-4.1-2.5-4.1-4.9V90c0-2.9,2.5-5.3,5.5-5l13.2,1.3c2.6,0.2,4.5,2.4,4.5,5V172z M1312.5,179.9
		c-2.4-0.5-4.1-2.5-4.1-4.9V92.8c0-3,2.5-5.3,5.5-5l14.3,1.4c2.6,0.2,4.5,2.4,4.5,5l1,85.6c0,1.5-0.6,2.9-1.6,3.9l0,0L1312.5,179.9z
		 M1303.5,223.3l28.8-29.5l66.1,13.5L1303.5,223.3z M1418.7,195.3c0,2.6-2.4,4.6-5,4.1l-15.1-2.9c-2.1-0.4-3.7-2.3-3.7-4.4v-62.5
		l24.7-25.4L1418.7,195.3z"/>
	<g id="Balloons">
		<path class="st11" d="M1405.9,44.6c-5.2-8.8-1-17.1,6.3-19.6c6.7-2.3,15,1.2,16.2,10.5c1.2,9.6,0.3,17.9-6.1,20
			C1416,57.6,1410.7,52.7,1405.9,44.6z"/>
		<path class="st12" d="M1424.6,23.4c-0.7-10.8,5.9-15.6,13.2-15.6c7.3,0,14.1,4.8,13.2,15.6c-0.9,10.4-5.9,18.9-13.2,18.9
			C1430.5,42.3,1425.3,33.8,1424.6,23.4z"/>
		<path class="st13" d="M1467.5,61c4.8-9.1,0.2-19.8-7.5-22.6c-7.7-2.9-19.3,2.1-20.4,12.3c-1.2,10.8-0.2,19.8,7.5,22.6
			S1462.6,70.2,1467.5,61z"/>
		<path class="st14" d="M1436.4,42.3c-3,7.1-3.6,8.1-4,13.3c-0.7,10.5,3.2,18,5,22.6c8.7,22.5-5.9,48.7-5.8,48.7
			c0.1,0,2.9-14,4.2-30.9c0.4-5,0.5-9-1.5-13.1c-0.6-1.2-0.9-1.5-8-10.8c-2.7-3.6-3.4-4.5-4.1-6.1c-1.7-3.8-1.9-7.5-1.8-10.1"/>
		<path class="st14" d="M1445.7,72.7c-4.1,4.2-2.9,11.2-1.7,15.9c5.5,22.3-10.8,37-12.5,38.2"/>
		<path class="st15" d="M1431.5,126.9c-0.9,0.9-2,5.4-5.8,5.8c-6.2,0.7-7.5-3-7.5-3.5c0-1.5,0.3,1.4,5.5,0.8
			C1428.3,129.5,1431.6,126.9,1431.5,126.9c0-0.1-0.5,5-13.4,5"/>
		<path class="st15" d="M1433.8,143.5c-1.2-4.4-2.8-17.2-2.5-16.1c0.8,2.4,1.2,1.2,0,0c-3.9-3.9-3.7,4.9-3.3,6
			c2.2,7.1-0.7-5.7,4.1-5.6c0.9,0-0.6,6.1,0.8,7c4.2,2.6,2-4.1-0.8-7c-2-2.1-2.2,10.3-1.8,13.5"/>
		<path class="st16" d="M1408.8,40.6c-0.3,0.5-1.9,0.6-2.4,0c-1.3-1.8-0.2-7.5,0.6-8.4c0.7-0.8,1.9-1.1,2.8-0.2
			C1410.4,32.7,1409.8,39,1408.8,40.6z"/>
		<path class="st16" d="M1435.8,17.1c0.3-2.1-0.8-3.8-2-3.8c-2.4,0-4.4,4.1-4.1,6.4c0.2,1.4,1.1,2.7,2.7,1.8
			C1433.6,20.8,1435.4,19.1,1435.8,17.1z"/>
		<path class="st16" d="M1452.8,45.8c-0.1-0.8-1.6-1.7-3.6-1.1c-1.4,0.5-4.7,4.2-4.7,5.9c0,2.1,2.4,2.8,3.8,2.2
			C1450.9,51.6,1453,47.5,1452.8,45.8z"/>
	</g>
	<g id="White_Lines_2_">
		<path id="White_Lines_1_" class="st17" d="M1543.8,806.2l-41.2-27.3l-213.9,0.4L771.8,319.4l73.6-0.2l-13.3-8.6h-70.2L566.1,136.4
			h-13.6l189.7,174.2H323.2l77.3-174.2h-10l-81.8,174.2H0v10.6l304.1-0.7L87.8,781.3l-87,0.1v24.7h75.4L0,968.4v37.8h14.4l88.8-200
			h1178.6l217.8,200h44.2l-224.8-200H1543.8z M114.2,781.3l204.5-460.8l433.1-1l500.6,459.8L114.2,781.3z"/>
		<g>
			<polygon class="st17" points="177,136.4 0,203.2 0,215.2 193,136.4 			"/>
		</g>
	</g>
</g>
<g id="Car_3_1_">
	<g id="Interior">
		<g>
			<polygon id="floor_1_" class="st18" points="1020.9,607.3 242.1,595.8 344.1,367.7 886.2,369.3 			"/>
			<polygon id="left_wall_1_" class="st19" points="355.8,171.6 419.1,373 331.2,458.3 272.4,448.4 295.7,253.1 			"/>
			<polygon id="right_wall_1_" class="st19" points="916.9,448.5 828.1,366.1 890.3,165.1 950.5,315.2 975,458.2 			"/>
			<polygon id="back_wall_1_" class="st20" points="835,359.1 416.3,364.2 355.8,171.6 621,134.2 890.3,165.1 			"/>
		</g>
	</g>
	<g id="Back_seat_1_">
		<path class="st21" d="M696.5,323c0.1,27.4,22.6,52.7-46.2,49.8l-50,0.2c-46.8,0-46.5-22-46.6-49.3l-0.2-56.3
			c-0.1-50-2.1-50,46.2-49.8l50-0.2c48.2,0,48.2,0,46.6,49.3L696.5,323z"/>
		<path class="st21" d="M556.4,321.3c0,50.9,4.9,50-48.1,49.8l-52.1,0.2c-26.7,0.1-48.4-22-48.5-49.3l-0.2-56.3
			c0-48.2,0-49,48.1-49.8l52.1-0.2c54.6,0.4,50.1,1,48.8,33.8L556.4,321.3z"/>
		<path class="st21" d="M842,322.2c0.1,27.4-20.9,49.6-46.9,49.8l-50.8,0.2c-46.2,0-47.2-22-47.3-49.3l-0.3-59.7
			c1.4-45.3,0.4-44.8,47-46.4l50.8-0.2c47.6,0.1,47.6,1,47.3,49.3L842,322.2z"/>
		<polygon class="st22" points="849.8,369.4 404.2,369.4 416.9,348.9 834.7,348.9 		"/>
		<rect x="404.4" y="369.3" class="st23" width="445.4" height="37.1"/>
		<path class="st21" d="M471,164.7c9.4,0,28-0.2,37.5-0.2c27.4,0,32.2,50.9,1.7,50.6c-9.4-0.1-33.3,0.5-41.8,0.2
			C433.4,213.9,441.3,164.6,471,164.7z"/>
		<path class="st21" d="M609.8,163.1c10,0,29.7-0.2,39.7-0.2c29,0,34.1,54,1.8,53.6c-9.9-0.1-35.3,0.5-44.3,0.2
			C569.9,215.3,578.2,163,609.8,163.1z"/>
		<path class="st21" d="M751.1,163.1c10,0,29.7-0.2,39.7-0.2c29,0,34.1,54,1.8,53.6c-9.9-0.1-35.3,0.5-44.3,0.2
			C711.2,215.4,719.5,163,751.1,163.1z"/>
	</g>
	<g id="bubble_x5F_after">
		<path class="st24" d="M661.7,315.7c0,0,15.6,8.1,20.6,20.2c4.4,10.8-4.5,59.8-4.5,59.8l-18.7,15.2l-15-15.9c0,0,3-30.6,0.2-35.7
			s-3.6-12.3-11.3-12.2s-12.1,13.6-13,16.6s2,34.9,2,34.9l-16.2,10.6l-17.2-11.2c0,0-4.6-16.4-5.3-20.6s-4-19.1-4-19.1
			c-1.6-5.6-0.3-15.7,1.6-19.8c1.9-4.2,15.2-21.1,15.2-21.1L661.7,315.7z"/>
		<path class="st25" d="M583.2,363.6"/>
		<circle class="st26" cx="590.5" cy="364.8" r="3.8"/>
		<circle class="st26" cx="611.5" cy="381.5" r="3.8"/>
		<circle class="st26" cx="592" cy="395" r="3.8"/>
		<circle class="st26" cx="650.8" cy="382.2" r="3.8"/>
		<circle class="st26" cx="667.8" cy="397.4" r="3.8"/>
		<path class="st26" d="M681.6,370.6l-0.4,3.1c-0.5,0.2-0.9,0.4-1.5,0.4c-2.1,0-3.8-1.7-3.8-3.8s1.7-3.8,3.8-3.8c1,0,1.6,0.5,2.3,1
			L681.6,370.6z"/>
		<circle class="st26" cx="597" cy="335.2" r="3.8"/>
		<circle class="st26" cx="613.9" cy="351.9" r="3.8"/>
		<circle class="st26" cx="635.5" cy="339" r="3.8"/>
		<circle class="st26" cx="660.3" cy="325.8" r="3.8"/>
		<path class="st26" d="M647.3,362.2c0,1.4-1.7,3.3-1.7,3.3s-0.1-1.5-0.1-1.9c0-0.4-0.2-1.6-0.3-2.2c-0.1-0.6-0.3-1.2-0.5-1.7
			c-0.2-0.8-0.7-1.2-0.6-1.2C646,358.6,647.3,360.3,647.3,362.2z"/>
		<circle class="st26" cx="668.9" cy="348.8" r="3.8"/>
		<g id="left_boot">
			<path id="top_1_" class="st27" d="M621.9,398.5l-15.2,19.2l-18.1-19.6l-0.9-3.3c0,0,6.4,2.6,12.1,3.3c2,0.2,11.6,0.5,14-0.2
				c5-1.3,7.8-2.8,7.8-2.8L621.9,398.5z"/>
			<path id="boot_1_" class="st28" d="M597.1,427.9c0,0-10.7,0.5-14.5,5c-1.6,1.8-2.1,4.1-1.7,6.9c0.7,4.3,2.9,7.5,6.4,9.3
				c2.7,1.3,5.1,1.4,5.1,1.4c0.2,0,23.4-0.6,29.5-0.6c2.6,0,4.7-1.4,5.9-3.7c1-2.1,0.7-6.5,0.4-8.1c-0.4-2.1-4.5-21.3-5.8-33.4
				c-0.3-2.5-0.5-4.7-0.6-6.1c-1.6,1.1-7.4,2.4-10.3,2.5c-0.6,0-1.2,0-1.9,0c-3.3,0-7.5-0.2-11.5-0.7c-4.1-0.4-8.4-2-9.7-2.5
				l1.9,6.7L597.1,427.9 M586.4,434.7"/>
			<path id="crease_1_" class="st29" d="M597,427.9c0,0,7.7-0.2,10.6,1.2"/>
			<path id="highlight_1_" class="st30" d="M593.7,434.3c-3.1-0.2-5.7,0.4-8,2.4c-0.5,0.4-0.8-0.1-1.1-0.5c-0.3-0.5-0.1-1,0.2-1.3
				c1.9-2.2,4.1-3.5,6.5-3.3C592.4,431.6,592.8,432.9,593.7,434.3z"/>
		</g>
		<g id="right_boot">
			<path id="top" class="st27" d="M677.1,399.1c0,0-4.5,4.1-18.2,4.3c-13.8,0.2-15.2-4.9-15.2-4.9l0.4-3.6c0,0,5.3,3.3,10.5,3.8
				c3.8,0.4,10.8-0.1,13.1-0.5c5.6-0.9,10.2-3.1,10.2-3.1L677.1,399.1z"/>
			<path id="boot" class="st28" d="M673.9,427.5c1.2-5,1.4-10.3,1.8-15.3c0.3-2.8,0.5-5.5,0.9-8.2c0.2-1.7,0.4-3.3,0.6-5
				c-1.5,0.8-6.4,1.8-8.8,2.2c-2.3,0.4-6.5,0.7-10.5,0.7c-2.2,0-4.4-0.1-6.2-0.3c-4.1-0.5-6.8-2.3-7.8-3c-0.1,0-0.1-0.1-0.1-0.1
				c-0.1,1.5-0.2,3.4-0.2,5.6c-0.4,11.1-2,25.6-3.1,33.9c-0.1,1.1-0.4,4,0.2,5.7c0.4,1,0.7,1.1,2.5,1.8c15.6,7,38.1,5.6,39.6,5.5
				c7.7-8.4,3.5-15.1,2-17C682.7,431.5,675.1,428.1,673.9,427.5L673.9,427.5"/>
			<path id="crease" class="st29" d="M655.8,429c5.4-3.9,14.3-2.4,18.1-1.5"/>
			<path id="highlight" class="st30" d="M675.9,431c2,0.2,3.7,0.7,4.9,2.5c0.3,0.5,0.9,1.1,0.4,1.6c-0.4,0.4-0.7,1.7-1.7,0.9
				c-1.8-1.4-3.9-1.9-6.1-1.8c-0.3,0-0.9-0.2-0.5-0.5C674,432.8,674.5,430.5,675.9,431z"/>
		</g>
		<path class="st31" d="M651.6,322.8l-28.7,1.3l-27.5,0.3c0,0-10.5-8.6-11.6-15.2c-1.1-6.7,0.9-27.8,0.9-27.8s2.2-20.1,6.3-29.1
			s16-17,16-17l40.5-1c0,0,7.1,5.5,12.1,10.3c4.9,4.8,8,21.2,9.6,27.9c1.3,5.9,1.7,31.6,0.4,36.6
			C668.1,313.9,651.6,322.8,651.6,322.8z"/>
		<path class="st31" d="M611.8,332.3c0,0-16.4-5.8-20.8-7.9c-4.3-2.1-10.4-7.7-12.6-12.2s-2.5-6.4-2.5-11.9s2.8-35.6,9.4-48
			c2.7-5.2,21.6-17,21.6-17s-2.4,36.1-5.1,38.2S598,301,598,301c1,1.3,12.4,11,12.4,11s-2.8,4.2-1.6,10.1
			C609.2,324.3,611.8,332.3,611.8,332.3z"/>
		<path class="st32" d="M590.3,298.2c0,0,2.5,0.3,4.2,1.1c1.8,0.8,3.4,1.7,3.4,1.7"/>
		
			<ellipse transform="matrix(0.9974 -7.245158e-02 7.245158e-02 0.9974 -19.2937 46.3077)" class="st33" cx="628.7" cy="289.1" rx="6.1" ry="5.8"/>
		<path class="st34" d="M637.6,319.9l-11.6,1.2c-2.8,0.3-5.3-1.7-5.6-4.5l-1.5-14c-0.3-2.8,2.3-5.7,5.1-5.9c0,0-0.5-0.4-0.5-0.9
			c0.1-0.5,0.5-0.5,0.4-0.8c0-0.3-0.6-0.5-0.6-1s0.2-1,0.9-1.1l9.1-0.9c0.7-0.1,1.5,0.3,1.6,0.9c0.1,0.6-0.2,0.8-0.2,1.1
			s0.2,0.3,0.4,0.7c0.2,0.4-0.2,0.9-0.2,0.9c2.8-0.3,5.3,2,5.6,4.8l1.5,14C642.4,317.1,640.3,319.6,637.6,319.9z"/>
		<path class="st32" d="M634.8,293.9c0,0-3,0.1-4.1,0.3"/>
		<path class="st32" d="M635.2,295.5c0,0-3.1,0.3-5.6,0.7"/>
		<path class="st31" d="M655,323.5c0,0,4.4-1.2,8.7-3.3c4.3-2.1,11.5-5.7,13.7-10.3s3-6.2,3-11.7c0-2.9,0.2-14.7-2.5-26.7
			c-2.5-10.9-5.5-20.2-11-26.8c-4.7-5.6-19.7-10.3-19.7-10.3s2.4,36.1,5.1,38.2c2.7,2.1,9.1,23,9.1,23c-1,1.3-10,10.9-10,10.9
			s3.2,6.1,3.9,10.9C655.9,322.1,655,323.5,655,323.5z"/>
		<path class="st32" d="M667.2,293.2c0,0-1,0.1-2.9,0.6c-1,0.3-2.9,1.5-2.9,1.5"/>
		<path class="st35" d="M627.5,320.8c-0.1,2.9,1.7,3.6,2,4.4c0.7,1.5-0.3,2.6,0.5,3.7c2.3,3,10.2,3.4,13,2.9c6.4-1,10-7,11.9-8.3
			c0,0,1.7-2.5-0.4-9.3c-1.9-5.9-3.3-7.6-3.3-7.6c-5.6,0.5-7-1.8-9.9-3.1c-1.1-0.5,0.2,5.1,0.2,5.1c-3.9,0.3-4.1-0.6-9.1,1.9
			c-2.6,1.3-2.3,4-2.8,5.2C628.7,317.4,627.6,318.9,627.5,320.8z"/>
		<path class="st36" d="M638.5,319.8c0.1,2.9-1.7,3.6-2,4.4c0,0,0.9,2.1-0.5,3.7c-2.6,2.8-4.8,3.7-9.1,4.6
			c-1.5,0.3-13.2,1.1-15.1-0.3c0,0-3.3-8.5-3.3-12c0-2.5,0-6,1.7-7.7c3.8-3.8,5.3-4.7,8.2-6c1.1-0.5,1,2.1,1,2.1
			c2.8-0.3,8.6-2.1,13.5,0.4c2.6,1.3,3,4.4,3.5,5.6C637.4,316.4,638.5,317.9,638.5,319.8z"/>
		<path class="st37" d="M636.5,314.6"/>
		<path class="st32" d="M629.7,314.6c4-0.8,7.2,0.7,7.2,0.7"/>
		<path class="st32" d="M628,322.3c5-1.4,8.5,1.8,8.5,1.8"/>
		<path class="st38" d="M655.6,263.4c-1,11.2-11.4,18.9-26,18.9s-34.2-9.4-34.2-20.6c0-11.2,18.1-43.4,31.2-38.1
			C640.1,229,658.1,234.2,655.6,263.4z"/>
		<path class="st39" d="M620.9,251c-1.7,0.2-5-1.9-8.8-5.3c-3.8-3.3-5.1-10.5-5.1-10.5l21,7.4C627.9,242.5,622.6,250.8,620.9,251z"
			/>
		<path class="st39" d="M635.2,251c1.7,0.2,5-1.9,8.8-5.3c3.8-3.3,2.9-11.2,2.9-11.2l-18.8,8C628.1,242.5,633.5,250.8,635.2,251z"/>
		<path id="right_outter_ear" class="st40" d="M662.5,183.3c1.1,11.4-9.9,12.5-16.4,8.7c-7-4.1-9.6-9-9.6-10.7
			c-0.2-8.2,3.1-13.4,11.2-12.8C655.6,169.1,661.7,175.2,662.5,183.3z"/>
		<path id="left_outter_ear" class="st40" d="M588.9,184.4c-1.1,11.4,9.9,12.5,16.4,8.7c7-4.1,9.6-9,9.6-10.7
			c0.2-8.2-3.1-13.4-11.2-12.8C595.7,170.2,589.6,176.2,588.9,184.4z"/>
		<path id="right_innner_ear" class="st41" d="M655.9,183.4c0.5,6.3-4.8,6.9-7.9,4.8c-3.4-2.3-4.6-5-4.6-5.9
			c-0.1-4.5,1.4-6.9,5.3-6.3C651.8,176.4,655.6,179.4,655.9,183.4z"/>
		<path class="st41" d="M596.8,184.9c-0.5,6.3,4.8,6.9,7.9,4.8c3.4-2.3,4.6-5,4.6-5.9c0.1-4.5-1.4-6.9-5.3-6.3
			C600.8,177.9,597.1,180.9,596.8,184.9z"/>
		<path id="head_2_" class="st42" d="M659,211.8c0.1,7.5-3.2,14.4-9.3,19.8c-5.3,4.7-12.8,11-21.8,11c-9,0-21-8.3-23.3-8.8
			c-3.5-0.7-10.8-11.4-10.4-21.6c0.2-4.9,2.1-14.7,6.2-20.9c5.8-8.8,14.6-16.1,25.4-16.1c10.9,0,18.7,6.7,25,15.6
			C655.1,196.9,659,207.1,659,211.8z"/>
		<path id="snoot_1_" class="st41" d="M612.5,220.8c0-6.5,3.2-9.6,5.9-12.5c3-3.1,3.2-7.6,7.9-7.6c0.8,0,3.6,0.3,4.8,3
			c4.2,9.7,11.3,6.3,10.9,15.6c-0.3,6.9-5.5,13.4-14.9,13.4C619.8,232.7,612.5,228.2,612.5,220.8z"/>
		<path class="st43" d="M620.5,211c0-1.9,1.8-4.1,6.4-4.2c3.4,0,5.9,1.4,5.9,3.3s-2.5,5-5.7,5C623.8,215.1,620.5,212.9,620.5,211z"
			/>
		
			<ellipse transform="matrix(0.9988 -4.902456e-02 4.902456e-02 0.9988 -9.4853 31.9852)" class="st44" cx="647.3" cy="209.4" rx="5.8" ry="2.2"/>
		
			<ellipse transform="matrix(0.9988 -4.902456e-02 4.902456e-02 0.9988 -9.5866 30.0198)" class="st45" cx="607.2" cy="210.4" rx="5.8" ry="2.2"/>
		<path class="st46" d="M626.4,226.6c0,0,0.7,0.3,1.2,0.3c0.5,0,1.1-0.4,1.1-0.4"/>
		<path class="st46" d="M618,219.8c0,0,0.5,3.8,3.6,3.8s5-2.6,5.8-2.6s2.8,2.4,5.4,1.4s3.4-4.1,3.4-4.1"/>
		<ellipse class="st47" cx="614.9" cy="202.7" rx="3.4" ry="4.6"/>
		<circle class="st48" cx="614.9" cy="204" r="3.2"/>
		<circle cx="614.9" cy="204" r="1.8"/>
		<circle class="st30" cx="615.5" cy="203.4" r="0.8"/>
		<circle class="st30" cx="614.5" cy="204.3" r="0.4"/>
		<path class="st41" d="M611.1,193.5c-1.5-1.6,1.3-4.1,4-4.7c2.5-0.5,5.1,0.4,5.1,2.3c0,1.7-2.1,1.3-4.8,1.9
			C612.8,193.6,612.6,195.1,611.1,193.5z"/>
		<ellipse class="st47" cx="638.4" cy="201.6" rx="3.4" ry="4.6"/>
		<circle class="st48" cx="638.4" cy="202.9" r="3.2"/>
		<circle cx="638.4" cy="202.9" r="1.8"/>
		<circle class="st30" cx="639" cy="202.3" r="0.8"/>
		<circle class="st30" cx="638" cy="203.2" r="0.4"/>
		<path class="st41" d="M642,193.1c1.5-1.6-1.3-4.1-4-4.7c-2.5-0.5-5.1,0.4-5.1,2.3c0,1.7,2.1,1.3,4.8,1.9
			C640.4,193.2,640.6,194.7,642,193.1z"/>
	</g>
	<g id="bubble_x5F_before" class="st49">
		<path class="st50" d="M653.7,324.2l-26.4,1.3l-28.6,0.3c0,0-4.4-8.3-5.5-15c-0.8-5.2-1.1-19.1-1.1-25.4c0-2.2,0.1-4.4,0.4-6.5
			c0.7-6.2,2.6-19.2,5.4-25.9c3.8-9.1,14.7-17.2,14.7-17.2l35.1-0.8c0,0,8.9,5.4,13.4,10.2c4.5,4.8,7.4,21.4,8.8,28.1
			c1.2,6,1.6,31.9,0.4,36.9C669,315.2,653.7,324.2,653.7,324.2z"/>
		<path class="st51" d="M661.3,315.8c0,0,15.8,8.1,20.7,20.4c4.4,10.9-4.6,60.4-4.6,60.4l-18.9,15.3l-15.1-16c0,0,3.1-30.8,0.2-36.1
			c-2.9-5.2-3.6-12.4-11.4-12.3c-7.8,0.1-12.2,13.8-13.1,16.7c-1,3,2,35.2,2,35.2l-16.4,10.7l-17.3-11.3c0,0-4.7-16.5-5.4-20.8
			s-4.1-19.3-4.1-19.3c-1.6-5.6-0.3-15.8,1.7-20c1.9-4.2,15.4-21.3,15.4-21.3s21.1,2.1,33.7,1.8
			C646.2,318.8,661.3,315.8,661.3,315.8z"/>
		<path class="st52" d="M582,364.2"/>
		<circle class="st53" cx="589.4" cy="365.4" r="3.8"/>
		<circle class="st53" cx="610.6" cy="382.2" r="3.8"/>
		<circle class="st53" cx="590.9" cy="395.8" r="3.8"/>
		<circle class="st53" cx="650.2" cy="382.9" r="3.8"/>
		<circle class="st53" cx="667.4" cy="398.3" r="3.8"/>
		<path class="st53" d="M681.3,371.2l-0.4,3.1c-0.5,0.2-0.9,0.4-1.5,0.4c-2.1,0-3.8-1.7-3.8-3.8s1.7-3.8,3.8-3.8
			c1,0,1.6,0.5,2.3,1.1L681.3,371.2z"/>
		<circle class="st53" cx="595.9" cy="335.5" r="3.8"/>
		<circle class="st53" cx="613" cy="352.3" r="3.8"/>
		<circle class="st53" cx="634.8" cy="339.3" r="3.8"/>
		<circle class="st53" cx="659.8" cy="326" r="3.8"/>
		<path class="st53" d="M646.7,362.8c0,1.4-1.7,3.3-1.7,3.3s-0.1-1.5-0.1-1.9c0-0.4-0.2-1.6-0.3-2.2c-0.1-0.6-0.3-1.2-0.5-1.8
			c-0.2-0.8-0.7-1.2-0.6-1.2C645.4,359.1,646.7,360.8,646.7,362.8z"/>
		<circle class="st53" cx="668.6" cy="349.2" r="3.8"/>
		<g id="right_boot_2_" class="st54">
			<path id="top_5_" class="st27" d="M676.8,400c0,0-4.5,4.1-18.4,4.4c-13.9,0.2-15.3-5-15.3-5l0.4-3.6c0,0,5.3,3.3,10.6,3.9
				c3.9,0.4,10.9-0.1,13.2-0.5c5.6-0.9,10.3-3.1,10.3-3.1L676.8,400z"/>
			<path id="boot_5_" class="st28" d="M673.5,428.6c1.2-5.1,1.4-10.4,1.8-15.4c0.3-2.8,0.5-5.5,0.9-8.3c0.2-1.7,0.4-3.3,0.6-5
				c-1.5,0.8-6.4,1.8-8.9,2.2c-2.3,0.4-6.5,0.7-10.6,0.7c-2.2,0-4.4-0.1-6.2-0.3c-4.1-0.5-6.9-2.3-7.9-3c-0.1,0-0.1-0.1-0.1-0.1
				c-0.1,1.6-0.2,3.5-0.2,5.6c-0.4,11.2-2,25.9-3.1,34.2c-0.1,1.1-0.4,4,0.2,5.8c0.4,1.1,0.7,1.1,2.5,1.8c15.8,7.1,38.4,5.7,40,5.6
				c7.7-8.5,3.5-15.3,2-17.2C682.4,432.6,674.8,429.2,673.5,428.6L673.5,428.6"/>
			<path id="crease_5_" class="st29" d="M655.3,430.1c5.5-3.9,14.5-2.4,18.3-1.5"/>
			<path id="highlight_5_" class="st30" d="M675.6,432.1c2,0.2,3.7,0.7,4.9,2.6c0.3,0.5,0.9,1.1,0.4,1.6c-0.4,0.4-0.7,1.7-1.7,0.9
				c-1.9-1.4-3.9-2-6.1-1.8c-0.3,0-0.9-0.2-0.5-0.5C673.7,434,674.1,431.7,675.6,432.1z"/>
		</g>
		<g id="left_boot_2_" class="st54">
			<path id="top_4_" class="st27" d="M621.1,399.3l-15.3,19.3l-18.2-19.8l-0.9-3.4c0,0,6.4,2.7,12.2,3.3c2,0.2,11.7,0.5,14.1-0.2
				c5.1-1.3,7.8-2.8,7.8-2.8L621.1,399.3z"/>
			<path id="boot_4_" class="st28" d="M596.1,429c0,0-10.8,0.5-14.7,5c-1.6,1.9-2.1,4.2-1.7,6.9c0.7,4.4,2.9,7.5,6.5,9.3
				c2.7,1.4,5.2,1.4,5.2,1.4c0.2,0,23.6-0.6,29.8-0.6c2.6,0,4.8-1.4,6-3.8c1-2.1,0.7-6.5,0.4-8.2c-0.4-2.2-4.5-21.5-5.9-33.7
				c-0.3-2.6-0.5-4.7-0.7-6.2c-1.6,1.1-7.5,2.4-10.4,2.5c-0.6,0-1.2,0-1.9,0c-3.3,0-7.5-0.2-11.6-0.7c-4.1-0.4-8.5-2-9.8-2.5l2,6.8
				L596.1,429 M585.3,435.8"/>
			<path id="crease_4_" class="st29" d="M596,429.1c0,0,7.7-0.2,10.7,1.2"/>
			<path id="highlight_4_" class="st30" d="M592.7,435.5c-3.1-0.2-5.7,0.4-8,2.4c-0.5,0.4-0.8-0.1-1.1-0.5c-0.3-0.5-0.1-1,0.2-1.3
				c1.9-2.3,4.1-3.5,6.6-3.4C591.3,432.7,591.7,434.1,592.7,435.5z"/>
		</g>
		<path class="st50" d="M545,235c0,0-5.7,4-6.9,9.3c-1.1,4.7-2.1,9.8,1.1,14.1c3.1,4.1,11,6.2,16.1,8.6c7.1,3.3,30.8,7,44.6,3.6
			c5.7-1.4,9.6-35.7,9.6-35.7l-14.7,0.2c0,0-18.4,1.7-25.9,0.1C566.6,234.6,545,235,545,235z"/>
		<path class="st50" d="M553.1,257.4c0,0-4.7-0.1-6.5-2.6c-3.9-5.6-3-10.1-1.7-12.8c1.3-2.7-2.6-5,0.1-7c2.6-2,18.2-8.5,22.8-9.8
			c2.7-0.8,13.8-3.1,13.8-3.1s-0.3,10.3,10,15.3c0,0-17,17.2-27.7,17.8C554.9,255.6,553.1,257.4,553.1,257.4z"/>
		<path class="st50" d="M643.1,307.7c0,0,12.9,8.8,19.3,9.5c6.4,0.8,19.6,1.9,21.9-2.7s3.1-11,2.6-16.6c-0.6-7.2-4.5-13.6-8.4-25.5
			c-3.5-10.7-5.5-20.3-11-27c-4.7-5.7-19.9-10.4-19.9-10.4s2.4,36.4,5.2,38.5c2.7,2.1,7.8,20.3,7.8,20.3c-3.2-0.7-16.1-3.6-16.1-3.6
			s1.3,5.2,0.7,9.9C644.5,304.5,643.1,307.7,643.1,307.7z"/>
		<path class="st55" d="M667.2,295.9c0,0-1.3-1.2-3.1-1.5s-3.6-0.6-3.6-0.6"/>
		<path class="st56" d="M654.6,266.2c-1.1,11.3-12.8,19.1-29.1,19.1c-12.8,0-32.5-17.7-45.4-17.8c-3.2,0-34.6-7.4-38.1-15.7
			c-4.7-11.2,3.4-18.7,4.9-16.5c2.3,3.4,3.6,19.6,5.5,19.1c1.4-0.3,22.7,3.2,22.7,2c0-11.3,57.8-26.7,72.5-21.4
			C662.7,240.4,657.5,236.7,654.6,266.2z"/>
		<path class="st57" d="M640.2,311.6c0,0-2.1,2-8.3,3.7s-9.3,1.2-9.3,1.2c-3.1,0-6-12-6.6-14.7l-3.4-13.8c-0.7-2.7,1.6-6,4.3-6.6
			c0,0-0.6-0.3-0.6-0.9c0-0.5,0.4-0.5,0.3-0.8c-0.1-0.3-0.6-0.4-0.7-0.9c-0.1-0.5,0-1,0.7-1.2l9-2.1c0.7-0.2,1.6,0.1,1.7,0.7
			c0.1,0.6-0.1,0.8-0.1,1.2c0,0.3,0.3,0.2,0.5,0.6c0.2,0.4-0.1,0.9-0.1,0.9c2.7-0.6,5.5,1.3,6.2,4l3.4,13.8
			C638,299.3,642.3,309.8,640.2,311.6z"/>
		<path class="st55" d="M627.2,277.2c0,0-3,0.5-4,0.9"/>
		<path class="st55" d="M628.2,278.7c0,0-3.1,0.7-5.5,1.4"/>
		<path class="st58" d="M621.2,251.7c-1.7,0.2-5.1-2-8.9-5.3c-3.8-3.4-5.2-10.6-5.2-10.6l21.2,7.4
			C628.3,243.2,622.9,251.5,621.2,251.7z"/>
		<path class="st58" d="M635.5,251.7c1.7,0.2,5.1-2,8.9-5.3s3-11.3,3-11.3l-19,8.1C628.4,243.2,633.8,251.5,635.5,251.7z"/>
		<path id="right_outter_ear_3_" class="st59" d="M663.1,183.5c1.1,11.5-10,12.6-16.6,8.7c-7.1-4.2-9.7-9.1-9.7-10.8
			c-0.2-8.2,3.1-13.5,11.3-12.9C656.2,169.2,662.4,175.3,663.1,183.5z"/>
		<path id="left_outter_ear_3_" class="st59" d="M588.8,184.5c-1.1,11.5,10,12.6,16.6,8.7c7.1-4.2,9.7-9.1,9.7-10.8
			c0.2-8.2-3.1-13.5-11.3-12.9C595.7,170.2,589.6,176.3,588.8,184.5z"/>
		<path id="right_innner_ear_3_" class="st60" d="M656.4,183.5c0.5,6.3-4.8,6.9-8,4.8c-3.4-2.3-4.6-5-4.7-5.9
			c-0.1-4.5,1.4-7,5.4-6.4C652.4,176.5,656.1,179.5,656.4,183.5z"/>
		<path class="st60" d="M596.8,185.1c-0.5,6.3,4.8,6.9,8,4.8c3.4-2.3,4.6-5,4.7-5.9c0.1-4.5-1.4-7-5.4-6.4
			C600.9,178,597.1,181.1,596.8,185.1z"/>
		<path id="head_8_" class="st61" d="M659.6,212.1c0.1,7.6-3.2,14.6-9.4,20c-5.4,4.7-12.9,11.1-22,11.1c-9,0-21.2-8.4-23.5-8.8
			c-3.5-0.7-10.9-11.5-10.5-21.8c0.2-4.9,2.1-14.9,6.2-21.1c5.9-8.9,14.8-16.2,25.7-16.2c11,0,18.9,6.8,25.2,15.8
			C655.7,197.2,659.6,207.5,659.6,212.1z"/>
		<path id="snoot_6_" class="st60" d="M612.7,221.3c0-6.5,3.2-9.7,6-12.6c3-3.1,3.2-7.6,8-7.6c0.8,0,3.6,0.3,4.8,3
			c4.3,9.8,11.4,6.3,11,15.7c-0.3,6.9-5.6,13.6-15,13.5C620,233.3,612.7,228.8,612.7,221.3z"/>
		<path class="st62" d="M620.7,211.4c0-1.9,1.9-4.2,6.5-4.2c3.5,0,5.9,1.4,5.9,3.3s-2.5,5-5.8,5
			C624.1,215.5,620.7,213.3,620.7,211.4z"/>
		
			<ellipse transform="matrix(0.9988 -4.902456e-02 4.902456e-02 0.9988 -9.5027 32.0099)" class="st63" cx="647.8" cy="209.7" rx="5.9" ry="2.3"/>
		
			<ellipse transform="matrix(0.9988 -4.902456e-02 4.902456e-02 0.9988 -9.6049 30.0269)" class="st64" cx="607.3" cy="210.8" rx="5.9" ry="2.3"/>
		<path class="st55" d="M626.7,227.1c0,0,0.7,0.3,1.2,0.3s1.1-0.4,1.1-0.4"/>
		<line class="st65" x1="618.3" y1="220.6" x2="623.1" y2="224.2"/>
		<path class="st60" d="M611.3,193.7c-1.5-1.6,1.3-4.1,4.1-4.7c2.5-0.5,5.1,0.4,5.2,2.3c0,1.7-2.1,1.3-4.9,1.9
			C613,193.8,612.8,195.3,611.3,193.7z"/>
		<path class="st66" d="M616,201.2c-0.8-0.2-2-0.1-2.8,0.3c-1.3,0.8-2.2,3.3-1.7,3.3s1.8-2.2,3.5-2.3c1.7-0.1,3.4,1.5,3.8,1.4
			C619.4,203.8,617.6,201.5,616,201.2z"/>
		<path class="st66" d="M640.3,200.5c-0.8-0.2-2-0.1-2.8,0.3c-1.3,0.8-2.2,3.3-1.7,3.3s1.8-2.2,3.5-2.3c1.7-0.1,3.4,1.5,3.8,1.4
			C643.6,203.2,641.8,200.9,640.3,200.5z"/>
		<path class="st60" d="M642.5,193.3c1.5-1.6-1.3-4.1-4.1-4.7c-2.5-0.5-5.1,0.4-5.2,2.3c0,1.7,2.1,1.3,4.9,1.9
			C640.8,193.4,641,194.9,642.5,193.3z"/>
		<path class="st61" d="M618.1,294.7c0,0.7-1.4,0.3-0.4,5.8c0.4,2.4,1.7,3.1,1.7,3.1c-1.1,1.9,0.2,4.2,0.5,5
			c1.3,3.6,6.6,4.1,9.4,3.6c6.9-1.3,11.7-3.8,13.9-4.5c0,0,2.4-2,2.3-9.1c-0.1-6.3-1-8.3-1-8.3c-3.8-0.8-2.6-4.1-4.8-6.5
			c-1.5-1.6-5.9-1.9-5.9-1.9s0.8,2.8,0.8,3c0.2,1.2-0.6,2.2-1.1,2.2c-3.8,0.1-12-1-14.4,1.9C615.7,292.8,618.1,293.8,618.1,294.7z"
			/>
		<path class="st55" d="M619.4,303.6c2.9,2,8,1.6,8.7,0.6"/>
		<path class="st55" d="M618.2,294.7c5.1,3.5,9.5,1,10.2-0.2"/>
		<path class="st67" d="M628.5,224c-2.1,0.5-2.9-1.3-4.1-1.6c-1.1-0.3-1.8-0.3-2-0.4c0,0,0,0,0,0c0.5-0.1,2.3-0.5,3.3-1.4
			c1.2-1.1,1.4-2.6,1.8-2.2c0.4,0.4,0.7,1.1,2.2,1.7c1.5,0.6,2.6,0.3,2.9,0.2c0,0,0,0,0,0c-0.1,0.1-0.6,0.7-1.8,1.6
			C630,222.5,630.4,223.5,628.5,224z"/>
		<path class="st68" d="M627.4,221.7c-0.2-2.7-2.6-4.6-5.4-4.4c-2.5,0.2-4.4,2-4.7,4.3h-8.5v2h8.7c0.7,2.1,2.8,3.5,5.2,3.3
			C625.5,226.6,627.6,224.3,627.4,221.7z M622.4,225.2c-1.9,0-3.4-1.4-3.4-3.1c0-1.7,1.5-3.1,3.4-3.1c1.9,0,3.4,1.4,3.4,3.1
			C625.7,223.8,624.2,225.2,622.4,225.2z"/>
		<path class="st69" d="M611,220.9c0,0.7,0.1,2.1-1,2.8c0.3,0.3-1.1,5-3.3,6c-0.7,0.3,0.4,1.8-1.9,3.9c-0.9,0.8-1.7,1.1-3.3,2
			c-5.2,2.7-6.7-0.5-9.9,1.7c-3.8-0.6-11.5-9.3-10.5-14.2c0.5-2.5,0.9-3.8,2.7-5.5c3.8-3.8,6.5-6.2,6.7-6.3c1-0.6,3.3-3.3,6.1-4.9
			c2.7-1.6,9.3-0.2,6.2,5.1c0,0,1.9,0.1,6.4,4C610.7,216.8,610.9,219,611,220.9z"/>
		<path class="st70" d="M636.9,315.9"/>
		<path class="st52" d="M589.2,212.5c3.9-2.5,11.4-1.6,13.7-0.9"/>
		<path class="st55" d="M604.9,219.6c0,0,3.5,1,5.1,4.2"/>
		<path class="st55" d="M601.6,225.5c0,0,2.3,0.9,4.9,4.6"/>
		<path class="st55" d="M597.4,232c0,0,0.4,2.3,4.8,3.2"/>
	</g>
	<g id="booster_x5F_after" class="st49">
		<g class="st54">
			<path class="st71" d="M466.1,357.7c-11.7,0-20.8-4.3-27.2-12.7c-4.7-6.2-9.7-23.8-10.1-25c0-2.1,1.7-3.9,3.9-3.9l115.8-1.2
				c2.2,0,3.9,1.7,4,3.8c-0.3,1.2-4.7,21.8-9.2,27.8c-4.8,6.4-17.3,10.3-26.7,10.7c-4.3,0.2-28.8,0.4-42,0.5c-3.9,0-6.8,0-8,0.1
				L466.1,357.7z"/>
			<path class="st72" d="M548.5,314.3v1c1.8,0,3.3,1.5,3.4,3.3c-0.4,1.7-4.7,21.7-9.1,27.5c-3.5,4.7-13.9,10-26.3,10.5
				c-4.3,0.2-28.8,0.4-41.9,0.5c-3.9,0-6.8,0-8,0.1c-0.2,0-0.3,0-0.5,0c-11.5,0-20.5-4.2-26.8-12.5c-4.6-6.1-9.5-23.1-10-24.8
				c0-1.8,1.5-3.3,3.4-3.3l115.8-1.2L548.5,314.3 M548.5,314.3C548.5,314.3,548.5,314.3,548.5,314.3l-115.8,1.2
				c-2.4,0-4.4,2-4.4,4.5c0,0,5.2,18.7,10.2,25.3c5.2,6.8,13.5,12.9,27.6,12.9c0.2,0,0.3,0,0.5,0c5.4-0.1,44.4-0.3,50-0.5
				c9.9-0.5,22.4-4.6,27.1-10.9c4.7-6.3,9.3-28,9.3-28C552.9,316.3,550.9,314.3,548.5,314.3L548.5,314.3z"/>
		</g>
		<g class="st54">
			<path class="st73" d="M462.7,333.5c-7.6,0-18.6-0.4-26-3.4c-3.7-1.5-6.2-4.2-7.3-7.8c-1.5-4.6-0.3-9.6,1.4-12.3
				c1.8-2.8,4.3-4.1,7.9-4.1c2.3,0,4.6,0.6,6.2,1c1,0.3,1.8,0.5,2.3,0.5l87.9-0.9c0.5,0,1.1-0.2,2-0.4c1.5-0.4,3.7-0.9,5.8-0.9
				c4.1,0,6.8,1.8,8.3,5.5c2.5,6.2,0.8,15-5.5,17.6c-9.2,3.8-23.8,4.3-33.5,4.6c-1.8,0.1-3.4,0.1-4.8,0.2l-33.8,0.4
				c-1.1,0-2.3,0-3.5,0.1C467.8,333.4,465.3,333.5,462.7,333.5z"/>
			<path class="st72" d="M543,305.6L543,305.6c3.9,0,6.4,1.7,7.8,5.2c1.3,3.2,1.4,6.8,0.5,10.1c-1,3.3-3,5.8-5.7,6.9
				c-9.1,3.8-23.7,4.2-33.3,4.5c-1.8,0.1-3.4,0.1-4.8,0.2l-33.8,0.4c-1.1,0-2.3,0-3.5,0.1c-2.2,0-4.8,0.1-7.4,0.1
				c-7.6,0-18.5-0.3-25.8-3.4c-3.5-1.5-5.9-4-7-7.5c-1.4-4.5-0.3-9.3,1.4-11.9c1.7-2.6,4.1-3.9,7.5-3.9c2.3,0,4.5,0.6,6.1,1
				c1.1,0.3,1.8,0.5,2.4,0.5c0,0,0,0,0,0l87.8-0.9c0.5,0,1.2-0.2,2.2-0.4C538.8,306.1,540.9,305.6,543,305.6 M543,304.6
				c-3.5,0-6.8,1.3-7.9,1.3l-87.8,0.9c0,0,0,0,0,0c-1.2,0-4.8-1.4-8.5-1.4c-3,0-6.2,0.9-8.3,4.3c-3.3,5.1-4,16.7,6.1,20.8
				c7.1,2.9,17.3,3.5,26.2,3.5c4.1,0,7.8-0.1,10.9-0.1c9.9-0.1,33.8-0.4,33.8-0.4c9.4-0.4,27.6-0.3,38.5-4.8
				c6.3-2.6,8.5-11.4,5.7-18.3C549.9,305.8,546.4,304.6,543,304.6L543,304.6z"/>
		</g>
		<g class="st54">
			
				<rect x="487.7" y="323.5" transform="matrix(0.9999 -1.067488e-02 1.067488e-02 0.9999 -3.4986 5.2671)" class="st74" width="7.8" height="13.7"/>
			<path class="st72" d="M495,324l0.1,12.7l-6.8,0.1l-0.1-12.7L495,324 M496,323l-8.8,0.1l0.2,14.7l8.8-0.1L496,323L496,323z"/>
		</g>
		<path class="st75" d="M448,306.9c1.1,0.1,2,0,2.7,0"/>
		<path class="st76" d="M528.6,317.2c-4.8,2.1-16.7,1.9-19.1,1.9l-44,0.5c-1.8,0-3.8-0.1-5.7-0.2c-2.9-0.2-5.7-0.6-7.6-1.3
			c-4.8-2-6.7-5-6.3-7c0.3-2,1.9-4.1,4.4-4.1l80.1-0.9c2.4,0,4.1,2,4.5,4C535.2,312.1,533.4,315.2,528.6,317.2z"/>
		<path class="st75" d="M529.4,306c0.7,0,1.6,0.1,2.7,0"/>
		<path class="st77" d="M543.1,275c0,1,0.1,2,0.1,3c0.1,5.7-1,11.5-2.6,16.7v0c-0.8,2.6-1.8,5-2.8,7.2c-1.5,3.1-3.7,3.9-5.7,4.1
			l-84.1,0.9c-1.9-0.2-4.2-0.9-5.7-4c-1.1-2.2-2.1-4.6-3-7.2c0,0,0,0,0,0c0,0,0,0,0,0c-1.8-5.2-2.9-11-3-16.6c0-1,0-2,0-3l0,0
			c-0.2-4.9,0-9.6,2.1-22.4c2.7-16.2,10.3-26.9,14.5-30s68.8-3.2,72.4-0.8s12.2,13.5,15.2,29.7C542.9,265.3,543.2,270.1,543.1,275
			L543.1,275z"/>
		<path class="st77" d="M531.2,206.2L531.2,206.2c0,5.6-0.5,10.6-1.9,12.8c0,0.1-0.1,0.1-0.1,0.2c-3.4,3.8-7.2,3.9-9.1,3.9
			l-61.8,0.7c-1.9,0-5.7,0.1-9.2-3.7c0-0.1-0.1-0.1-0.1-0.2c-1.4-2.2-2-7.1-2.1-12.7l0-0.1c0-7.2,0.8-15.4,1.6-19.8c0,0,0,0,0-0.1
			c0-0.3,0.1-0.6,0.1-0.8c1.4-7.2,6.3-16.4,14.1-16.7c0.1,0,0.2,0,0.3,0l51.2-0.5c0.1,0,0.2,0,0.4,0c7.9,0.1,13,9.2,14.5,16.4
			c0.1,0.2,0.1,0.5,0.2,0.8c0,0,0,0,0,0.1C530.1,190.8,531.1,199,531.2,206.2z"/>
		<path class="st76" d="M513,215.2c-12.9,0.5-38.2,0-47.4-0.3c-2.2-0.1-5.1-2.5-6.3-4.1c-3.8-5.4-1.7-15.7,0.9-21.2
			c1.8-3.8,3.9-8.7,9.8-9.6c14.5-2,21.9-2.1,36.8-0.7c7.9,0.7,10,7.1,11.5,10.1c2.2,4.4,5.4,16.2,2,21.6
			C519.2,212.8,515.3,215.1,513,215.2z"/>
		<path class="st78" d="M493.9,324.4l-5,0.1c-3.2,0-5.8-2.5-5.9-5.7l0,0c0-3.2,2.5-5.8,5.7-5.9l5-0.1c3.2,0,5.8,2.5,5.9,5.7l0,0
			C499.6,321.7,497.1,324.4,493.9,324.4z"/>
		<path class="st79" d="M493.5,322.7l-4.2,0c-2.3,0-4.1-1.8-4.1-4l0,0c0-2.3,1.8-4.1,4-4.1l4.2,0c2.3,0,4.1,1.8,4.1,4v0
			C497.6,320.8,495.8,322.7,493.5,322.7z"/>
		<g class="st54">
			<path class="st74" d="M476.5,294.7c-1.4-2.8-11.2-22.6-13.4-33.4c-2.1-10.7-1.6-35.5-1.5-39.3l7.8-0.1
				c-0.3,4.1-1.7,28.9,0.8,39.8c3.1,13.3,12,28.5,14,31.7L476.5,294.7z"/>
			<g>
				<path class="st72" d="M468.8,222.4c-0.3,5.4-1.5,28.9,0.9,39.4c2.9,12.6,11.1,26.9,13.7,31.2l-6.6,1.1
					c-1.9-3.7-11.1-22.6-13.2-32.9c-2-10.3-1.6-33.7-1.5-38.7L468.8,222.4 M469.9,221.4l-8.8,0.1c0,0-0.8,28.1,1.5,39.9
					c2.3,11.8,13.6,33.9,13.6,33.9l8.8-1.4c0,0-10.8-17.2-14.3-32.2C468,250,469.9,221.4,469.9,221.4L469.9,221.4z"/>
			</g>
		</g>
		<g class="st54">
			<path class="st74" d="M496.6,293.3c1.9-3.3,10.5-18.7,13.3-32c2.3-10.9,0.3-35.7,0-39.8l7.8-0.1c0.2,3.8,1.2,28.5-0.7,39.3
				c-1.9,10.8-11.3,30.9-12.7,33.7L496.6,293.3z"/>
			<path class="st72" d="M517.2,221.9c0.2,5,1.1,28.4-0.7,38.7c-1.8,10.4-10.7,29.5-12.5,33.2l-6.6-0.9c2.5-4.4,10.3-18.8,13-31.5
				c2.2-10.6,0.5-34,0-39.4L517.2,221.9 M518.1,220.9l-8.8,0.1c0,0,2.5,28.5,0.1,40.2c-3.1,15.1-13.6,32.5-13.6,32.5l8.8,1.2
				c0,0,10.8-22.3,12.9-34.1C519.6,249,518.1,220.9,518.1,220.9L518.1,220.9z"/>
		</g>
		<path class="st78" d="M486.3,295.3c0.4,3.3-1,5.5-1.4,5.9c-0.4,0.4-4,0.4-6.3-1c-1.7-1.1-2.4-4.2-2.5-5.4l6.8-3.9
			C483,290.9,486.1,293.3,486.3,295.3z"/>
		<path class="st78" d="M494.6,295.2c-0.3,3.3,1.2,5.5,1.5,5.9c0.4,0.4,4,0.3,6.2-1.2c1.7-1.1,2.2-4.4,2.3-5.5l-6.9-3.6
			C497.8,290.8,494.8,293.2,494.6,295.2z"/>
	</g>
	<g id="booster_x5F_before">
		<g>
			<path class="st71" d="M512.6,360.2c-1.6,0-3.1-0.1-4.6-0.2c-4.3-0.4-28.6-3.9-41.6-5.7c-3.8-0.5-6.7-0.9-7.9-1.1
				c-11.8-1.6-20.4-7.2-25.5-16.7c-3.7-6.8-6.2-25-6.3-26.2c0.3-1.9,1.9-3.3,3.9-3.3c0.2,0,0.4,0,0.5,0l114.7,15.8
				c2.1,0.3,3.6,2.2,3.3,4.4c-0.4,1.2-7.8,20.9-13.1,26.1C531.2,358,520.8,360.2,512.6,360.2z"/>
			<path class="st72" d="M430.6,307.5L430.6,307.5c0.2,0,0.3,0,0.5,0l114.7,15.8c1.8,0.3,3.1,1.9,2.9,3.7c-0.6,1.6-7.8,20.8-13,25.9
				c-3.4,3.4-11.9,6.8-23.1,6.8c-1.6,0-3.1-0.1-4.5-0.2c-4.3-0.4-28.5-3.8-41.6-5.7c-3.8-0.5-6.7-0.9-7.9-1.1
				c-11.6-1.6-20.1-7.1-25.1-16.4c-3.6-6.7-6-24.2-6.2-26C427.5,308.7,428.9,307.5,430.6,307.5 M430.6,306.5c-2.2,0-4.1,1.6-4.4,3.8
				c0,0,2.5,19.3,6.4,26.5c4.1,7.6,11.7,15,25.9,16.9c5.3,0.7,44,6.2,49.5,6.8c1.5,0.1,3,0.2,4.6,0.2c9,0,19-2.4,23.8-7.1
				c5.6-5.5,13.3-26.4,13.3-26.4c0.3-2.4-1.4-4.6-3.8-5l-114.7-15.8C431,306.5,430.8,306.5,430.6,306.5L430.6,306.5z"/>
		</g>
		<g>
			<path class="st73" d="M528.8,336.8c-7.4,0-15.2-0.9-21.4-1.6c-1.8-0.2-3.4-0.4-4.8-0.5l-33.5-4.6c-1.1-0.1-2.3-0.3-3.5-0.5
				c-10.2-1.3-24.1-3.1-32.6-8.2c-3.4-2-5.5-5.1-6.1-8.8c-0.8-4.8,1.1-9.6,3.2-12c1.8-2,3.9-3,6.6-3c2.9,0,5.9,1.2,7.8,2
				c1,0.4,1.7,0.7,2.2,0.8l87,12c0.1,0,0.3,0,0.4,0c0.4,0,1,0,1.6-0.1c0.9-0.1,2.1-0.2,3.3-0.2c5.6,0,8.8,2.2,9.9,6.8
				c1.5,6.5-1.4,15-8,16.6C537.9,336.4,533.8,336.8,528.8,336.8z"/>
			<path class="st72" d="M436.8,298.2c2.8,0,5.7,1.2,7.6,2c1,0.4,1.8,0.7,2.4,0.8l87,12c0.1,0,0.3,0,0.5,0c0.4,0,1-0.1,1.7-0.1
				c0.9-0.1,2.1-0.2,3.3-0.2c5.4,0,8.4,2,9.4,6.4c0.8,3.3,0.4,7-1,10c-1.5,3.2-3.8,5.3-6.6,6c-3.2,0.8-7.4,1.2-12.3,1.2
				c-7.4,0-15.1-0.9-21.4-1.6c-1.8-0.2-3.4-0.4-4.8-0.5l-33.5-4.6c-1.1-0.2-2.3-0.3-3.5-0.5c-10.1-1.3-24-3.1-32.4-8.1
				c-3.3-2-5.3-4.9-5.9-8.4c-0.7-4.6,1.1-9.3,3.1-11.6C432.2,299.1,434.3,298.2,436.8,298.2 M436.8,297.2c-2.4,0-4.9,0.8-7,3.2
				c-4,4.6-6.4,15.9,3,21.5c9.6,5.7,26.4,7.4,36.3,8.7s33.5,4.6,33.5,4.6c6.4,0.6,16.7,2.1,26.3,2.1c4.5,0,8.8-0.3,12.5-1.2
				c6.7-1.7,10.1-10.1,8.4-17.2c-1.4-6.1-6.4-7.2-10.4-7.2c-2.1,0-4,0.3-5,0.3c-0.1,0-0.3,0-0.4,0l-87-12
				C445.5,299.8,441.2,297.2,436.8,297.2L436.8,297.2z"/>
		</g>
		<g>
			
				<rect x="480.5" y="325.9" transform="matrix(0.1361 -0.9907 0.9907 0.1361 94.3057 767.7388)" class="st74" width="13.7" height="7.8"/>
			<path class="st72" d="M484.8,323l6.8,0.9l-1.7,12.6l-6.8-0.9L484.8,323 M484,321.9l-2,14.6l8.7,1.2l2-14.6L484,321.9L484,321.9z"
				/>
		</g>
		<path class="st14" d="M447.6,300.2c1,0.2,2,0.3,2.6,0.4"/>
		<path class="st80" d="M525.8,322.2c-5,1.4-16.8-0.6-19.2-0.9l-43.6-6c-1.8-0.3-3.7-0.6-5.6-1c-2.9-0.6-5.6-1.4-7.3-2.4
			c-4.5-2.7-5.9-5.9-5.2-7.9c0.6-2,2.5-3.7,4.9-3.4l79.4,10.9c2.4,0.3,3.7,2.6,3.8,4.6C533.1,318.1,530.8,320.9,525.8,322.2z"/>
		<path class="st14" d="M528.3,311.3c0.7,0.1,1.6,0.3,2.6,0.4"/>
		<path class="st81" d="M546.4,282.6c-0.1,1-0.2,2-0.4,3c-0.8,5.6-2.7,11.2-5.1,16.2l0,0c-1.2,2.4-2.5,4.7-3.8,6.7
			c-1.9,2.8-4.3,3.3-6.2,3.2l-83.3-11.4c-1.9-0.4-4.1-1.5-5.1-4.8c-0.8-2.3-1.4-4.9-1.9-7.5c0,0,0,0,0,0c0,0,0,0,0,0
			c-1-5.4-1.3-11.3-0.5-16.9c0.1-1,0.3-2,0.4-3l0,0c0.5-4.8,1.4-9.5,5.4-21.8c5-15.6,14.1-25.1,18.8-27.5c4.6-2.4,68.5,6.9,71.7,9.8
			c3.2,2.9,10,15.2,10.7,31.6C547.6,273,547.2,277.7,546.4,282.6L546.4,282.6z"/>
		<path class="st81" d="M544.7,212.7L544.7,212.7c-0.8,5.5-2.1,10.4-3.7,12.4c0,0.1-0.1,0.1-0.1,0.2c-3.9,3.3-7.7,2.8-9.6,2.5
			l-61.2-8.4c-1.9-0.3-5.7-0.8-8.6-5c0-0.1-0.1-0.1-0.1-0.2c-1-2.4-0.9-7.3-0.2-12.8l0-0.1c1.1-7.1,3.1-15.1,4.4-19.4c0,0,0,0,0-0.1
			c0.1-0.3,0.2-0.5,0.3-0.8c2.4-6.9,8.6-15.3,16.4-14.4c0.1,0,0.2,0,0.3,0l50.7,7c0.1,0,0.2,0,0.4,0.1c7.8,1.3,11.5,11,11.9,18.3
			c0,0.3,0,0.5,0,0.8c0,0,0,0,0,0.1C545.9,197.4,545.6,205.6,544.7,212.7z"/>
		<path class="st80" d="M525.3,219c-12.8-1.4-37.8-5.6-46.9-7.3c-2.2-0.4-4.7-3.2-5.6-5c-3-5.9,0.6-15.8,4-20.8
			c2.3-3.5,5.1-8,11.1-8c14.6,0.1,22,1.1,36.5,4.7c7.7,1.9,8.8,8.5,9.9,11.7c1.5,4.7,2.9,16.8-1.1,21.6
			C531.8,217.5,527.6,219.3,525.3,219z"/>
		<path class="st82" d="M490.4,324.2l-4.9-0.7c-3.2-0.4-5.4-3.4-4.9-6.5l0,0c0.4-3.2,3.4-5.4,6.5-4.9l4.9,0.7
			c3.2,0.4,5.4,3.4,4.9,6.5l0,0C496.5,322.4,493.6,324.7,490.4,324.2z"/>
		<path class="st83" d="M490.3,322.5l-4.2-0.6c-2.2-0.3-3.8-2.4-3.5-4.6l0,0c0.3-2.2,2.4-3.8,4.6-3.5l4.2,0.6
			c2.2,0.3,3.8,2.4,3.5,4.6l0,0C494.6,321.2,492.5,322.8,490.3,322.5z"/>
		<g>
			<path class="st74" d="M477.6,292.3c-1-3-7.8-24-8.3-35c-0.5-10.9,3.6-35.4,4.2-39.1l7.7,1.1c-0.9,4-5.9,28.4-5,39.5
				c1.1,13.6,7.7,29.9,9.2,33.4L477.6,292.3z"/>
			<g>
				<path class="st72" d="M473.9,218.8l6.7,0.9c-1.1,5.3-5.8,28.3-4.9,39.1c1,12.9,7,28.3,8.9,32.9l-6.7,0.1c-1.3-4-7.7-24-8.2-34.5
					C469.2,246.8,473,223.7,473.9,218.8 M473.1,217.6c0,0-4.9,27.7-4.3,39.7s8.5,35.5,8.5,35.5l8.9-0.1c0,0-8.2-18.6-9.4-34
					c-1-11.9,5.1-39.9,5.1-39.9L473.1,217.6L473.1,217.6z"/>
			</g>
		</g>
		<g>
			<path class="st74" d="M497.6,293.9c2.4-3,13.1-16.9,17.9-29.7c3.9-10.5,5.6-35.3,5.8-39.4l7.7,1.1c-0.4,3.7-3,28.4-6.4,38.8
				c-3.5,10.4-15.7,28.9-17.5,31.5L497.6,293.9z"/>
			<path class="st72" d="M521.8,225.3l6.7,0.9c-0.5,5-3,28.2-6.4,38.2c-3.3,10-14.9,27.6-17.2,31l-6.4-1.9
				c3.1-3.9,13-17.1,17.5-29.3C519.7,254.2,521.4,230.7,521.8,225.3 M520.9,224.2c0,0-1.7,28.5-5.8,39.8
				c-5.3,14.4-18.2,30.2-18.2,30.2l8.6,2.5c0,0,13.9-20.5,17.7-31.9c3.8-11.4,6.5-39.4,6.5-39.4L520.9,224.2L520.9,224.2z"/>
		</g>
		<path class="st82" d="M487.2,294.3c-0.1,3.3-1.8,5.3-2.3,5.6s-4.1-0.2-6-1.9c-1.5-1.3-1.7-4.5-1.7-5.7l7.3-2.8
			C484.5,289.5,487.3,292.3,487.2,294.3z"/>
		<path class="st82" d="M495.4,295.5c-0.8,3.2,0.3,5.6,0.7,6c0.3,0.4,4,0.9,6.3-0.2c1.8-0.9,2.8-4,3.1-5.1l-6.2-4.6
			C499.3,291.6,495.9,293.5,495.4,295.5z"/>
	</g>
	<g id="bubbles" class="st49">
		<circle class="st84" cx="579.1" cy="197.5" r="9"/>
		<circle class="st84" cx="570.6" cy="219.1" r="7.4"/>
		<circle class="st84" cx="552.9" cy="197" r="7.2"/>
		<circle class="st84" cx="555.4" cy="171.8" r="6"/>
		<path class="st85" d="M557.7,195.3c-0.5-0.1-0.7-0.4-0.7-0.5c-0.1-1.5-1.5-1.6-1.8-1.9c-0.3-0.2-0.3-1.2,0.3-1.1
			c0.6,0,1.9,1.1,2.2,1.7C557.9,194.1,558.2,195.4,557.7,195.3z"/>
		<path class="st85" d="M585.5,196.8c-0.8-0.1-1.3-0.8-1.3-1c-0.2-2.7-2.8-2.9-3.2-3.4c-0.5-0.4-0.6-2.1,0.6-2c1,0,3.4,1.9,3.9,3.1
			S586.6,196.9,585.5,196.8z"/>
		<path class="st85" d="M575.9,218.3c-0.7-0.1-1-0.6-1.1-0.8c-0.1-2.1-2.2-2.3-2.6-2.6c-0.4-0.3-0.5-1.6,0.5-1.5
			c0.8,0,2.7,1.5,3.1,2.4C576.3,216.7,576.7,218.4,575.9,218.3z"/>
		<path class="st85" d="M559.2,171.2c-0.4-0.1-0.7-0.5-0.7-0.6c-0.2-1.8-1.5-1.9-1.8-2.1s-0.4-1.4,0.3-1.3c0.5,0,1.8,1.2,2.1,1.9
			S559.8,171.3,559.2,171.2z"/>
	</g>
	<g id="Front_seat">
		<path class="st86" d="M702.9,338.4l143.6,129.1l-17.6,1.8L685.2,348.2l7.1-4.3C695.1,342.9,702.9,338.4,702.9,338.4z"/>
		<path class="st87" d="M427.9,226.1c17.7,0.1,52.6-0.4,70.3-0.4c51.4,0,60.4,95.5,3.2,94.9c-17.6-0.2-62.5,0.9-78.5,0.3
			C357.2,318.6,372,226,427.9,226.1z"/>
		<path class="st87" d="M820,321c-17.6-0.2-62.5,0.9-78.5,0.3c-65.7-2.3-50.9-95,5-94.8c17.7,0.1,52.6-0.4,70.3-0.4"/>
		<path class="st87" d="M739.7,226.5c17.7,0.1,52.6-0.4,70.3-0.4c51.4,0,60.4,95.5,3.2,94.9c-17.6-0.2-62.5,0.9-78.5,0.3
			C669,319,683.8,226.4,739.7,226.5z"/>
		<path class="st87" d="M886.3,482c0.2,42.1-32.3,76.4-72.5,76.5l-78.5,0.4c-40.2,0.2-72.9-33.8-73.1-75.9l-0.4-86.6
			c-0.2-42.1-6.3-73.5,72.5-76.6l78.5-0.4c78.2,0,72.9,33.8,73.1,75.9L886.3,482z"/>
		<path class="st87" d="M574.8,482c0.2,42.1-32.3,76.4-72.5,76.5l-78.5,0.4c-40.2,0.2-72.9-33.8-73.1-75.9l-0.3-86.6
			c-0.2-42.1,1.2-76.9,72.5-76.6l78.5-0.4c73.5,0,72.9,33.8,73.1,75.9L574.8,482z"/>
	</g>
	<g id="Driver_1_">
		<path id="torso" class="st88" d="M680.1,454.2l109.7-4.1l96.6-9.3c-7.4-25.3-19.8-60-35.3-91.8c-18.2-23.5-47.8-31.2-47.8-31.2
			s-45,0.1-62.2,2.1s-35,15.8-43.3,32.4C689.5,369.1,680.1,454.2,680.1,454.2z"/>
		<g id="T">
			<path class="st89" d="M849.1,435.4l-122.7,6.4c0,0-0.7-37,1.4-51.1c0,0-12.5,0.4-19.4-2.8c-14.4-6.6-16.3-12.9-16.3-12.9
				s0.7-43.7,44.7-54.4c16.2-3.9,66.6-2.8,66.6-2.8s40.9,5.3,56.4,50.1c0,0-6.6,7.2-15,10.6c-5.9,2.4-14.8,1.8-17.5,0.8L849.1,435.4
				z"/>
		</g>
		<g id="vest">
			<path class="st90" d="M753.9,440.4C741.9,470,723,436,723,436s3.1-30.2,4.9-45.2c0.7-5.8,2.9-11.9,3.7-14.5
				c1.8-5.7,9.5-7.2,12.4-15.9c4.6-13.6,1.4-40.6,1.4-40.6l10.2,1.4C755.6,321.1,765.8,410.8,753.9,440.4z"/>
			<path class="st90" d="M810.2,436c22.9,27.5,21.7-4.6,21.7-4.6s-0.7-29.2-2.4-44.2c-0.7-5.8-6.1-17.7-7-20.3
				c-1.8-5.7-8.7-2.5-11.6-11.2c-4.6-13.6-5.1-37.5-5.1-37.5l-8.2-1.5C797.6,316.7,789.8,411.4,810.2,436z"/>
			<path class="st91" d="M730.1,417.6c3.1,5.6,28.1,3.3,28.1,3.3l0.6-5.6c0,0-21.6,2.3-26.3-3.2C731.5,411,729.4,416.3,730.1,417.6z
				"/>
			<path class="st91" d="M728.5,428.8c3.1,5.6,27.7,3,27.7,3l0.8-5.3c0,0-21.5,2.2-26.2-3.2C729.8,422.2,727.7,427.5,728.5,428.8z"
				/>
			<path class="st91" d="M830.3,419.3c-1.5,6.2-23.9,10.4-23.9,10.4l-2.5-6.1c0,0,19.5-2.4,22.6-8.9
				C827.2,413.3,830.6,417.8,830.3,419.3z"/>
			<path class="st91" d="M826,410.6c-2.6,5.8-23,9.2-23,9.2l-1.8-6.5c0,0,16.6-1.4,20.8-7.3C822.9,404.8,826.6,409.3,826,410.6z"/>
		</g>
		<g id="head_1_">
			<path class="st92" d="M791.7,222.4c-3.2-6.5,2.4-13.9,5.8-16.7c2.8-2.2,12.4-9.5,25,4.6c8.2,9.2,9.4,14.5,6.6,20.6
				c-2.8,6.3-16.7,7.9-16.8,8"/>
			<path class="st93" d="M797.8,225.5c-1.8-7.3,5.2-20.8,17.4-10.3c15,12.9-0.4,18.4-6.4,19"/>
			<path id="left_ear_outter" class="st92" d="M748.8,222.8c3.2-6.5-1.7-16.3-4.4-18.5c-4.7-3.8-13.7-4.3-23.2,3.3
				c-10.2,8.1-13,16.2-9.3,22.4c3.7,6.3,16.5,9,16.5,9.1"/>
			<path class="st93" d="M744.2,225.3c1.8-7.4-5.2-21.1-17.4-10.5c-15,13,0.3,18.7,6.3,19.3"/>
			<path id="head" class="st92" d="M799.6,319.5c-12.9,4.9-26.9,7.3-40.5,5.5c-13.7-1.8-26.9-8-36.1-18.3
				c-9.1-10.3-13.7-24.9-10.8-38.3c1.7-7.7,5.6-14.8,10.1-21.3c8.8-12.5,20.7-23.6,35.4-27.6c14.2-3.9,29.9-0.6,42,7.7
				c12.1,8.3,20.7,21.2,24.9,35.3c3.3,11.2,3.9,23.6-0.3,34.5S810.3,315.4,799.6,319.5z"/>
			<path class="st93" d="M768.5,252.4c-5.4,4.2-6.9,11.7-11.4,16.9c-1.9,2.2-4.3,3.8-6.3,6c-4.6,5-6.4,12.4-4.8,19.1
				c2.2,9.9,17,20.2,28,18.6c15.3-2.3,21.6-14.8,21.3-21.8c-0.3-6.9-2.1-9.7-5.4-15c-3.4-5.4-9.9-10.3-12.6-16.1
				c-1-2.2-2.4-5.5-4.2-7.1S770,251.2,768.5,252.4z"/>
			<path class="st94" d="M782.4,256.8c0.2-4.9,4.4-8.8,7.7-9c3-0.2,7.7,3.3,7.7,8.2c0,5,0.5,6.8-1.3,8.8c-1.9,2.2-7.8,4.2-8.9,3.4
				C785.3,266.8,782.1,262.3,782.4,256.8z"/>
			<path class="st94" d="M758.9,257.5c-0.2-4.9-4.4-8.8-7.7-9c-3-0.2-7.1,3.3-7.7,8.2c-0.3,2.7-1.2,5.7,1.4,8.6
				c2.2,2.4,7.6,4.4,8.7,3.6C755.9,267.5,759.1,263,758.9,257.5z"/>
			<path class="st95" d="M745.4,262.3c0.1-3.4,2.7-6.2,6.1-6.2c3.4,0,6.1,2.8,6.1,6.2c0,2.1-2.2,5.2-2.4,5.2c-0.1,0-1.4,1.7-2.1,1.7
				c-1.7,0-2.6-0.5-2.6-0.5S745.2,267.7,745.4,262.3z"/>
			<circle class="st95" cx="750.6" cy="260.7" r="2.9"/>
			<path class="st95" d="M745.4,262.3c0.1-3.4,2.7-6.2,6.1-6.2c3.4,0,6.1,2.8,6.1,6.2c0,2.1-2.2,5.2-2.4,5.2c-0.1,0-1.4,1.7-2.1,1.7
				c-1.7,0-2.6-0.5-2.6-0.5S745.2,267.7,745.4,262.3z"/>
			<circle class="st95" cx="750.6" cy="260.7" r="2.9"/>
			<path class="st95" d="M745.4,262.3c0.1-3.4,2.7-6.2,6.1-6.2c3.4,0,6.1,2.8,6.1,6.2c0,2.1-2.2,5.2-2.4,5.2c-0.1,0-1.4,1.7-2.1,1.7
				c-1.7,0-2.6-0.5-2.6-0.5S745.2,267.7,745.4,262.3z"/>
			<circle class="st95" cx="750.6" cy="260.7" r="2.9"/>
			<path class="st95" d="M745.4,262.3c0.1-3.4,2.7-6.2,6.1-6.2c3.4,0,6.1,2.8,6.1,6.2c0,2.1-2.2,5.2-2.4,5.2c-0.1,0-1.4,1.7-2.1,1.7
				c-1.7,0-2.6-0.5-2.6-0.5S745.2,267.7,745.4,262.3z"/>
			<circle class="st95" cx="750.6" cy="260.7" r="2.9"/>
			<path class="st95" d="M745.4,262.3c0.1-3.4,2.7-6.2,6.1-6.2c3.4,0,6.1,2.8,6.1,6.2c0,2.1-2.2,5.2-2.4,5.2c-0.1,0-1.4,1.7-2.1,1.7
				c-1.7,0-2.6-0.5-2.6-0.5S745.2,267.7,745.4,262.3z"/>
			<circle class="st95" cx="750.6" cy="260.7" r="2.9"/>
			<path class="st95" d="M745.4,262.3c0.1-3.4,2.7-6.2,6.1-6.2c3.4,0,6.1,2.8,6.1,6.2c0,2.1-2.2,5.2-2.4,5.2c-0.1,0-1.4,1.7-2.1,1.7
				c-1.7,0-2.6-0.5-2.6-0.5S745.2,267.7,745.4,262.3z"/>
			<circle class="st95" cx="750.6" cy="260.7" r="2.9"/>
			<path class="st96" d="M745.4,262.3c0.1-3.4,2.7-6.2,6.1-6.2c3.4,0,6.1,2.8,6.1,6.2c0,2.1-2.2,5.2-2.4,5.2c-0.1,0-1.4,1.7-2.1,1.7
				c-1.7,0-2.6-0.5-2.6-0.5S745.2,267.7,745.4,262.3z"/>
			<circle class="st96" cx="750.6" cy="260.7" r="2.9"/>
			<path class="st97" d="M745.4,262.3c0.1-3.4,2.7-6.2,6.1-6.2c3.4,0,6.1,2.8,6.1,6.2c0,2.1-2.2,5.2-2.4,5.2c-0.1,0-1.4,1.7-2.1,1.7
				c-1.7,0-2.6-0.5-2.6-0.5S745.2,267.7,745.4,262.3z"/>
			<circle class="st30" cx="750.6" cy="260.7" r="2.9"/>
			<path class="st97" d="M795.9,261.6c-0.1-3.4-2.7-6.2-6.1-6.2c-3.4,0-6.1,2.8-6.1,6.2c0,2.1,2.2,5.2,2.4,5.2
				c0.1,0,1.4,1.7,2.1,1.7c1.7,0,2.6-0.5,2.6-0.5S796.1,266.9,795.9,261.6z"/>
			<ellipse class="st98" cx="770.8" cy="274.9" rx="13" ry="5.7"/>
			<circle class="st30" cx="789.1" cy="260.8" r="2.9"/>
			<path class="st93" d="M758.5,236.2c-2.5-2-4.9-1.3-6.1-0.6c-2.6,1.4-6.3,4-8.3,5.5c-3.4,2.4-6.3,4.3-3.9,6.3
				c3.7,3.1,15.8-4.2,18-6.1C759.1,240.6,761,238.2,758.5,236.2z"/>
			<path class="st93" d="M798.9,246.5c-2.9,0.7-6.1,0.3-8.8-0.9c-2.7-1.2-5-3.5-5.9-6.4c-0.3-0.9-0.4-1.8,0-2.6
				c0.4-0.8,1.3-1.3,2.2-1.4c0.9-0.1,1.8,0.1,2.6,0.5c2.3,1.1,4,3.2,6.3,4.2c0.8,0.4,1.7,0.7,2.6,1s1.7,0.8,2.3,1.5
				c0.6,0.7,1,1.7,0.7,2.6C800.7,245.9,799.5,246.3,798.9,246.5z"/>
			<path id="chin" class="st99" d="M768.2,303.8c0,2,7.4,1.5,7.4-0.5"/>
			<path id="left_mouth" class="st100" d="M753.9,288.8c0,0.6,3,5.1,9.5,5c2.5,0,6.6-0.1,8.1-3.3"/>
			<path id="right_mouth" class="st100" d="M789.1,288.7c0,0.6-2.9,5.2-8.6,5.2c-2.7,0-7.5-0.1-9.1-3.3"/>
		</g>
		<path id="left_arm" class="st101" d="M731.6,376.2c-2.9,8.5-4.6,17.3-5.2,26.2"/>
		<path id="right_arm" class="st101" d="M822.5,366.8c2.7,5.6,3.2,8.6,5.5,14.4"/>
		<g id="wheel">
			<path class="st102" d="M861,445L861,445c-1.4-19.1-9.9-36.9-24-50c-14.2-13.3-32.7-20.6-52.2-20.6c-42.1,0-76.4,34.3-76.4,76.4
				c0,4.5,0.4,8.9,1.2,13.2c0.2-0.1,0.4-0.2,0.6-0.2c0,0,0,0,0.1,0c0.1,0,0.1,0,0.2,0c0,0,0,0,0,0c0,0,0,0,0,0c0.1,0,0.1,0,0.2,0
				c0.1,0,0.1,0,0.2,0.1c0.1,0,0.3,0,0.4,0.1c-0.1,0-0.1,0-0.1,0c0.1,0,0.2,0,0.2,0c0.1,0,0.2,0,0,0c0,0,0,0-0.1,0
				c0.4,0.1,1.4,0.3,0.6,0.1c0.1,0,0.6,0.1,0.3,0.1c0.1,0,0.1,0,0.2,0c0.3-0.2,0.7-0.3,1-0.3c0,0,0.1,0,0.2,0c0.1,0,0.2,0,0.3,0
				c0.2,0,0.3-0.1,0.5-0.1c0.2-0.1,0.4-0.2,0.7-0.1c0,0,0,0,0,0c1-0.2,2.1-0.4,3.1-0.5c0.8-0.1,1.5-0.1,2.1,0
				c0.6-0.4,1.5-0.4,2.2-0.2c0,0,0.1,0,0.1,0c1.1-0.2,2,0.1,2.6,0.9c0.1,0.1,0.2,0.3,0.4,0.4c0.2,0.1,0.4,0.2,0.6,0.2
				c0.9,0.4,1.6,1.1,1.8,2c0.3,1.1-0.1,2-0.7,2.7c0.5,0.3,0.9,0.8,1,1.4c0.3,1.2,0.4,2.5,0.2,3.7c0.6,0.7,1.3,1.5,1.9,2.2
				c0.6,0.7,1.4,1.6,1.6,2.5c0.5,0.1,0.9,0.2,1.4,0.3c0.6-0.1,1.2-0.2,1.8-0.3c6.2-1,13.2-2.2,19.1,0.3c1.1,0.5,0.8,1.9,0,2.5
				c-3.9,2.8-9.6,2-14,1.5c-2.4-0.3-4.7-0.6-7-1.1c-0.6,0.1-1.2,0.2-1.8,0.3c0.1,0.1,0.1,0.2,0.2,0.3c2.5,0.8,4.8,2.1,6.7,3.8
				c2.4,2.1,3.8,4.9,4.9,7.8c0,0,0,0.1,0,0.1c0.3,0.2,0.6,0.4,1,0.7c0,0,0-0.1,0-0.1c0-0.2,0.1-0.4,0.3-0.3c0.2,0.2,0.5,0.3,0.7,0.5
				c0.1,0.1,0.2,0.2,0.3,0.3c0.5-1,1.2-2,2-2.9c3-3.2,7.5-3.7,11.6-3c3.3,0.6,6.5,2.3,9.3,4.5c1.4-0.6,3.1-1,4.8-0.9
				c4.9,0.3,8.5,3,11.2,6.7c1.1-3.8,3.4-6.9,7.8-8.5c3-1.1,6.5,0.2,8.7,2.3c0.1,0.1,0.1,0.1,0.2,0.2c0.9-3,2.6-5.6,5.3-7.2
				c2.7-1.6,5.8-1.6,8.6-0.7c3.2-2.2,7.9-1.4,11,0.8c0.5-0.4,1-0.8,1.6-1.1c2.7-1.7,5.7-1.4,8,0c0.3-3.1,0.6-6.1,1.3-9.2
				c0.9-3.8,2.3-7.6,3.9-11.1c1.2-2.8,3-5.2,4.8-7.7c0.1-0.2,0.3-0.4,0.4-0.6c-0.2-0.3-0.3-0.5-0.4-0.8c-0.2-0.6-0.2-1.2-0.1-1.8
				c-0.2-0.2-0.3-0.5-0.4-0.7c-0.4-1.4-0.2-2.8,0.1-4.2c-1-1.2-0.6-3.5,1.2-4.1c0.1,0,0.1-0.1,0.2-0.1c0.1,0,0.2-0.1,0.3-0.1
				c0.4-0.1,0.7-0.1,1-0.1c0.2,0,0.4,0,0.7,0.1c0.5,0,1,0,1.5-0.1c0.5-0.1,1,0,1.5,0.1c0.3,0,0.8,0,0.9,0c0.1,0,0.2,0,0.3,0
				c0.5,0,1,0,1.6,0.1c0,0,0,0,0,0c0.3,0,0.6,0,0.9,0c0.1,0,0.1,0,0.2,0c0,0-0.1,0-0.1,0c0.1,0,0.2,0,0.2,0c0,0,0.1,0,0.1,0
				c0.1,0,0.1,0,0.2,0l-0.1,0c0.1,0,0.3,0,0.4,0c0,0,0.7-0.1,0.9-0.1c0.1,0,0.3,0,0.4,0c1.1-0.2,2.2-0.2,3.3,0L861,445z"/>
			<path class="st102" d="M743.4,480.8c-0.1,0-0.1,0-0.2,0c1.8,0.2,3.7,0.2,5.5,0C747,480.6,745.1,480.7,743.4,480.8z"/>
			<path class="st103" d="M836.5,395.5c-14.1-13.2-32.4-20.4-51.7-20.4c-41.7,0-75.6,33.9-75.6,75.6c0,4.4,0.4,8.5,1.2,12.7
				c0,0,0.1,0,0.1,0l0,0c0,0,0,0-0.1,0l0.1,0l10.7-0.7c0.2,0,0.3,0,0.5,0l1.4-0.1c-0.8-3.9-1.2-7.9-1.2-11.9
				c0-34,28.2-61.7,62.9-61.7c15.8,0,30.9,5.8,42.6,16.3c11.5,10.4,18.6,24.4,20.1,39.6l12.8,0.1
				C858.8,426.1,850.4,408.5,836.5,395.5z"/>
		</g>
		<g id="left_paw_1_">
			<path id="left_paw" class="st88" d="M700.4,455c-8.8-6.6-12.8-18.8-10.1-29.5c1.1-4.4,3.3-8.5,5.7-12.5c1.9-3.1,4-6.2,7.2-8
				c2.4-1.3,5.1-1.8,7.8-2.2c4.4-0.6,8.9-1.1,13.3-0.4s8.8,2.4,11.8,5.6c3.2,3.3,4.8,7.9,5,12.5c0.1,1.9,0,3.8-0.3,5.7
				c-0.4,2.7-1.1,5.3-1.9,7.8c-0.8,2.5-1.8,5-3,7.3c-0.8,1.4-1.6,2.8-2.7,4c-3.5,4.4-8.6,7.4-13.7,9.7c-2.4,1.1-4.9,2-7.6,2.2
				C707.4,457.5,702.5,456.5,700.4,455z"/>
			<path class="st104" d="M720.4,413.7c0.4-1.1,5.3-2.1,8.6-1.3c5.2,1.4,9.6,5.8,12,10.6"/>
			<path class="st104" d="M718.6,424.6c0.4-1.1,3.9-2.1,7.4-1.2c5.2,1.3,10.8,4.9,13.2,9.6"/>
		</g>
		<g id="right_paw_1_">
			<path id="right_paw" class="st88" d="M852.5,388c-6.5-4.4-17.3-6.2-17.3-6.2c-6.5-0.2-13.3-0.4-18.6,3.3
				c-5.1,3.6-8.2,9.6-8.7,15.8s1.4,12.4,4.8,17.6c3.3,5.2,8.1,9.5,13.3,12.8c3.9,2.5,8.2,4.6,12.8,4.6c3.3,0,6.6-1.1,9.7-2.3
				c3.1-1.2,6.2-2.6,8.6-4.9c4.4-4.3,5.3-9.4,5.4-15.6c0.1-4.4-0.1-9.7-1.5-13.8S855.4,390,852.5,388z"/>
			<path class="st104" d="M810.2,413.7c2.6-9.1,11.1-16.5,20.6-17.6"/>
			<path id="right_paw_finger" class="st104" d="M819,425.9c0.7-7.8,7.5-14.9,15.6-16.8"/>
		</g>
		<g id="hat">
			<path class="st91" d="M820,237.2c0,2.6-21.3,5.2-48.1,5.2c-26.8,0-50-2.8-50-5.3c0-1.2,1.1-4.2,4.7-3.9c2.7,0.2,3.5-4.6,3.5-10.5
				c0-15.5,20.2-29.6,39.2-29.6c19,0,36.1,7.9,41.3,26.6c1.8,6.6,1.2,12.9,3.8,13.2C820.3,233.7,820,237.2,820,237.2z"/>
			<path class="st105" d="M784,228.6c-0.8-5.5-6.1-33.6-2.8-33.6s20.4,6.9,26.1,17c3.4,6,4.7,17.4,4.7,17.4
				C808.6,229.9,784.4,231.5,784,228.6z"/>
			<path class="st105" d="M730.9,229.7c0,0,0.7-13,3.2-18c5.4-10.2,22.7-17,26.1-17c3.4,0-1.9,28-2.8,33.6
				C757,231.2,734.2,230.1,730.9,229.7z"/>
			<path class="st105" d="M770.9,242.3c-20.3,0-47.6-3-48.4-4.9c-0.5-1.4,0.2-2.8,1.3-3.3c6.3-2.6,32.8,5.5,40.8-2
				c0.6-0.5,2.5-38.5,3.2-38.5c0.2,0,5.8,0.2,5.8,0.2c0.8,8.1,2.5,38.2,4.2,38.7c19.5,5.6,36.9-3.9,41.9,3.6
				C822.6,240.3,791.3,242.3,770.9,242.3z"/>
		</g>
	</g>
	<g id="Sunglasses">
		<polygon class="st106" points="755,271.3 743,274.9 730.9,271.3 724.6,257.9 724.6,243.9 745.4,240.6 765.7,246.2 763.3,261.1 		
			"/>
		<polygon class="st106" points="787,271.4 798.9,275.1 811.1,271.4 817.4,258 817.4,244 796.5,240.8 776.3,246.3 778.7,261.3 		"/>
		<path class="st107" d="M823,243.1c0,0-8.2-2.9-11.1-3.2c-7-0.8-20.6-0.5-27.9,2.2c-3.8,1.4-12.1,1.9-16.1,1.8
			c-6.7-0.2-15.1-3.5-21.8-4.2c-5.9-0.6-24.4,1.9-27.9,3.2c-1.4,0.5-0.4,4.9,0,6c0.4,1.2,3.7,2.6,4.1,6.1c0.7,5.1,3.3,13.1,6.8,16.7
			c2.6,2.7,11.5,4.2,15.3,4.2c9.4,0,12.1-3.6,15.3-6.7c2.6-2.5,3.9-5.2,5.4-8.5c0.5-1.2,2.2-7.8,3.4-8.4c1.3-0.7,5.3-1,5.9,0.4
			c2,4.3,5.3,14.4,9.3,17.7c3.1,2.6,7.7,5.5,16.5,5.5c6.1,0,10.9-3.7,13.2-5.8c2-1.8,3.8-6.5,4.8-9.7c0.7-2.2,1.7-10.9,4.7-11.8
			C824.3,248.2,823,243.1,823,243.1z M761.9,261.3c-1.2,2.3-3.8,6.9-5.9,8.5c-2.4,1.8-8.5,3.3-11.5,3.6c-3.3,0.3-10.1-0.9-12.8-2.9
			c-2.5-1.9-4.5-8.2-5.2-11.2c-0.7-3-2.3-9.9-0.4-12.4c2.9-3.8,13.7-5.5,18.4-5c5.2,0.6,16.7,1.8,19.2,6.4
			C765.3,251.1,763.4,258.4,761.9,261.3z M815.5,259.2c-0.7,3-2.8,9.4-5.2,11.2c-2.6,2-9.5,3.2-12.8,2.9c-3-0.3-9.1-1.8-11.5-3.6
			c-2.1-1.5-4.7-6.2-5.9-8.5c-1.5-3-3.4-10.2-1.8-13.1c2.5-4.6,14-5.8,19.2-6.4c4.7-0.5,15.6,1.3,18.4,5
			C817.7,249.3,816.2,256.2,815.5,259.2z"/>
	</g>
	<g id="Layer_27">
	</g>
	<g id="Exterior_1_">
		<path id="left_tire" class="st108" d="M249.5,777.3h76.7c13.8,0,25.2,11.3,25.2,25.2v98.9c0,13.8-11.3,25.2-25.2,25.2h-76.7
			c-13.8,0-25.2-11.3-25.2-25.2v-98.9C224.3,788.6,235.7,777.3,249.5,777.3z"/>
		<path id="right_tire" class="st108" d="M937.3,770.6h63.2c13.8,0,25.2,11.3,25.2,25.2v98.9c0,13.8-11.3,25.2-25.2,25.2h-63.2
			c-13.8,0-25.2-11.3-25.2-25.2v-98.9C912.1,781.9,923.5,770.6,937.3,770.6z"/>
		<path id="right_rear_1_" class="st109" d="M146.3,399.5c5.1,11.6,51.7,15.5,66.7,19c2.7,0.6,36.6,14.2,38.5,14.2
			c1.4,0,3.7-20.7,3.7-20.7s-22.8-6.9-22.4-9.1c2.5-12.7,1.7-56.8-4-60c-10.9-6.3-52.6-7.4-62.5-4
			C141.6,347.3,143.7,393.6,146.3,399.5z"/>
		<path id="right_rear" class="st109" d="M1090.2,399.5c-5.1,11.6-51.7,15.5-66.7,19c-2.7,0.6-36.6,14.2-38.5,14.2
			c-1.4,0-3.7-20.7-3.7-20.7s22.8-6.9,22.4-9.1c-2.5-12.7-1.7-56.8,4-60c10.9-6.3,52.6-7.4,62.5-4
			C1094.9,347.3,1092.7,393.6,1090.2,399.5z"/>
		<path id="under_under_hood" class="st110" d="M1022.7,809.5c-18.4,18.4-296.2,21-395.1,21.1c-99.6,0-378.3-5.4-398.1-21.1
			c-16-12.6-15.8-212.9-15.8-212.9l821.8-2.1C1035.6,594.5,1036.5,795.8,1022.7,809.5z"/>
		<path id="under_hood" class="st110" d="M1036.5,566.2c0,99-13.7,104.3-411.7,104.3c-406.1,0-411.1,7.3-411.2-91.2
			c0-26.8,31.2-56.7,31.2-56.7h760C1004.7,522.6,1036.5,542,1036.5,566.2z"/>
		<path class="st110" d="M987.2,437.5c-7.9-48.3-43.5-253.4-82.2-279.8c-43.9-29.9-243.4-32.4-292.3-34.4
			c-48.9-2-257.2,9.3-292.3,34.4c-35.1,25.1-70.8,283.5-70.8,283.5l-4.8,98.3c0,0,144.5,66.3,382.9,59c260-8,377-59,377-59
			L987.2,437.5z M351,195.5c129.7-58.2,436.1-63.9,535.7,0c26.5,17,75.8,201.9,64,209.5c-71.1,45.5-577.3,44.7-656.9-12.3
			C275.3,379.6,323.3,207.9,351,195.5z"/>
		<path id="bottom_grate" class="st111" d="M843.3,766.3c-60.7,11-132.3,9.1-215.6,11c-83.8,2-155.5,7.9-214.9-6.7
			c-18.4-4.5-59.5-44-49.2-60.8c7.1-11.5,517.9-14,528.5-2.3C904.9,721.6,861.6,762.9,843.3,766.3z"/>
		<path id="top_grate" class="st107" d="M833,571.2c0,0-125.8,16.4-208.3,16.8c-73.6,0.3-207.5-12.9-207.5-12.9l-5.1-8
			c0,0,159.4-6.3,212.6-6.8c53.5-0.5,213.9,2.9,213.9,2.9L833,571.2z"/>
		<path id="middle_grate" class="st112" d="M473,615.4c58.4,10.4,93.5,7.4,145.7,6.6c60.1-1,123.1,0.4,161.6-10.3
			c8.1-2.3,48-16.5,56.9-25c4.2-4.1,7.8-7.6,7.8-7.6s-127.6,16-226.2,16.7c-80.5,0.6-207.5-13.5-207.5-13.5s-6.9,6-1.2,9.4
			C423.6,599.8,460.8,613.2,473,615.4z"/>
		<path id="left_headlight" class="st113" d="M263.3,471.6c54.3-17.3,119.4,53.4,144.8,88.5c6.6,9.1,19.5,33.4,14.6,38.2
			c-10.8,10.6-180.7-22.7-180.7-52C242.1,538.8,245.7,477.3,263.3,471.6z"/>
		<path id="left_headlight_1_" class="st113" d="M980.5,469.4c-54.3-17.3-119.4,53.4-144.8,88.5c-6.6,9.1-19.5,33.4-14.6,38.2
			c10.8,10.6,183.2-28,183.2-57.2C1004.3,531.3,998.1,475.1,980.5,469.4z"/>
	</g>
</g>
<g id="Layer_51">
</g>
</svg>
