<?xml version="1.0" encoding="utf-8"?>
<!-- Generator: Adobe Illustrator 25.2.3, SVG Export Plug-In . SVG Version: 6.00 Build 0)  -->
<svg version="1.1" id="Layer_1" xmlns="http://www.w3.org/2000/svg" xmlns:xlink="http://www.w3.org/1999/xlink" x="0px" y="0px"
	 viewBox="0 0 1927 1080" style="enable-background:new 0 0 1927 1080;" xml:space="preserve">
<style type="text/css">
	.st0{fill:#CBE5F5;}
	.st1{fill:#E6F3FA;}
</style>
<g id="Layer_2">
</g>
<g id="Layer_3">
	<rect class="st0" width="1927" height="1080"/>
</g>
<g id="Layer_4">
	<path class="st1" d="M852,328H308c0,0,5.7-52.8,19-62c19.6-13.5,95,6,95,6s66.9-70.1,95.7-66c29.6,4.2,81.3,73,81.3,73
		s96.9-74.9,132.8-73c26.3,1.4,62.2,48.8,80.2,68C823.5,286.3,852,328,852,328z"/>
	<path class="st1" d="M1782,628h-658V420c0,0,76.5-5.2,101.3,0c42.4,8.9,158.7,70,158.7,70s153-80.3,206.5-70
		c34.7,6.7,107.5,92,107.5,92s55-103.3,84-92C1830.5,438.8,1782,628,1782,628z"/>
	<polygon class="st1" points="819,884 116,884 116,703 273,763 417.2,703 596,778 724.8,703 804,740 	"/>
</g>
</svg>
