<?xml version="1.0" encoding="utf-8"?>
<!-- Generator: Adobe Illustrator 25.2.1, SVG Export Plug-In . SVG Version: 6.00 Build 0)  -->
<svg version="1.1" id="Layer_1" xmlns="http://www.w3.org/2000/svg" xmlns:xlink="http://www.w3.org/1999/xlink" x="0px" y="0px"
	 viewBox="0 0 427 449.2" style="enable-background:new 0 0 427 449.2;" xml:space="preserve">
<style type="text/css">
	.st0{fill:#F89590;stroke:#15023E;stroke-width:2;stroke-miterlimit:10;}
	.st1{fill:#F9C2C5;stroke:#15023E;stroke-width:2;stroke-miterlimit:10;}
	.st2{fill:#F9C2C5;stroke:#15023E;stroke-width:2;stroke-linejoin:round;stroke-miterlimit:10;}
	.st3{fill:#EE4776;stroke:#15023E;stroke-width:2;stroke-miterlimit:10;}
	.st4{opacity:0.68;fill:#FFFFFF;}
	.st5{fill:none;stroke:#15023E;stroke-width:3;stroke-miterlimit:10;}
	.st6{fill:none;stroke:#15023E;stroke-width:3;stroke-linecap:round;stroke-miterlimit:10;}
	.st7{display:none;}
	.st8{display:inline;fill:none;stroke:#15023E;stroke-width:2;stroke-miterlimit:10;}
	.st9{display:inline;fill:#9C153F;stroke:#15023E;stroke-width:2;stroke-linejoin:round;stroke-miterlimit:10;}
	.st10{fill:#FFFFFF;stroke:#15023E;stroke-width:2;stroke-linejoin:round;stroke-miterlimit:10;}
	.st11{fill:#4B6859;stroke:#15023E;stroke-width:2;stroke-linejoin:round;stroke-miterlimit:10;}
	.st12{fill:#FFFFFF;}
	.st13{fill:#FFFFFF;stroke:#15023E;stroke-width:2;stroke-miterlimit:10;}
	.st14{fill:#4B6859;stroke:#15023E;stroke-width:2;stroke-miterlimit:10;}
</style>
<path id="right_outter_ear_2_" class="st0" d="M8.5,53.4C14.3,21.8,49.3-4,80.9,1.8c9.9,1.8,24.9,5.7,32.2,11.6
	c16.1,13,17.5,39.9,13.5,61.6c-5.8,31.6-32.8,55.1-64.4,49.3c-13.8-2.5-33.9-9.3-42.3-19.2C9.1,92.3,5.2,71.3,8.5,53.4z"/>
<path id="left_outter_ear_1_" class="st0" d="M425.1,133.7c5.8-31.6-17.8-68.2-49.4-74c-9.9-1.8-25.3-3.5-34.3-0.6
	c-19.6,6.4-30.5,31.1-34.5,52.8c-5.8,31.6,11.1,63.1,42.7,68.9c13.8,2.5,35,3.4,46.4-2.9C410.7,169.8,421.9,151.5,425.1,133.7z"/>
<path id="left_inner_ear_2_" class="st1" d="M38.9,64.7c4.7-17.5,26.6-33.3,47.1-27.6c20,5.6,23.8,36.8,21.4,49.7
	c-3.3,17.8-15,27.8-35.9,24C46.5,106.2,32.9,86.5,38.9,64.7z"/>
<path id="right_inner_ear_2_" class="st1" d="M391.1,131.2c1.8-18.1-13-40.6-34.2-42.5c-20.7-1.9-35.3,26-37.7,38.9
	c-3.3,17.8,4.1,31.3,25,35.1C369.2,167.3,388.9,153.7,391.1,131.2z"/>
<path id="Head_2_" class="st0" d="M367.6,291.1c-10.7,58.3-41,96.1-87.5,123.3c-36.5,21.3-83.9,40-128,31.9
	c-48.3-8.9-87.6-43-112.9-81.8C10.9,321.1-6.1,278.4,3.8,224.4c8.3-45.5,31.6-84.4,63.5-112.2c41-35.7,96.4-53.2,152.9-42.8
	c61.4,11.3,106,53.6,130.1,107.8C365.7,211.8,375.1,250.6,367.6,291.1z"/>
<path class="st2" d="M244.6,150.2c8.4-4.2,38.6,6.1,46.7,16.2c2.5,3.1,11.7,19.3,11.7,19.3s-7.2-10.7-25.3-18
	c-8.5-3.4-19.5-3.6-33.2-6.1C235.2,159.9,242,151.5,244.6,150.2z"/>
<path class="st2" d="M167.4,134.1c-9.5-8.8-34.8-5.5-46,1.1c-3.5,2-13.8,12.7-13.8,12.7s8.3-9.3,28.6-10c7.6-0.3,16,2.9,27.7,5.1
	C173.1,144.7,169.5,136.1,167.4,134.1z"/>
<path id="Muzzle_2_" class="st2" d="M104.1,301.9c1.3-9.7,7-26.4,18.2-36.7c7.3-6.7,16.8-8.4,25.5-14.4c29.8-20.6,30-59.4,50.3-55.7
	c22.2,4.1,8.2,32.7,26.1,65.9c5.7,10.6,18.7,20.4,24.5,33.1c5.1,11.2,1.1,29.1-0.9,36.1c-10.5,36.3-47.5,71.5-86.2,64.3
	C128.4,388.5,98.9,341.1,104.1,301.9z"/>
<g id="Nose_1_">
	<path id="Nose_4_" class="st3" d="M156.6,265.7c-2.2-19.5,19.6-15.5,29.2-13.7c9.7,1.8,32.9,7.9,26.5,22
		c-4.7,10.4-11.9,34.1-34.1,30C157.9,300.3,157.8,277.1,156.6,265.7z"/>
	<path id="highlight_2_" class="st4" d="M175.7,260.7c-3.4-2.5-4.9-4.7,2.9-5.2c6.6-0.4,23.7,6.3,23.3,8.1
		C201.8,263.6,181.3,264.9,175.7,260.7z"/>
</g>
<g id="Closed_mouth_1_">
	<line class="st5" x1="179.6" y1="303" x2="174.5" y2="330.7"/>
	<path class="st6" d="M174.7,329.7c0,0,3.3,13.5,25.7,16.2c14.9,1.8,25.9-5.8,25.9-5.8"/>
	<path class="st6" d="M174.7,329.7c0,0-7.6,10.1-29.7,6c-13-2.4-25.5-17.1-25.5-17.1"/>
</g>
<g id="open_mouth_2_" class="st7">
	<line class="st8" x1="178" y1="305" x2="172.9" y2="332.7"/>
	<path class="st9" d="M163.8,372.1c-40.8-7.5-50.6-57-50.6-57s13.9,17.8,30.5,20.9c14.8,2.7,29.4-4.2,29.4-4.2s7.5,10.9,26.3,12.5
		c8.4,0.7,32.6-11.2,32.6-11.2S204.4,379.5,163.8,372.1z"/>
</g>
<g id="right_eye_1_">
	<path id="left_eye_4_" class="st10" d="M295.6,230.2c-1-15.5-11.5-30.7-30-34.1c-14.8-2.7-31,12.9-33.8,28.2
		c-2.7,14.8-7.7,32.5,24.1,35c17.6,1.4,26.4-2.4,31.9-7.5C294.7,245.3,296.1,237.9,295.6,230.2z"/>
	
		<ellipse id="iris_4_" transform="matrix(0.1804 -0.9836 0.9836 0.1804 -17.7986 451.4693)" class="st11" cx="262" cy="236.4" rx="23.5" ry="20.7"/>
	
		<ellipse id="pupil_x27__4_" transform="matrix(0.1804 -0.9836 0.9836 0.1804 -17.732 452.8113)" cx="262.9" cy="237" rx="17.4" ry="13.1"/>
	<circle id="big_sparkle_4_" class="st12" cx="266.2" cy="227.5" r="2.5"/>
	<circle id="lil_sparkle_4_" class="st12" cx="259.8" cy="233.1" r="3.1"/>
</g>
<g id="Left_eye_2_">
	<path id="left_eye_1_" class="st13" d="M95.4,193.4c6.4-14.2,21.7-24.7,40.2-21.3c14.8,2.7,24.4,23,21.6,38.3
		c-2.7,14.8-4.3,33.1-35,24.1c-16.9-5-23.8-11.6-27.2-18.3C90.9,207.9,92.2,200.5,95.4,193.4z"/>
	
		<ellipse id="iris_1_" transform="matrix(0.1804 -0.9836 0.9836 0.1804 -105.621 295.6559)" class="st14" cx="124.6" cy="211.2" rx="23.5" ry="20.7"/>
	
		<ellipse id="pupil_x27__1_" transform="matrix(0.1804 -0.9836 0.9836 0.1804 -106.7346 294.9039)" cx="123.6" cy="211.5" rx="17.4" ry="13.1"/>
	<circle id="big_sparkle_1_" class="st12" cx="129.6" cy="202.4" r="2.5"/>
	<circle id="lil_sparkle_1_" class="st12" cx="123.2" cy="208.1" r="3.1"/>
</g>
</svg>
